<?xml version="1.0"?>
<svg id="Capa_2" data-name="Capa 2" xmlns="http://www.w3.org/2000/svg" xmlns:xlink="http://www.w3.org/1999/xlink" viewBox="0 0 1536.41 1050.49">
  <defs>
    
    <linearGradient id="Degradado_sin_nombre_360" data-name="Degradado sin nombre 360" x1="225.71" y1="433.32" x2="962.62" y2="165.1" gradientUnits="userSpaceOnUse">
      <stop offset="0" stop-color="#55a300"></stop>
      <stop offset=".2" stop-color="#50a001"></stop>
      <stop offset=".43" stop-color="#419a06"></stop>
      <stop offset=".67" stop-color="#2a8f0e"></stop>
      <stop offset=".93" stop-color="#098119"></stop>
      <stop offset=".99" stop-color="#007d1d"></stop>
      <stop offset="1" stop-color="#007d1d"></stop>
    </linearGradient>
    <linearGradient id="Degradado_sin_nombre_304" data-name="Degradado sin nombre 304" x1="771.05" y1="-45.72" x2="1008.93" y2="813.23" gradientUnits="userSpaceOnUse">
      <stop offset="0" stop-color="#4abd1b"></stop>
      <stop offset=".34" stop-color="#55a300"></stop>
      <stop offset=".59" stop-color="#389609"></stop>
      <stop offset=".99" stop-color="#007d1d"></stop>
      <stop offset="1" stop-color="#007d1d"></stop>
    </linearGradient>
    <linearGradient id="Degradado_sin_nombre_66" data-name="Degradado sin nombre 66" x1="376.59" y1="334.32" x2="714.34" y2="334.32" gradientUnits="userSpaceOnUse">
      <stop offset="0" stop-color="#fff"></stop>
      <stop offset="1" stop-color="#fff" stop-opacity="0"></stop>
    </linearGradient>
    <linearGradient id="Degradado_sin_nombre_316" data-name="Degradado sin nombre 316" x1="515.42" y1="754.92" x2="612.02" y2="37.71" gradientUnits="userSpaceOnUse">
      <stop offset="0" stop-color="#fff"></stop>
      <stop offset=".82" stop-color="#fff" stop-opacity="0"></stop>
    </linearGradient>
    <linearGradient id="Degradado_sin_nombre_66-2" data-name="Degradado sin nombre 66" x1="665.3" y1="-132.71" x2="933.52" y2="801.28" xlink:href="#Degradado_sin_nombre_66"></linearGradient>
    <linearGradient id="Degradado_sin_nombre_66-3" data-name="Degradado sin nombre 66" x1="665.3" y1="-132.71" x2="933.52" y2="801.28" xlink:href="#Degradado_sin_nombre_66"></linearGradient>
    <linearGradient id="Degradado_sin_nombre_66-4" data-name="Degradado sin nombre 66" x1="668.02" y1="381.15" x2="1121.37" y2="381.15" xlink:href="#Degradado_sin_nombre_66"></linearGradient>
    <linearGradient id="Degradado_sin_nombre_66-5" data-name="Degradado sin nombre 66" x1="668.02" y1="381.15" x2="1121.37" y2="381.15" xlink:href="#Degradado_sin_nombre_66"></linearGradient>
    <linearGradient id="Degradado_sin_nombre_81" data-name="Degradado sin nombre 81" x1="444.74" y1="289.28" x2="501.08" y2="690.16" gradientUnits="userSpaceOnUse">
      <stop offset="0" stop-color="#000"></stop>
      <stop offset="1" stop-color="#fff"></stop>
    </linearGradient>
    <mask id="mask" x="242.63" y="290.7" width="471.71" height="337.82" maskUnits="userSpaceOnUse">
      <path class="cls-8" d="M714.34,433.57l-29.48-142.87c-90.9,21.52-192.17,34.96-269.92,42.98l-27.68,135.63-13.21,37.01c-21.12,59.17-65.63,103.35-127,114.98-.45.08-.97.18-1.55.29-4.17.78-3.62,6.93.62,6.93h276.11l6.15-.28c173.87-7.42,185.96-194.67,185.96-194.67Z"></path>
    </mask>
    <linearGradient id="Degradado_sin_nombre_66-6" data-name="Degradado sin nombre 66" x1="444.74" y1="289.28" x2="501.08" y2="690.16" xlink:href="#Degradado_sin_nombre_66"></linearGradient>
    <clipPath id="clippath">
      <path class="cls-1" d="M1183.02,628.48c-80.89,1.38-166.27,3.19-247.26,3.59-11.81-.25-25.83.46-37.45-.78-29.19-2.96-57.83-12.07-83.18-26.89-48.45-27.98-79.07-75.97-92.7-129.38-19.98-93.89-52.18-257.9-71.48-351.67,0,0-.61-3.03-.61-3.03l-.15-.76-.08-.38c-.44-2.6-.92-5.25-1.49-7.83-7.77-34.13-22.93-71.69-52.7-92.09-10.98-7.36-23.92-11.74-37.13-12.2-6.43.17-12.95.39-19.25,1.9-19.36,4.26-37.18,15.25-49.52,30.77-12.89,15.65-19.32,35.18-23.5,54.81-1.45,6.04-4.24,18.01-5.67,24.03-1.49,7-10.56,52.39-12.27,60.58-18.2,89.68-40.69,201.6-58.99,290.79,0,0-.03.12-.03.12-.03.11-.06.24-.1.35l-9.54,25.76c-2.25,6.07-4.86,13.35-7.38,19.35-2.62,6.36-5.71,12.77-8.95,18.83-22.26,41.4-58.54,72.92-104.62,84.41-4.4,1.12-8.99,2-13.46,2.78,22.39-4.48,43.74-13.76,62.13-27.28,5.45-4.04,10.74-8.45,15.63-13.13,15.56-14.85,28.1-32.76,37.41-52.12,2.42-4.99,4.74-10.37,6.71-15.55,2.36-6.02,4.62-13.16,6.75-19.34,0,0,8.8-26.02,8.8-26.02l-.13.47c17.7-89.18,40.87-201.32,58.85-290.91,1.72-7.92,10.73-53.37,12.28-60.6,1.41-5.87,4.27-18.2,5.69-24.1,4.36-20.55,11.3-41.19,24.89-57.66,14.68-18.44,36.52-30.99,59.85-34.39,2.12-.35,4.31-.49,6.47-.6,3.36-.12,6.69-.43,10.09-.27,13.83.97,27.45,5.58,38.93,13.35,33.16,22.44,50.44,66.87,57.31,104.96,0,0,.15.76.15.76l.61,3.03,19.61,96.94c7.41,36.54,42.34,209.13,48.94,242.27,12.33,58.69,43.65,111.01,97.53,139.94,23.13,12.53,48.84,20.32,75.01,22.97,8.47.96,16.18.63,24.33.68,11.57-.12,25.48-.12,37.1,0,72.47.94,150.25,2.19,222.6,3.54h0Z"></path>
    </clipPath>
    <clipPath id="clippath-1">
      <rect class="cls-1" x="240.49" y="-5" width="947.53" height="642.08"></rect>
    </clipPath>
  </defs>
  <g id="Capa_1-2" data-name="Capa 1">
    <g>
      <g>
        <path class="cls-4" d="M54.23,989.14c0,19-10.04,28.5-30.08,28.5H4.35l-4.35,27.31c3.17,1.32,7.05,2.38,11.67,3.17,4.61.79,9.43,1.39,14.45,1.78,5.01.4,9.37.59,13.06.59,17.42,0,30.87-5.08,40.38-15.24,9.5-10.15,14.25-25.13,14.25-44.92v-222.45h-39.58v221.26Z"></path>
        <path class="cls-4" d="M275.49,770.84c-2.64-1.98-5.68-2.96-9.11-2.96h-40.38c-3.43,0-6.46.98-9.1,2.96-2.64,1.98-4.49,4.55-5.54,7.72l-86.29,271.93h40.77l26.1-87.87h108.1l26.1,87.87h41.16l-86.29-271.93c-1.05-3.17-2.9-5.74-5.54-7.72ZM201.7,929.77l32.22-108.45c1.32-3.96,2.5-7.92,3.56-11.88,1.05-3.96,2.11-7.65,3.17-11.09h11.08c1.06,3.43,2.11,7.13,3.17,11.09,1.05,3.96,2.11,7.92,3.17,11.88l32.22,108.45h-88.58Z"></path>
        <path class="cls-4" d="M463.89,1017.24c-8.71,0-15.18-2.04-19.4-6.14-4.23-4.09-6.33-10.35-6.33-18.8v-224.43h-39.19v230.37c0,15.04,4.36,27.51,13.06,37.41,8.71,9.89,23.09,14.84,43.15,14.84,18.2,0,36.42-.14,54.62-.4,18.2-.26,36.15-1.05,53.83-2.38l-1.98-30.48h-97.76Z"></path>
        <polygon class="cls-4" points="623.01 767.88 536.33 767.88 536.33 801.91 623.01 801.91 623.01 1050.49 662.59 1050.49 662.59 801.91 749.67 801.91 749.67 767.88 662.59 767.88 623.01 767.88"></polygon>
        <path class="cls-4" d="M830.81,806.66c3.69-3.96,9.5-5.94,17.42-5.94h108.85l1.58-30.48c-12.14-.79-24.87-1.39-38.2-1.77-13.32-.4-26.85-.59-40.57-.59h-40.38c-16.36,0-29.36,4.35-38.99,13.06-9.63,8.71-14.58,20.58-14.84,35.63v185.25c.26,14.78,5.21,26.59,14.84,35.42,9.63,8.85,22.63,13.26,38.99,13.26,13.19,0,26.65-.07,40.38-.2,13.71-.14,27.24-.33,40.57-.59,13.32-.26,26.05-.79,38.2-1.58l-1.58-30.08h-108.85c-7.92,0-13.73-2.04-17.42-6.14-3.69-4.09-5.54-10.48-5.54-19.19v-75.61h116.36v-30.47h-116.36v-60.96c0-8.71,1.84-15.05,5.54-19Z"></path>
        <path class="cls-4" d="M1146.48,1014.67c-11.75.66-26.19.99-43.35.99s-30.21-3.3-39.97-9.9c-9.77-6.59-16.7-17.61-20.78-33.04-4.1-15.44-6.14-36.62-6.14-63.53s2.04-48.1,6.14-63.53c4.08-15.43,11.01-26.45,20.78-33.05,9.76-6.59,23.09-9.9,39.97-9.9,10.82,0,20.12.14,27.91.4,7.78.27,15.11.59,21.97.99,6.85.4,14.25.99,22.16,1.78l3.96-29.69c-7.66-2.11-15.05-3.75-22.16-4.94-7.13-1.19-14.92-2.04-23.36-2.57-8.44-.53-18.6-.79-30.48-.79-26.39,0-47.56,4.55-63.52,13.65-15.97,9.11-27.51,23.95-34.64,44.53-7.13,20.58-10.69,48.29-10.69,83.12s3.56,62.54,10.69,83.12c7.13,20.58,18.66,35.43,34.64,44.53,15.96,9.11,37.13,13.66,63.52,13.66,18.21,0,33.45-.73,45.72-2.18,12.27-1.45,24.2-3.89,35.82-7.32l-3.96-29.69c-11.09,1.58-22.5,2.71-34.24,3.37Z"></path>
        <polygon class="cls-4" points="1387.33 883.46 1267 883.46 1267 767.88 1227.42 767.88 1227.42 1050.49 1267 1050.49 1267 916.31 1387.33 916.31 1387.33 1050.49 1427.31 1050.49 1427.31 767.88 1387.33 767.88 1387.33 883.46"></polygon>
        <path class="cls-4" d="M1536.24,783.73c-.13-1.04-.43-2.16-.91-3.33-.51-1.17-1.24-2.36-2.21-3.57s-2.31-2.29-3.97-3.26c-1.66-.95-3.73-1.74-6.19-2.37-2.48-.62-5.46-.95-8.98-.96h-5.83s-3.14-.03-3.14-.03h-1.85s-7.13-.02-7.13-.02c-5.25-.02-9.36.62-12.36,1.91-2.99,1.29-5.25,2.81-6.77,4.56-1.51,1.76-2.46,3.53-2.82,5.31-.39,1.79-.59,3.18-.59,4.17l-.06,17.76v.74l-.05,17.76c0,.99.18,2.38.56,4.17.36,1.79,1.3,3.56,2.79,5.33,1.51,1.76,3.76,3.29,6.74,4.6,2.99,1.31,7.09,1.96,12.35,1.98h4.35s4.71.03,4.71.03h3.98s4.91.03,4.91.03c3.51,0,6.51-.29,8.99-.9,2.46-.61,4.54-1.39,6.21-2.34,1.66-.95,3-2.03,3.99-3.23.99-1.19,1.72-2.39,2.24-3.56.49-1.16.8-2.28.93-3.33.12-1.04.18-1.91.19-2.59l.05-18.13.06-18.13c0-.69-.05-1.55-.16-2.6ZM1530.21,789.82l-.04,14.53v.18l-.05,14.53v.93c0,.86-.12,1.99-.39,3.37-.24,1.39-.89,2.74-1.95,4.02-1.06,1.29-2.66,2.39-4.82,3.32-2.16.91-5.16,1.36-8.99,1.36l-9.34-.03-8.97-.03c-3.82,0-6.81-.49-8.97-1.41-2.16-.94-3.76-2.05-4.8-3.35-1.04-1.29-1.69-2.65-1.93-4.04-.24-1.39-.36-2.51-.36-3.37v-.93s.05-13.88.05-13.88v-1.48l.04-13.88v-.91c0-.86.14-1.99.39-3.39.25-1.38.9-2.72,1.95-4.01,1.05-1.3,2.66-2.4,4.82-3.32,2.16-.91,5.16-1.37,8.98-1.36l9.35.03,8.96.02c3.83.01,6.82.49,8.98,1.41,2.15.94,3.76,2.05,4.81,3.35,1.05,1.29,1.69,2.64,1.92,4.02.26,1.39.37,2.52.36,3.39v.92Z"></path>
        <path class="cls-4" d="M1517.53,788.39c-.99-1.17-2.46-2.19-4.43-3.01-1.96-.84-4.69-1.26-8.14-1.27-3.45-.01-6.18.4-8.14,1.26-1.99.86-3.46,1.85-4.45,2.99-1,1.14-1.61,2.29-1.87,3.46-.24,1.17-.36,2.1-.37,2.78v2.04l-.09,26.93,7.4.02.03-8.06v-.19c0-.86.22-1.57.64-2.12.44-.56.91-.99,1.39-1.29.62-.38,1.3-.64,2.04-.83.42-.12.96-.3,1.58-.54.49-.19,1.06-.39,1.71-.6.65-.22,1.31-.44,1.99-.69l5.04,14.36,7.78.02-5.87-16.86c1.86-.97,3.24-2.14,4.16-3.46.94-1.31,1.49-2.74,1.68-4.29v-.27c.07-.26.11-.59.11-1.03v-.83s.01-2.22.01-2.22c0-.68-.14-1.6-.36-2.78-.25-1.17-.86-2.34-1.85-3.52ZM1512.32,797.17c-.11.68-.4,1.4-.87,2.17-.46.77-1.31,1.37-2.55,1.79-.31.12-.63.25-.98.36-.33.14-.69.25-1.06.36-1.42.49-3.07,1.08-4.95,1.75-1.89.67-3.35,1.19-4.4,1.56l.02-8.33v-.83c0-.49.08-1.05.24-1.67.16-.6.47-1.2.98-1.75.49-.56,1.22-1.03,2.17-1.43.96-.39,2.24-.59,3.84-.59,1.48,0,2.69.16,3.61.47.93.31,1.67.7,2.26,1.16.59.46,1,.96,1.25,1.48.24.53.39,1.04.44,1.53v1.95Z"></path>
      </g>
      <g>
        <path class="cls-6" d="M528.38,628.2l-6.15.28H246.11c-4.24,0-4.79-6.15-.62-6.93.58-.11,1.1-.21,1.55-.29,61.37-11.63,105.87-55.81,127-114.98l13.21-37.01,71.77-351.63,7.66-32.18C485.27,5.38,551.5,1.68,551.5,1.68c0,0,68.43-4.24,92.46,90.39.65,2.55,1.62,5.15,2.15,7.72l68.23,333.74s-12.09,187.25-185.96,194.67Z"></path>
        <path class="cls-7" d="M1182.11,621.62c3.91,1.12,3.16,6.86-.91,6.86h-264.39s-160.8,3.45-192.7-179.01l-67.46-330.98S638.36.97,555.96.97h301.95s91.56-5.23,112.43,92.47l69.71,337.51s23.33,155.6,141.94,190.64c.03.01.07.02.11.03Z"></path>
        <path class="cls-15" d="M714.34,433.53s-12.09,187.25-185.96,194.67l-6.15.28h-145.64c.47-.73,1.25-1.3,2.35-1.51.59-.11,1.12-.21,1.57-.3,62.46-11.84,107.75-56.8,129.24-117.01l13.45-37.67,73.04-357.85,7.79-32.75c3.91-16.85,9.9-30.37,16.93-41.23,9.16,12.68,17.32,29.53,23,51.91.65,2.55.98,5.15,1.51,7.73l68.86,333.74Z"></path>
        <path class="cls-3" d="M714.34,433.53s-12.09,187.25-185.96,194.67l-6.15.28h-145.64c.47-.73,1.25-1.3,2.35-1.51.59-.11,1.12-.21,1.57-.3,62.46-11.84,107.75-56.8,129.24-117.01l13.45-37.67,73.04-357.85,7.79-32.75c3.91-16.85,9.9-30.37,16.93-41.23,9.16,12.68,17.32,29.53,23,51.91.65,2.55,1.62,5.15,2.15,7.73l68.23,333.74Z"></path>
        <path class="cls-12" d="M1026.99,628.48h-111.42c-14.98-.14-161.2-5.95-191.45-179.01l-67.47-330.98S638.36.97,555.96.97h147.74s1.91-.11,5.24,0c19.72.64,89.34,8.87,107.19,92.47l69.72,337.51s23.33,155.6,141.94,190.64c.04.01.07.02.11.03,3.91,1.12,3.16,6.86-.91,6.86Z"></path>
        <path class="cls-10" d="M1026.99,628.48h-110.18s-.43,0-1.24,0c-14.98-.14-161.2-5.95-191.45-179.01l-67.47-330.98S638.36.97,555.96.97h152.97c19.72.64,89.34,8.87,107.19,92.47l69.72,337.51s23.33,155.6,141.94,190.64c.04.01.07.02.11.03,3.91,1.12,3.16,6.86-.91,6.86Z"></path>
        <path class="cls-14" d="M1121.37,588.03c-71.47-17.51-307.91,23.03-381.24-81.88-6.79-16.55-12.28-35.35-16.01-56.68l-56.1-275.2c71.29,5.57,198.17,20.21,331.04,58.21l40.99,198.47s14.88,99.26,81.31,157.08Z"></path>
        <path class="cls-13" d="M1121.37,588.03c-71.47-17.51-307.91,23.03-381.24-81.88-6.79-16.55-12.28-35.35-16.01-56.68l-56.1-275.2c71.29,5.57,198.17,20.21,331.04,58.21l40.99,198.47s14.88,99.26,81.31,157.08Z"></path>
        <g class="cls-2">
          <path class="cls-11" d="M714.34,433.57l-29.48-142.87c-90.9,21.52-192.17,34.96-269.92,42.98l-27.68,135.63-13.21,37.01c-21.12,59.17-65.63,103.35-127,114.98-.45.08-.97.18-1.55.29-4.17.78-3.62,6.93.62,6.93h276.11l6.15-.28c173.87-7.42,185.96-194.67,185.96-194.67Z"></path>
        </g>
        <g class="cls-9">
          <g class="cls-5">
            <image width="1975" height="1339" transform="translate(240.09 -5.41) scale(.48)"></image>
          </g>
        </g>
      </g>
    </g>
  </g>
</svg>