<?xml version="1.0"?>
<svg id="Capa_2" data-name="Capa 2" xmlns="http://www.w3.org/2000/svg" xmlns:xlink="http://www.w3.org/1999/xlink" viewBox="0 0 1042.77 699.67">
  <defs>
    
    <linearGradient id="Degradado_sin_nombre_360" data-name="Degradado sin nombre 360" x1="-18.73" y1="479.65" x2="796.98" y2="182.76" gradientUnits="userSpaceOnUse">
      <stop offset="0" stop-color="#55a300"></stop>
      <stop offset=".2" stop-color="#50a001"></stop>
      <stop offset=".43" stop-color="#419a06"></stop>
      <stop offset=".67" stop-color="#2a8f0e"></stop>
      <stop offset=".93" stop-color="#098119"></stop>
      <stop offset=".99" stop-color="#007d1d"></stop>
      <stop offset="1" stop-color="#007d1d"></stop>
    </linearGradient>
    <linearGradient id="Degradado_sin_nombre_304" data-name="Degradado sin nombre 304" x1="584.92" y1="-50.61" x2="848.24" y2="900.19" gradientUnits="userSpaceOnUse">
      <stop offset="0" stop-color="#4abd1b"></stop>
      <stop offset=".34" stop-color="#55a300"></stop>
      <stop offset=".59" stop-color="#389609"></stop>
      <stop offset=".99" stop-color="#007d1d"></stop>
      <stop offset="1" stop-color="#007d1d"></stop>
    </linearGradient>
    <linearGradient id="Degradado_sin_nombre_66" data-name="Degradado sin nombre 66" x1="148.28" y1="370.07" x2="522.15" y2="370.07" gradientUnits="userSpaceOnUse">
      <stop offset="0" stop-color="#fff"></stop>
      <stop offset="1" stop-color="#fff" stop-opacity="0"></stop>
    </linearGradient>
    <linearGradient id="Degradado_sin_nombre_316" data-name="Degradado sin nombre 316" x1="301.96" y1="835.65" x2="408.88" y2="41.74" gradientUnits="userSpaceOnUse">
      <stop offset="0" stop-color="#fff"></stop>
      <stop offset=".82" stop-color="#fff" stop-opacity="0"></stop>
    </linearGradient>
    <linearGradient id="Degradado_sin_nombre_66-2" data-name="Degradado sin nombre 66" x1="467.86" y1="-146.9" x2="764.76" y2="886.97" xlink:href="#Degradado_sin_nombre_66"></linearGradient>
    <linearGradient id="Degradado_sin_nombre_66-3" data-name="Degradado sin nombre 66" x1="467.86" y1="-146.9" x2="764.76" y2="886.97" xlink:href="#Degradado_sin_nombre_66"></linearGradient>
    <linearGradient id="Degradado_sin_nombre_66-4" data-name="Degradado sin nombre 66" x1="470.87" y1="421.91" x2="972.7" y2="421.91" xlink:href="#Degradado_sin_nombre_66"></linearGradient>
    <linearGradient id="Degradado_sin_nombre_66-5" data-name="Degradado sin nombre 66" x1="470.87" y1="421.91" x2="972.7" y2="421.91" xlink:href="#Degradado_sin_nombre_66"></linearGradient>
    <linearGradient id="Degradado_sin_nombre_81" data-name="Degradado sin nombre 81" x1="223.71" y1="320.22" x2="286.08" y2="763.96" gradientUnits="userSpaceOnUse">
      <stop offset="0" stop-color="#000"></stop>
      <stop offset="1" stop-color="#fff"></stop>
    </linearGradient>
    <mask id="mask" x="0" y="321.78" width="522.15" height="373.95" maskUnits="userSpaceOnUse">
      <path class="cls-7" d="M522.15,479.93l-32.63-158.15c-100.62,23.82-212.72,38.69-298.79,47.57l-30.64,150.14-14.63,40.97c-23.38,65.49-72.64,114.41-140.58,127.28-.49.09-1.07.2-1.71.32-4.62.87-4.01,7.67.69,7.67h305.64l6.81-.31c192.46-8.21,205.85-215.49,205.85-215.49Z"></path>
    </mask>
    <linearGradient id="Degradado_sin_nombre_66-6" data-name="Degradado sin nombre 66" x1="223.71" y1="320.22" x2="286.08" y2="763.96" xlink:href="#Degradado_sin_nombre_66"></linearGradient>
    <clipPath id="clippath">
      <path class="cls-1" d="M1040.94,695.69c-89.54,1.53-184.05,3.54-273.7,3.98-13.07-.28-28.59.51-41.45-.86-32.31-3.27-64.01-13.36-92.07-29.76-53.63-30.97-87.52-84.1-102.62-143.22-22.11-103.93-57.76-285.47-79.13-389.27,0,0-.68-3.35-.68-3.35l-.17-.84-.08-.42c-.48-2.88-1.02-5.81-1.65-8.67-8.6-37.78-25.38-79.35-58.34-101.94-12.15-8.14-26.47-13-41.1-13.5-7.12.18-14.34.44-21.31,2.1-21.43,4.71-41.15,16.88-54.82,34.06-14.26,17.32-21.39,38.94-26.01,60.67-1.61,6.69-4.69,19.94-6.28,26.6-1.65,7.75-11.69,57.99-13.59,67.06-20.14,99.27-45.04,223.16-65.3,321.88,0,0-.03.13-.03.13-.03.13-.07.27-.11.38l-10.56,28.51c-2.49,6.72-5.38,14.78-8.17,21.42-2.9,7.04-6.33,14.14-9.91,20.85-24.65,45.82-64.8,80.71-115.8,93.44-4.87,1.24-9.95,2.21-14.9,3.08,24.78-4.96,48.42-15.24,68.78-30.2,6.04-4.48,11.89-9.35,17.3-14.53,17.23-16.44,31.1-36.27,41.41-57.69,2.68-5.52,5.25-11.48,7.43-17.22,2.62-6.67,5.11-14.57,7.47-21.41,0,0,9.74-28.8,9.74-28.8l-.14.52c19.59-98.71,45.24-222.85,65.14-322.02,1.91-8.76,11.87-59.08,13.59-67.08,1.56-6.5,4.73-20.14,6.29-26.68,4.82-22.75,12.51-45.59,27.55-63.83,16.25-20.41,40.42-34.3,66.25-38.07,2.35-.38,4.77-.54,7.16-.66,3.72-.13,7.4-.47,11.17-.29,15.31,1.07,30.38,6.18,43.09,14.77,36.71,24.84,55.84,74.03,63.44,116.19,0,0,.17.84.17.84l.68,3.35,21.71,107.31c8.2,40.45,46.87,231.5,54.18,268.18,13.65,64.97,48.32,122.88,107.95,154.9,25.6,13.87,54.06,22.49,83.03,25.42,9.37,1.06,17.91.69,26.93.75,12.81-.13,28.2-.13,41.07,0,80.21,1.04,166.32,2.42,246.4,3.92h0Z"></path>
    </clipPath>
    <clipPath id="clippath-1">
      <rect class="cls-1" x="-1.83" y="-5" width="1047.78" height="709.67"></rect>
    </clipPath>
  </defs>
  <g id="Capa_1-2" data-name="Capa 1">
    <g>
      <path class="cls-5" d="M316.3,695.38l-6.81.31H3.85c-4.7,0-5.3-6.8-.69-7.67.65-.12,1.22-.23,1.71-.32,67.93-12.87,117.2-61.78,140.58-127.28l14.63-40.97,79.45-389.23,8.48-35.62C268.58,5.96,341.9,1.86,341.9,1.86c0,0,75.75-4.7,102.35,100.06.72,2.82,1.79,5.7,2.38,8.55l75.52,369.42s-13.38,207.28-205.85,215.49Z"></path>
      <path class="cls-6" d="M1039.93,688.09c4.33,1.23,3.49,7.6-1.01,7.6h-292.66s-177.99,3.82-213.3-198.15l-74.68-366.37S438.04,1.07,346.83,1.07h334.24s101.35-5.79,124.45,102.36l77.17,373.6s25.83,172.24,157.12,211.02c.04.01.08.02.12.04Z"></path>
      <path class="cls-14" d="M522.15,479.89s-13.38,207.27-205.85,215.49l-6.81.31h-161.21c.52-.81,1.38-1.44,2.6-1.67.66-.12,1.24-.23,1.74-.33,69.13-13.1,119.27-62.88,143.06-129.53l14.89-41.7,80.85-396.11,8.62-36.25c4.33-18.65,10.95-33.62,18.74-45.64,10.14,14.04,19.17,32.69,25.46,57.46.71,2.82,1.09,5.7,1.67,8.55l76.23,369.42Z"></path>
      <path class="cls-3" d="M522.15,479.89s-13.38,207.27-205.85,215.49l-6.81.31h-161.21c.52-.81,1.38-1.44,2.6-1.67.66-.12,1.24-.23,1.74-.33,69.13-13.1,119.27-62.88,143.06-129.53l14.89-41.7,80.85-396.11,8.62-36.25c4.33-18.65,10.95-33.62,18.74-45.64,10.14,14.04,19.17,32.69,25.46,57.46.71,2.82,1.79,5.7,2.38,8.55l75.52,369.42Z"></path>
      <path class="cls-11" d="M868.22,695.69h-123.34c-16.58-.15-178.44-6.58-211.92-198.16l-74.68-366.37S438.04,1.07,346.83,1.07h163.53s2.11-.12,5.8,0c21.83.7,98.89,9.82,118.66,102.36l77.17,373.6s25.82,172.24,157.12,211.02c.04.01.08.02.12.03,4.33,1.24,3.49,7.6-1.01,7.6Z"></path>
      <path class="cls-9" d="M868.22,695.69h-121.96s-.47,0-1.37,0c-16.58-.15-178.44-6.58-211.92-198.16l-74.68-366.37S438.04,1.07,346.83,1.07h169.33c21.83.7,98.89,9.82,118.66,102.36l77.17,373.6s25.82,172.24,157.12,211.02c.04.01.08.02.12.03,4.33,1.24,3.49,7.6-1.01,7.6Z"></path>
      <path class="cls-13" d="M972.7,650.91c-79.11-19.38-340.84,25.49-422.01-90.63-7.52-18.32-13.59-39.13-17.72-62.74l-62.09-304.63c78.92,6.17,219.36,22.37,366.44,64.44l45.38,219.69s16.48,109.88,90.01,173.88Z"></path>
      <path class="cls-12" d="M972.7,650.91c-79.11-19.38-340.84,25.49-422.01-90.63-7.52-18.32-13.59-39.13-17.72-62.74l-62.09-304.63c78.92,6.17,219.36,22.37,366.44,64.44l45.38,219.69s16.48,109.88,90.01,173.88Z"></path>
      <g class="cls-2">
        <path class="cls-10" d="M522.15,479.93l-32.63-158.15c-100.62,23.82-212.72,38.69-298.79,47.57l-30.64,150.14-14.63,40.97c-23.38,65.49-72.64,114.41-140.58,127.28-.49.09-1.07.2-1.71.32-4.62.87-4.01,7.67.69,7.67h305.64l6.81-.31c192.46-8.21,205.85-215.49,205.85-215.49Z"></path>
      </g>
      <g class="cls-8">
        <g class="cls-4">
          <image width="2184" height="1480" transform="translate(-2.1 -5.29) scale(.48)"></image>
        </g>
      </g>
    </g>
  </g>
</svg>