<?xml version="1.0"?>
<svg id="Capa_2" data-name="Capa 2" xmlns="http://www.w3.org/2000/svg" xmlns:xlink="http://www.w3.org/1999/xlink" viewBox="0 0 3437.05 699.67">
  <defs>
    
    <linearGradient id="Degradado_sin_nombre_360" data-name="Degradado sin nombre 360" x1="-18.73" y1="479.65" x2="796.98" y2="182.76" gradientUnits="userSpaceOnUse">
      <stop offset="0" stop-color="#55a300"></stop>
      <stop offset=".2" stop-color="#50a001"></stop>
      <stop offset=".43" stop-color="#419a06"></stop>
      <stop offset=".67" stop-color="#2a8f0e"></stop>
      <stop offset=".93" stop-color="#098119"></stop>
      <stop offset=".99" stop-color="#007d1d"></stop>
      <stop offset="1" stop-color="#007d1d"></stop>
    </linearGradient>
    <linearGradient id="Degradado_sin_nombre_304" data-name="Degradado sin nombre 304" x1="584.92" y1="-50.61" x2="848.24" y2="900.19" gradientUnits="userSpaceOnUse">
      <stop offset="0" stop-color="#4abd1b"></stop>
      <stop offset=".34" stop-color="#55a300"></stop>
      <stop offset=".59" stop-color="#389609"></stop>
      <stop offset=".99" stop-color="#007d1d"></stop>
      <stop offset="1" stop-color="#007d1d"></stop>
    </linearGradient>
    <linearGradient id="Degradado_sin_nombre_66" data-name="Degradado sin nombre 66" x1="148.28" y1="370.07" x2="522.15" y2="370.07" gradientUnits="userSpaceOnUse">
      <stop offset="0" stop-color="#fff"></stop>
      <stop offset="1" stop-color="#fff" stop-opacity="0"></stop>
    </linearGradient>
    <linearGradient id="Degradado_sin_nombre_316" data-name="Degradado sin nombre 316" x1="301.96" y1="835.65" x2="408.88" y2="41.74" gradientUnits="userSpaceOnUse">
      <stop offset="0" stop-color="#fff"></stop>
      <stop offset=".82" stop-color="#fff" stop-opacity="0"></stop>
    </linearGradient>
    <linearGradient id="Degradado_sin_nombre_66-2" data-name="Degradado sin nombre 66" x1="467.86" y1="-146.9" x2="764.76" y2="886.97" xlink:href="#Degradado_sin_nombre_66"></linearGradient>
    <linearGradient id="Degradado_sin_nombre_66-3" data-name="Degradado sin nombre 66" x1="467.86" y1="-146.9" x2="764.76" y2="886.97" xlink:href="#Degradado_sin_nombre_66"></linearGradient>
    <linearGradient id="Degradado_sin_nombre_66-4" data-name="Degradado sin nombre 66" x1="470.87" y1="421.91" x2="972.7" y2="421.91" xlink:href="#Degradado_sin_nombre_66"></linearGradient>
    <linearGradient id="Degradado_sin_nombre_66-5" data-name="Degradado sin nombre 66" x1="470.87" y1="421.91" x2="972.7" y2="421.91" xlink:href="#Degradado_sin_nombre_66"></linearGradient>
    <linearGradient id="Degradado_sin_nombre_81" data-name="Degradado sin nombre 81" x1="223.71" y1="320.22" x2="286.08" y2="763.96" gradientUnits="userSpaceOnUse">
      <stop offset="0" stop-color="#000"></stop>
      <stop offset="1" stop-color="#fff"></stop>
    </linearGradient>
    <mask id="mask" x="0" y="321.78" width="522.15" height="373.95" maskUnits="userSpaceOnUse">
      <path class="cls-7" d="M522.15,479.93l-32.63-158.15c-100.62,23.82-212.72,38.69-298.79,47.57l-30.64,150.14-14.63,40.97c-23.38,65.49-72.64,114.41-140.58,127.28-.49.09-1.07.2-1.71.32-4.62.87-4.01,7.67.69,7.67h305.64l6.81-.31c192.46-8.21,205.85-215.49,205.85-215.49Z"></path>
    </mask>
    <linearGradient id="Degradado_sin_nombre_66-6" data-name="Degradado sin nombre 66" x1="223.71" y1="320.22" x2="286.08" y2="763.96" xlink:href="#Degradado_sin_nombre_66"></linearGradient>
    <clipPath id="clippath">
      <path class="cls-1" d="M1040.94,695.69c-89.54,1.53-184.05,3.54-273.7,3.98-13.07-.28-28.59.51-41.45-.86-32.31-3.27-64.01-13.36-92.07-29.76-53.63-30.97-87.52-84.1-102.62-143.22-22.11-103.93-57.76-285.47-79.13-389.27,0,0-.68-3.35-.68-3.35l-.17-.84-.08-.42c-.48-2.88-1.02-5.81-1.65-8.67-8.6-37.78-25.38-79.35-58.34-101.94-12.15-8.14-26.47-13-41.1-13.5-7.12.18-14.34.44-21.31,2.1-21.43,4.71-41.15,16.88-54.82,34.06-14.26,17.32-21.39,38.94-26.01,60.67-1.61,6.69-4.69,19.94-6.28,26.6-1.65,7.75-11.69,57.99-13.59,67.06-20.14,99.27-45.04,223.16-65.3,321.88,0,0-.03.13-.03.13-.03.13-.07.27-.11.38l-10.56,28.51c-2.49,6.72-5.38,14.78-8.17,21.42-2.9,7.04-6.33,14.14-9.91,20.85-24.65,45.82-64.8,80.71-115.8,93.44-4.87,1.24-9.95,2.21-14.9,3.08,24.78-4.96,48.42-15.24,68.78-30.2,6.04-4.48,11.89-9.35,17.3-14.53,17.23-16.44,31.1-36.27,41.41-57.69,2.68-5.52,5.25-11.48,7.43-17.22,2.62-6.67,5.11-14.57,7.47-21.41,0,0,9.74-28.8,9.74-28.8l-.14.52c19.59-98.71,45.24-222.85,65.14-322.02,1.91-8.76,11.87-59.08,13.59-67.08,1.56-6.5,4.73-20.14,6.29-26.68,4.82-22.75,12.51-45.59,27.55-63.83,16.25-20.41,40.42-34.3,66.25-38.07,2.35-.38,4.77-.54,7.16-.66,3.72-.13,7.4-.47,11.17-.29,15.31,1.07,30.38,6.18,43.09,14.77,36.71,24.84,55.84,74.03,63.44,116.19,0,0,.17.84.17.84l.68,3.35,21.71,107.31c8.2,40.45,46.87,231.5,54.18,268.18,13.65,64.97,48.32,122.88,107.95,154.9,25.6,13.87,54.06,22.49,83.03,25.42,9.37,1.06,17.91.69,26.93.75,12.81-.13,28.2-.13,41.07,0,80.21,1.04,166.32,2.42,246.4,3.92h0Z"></path>
    </clipPath>
    <clipPath id="clippath-1">
      <rect class="cls-1" x="-1.84" y="-5" width="1047.78" height="709.67"></rect>
    </clipPath>
  </defs>
  <g id="Capa_1-2" data-name="Capa 1">
    <g>
      <g>
        <path class="cls-14" d="M1251.97,467.7c0,28.01-14.79,42.01-44.35,42.01h-29.18l-6.41,40.26c4.67,1.95,10.39,3.5,17.21,4.67,6.8,1.17,13.91,2.04,21.3,2.63,7.39.58,13.81.88,19.25.88,25.68,0,45.52-7.49,59.52-22.47,14.01-14.96,21-37.05,21-66.23V141.51h-58.35v326.19Z"></path>
        <path class="cls-14" d="M1578.16,145.88c-3.9-2.92-8.37-4.37-13.42-4.37h-59.52c-5.05,0-9.53,1.45-13.41,4.37-3.9,2.92-6.62,6.71-8.17,11.38l-127.21,400.89h60.1l38.48-129.54h159.37l38.48,129.54h60.68l-127.21-400.89c-1.55-4.67-4.28-8.46-8.16-11.38ZM1469.38,380.17l47.5-159.89c1.94-5.84,3.69-11.67,5.25-17.51,1.55-5.84,3.11-11.28,4.67-16.34h16.33c1.56,5.06,3.11,10.51,4.67,16.34,1.55,5.84,3.11,11.67,4.67,17.51l47.5,159.89h-130.59Z"></path>
        <path class="cls-14" d="M1855.91,509.13c-12.84,0-22.38-3.01-28.6-9.05-6.23-6.03-9.33-15.25-9.33-27.71V141.51h-57.77v339.62c0,22.17,6.42,40.55,19.25,55.15,12.84,14.58,34.04,21.88,63.61,21.88,26.84,0,53.69-.2,80.53-.58,26.84-.38,53.3-1.55,79.36-3.5l-2.92-44.93h-144.13Z"></path>
        <polygon class="cls-14" points="2090.49 141.51 1962.69 141.51 1962.69 191.69 2090.49 191.69 2090.49 558.15 2148.83 558.15 2148.83 191.69 2277.21 191.69 2277.21 141.51 2148.83 141.51 2090.49 141.51"></polygon>
        <path class="cls-14" d="M2396.83,198.69c5.44-5.84,14.01-8.76,25.68-8.76h160.47l2.33-44.93c-17.9-1.17-36.67-2.04-56.31-2.62-19.64-.58-39.59-.88-59.81-.88h-59.52c-24.12,0-43.28,6.41-57.48,19.25-14.2,12.84-21.5,30.34-21.88,52.52v273.1c.38,21.79,7.68,39.2,21.88,52.22,14.2,13.04,33.36,19.55,57.48,19.55,19.45,0,39.29-.1,59.52-.29,20.22-.2,40.16-.48,59.81-.88,19.64-.38,38.41-1.17,56.31-2.33l-2.33-44.35h-160.47c-11.67,0-20.24-3.01-25.68-9.05-5.44-6.03-8.16-15.46-8.16-28.3v-111.46h171.55v-44.92h-171.55v-89.87c0-12.84,2.72-22.18,8.16-28.02Z"></path>
        <path class="cls-14" d="M2862.2,505.34c-17.32.98-38.61,1.46-63.9,1.46s-44.54-4.86-58.93-14.59c-14.4-9.72-24.62-25.96-30.63-48.72-6.04-22.76-9.05-53.98-9.05-93.66s3.01-70.91,9.05-93.66c6.02-22.75,16.23-38.99,30.63-48.73,14.39-9.72,34.03-14.59,58.93-14.59,15.95,0,29.67.2,41.14.58,11.47.39,22.27.88,32.39,1.46,10.1.58,21,1.46,32.68,2.63l5.84-43.77c-11.29-3.11-22.18-5.53-32.68-7.28-10.51-1.75-21.99-3.01-34.44-3.79-12.45-.77-27.42-1.17-44.93-1.17-38.9,0-70.12,6.71-93.65,20.13-23.55,13.42-40.55,35.3-51.06,65.65-10.51,30.34-15.76,71.19-15.76,122.54s5.25,92.2,15.76,122.54c10.51,30.34,27.51,52.23,51.06,65.64,23.53,13.42,54.74,20.14,93.65,20.14,26.85,0,49.31-1.08,67.4-3.21,18.08-2.14,35.68-5.74,52.81-10.8l-5.84-43.77c-16.34,2.33-33.17,4-50.48,4.96Z"></path>
        <polygon class="cls-14" points="3217.27 311.9 3039.88 311.9 3039.88 141.51 2981.53 141.51 2981.53 558.15 3039.88 558.15 3039.88 360.34 3217.27 360.34 3217.27 558.15 3276.21 558.15 3276.21 141.51 3217.27 141.51 3217.27 311.9"></polygon>
        <path class="cls-14" d="M3436.81,164.88c-.19-1.54-.63-3.18-1.35-4.91-.75-1.73-1.82-3.49-3.26-5.26-1.44-1.78-3.4-3.37-5.85-4.8-2.45-1.4-5.5-2.57-9.12-3.5-3.65-.92-8.05-1.4-13.24-1.41l-8.59-.02-4.63-.02h-2.73s-10.51-.03-10.51-.03c-7.74-.03-13.79.92-18.22,2.81-4.41,1.91-7.74,4.14-9.98,6.72-2.22,2.59-3.62,5.2-4.16,7.83-.58,2.63-.86,4.69-.86,6.15l-.08,26.18v1.08l-.07,26.19c-.01,1.45.26,3.51.82,6.15.53,2.63,1.92,5.24,4.12,7.85,2.23,2.6,5.54,4.84,9.94,6.78,4.41,1.93,10.46,2.9,18.21,2.92l6.41.02,6.94.02,5.86.02,7.23.02c5.18.01,9.59-.43,13.25-1.33,3.63-.91,6.69-2.05,9.15-3.45,2.45-1.4,4.42-2.99,5.88-4.76,1.45-1.76,2.54-3.52,3.3-5.24.73-1.72,1.18-3.36,1.37-4.91.18-1.54.26-2.81.27-3.81l.07-26.73.08-26.72c0-1.01-.07-2.28-.24-3.83ZM3427.91,173.86l-.06,21.42v.26l-.07,21.42v1.37c0,1.27-.18,2.93-.57,4.97-.36,2.04-1.32,4.03-2.87,5.93-1.56,1.91-3.93,3.53-7.11,4.9-3.19,1.35-7.61,2.01-13.25,2l-13.77-.04-13.22-.04c-5.63-.01-10.04-.72-13.22-2.07-3.18-1.39-5.54-3.02-7.08-4.94-1.54-1.91-2.49-3.91-2.84-5.95-.36-2.04-.54-3.7-.54-4.97v-1.37s.07-20.46.07-20.46v-2.18l.06-20.47v-1.35c.01-1.27.2-2.94.57-4.99.37-2.03,1.33-4.01,2.87-5.91,1.55-1.92,3.92-3.54,7.11-4.9,3.19-1.35,7.6-2.02,13.24-2l13.78.04,13.21.03c5.64.02,10.06.72,13.24,2.08,3.17,1.38,5.54,3.02,7.09,4.94,1.55,1.91,2.49,3.89,2.83,5.93.38,2.05.55,3.72.54,4.99v1.36Z"></path>
        <path class="cls-14" d="M3409.22,171.76c-1.45-1.73-3.62-3.22-6.53-4.44-2.9-1.23-6.91-1.86-11.99-1.87-5.09-.02-9.11.59-12,1.86-2.93,1.26-5.1,2.73-6.56,4.41-1.47,1.68-2.37,3.38-2.76,5.11-.35,1.73-.54,3.1-.55,4.1v3l-.13,39.7,10.91.03.04-11.88v-.27c0-1.27.33-2.32.95-3.13.64-.82,1.34-1.45,2.05-1.91.92-.56,1.92-.95,3.01-1.22.62-.18,1.41-.44,2.33-.8.72-.27,1.57-.58,2.52-.88.96-.33,1.94-.65,2.94-1.02l7.43,21.17,11.47.03-8.66-24.86c2.74-1.43,4.78-3.15,6.14-5.11,1.39-1.93,2.2-4.04,2.47-6.32v-.4c.11-.38.16-.87.16-1.52v-1.22s.02-3.27.02-3.27c0-1-.2-2.36-.54-4.1-.37-1.73-1.27-3.45-2.73-5.19ZM3401.54,184.7c-.16,1-.59,2.06-1.28,3.2-.68,1.14-1.94,2.02-3.76,2.64-.45.18-.93.37-1.44.54-.48.2-1.02.37-1.57.54-2.1.73-4.53,1.59-7.3,2.58-2.78.99-4.94,1.76-6.49,2.3l.03-12.28v-1.22c.01-.73.12-1.55.36-2.46.23-.88.7-1.77,1.44-2.58.73-.82,1.8-1.52,3.2-2.11,1.42-.58,3.31-.87,5.66-.86,2.18,0,3.96.23,5.32.69,1.37.45,2.46,1.03,3.34,1.72.86.67,1.47,1.42,1.84,2.18.35.78.58,1.54.65,2.25v2.87Z"></path>
      </g>
      <g>
        <path class="cls-5" d="M316.3,695.38l-6.81.31H3.85c-4.7,0-5.3-6.8-.69-7.67.65-.12,1.22-.23,1.71-.32,67.93-12.87,117.2-61.78,140.58-127.28l14.63-40.97,79.45-389.23,8.48-35.62C268.58,5.96,341.9,1.86,341.9,1.86c0,0,75.75-4.7,102.35,100.06.72,2.82,1.79,5.7,2.38,8.55l75.52,369.42s-13.38,207.28-205.85,215.49Z"></path>
        <path class="cls-6" d="M1039.93,688.09c4.33,1.23,3.49,7.6-1.01,7.6h-292.66s-177.99,3.82-213.3-198.15l-74.68-366.37S438.04,1.07,346.83,1.07h334.24s101.35-5.79,124.45,102.36l77.17,373.6s25.83,172.24,157.12,211.02c.04.01.08.02.12.04Z"></path>
        <path class="cls-15" d="M522.15,479.89s-13.38,207.27-205.85,215.49l-6.81.31h-161.21c.52-.81,1.38-1.44,2.6-1.67.66-.12,1.24-.23,1.74-.33,69.13-13.1,119.27-62.88,143.06-129.53l14.89-41.7,80.85-396.11,8.62-36.25c4.33-18.65,10.95-33.62,18.74-45.64,10.14,14.04,19.17,32.69,25.46,57.46.71,2.82,1.09,5.7,1.67,8.55l76.23,369.42Z"></path>
        <path class="cls-3" d="M522.15,479.89s-13.38,207.27-205.85,215.49l-6.81.31h-161.21c.52-.81,1.38-1.44,2.6-1.67.66-.12,1.24-.23,1.74-.33,69.13-13.1,119.27-62.88,143.06-129.53l14.89-41.7,80.85-396.11,8.62-36.25c4.33-18.65,10.95-33.62,18.74-45.64,10.14,14.04,19.17,32.69,25.46,57.46.71,2.82,1.79,5.7,2.38,8.55l75.52,369.42Z"></path>
        <path class="cls-11" d="M868.22,695.69h-123.34c-16.58-.15-178.44-6.58-211.92-198.16l-74.68-366.37S438.04,1.07,346.83,1.07h163.53s2.11-.12,5.8,0c21.83.7,98.89,9.82,118.66,102.36l77.17,373.6s25.82,172.24,157.12,211.02c.04.01.08.02.12.03,4.33,1.24,3.49,7.6-1.01,7.6Z"></path>
        <path class="cls-9" d="M868.22,695.69h-121.96s-.47,0-1.37,0c-16.58-.15-178.44-6.58-211.92-198.16l-74.68-366.37S438.04,1.07,346.83,1.07h169.33c21.83.7,98.89,9.82,118.66,102.36l77.17,373.6s25.82,172.24,157.12,211.02c.04.01.08.02.12.03,4.33,1.24,3.49,7.6-1.01,7.6Z"></path>
        <path class="cls-13" d="M972.7,650.91c-79.11-19.38-340.84,25.49-422.01-90.63-7.52-18.32-13.59-39.13-17.72-62.74l-62.09-304.63c78.92,6.17,219.36,22.37,366.44,64.44l45.38,219.69s16.48,109.88,90.01,173.88Z"></path>
        <path class="cls-12" d="M972.7,650.91c-79.11-19.38-340.84,25.49-422.01-90.63-7.52-18.32-13.59-39.13-17.72-62.74l-62.09-304.63c78.92,6.17,219.36,22.37,366.44,64.44l45.38,219.69s16.48,109.88,90.01,173.88Z"></path>
        <g class="cls-2">
          <path class="cls-10" d="M522.15,479.93l-32.63-158.15c-100.62,23.82-212.72,38.69-298.79,47.57l-30.64,150.14-14.63,40.97c-23.38,65.49-72.64,114.41-140.58,127.28-.49.09-1.07.2-1.71.32-4.62.87-4.01,7.67.69,7.67h305.64l6.81-.31c192.46-8.21,205.85-215.49,205.85-215.49Z"></path>
        </g>
        <g class="cls-8">
          <g class="cls-4">
            <image width="2184" height="1480" transform="translate(-1.94 -5.36) scale(.48)"></image>
          </g>
        </g>
      </g>
    </g>
  </g>
</svg>