<?xml version="1.0"?>
<svg id="Capa_2" data-name="Capa 2" xmlns="http://www.w3.org/2000/svg" viewBox="0 0 102.16 118.31">
  <defs>
    
  </defs>
  <g id="Capa_1-2" data-name="Capa 1">
    <g>
      <g>
        <polygon class="cls-1" points="24.43 77.59 24.43 46.81 32.48 42.16 25.82 38.32 17.77 42.97 17.77 81.43 39.15 93.77 39.15 86.09 24.43 77.59"></polygon>
        <polygon class="cls-1" points="77.73 60.76 77.73 77.59 56.35 89.93 56.35 97.62 84.39 81.43 84.39 56.92 77.73 60.76"></polygon>
        <polygon class="cls-1" points="51.08 23.74 32.48 34.48 39.13 38.32 51.08 31.42 77.73 46.81 77.73 53.07 84.39 49.23 84.39 42.97 51.08 23.74"></polygon>
      </g>
      <g>
        <polygon class="cls-1" points="24.43 60.76 39.15 69.26 39.15 106.78 6.66 88.02 6.66 50.5 17.77 56.92 17.77 49.23 0 38.97 0 91.86 45.81 118.31 45.81 65.42 24.43 53.07 24.43 60.76"></polygon>
        <polygon class="cls-1" points="56.35 65.42 56.35 89.93 63.01 86.09 63.01 69.26 95.5 50.5 95.5 88.02 63.01 106.78 63.01 93.77 56.35 97.62 56.35 118.31 102.16 91.86 102.16 38.97 56.35 65.42"></polygon>
        <polygon class="cls-1" points="63.03 38.32 51.08 45.22 18.58 26.45 51.08 7.69 83.58 26.45 69.68 34.48 76.34 38.32 96.89 26.45 51.08 0 5.27 26.45 51.08 52.91 69.68 42.16 63.03 38.32"></polygon>
      </g>
    </g>
  </g>
</svg>