<?xml version="1.0"?>
<svg id="Capa_2" data-name="Capa 2" xmlns="http://www.w3.org/2000/svg" viewBox="0 0 352.4 118.31">
  <defs>
    
  </defs>
  <g id="Capa_1-2" data-name="Capa 1">
    <g>
      <g>
        <g>
          <polygon class="cls-2" points="24.43 77.59 24.43 46.81 32.48 42.16 25.82 38.32 17.77 42.97 17.77 81.43 39.15 93.77 39.15 86.09 24.43 77.59"></polygon>
          <polygon class="cls-2" points="77.73 60.76 77.73 77.59 56.35 89.93 56.35 97.62 84.39 81.43 84.39 56.92 77.73 60.76"></polygon>
          <polygon class="cls-2" points="51.08 23.74 32.48 34.48 39.13 38.32 51.08 31.42 77.73 46.81 77.73 53.07 84.39 49.23 84.39 42.97 51.08 23.74"></polygon>
        </g>
        <g>
          <polygon class="cls-1" points="24.43 60.76 39.15 69.26 39.15 106.78 6.66 88.02 6.66 50.5 17.77 56.92 17.77 49.23 0 38.97 0 91.86 45.81 118.31 45.81 65.42 24.43 53.07 24.43 60.76"></polygon>
          <polygon class="cls-1" points="56.35 65.42 56.35 89.93 63.01 86.09 63.01 69.26 95.5 50.5 95.5 88.02 63.01 106.78 63.01 93.77 56.35 97.62 56.35 118.31 102.16 91.86 102.16 38.97 56.35 65.42"></polygon>
          <polygon class="cls-1" points="63.03 38.32 51.08 45.22 18.58 26.45 51.08 7.69 83.58 26.45 69.68 34.48 76.34 38.32 96.89 26.45 51.08 0 5.27 26.45 51.08 52.91 69.68 42.16 63.03 38.32"></polygon>
        </g>
      </g>
      <path class="cls-1" d="M232.26,97.92h1.85v1.44h-2.04c-1.65,0-2.95-.48-3.91-1.44-.95-.96-1.43-2.28-1.43-3.95v-10.13h-2.82v-.34l4.08-4.05h.28v2.98h5.71v1.41h-5.71v10.1c0,1.28.35,2.26,1.04,2.95.69.69,1.67,1.04,2.95,1.04"></path>
      <path class="cls-1" d="M270.28,90.83c0,.15-.01.35-.03.6h-15.37c.08,1.32.43,2.49,1.05,3.51.62,1.03,1.45,1.82,2.49,2.4,1.04.58,2.21.86,3.48.86,1.38,0,2.61-.33,3.69-.99,1.08-.66,1.93-1.58,2.56-2.78h1.63c-.77,1.69-1.84,3-3.2,3.91-1.36.91-2.92,1.36-4.67,1.36-2.45,0-4.49-.84-6.12-2.53-1.63-1.68-2.45-3.79-2.45-6.32s.82-4.57,2.46-6.26c1.64-1.68,3.68-2.53,6.1-2.53s4.45.84,6.02,2.51c1.57,1.67,2.35,3.75,2.35,6.24M261.91,83.55c-1.88,0-3.47.6-4.77,1.8s-2.04,2.74-2.23,4.63h13.86c-.08-.94-.32-1.81-.71-2.62-.39-.8-.88-1.49-1.49-2.05-.61-.56-1.31-1-2.12-1.3-.8-.3-1.66-.46-2.56-.46"></path>
      <path class="cls-1" d="M294.95,99.71c-2.47,0-4.54-.84-6.21-2.53-1.67-1.68-2.51-3.78-2.51-6.29s.83-4.63,2.49-6.31c1.66-1.67,3.74-2.51,6.23-2.51,1.9,0,3.57.51,5,1.52,1.43,1.01,2.43,2.37,3,4.06h-1.54c-.56-1.28-1.42-2.27-2.56-3-1.14-.72-2.44-1.08-3.91-1.08-2.05,0-3.75.7-5.11,2.09-1.36,1.39-2.04,3.13-2.04,5.22s.68,3.81,2.05,5.21c1.37,1.4,3.07,2.1,5.1,2.1,1.44,0,2.73-.36,3.87-1.08,1.14-.72,2.01-1.74,2.62-3.06h1.57c-.61,1.74-1.63,3.11-3.07,4.12s-3.11,1.52-4.99,1.52"></path>
      <path class="cls-1" d="M328.08,82.08c1.34,0,2.5.29,3.5.88.99.59,1.76,1.42,2.29,2.51.53,1.09.8,2.36.8,3.83v10.07h-1.54v-9.76c0-1.92-.48-3.42-1.43-4.5-.95-1.08-2.27-1.62-3.97-1.62s-3.07.61-4.25,1.84c-1.18,1.22-1.77,2.68-1.77,4.38v9.66h-1.54v-22.93h1.54v9.25c.65-1.11,1.53-1.99,2.65-2.63,1.12-.65,2.36-.97,3.72-.97"></path>
      <g>
        <path class="cls-1" d="M167.4,35.19c5.2,2.74,7.8,7.31,7.8,13.71,0,5.71-1.97,9.97-5.91,12.77-3.94,2.8-9.11,4.2-15.51,4.2h-22.8c-.29,0-.53-.1-.73-.3-.2-.2-.3-.44-.3-.73V6.91c0-.29.1-.53.3-.73.2-.2.44-.3.73-.3h22.11c6.97,0,12.24,1.31,15.81,3.94,3.57,2.63,5.36,6.89,5.36,12.77s-2.29,9.63-6.86,12.08c-.34.17-.34.34,0,.51M144.17,18.48v10.8c0,.29.14.43.43.43h8.49c2.34,0,4.14-.5,5.4-1.5,1.26-1,1.89-2.41,1.89-4.24s-.63-3.34-1.89-4.37c-1.26-1.03-3.06-1.54-5.4-1.54h-8.49c-.29,0-.43.14-.43.43M159.09,52.03c1.26-1.06,1.89-2.58,1.89-4.59s-.62-3.44-1.84-4.5c-1.23-1.06-3.01-1.59-5.36-1.59h-9.17c-.29,0-.43.14-.43.43v11.4c0,.29.14.43.43.43h9.17c2.28,0,4.06-.53,5.31-1.59"></path>
        <path class="cls-1" d="M211.11,22.81c3.09,1.29,5.51,3.06,7.29,5.31,1.77,2.26,2.66,4.76,2.66,7.5v29.23c0,.29-.1.53-.3.73-.2.2-.44.3-.73.3h-12.17c-.29,0-.53-.1-.73-.3-.2-.2-.3-.44-.3-.73v-3c0-.23-.06-.36-.17-.39-.12-.03-.23.07-.34.3-2.17,3.2-5.89,4.8-11.14,4.8-4.57,0-8.21-1.07-10.93-3.21-2.71-2.14-4.07-5.3-4.07-9.47,0-4.4,1.53-7.8,4.59-10.2,3.06-2.4,7.5-3.6,13.33-3.6h8.31c.29,0,.43-.14.43-.43v-1.63c0-1.54-.51-2.76-1.54-3.64-1.03-.89-2.46-1.33-4.29-1.33-1.37,0-2.56.26-3.56.77-1,.51-1.64,1.17-1.93,1.97-.29.63-.69.91-1.2.86l-12.34-1.63c-.69-.11-1.03-.37-1.03-.77.23-2.51,1.21-4.78,2.96-6.81,1.74-2.03,4.08-3.63,7.03-4.8,2.94-1.17,6.21-1.76,9.81-1.76,3.83,0,7.28.64,10.37,1.93M204.72,54.69c1.4-1.11,2.1-2.58,2.1-4.41v-2.06c0-.29-.14-.43-.43-.43h-5.14c-2.17,0-3.84.37-5.01,1.11-1.17.74-1.76,1.86-1.76,3.34,0,1.26.43,2.26,1.29,3,.86.74,2.06,1.11,3.6,1.11,2.17,0,3.96-.56,5.36-1.67"></path>
        <path class="cls-1" d="M236.3,64.89c-3.03-1.11-5.36-2.69-6.99-4.71-1.63-2.03-2.44-4.36-2.44-6.98v-.94c0-.29.1-.53.3-.73.2-.2.44-.3.73-.3h11.57c.29,0,.53.1.73.3.2.2.3.44.3.73,0,1.09.6,1.99,1.8,2.7,1.2.71,2.71,1.07,4.54,1.07,1.6,0,2.87-.27,3.81-.81.94-.54,1.41-1.27,1.41-2.19s-.5-1.59-1.5-2.01c-1-.43-2.61-.84-4.84-1.24-3.6-.69-6.51-1.51-8.74-2.49-2.91-1.2-5.23-2.7-6.94-4.5-1.71-1.8-2.57-4.27-2.57-7.41,0-4.46,1.73-7.98,5.19-10.58,3.46-2.6,8.01-3.9,13.67-3.9,3.83,0,7.18.61,10.07,1.84,2.88,1.23,5.13,2.96,6.73,5.19,1.6,2.23,2.4,4.8,2.4,7.71,0,.29-.1.53-.3.73-.2.2-.44.3-.73.3h-11.23c-.29,0-.53-.1-.73-.3-.2-.2-.3-.44-.3-.73,0-1.08-.51-1.97-1.54-2.66-1.03-.69-2.43-1.03-4.2-1.03-1.6,0-2.9.27-3.9.81-1,.54-1.5,1.3-1.5,2.27s.54,1.67,1.63,2.1c1.08.43,2.91.9,5.48,1.41,3.31.69,5.63,1.23,6.94,1.63,3.54,1.14,6.3,2.69,8.27,4.63,1.97,1.94,2.96,4.54,2.96,7.8,0,4.46-1.76,7.9-5.27,10.33-3.51,2.43-8.24,3.64-14.18,3.64-4.06,0-7.6-.56-10.63-1.67"></path>
        <path class="cls-1" d="M273.88,15.52c-1.4-1.4-2.1-3.18-2.1-5.36s.7-4.03,2.1-5.4c1.4-1.37,3.18-2.06,5.36-2.06s3.96.69,5.36,2.06c1.4,1.37,2.1,3.17,2.1,5.4s-.7,3.89-2.1,5.31c-1.4,1.43-3.19,2.14-5.36,2.14s-3.96-.7-5.36-2.1M272.34,65.57c-.2-.2-.3-.44-.3-.73V22.59c0-.29.1-.53.3-.73s.44-.3.73-.3h12.17c.29,0,.53.1.73.3.2.2.3.44.3.73v42.25c0,.29-.1.53-.3.73s-.44.3-.73.3h-12.17c-.29,0-.53-.1-.73-.3"></path>
        <path class="cls-1" d="M293.94,65.57c-.2-.2-.3-.44-.3-.73V6.91c0-.29.1-.53.3-.73.2-.2.44-.3.73-.3h12.17c.29,0,.53.1.73.3.2.2.3.44.3.73v26.65c0,.17.06.27.17.3.11.03.23-.01.34-.13l9.34-11.57c.34-.4.77-.6,1.29-.6h13.97c.57,0,.86.2.86.6,0,.17-.09.4-.26.69l-11.23,14.48c-.12.17-.12.37,0,.6l12.77,26.74c.11.23.17.4.17.51,0,.46-.31.69-.94.69h-12.68c-.57,0-.97-.26-1.2-.77l-7.8-18.25c-.06-.11-.16-.18-.3-.21-.14-.03-.24.01-.3.13l-4.03,5.74c-.12.23-.17.4-.17.51v11.83c0,.29-.1.53-.3.73s-.44.3-.73.3h-12.17c-.29,0-.53-.1-.73-.3"></path>
        <path class="cls-1" d="M345.24,14.75l-1.41-3.18s-.04-.05-.07-.05h-.79s-.06.02-.06.06v3.13s-.01.07-.04.1c-.03.03-.06.04-.1.04h-1.7s-.07-.01-.1-.04c-.03-.03-.04-.06-.04-.1V6.64s.01-.07.04-.1c.03-.03.06-.04.1-.04h3.55c.53,0,.99.11,1.38.32.4.21.71.52.93.91.22.39.33.85.33,1.36s-.13,1-.39,1.38c-.26.39-.63.67-1.1.85-.04.02-.05.04-.04.08l1.58,3.28s.02.06.02.07c0,.06-.04.1-.13.1h-1.79c-.08,0-.14-.04-.17-.11M342.91,8.25v1.7s.02.06.06.06h1.33c.29,0,.53-.08.72-.24.18-.16.27-.38.27-.65s-.09-.5-.27-.67c-.18-.17-.42-.25-.72-.25h-1.33s-.06.02-.06.06"></path>
        <path class="cls-1" d="M343.85,19.16c-4.72,0-8.55-3.65-8.55-8.14s3.84-8.14,8.55-8.14,8.55,3.65,8.55,8.14-3.84,8.14-8.55,8.14M343.85,4.73c-3.69,0-6.7,2.82-6.7,6.29s3.01,6.29,6.7,6.29,6.7-2.82,6.7-6.29-3.01-6.29-6.7-6.29"></path>
      </g>
    </g>
  </g>
</svg>