<?xml version="1.0" encoding="UTF-8"?>
<svg id="Capa_2" data-name="Capa 2" xmlns="http://www.w3.org/2000/svg" viewBox="0 0 192.35 192.66">
  <defs>
    <style>
      .cls-1 {
        fill: #fff;
      }

      .cls-2 {
        fill: #676767;
      }

      .cls-3 {
        fill: #222;
      }
    </style>
  </defs>
  <g id="Capa_1-2" data-name="Capa 1">
    <g>
      <path class="cls-2" d="M88.46,191.11h1.6v1.25h-1.76c-1.43,0-2.55-.42-3.38-1.25-.82-.83-1.23-1.97-1.23-3.42v-8.76h-2.44v-.3l3.53-3.5h.24v2.58h4.94v1.22h-4.94v8.73c0,1.1.3,1.95.89,2.55.6.6,1.45.89,2.55.89"/>
      <path class="cls-2" d="M121.34,184.98c0,.13,0,.3-.03.52h-13.29c.07,1.14.37,2.15.91,3.04.53.89,1.25,1.58,2.16,2.08.9.5,1.91.75,3.01.75,1.19,0,2.26-.28,3.19-.85.93-.57,1.67-1.37,2.21-2.4h1.41c-.67,1.46-1.59,2.59-2.77,3.38-1.18.79-2.52,1.18-4.04,1.18-2.12,0-3.88-.73-5.29-2.18-1.41-1.46-2.12-3.28-2.12-5.47s.71-3.96,2.13-5.41c1.42-1.46,3.18-2.18,5.28-2.18s3.85.72,5.21,2.17c1.36,1.45,2.03,3.25,2.03,5.4M114.1,178.69c-1.63,0-3,.52-4.12,1.56-1.12,1.04-1.76,2.37-1.93,4h11.99c-.07-.81-.28-1.57-.61-2.26-.33-.7-.76-1.29-1.29-1.78-.53-.49-1.14-.86-1.83-1.13-.7-.26-1.43-.39-2.21-.39"/>
      <path class="cls-2" d="M142.67,192.66c-2.13,0-3.92-.73-5.37-2.18-1.45-1.46-2.17-3.27-2.17-5.44s.72-4,2.16-5.45c1.44-1.45,3.23-2.17,5.38-2.17,1.64,0,3.09.44,4.33,1.32,1.24.88,2.1,2.05,2.59,3.51h-1.33c-.49-1.1-1.23-1.97-2.21-2.59-.99-.62-2.11-.94-3.38-.94-1.77,0-3.25.6-4.42,1.8-1.18,1.2-1.76,2.71-1.76,4.52s.59,3.29,1.78,4.5c1.18,1.21,2.65,1.82,4.41,1.82,1.25,0,2.36-.31,3.35-.94.99-.62,1.74-1.51,2.27-2.64h1.36c-.52,1.5-1.41,2.69-2.66,3.57s-2.69,1.32-4.31,1.32"/>
      <path class="cls-2" d="M171.32,177.42c1.16,0,2.16.25,3.02.76.86.51,1.52,1.23,1.98,2.17.46.94.69,2.04.69,3.31v8.71h-1.33v-8.44c0-1.66-.41-2.96-1.23-3.89-.82-.93-1.97-1.4-3.43-1.4s-2.65.53-3.68,1.59c-1.02,1.06-1.53,2.32-1.53,3.78v8.35h-1.33v-19.83h1.33v8c.56-.96,1.32-1.72,2.29-2.28.97-.56,2.04-.84,3.21-.84"/>
      <g>
        <path class="cls-3" d="M32.38,136.88c4.5,2.37,6.74,6.32,6.74,11.86,0,4.94-1.7,8.62-5.11,11.04-3.41,2.42-7.88,3.63-13.41,3.63H.89c-.25,0-.46-.09-.63-.26-.17-.17-.26-.38-.26-.63v-50.09c0-.25.09-.46.26-.63.17-.17.38-.26.63-.26h19.12c6.03,0,10.58,1.14,13.67,3.41,3.09,2.27,4.63,5.95,4.63,11.04s-1.98,8.33-5.93,10.45c-.3.15-.3.3,0,.44M12.3,122.43v9.34c0,.25.12.37.37.37h7.34c2.03,0,3.58-.43,4.67-1.3,1.09-.86,1.63-2.09,1.63-3.67s-.54-2.89-1.63-3.78c-1.09-.89-2.64-1.33-4.67-1.33h-7.34c-.25,0-.37.12-.37.37M25.2,151.44c1.09-.91,1.63-2.23,1.63-3.96s-.53-2.98-1.59-3.89c-1.06-.91-2.61-1.37-4.63-1.37h-7.93c-.25,0-.37.12-.37.37v9.86c0,.25.12.37.37.37h7.93c1.98,0,3.51-.46,4.59-1.37"/>
        <path class="cls-3" d="M70.18,126.17c2.67,1.11,4.77,2.64,6.3,4.59,1.53,1.95,2.3,4.11,2.3,6.48v25.27c0,.25-.09.46-.26.63-.17.17-.38.26-.63.26h-10.52c-.25,0-.46-.09-.63-.26-.17-.17-.26-.38-.26-.63v-2.59c0-.2-.05-.31-.15-.33-.1-.02-.2.06-.3.26-1.88,2.77-5.09,4.15-9.63,4.15-3.95,0-7.1-.93-9.45-2.78-2.35-1.85-3.52-4.58-3.52-8.19,0-3.8,1.32-6.74,3.96-8.82,2.64-2.08,6.48-3.11,11.52-3.11h7.19c.25,0,.37-.12.37-.37v-1.41c0-1.33-.44-2.38-1.33-3.15-.89-.77-2.12-1.15-3.71-1.15-1.19,0-2.21.22-3.07.67-.87.44-1.42,1.01-1.67,1.7-.25.54-.59.79-1.04.74l-10.67-1.41c-.59-.1-.89-.32-.89-.67.2-2.17,1.05-4.14,2.56-5.89,1.51-1.75,3.53-3.14,6.08-4.15,2.54-1.01,5.37-1.52,8.48-1.52,3.31,0,6.3.56,8.97,1.67M64.66,153.74c1.21-.96,1.82-2.23,1.82-3.82v-1.78c0-.25-.12-.37-.37-.37h-4.45c-1.88,0-3.32.32-4.33.96-1.01.64-1.52,1.61-1.52,2.89,0,1.09.37,1.95,1.11,2.59.74.64,1.78.96,3.11.96,1.88,0,3.42-.48,4.63-1.45"/>
        <path class="cls-3" d="M91.96,162.56c-2.62-.96-4.63-2.32-6.04-4.08-1.41-1.75-2.11-3.77-2.11-6.04v-.82c0-.25.09-.46.26-.63.17-.17.38-.26.63-.26h10c.25,0,.46.09.63.26.17.17.26.38.26.63,0,.94.52,1.72,1.56,2.33,1.04.62,2.35.93,3.93.93,1.38,0,2.48-.23,3.3-.7.82-.47,1.22-1.1,1.22-1.89s-.43-1.37-1.3-1.74c-.87-.37-2.26-.73-4.19-1.07-3.11-.59-5.63-1.31-7.56-2.15-2.52-1.04-4.52-2.33-6-3.89-1.48-1.56-2.22-3.69-2.22-6.41,0-3.85,1.49-6.9,4.48-9.15,2.99-2.25,6.93-3.37,11.82-3.37,3.31,0,6.21.53,8.71,1.59,2.49,1.06,4.43,2.56,5.82,4.48,1.38,1.93,2.08,4.15,2.08,6.67,0,.25-.09.46-.26.63-.17.17-.38.26-.63.26h-9.71c-.25,0-.46-.09-.63-.26-.17-.17-.26-.38-.26-.63,0-.94-.44-1.7-1.33-2.3-.89-.59-2.1-.89-3.63-.89-1.38,0-2.51.24-3.37.7-.86.47-1.3,1.12-1.3,1.96s.47,1.44,1.41,1.82c.94.37,2.52.78,4.74,1.22,2.86.59,4.87,1.06,6,1.41,3.06.99,5.45,2.32,7.15,4,1.7,1.68,2.56,3.93,2.56,6.74,0,3.85-1.52,6.83-4.56,8.93-3.04,2.1-7.13,3.15-12.26,3.15-3.51,0-6.57-.48-9.19-1.45"/>
        <path class="cls-3" d="M124.46,119.87c-1.21-1.21-1.82-2.75-1.82-4.63s.6-3.48,1.82-4.67c1.21-1.19,2.75-1.78,4.63-1.78s3.42.59,4.63,1.78c1.21,1.19,1.82,2.74,1.82,4.67s-.61,3.36-1.82,4.59c-1.21,1.23-2.75,1.85-4.63,1.85s-3.42-.6-4.63-1.82M123.12,163.15c-.17-.17-.26-.38-.26-.63v-36.53c0-.25.09-.46.26-.63s.38-.26.63-.26h10.52c.25,0,.46.09.63.26.17.17.26.38.26.63v36.53c0,.25-.09.46-.26.63s-.38.26-.63.26h-10.52c-.25,0-.46-.09-.63-.26"/>
        <path class="cls-3" d="M141.8,163.15c-.17-.17-.26-.38-.26-.63v-50.09c0-.25.09-.46.26-.63.17-.17.38-.26.63-.26h10.52c.25,0,.46.09.63.26.17.17.26.38.26.63v23.05c0,.15.05.24.15.26.1.03.2-.01.3-.11l8.08-10c.3-.35.67-.52,1.11-.52h12.08c.49,0,.74.17.74.52,0,.15-.07.35-.22.59l-9.71,12.52c-.1.15-.1.32,0,.52l11.04,23.12c.1.2.15.35.15.44,0,.4-.27.59-.82.59h-10.97c-.49,0-.84-.22-1.04-.67l-6.74-15.78c-.05-.1-.14-.16-.26-.19-.12-.02-.21.01-.26.11l-3.48,4.97c-.1.2-.15.35-.15.44v10.23c0,.25-.09.46-.26.63s-.38.26-.63.26h-10.52c-.25,0-.46-.09-.63-.26"/>
        <path class="cls-3" d="M186.15,119.2l-1.22-2.75s-.03-.04-.06-.04h-.68s-.05.02-.05.05v2.71s-.01.06-.04.09c-.02.02-.05.04-.09.04h-1.47s-.06-.01-.09-.04c-.02-.02-.04-.05-.04-.09v-6.98s.01-.06.04-.09c.02-.02.05-.04.09-.04h3.07c.45,0,.85.09,1.2.28.34.19.61.45.8.79.19.34.28.73.28,1.17s-.11.86-.34,1.2c-.23.34-.54.58-.95.73-.03.01-.04.04-.03.07l1.36,2.84s.02.05.02.06c0,.06-.04.08-.11.08h-1.55c-.07,0-.12-.03-.14-.09M184.14,113.58v1.47s.02.05.05.05h1.15c.25,0,.46-.07.62-.21.16-.14.24-.33.24-.56s-.08-.43-.24-.58c-.16-.14-.37-.22-.62-.22h-1.15s-.05.02-.05.05"/>
        <path class="cls-3" d="M184.95,123.01c-4.08,0-7.4-3.16-7.4-7.04s3.32-7.04,7.4-7.04,7.4,3.16,7.4,7.04-3.32,7.04-7.4,7.04M184.95,110.54c-3.19,0-5.79,2.44-5.79,5.43s2.6,5.44,5.79,5.44,5.79-2.44,5.79-5.44-2.6-5.43-5.79-5.43"/>
      </g>
      <g>
        <g>
          <polygon class="cls-1" points="69.87 67.09 69.87 40.48 76.83 36.46 71.08 33.13 64.12 37.15 64.12 70.41 82.6 81.08 82.6 74.44 69.87 67.09"/>
          <polygon class="cls-1" points="115.96 52.54 115.96 67.09 97.47 77.76 97.47 84.4 121.72 70.41 121.72 49.21 115.96 52.54"/>
          <polygon class="cls-1" points="92.92 20.53 76.83 29.81 82.59 33.13 92.92 27.17 115.96 40.48 115.96 45.89 121.72 42.57 121.72 37.15 92.92 20.53"/>
        </g>
        <g>
          <polygon class="cls-3" points="69.87 52.54 82.6 59.89 82.6 92.33 54.5 76.11 54.5 43.66 64.12 49.21 64.12 42.57 48.75 33.69 48.75 79.43 88.36 102.3 88.36 56.56 69.87 45.89 69.87 52.54"/>
          <polygon class="cls-3" points="97.47 56.56 97.47 77.76 103.23 74.44 103.23 59.89 131.33 43.66 131.33 76.11 103.23 92.33 103.23 81.08 97.47 84.4 97.47 102.3 137.08 79.43 137.08 33.69 97.47 56.56"/>
          <polygon class="cls-3" points="103.24 33.13 92.92 39.1 64.82 22.87 92.92 6.65 121.02 22.87 109 29.81 114.75 33.13 132.52 22.87 92.92 0 53.31 22.87 92.92 45.75 109 36.46 103.24 33.13"/>
        </g>
      </g>
    </g>
  </g>
</svg>