<?xml version="1.0" encoding="UTF-8"?>
<svg id="Capa_2" data-name="Capa 2" xmlns="http://www.w3.org/2000/svg" viewBox="0 0 299.73 245.51">
  <defs>
    <style>
      .cls-1 {
        fill: #89d300;
      }
    </style>
  </defs>
  <g id="Capa_1-2" data-name="Capa 1">
    <g>
      <path class="cls-1" d="M71.04,67.1s89.91,44.54,100.28,77.13c0,0,8.55-9.2,4.57-22.3h0s2.77-10.09-5.92-32.55c-8.69-22.46-5.42-35-2.62-44.02,0,0-18.25,14.67-6.63,34.6,8.67,14.88,11.31,24.04,11.77,31.23-3.67-8.72-11.04-21.55-25.54-33.95-25.33-21.67-27.51-47.98-27.51-47.98,0,0-13.98,23,5.93,37.37,7.28,5.26,14.71,10.95,21.43,16.99.02.02.04.03.06.05.53.48,1.05.96,1.57,1.44.04.03.07.07.11.1.51.47,1.01.94,1.5,1.41.05.05.1.09.14.14.48.46.96.93,1.44,1.4.06.06.12.11.17.17.46.46.92.92,1.37,1.38.07.07.14.14.21.21.44.45.87.9,1.3,1.35.08.08.15.16.23.24.42.44.83.89,1.24,1.34.08.09.17.18.25.28.4.44.79.88,1.17,1.32.09.1.17.2.26.3.38.44.75.87,1.11,1.31.09.11.18.22.27.33.36.43.71.87,1.05,1.3.09.12.18.23.27.35.34.43.67.86,1,1.3.09.12.18.24.27.37.32.43.63.86.94,1.3.09.13.18.25.27.38.3.43.59.86.88,1.29.09.13.18.27.26.4.28.43.55.86.82,1.29.09.14.17.28.25.41.26.43.51.86.76,1.29.08.14.16.29.24.43.21.37.41.74.61,1.11-12.76-13.07-40.16-27.71-95.81-40.51"/>
      <path class="cls-1" d="M106.66,98.1c1.17.37,2.29.73,3.36,1.06,1.6.5,3.09.96,4.45,1.38,5.41,1.65,8.68,2.55,8.68,2.55,0,0-107.37-45.07-86.89-101.54,0,0-.23.13-.64.38-.17.1-.36.22-.58.36-1,.63-2.55,1.65-4.38,3.02C20.84,12.6,2.7,29.71,14.48,50.13c11.53,19.99,64.73,39.18,92.18,47.97"/>
      <path class="cls-1" d="M10.24,97.22c11.4,8.67,38.25,10.69,62.91,10.46,14.32-.13,27.9-1.02,37.28-1.8,2.09-.17,3.97-.34,5.6-.49.82-.08,1.57-.15,2.26-.22.35-.03.67-.07.99-.1.62-.06,1.18-.12,1.66-.17,1.44-.15,2.23-.24,2.23-.24,0,0-108.9-1.11-112.07-56.83,0,0-1.52,1.97-3.44,5.2-5.75,9.7-15.05,30.76,2.59,44.19"/>
      <path class="cls-1" d="M122.57,106.29s-90.73,39.76-115.21-5.23c0,0-7.85,35.2,18.67,41.25,26.52,6.05,96.54-36.02,96.54-36.02"/>
      <path class="cls-1" d="M53.68,173.14c25.08-4.29,69.5-65.51,69.5-65.51,0,0-63.1,66.64-101.05,36.72,0,0,6.46,33.08,31.55,28.79"/>
      <path class="cls-1" d="M284.88,48.28c15.34-27.44-22.44-48.28-22.44-48.28,21.25,56.18-85.49,102.72-85.49,102.72,0,0,92.6-27.01,107.93-54.45"/>
      <path class="cls-1" d="M289.77,95.29c23.27-18.22-1.53-49.37-1.53-49.37-2.41,55.75-111.28,58.36-111.28,58.36,0,0,89.54,9.23,112.81-8.99"/>
      <path class="cls-1" d="M177.57,105.91s70.59,41.1,97.03,34.69c26.44-6.41,18.1-41.5,18.1-41.5-23.86,45.33-115.13,6.81-115.13,6.81"/>
      <path class="cls-1" d="M176.98,107.26s45.26,60.6,70.4,64.54c25.14,3.95,31.15-29.22,31.15-29.22-37.54,30.45-101.55-35.32-101.55-35.32"/>
      <path class="cls-1" d="M134.77,141.01s-56.07,89.81-86.86,93.29c0,0,31.79,57.62,86.86-93.29"/>
      <path class="cls-1" d="M85.5,241.11s32.96,35.17,50.97-93.41c0,0-28.29,82.66-50.97,93.41"/>
      <path class="cls-1" d="M139.76,155.66s-6.94,68.18-21.66,82.35c0,0,29.79,16.45,21.66-82.35"/>
      <path class="cls-1" d="M147.22,172.95c-1.17-4.31-2.52-8.92-4.08-13.85,0,0,6.88,58.39-2.62,74.69h0s0,0,0,0c0,0,0,0,0,0,0,0,13.03,2.01,13.07-22.38.01-8.87-1.69-21.24-6.36-38.46"/>
      <path class="cls-1" d="M131.77,114.51c-.23-.29-.43-.53-.57-.71-.22-.27-.33-.41-.33-.41,0,0,54.84,87.13,21.75,127.35,0,0,32.04-1.98,31.2-32.75-.76-27.41-42.17-81.03-51.22-92.44-.32-.4-.6-.75-.83-1.04"/>
    </g>
  </g>
</svg>