<?xml version="1.0" encoding="UTF-8"?>
<svg id="Capa_2" data-name="Capa 2" xmlns="http://www.w3.org/2000/svg" viewBox="0 0 954.26 244.42">
  <defs>
    <style>
      .cls-1 {
        fill: #89d300;
      }

      .cls-2 {
        fill: #1d2333;
      }
    </style>
  </defs>
  <g id="Capa_1-2" data-name="Capa 1">
    <g>
      <g>
        <path class="cls-1" d="M71.08,65.9s89.61,45.08,99.78,77.73c0,0,8.6-9.15,4.71-22.26,0,0,0,0,0,0,0,0,2.83-10.06-5.72-32.56-8.55-22.5-5.21-35.02-2.35-44.02,0,0-18.33,14.55-6.85,34.55,8.58,14.93,11.16,24.1,11.57,31.29-3.61-8.74-10.91-21.61-25.32-34.1-25.19-21.82-27.2-48.14-27.2-48.14,0,0-14.12,22.91,5.69,37.39,7.24,5.3,14.64,11.03,21.32,17.12.02.02.04.04.06.05.53.48,1.05.96,1.56,1.45.04.03.07.07.11.1.5.47,1,.95,1.49,1.42.05.05.1.09.14.14.48.47.96.94,1.43,1.41.06.06.11.11.17.17.46.46.91.92,1.36,1.38.07.07.14.14.21.21.44.45.87.91,1.29,1.36.08.08.15.16.23.25.41.45.82.9,1.23,1.35.08.09.17.18.25.28.39.44.78.89,1.17,1.33.09.1.17.2.26.3.37.44.74.88,1.1,1.32.09.11.18.22.27.33.35.44.7.87,1.04,1.31.09.12.18.23.27.35.34.43.66.87.99,1.3.09.12.18.25.27.37.32.43.63.87.93,1.3.09.13.18.26.27.38.3.43.59.86.87,1.3.09.13.17.27.26.4.28.43.55.86.81,1.29.08.14.17.28.25.42.26.43.51.86.75,1.29.08.14.16.29.24.43.2.37.4.74.6,1.11-12.68-13.14-39.97-27.95-95.53-41.1Z"/>
        <path class="cls-1" d="M106.51,97.11c1.17.38,2.28.74,3.35,1.08,1.6.51,3.09.98,4.44,1.4,5.4,1.68,8.66,2.61,8.66,2.61,0,0-107.06-45.72-86.24-102.05,0,0-.23.13-.65.38-.17.1-.36.22-.59.36-1,.62-2.56,1.63-4.4,2.99C21.23,11.1,2.99,28.1,14.65,48.59c11.41,20.06,64.47,39.57,91.86,48.52Z"/>
        <path class="cls-1" d="M10.11,95.63c11.34,8.74,38.17,10.92,62.83,10.85,14.32-.04,27.9-.85,37.29-1.57,2.09-.16,3.97-.32,5.6-.46.82-.07,1.57-.14,2.26-.2.35-.03.67-.06.98-.09.62-.06,1.18-.11,1.66-.16,1.44-.14,2.23-.23,2.23-.23,0,0-108.87-1.79-111.69-57.51,0,0-1.53,1.96-3.47,5.18-5.81,9.66-15.24,30.66,2.32,44.19Z"/>
        <path class="cls-1" d="M122.36,105.39s-90.95,39.19-115.15-5.94c0,0-8.07,35.14,18.41,41.35,26.48,6.21,96.74-35.41,96.74-35.41Z"/>
        <path class="cls-1" d="M53.07,171.8c25.1-4.14,69.89-65.06,69.89-65.06,0,0-63.5,66.24-101.25,36.08,0,0,6.26,33.11,31.36,28.98Z"/>
        <path class="cls-1" d="M284.99,48.4c15.5-27.34-22.14-48.4-22.14-48.4,20.9,56.3-86.1,102.17-86.1,102.17,0,0,92.74-26.43,108.24-53.77Z"/>
        <path class="cls-1" d="M289.58,95.44c23.38-18.07-1.22-49.37-1.22-49.37-2.75,55.72-111.62,57.66-111.62,57.66,0,0,89.45,9.78,112.84-8.29Z"/>
        <path class="cls-1" d="M177.35,105.36s70.32,41.53,96.79,35.28c26.47-6.25,18.35-41.38,18.35-41.38-24.14,45.17-115.14,6.1-115.14,6.1Z"/>
        <path class="cls-1" d="M176.75,106.71s44.87,60.86,69.99,64.96c25.11,4.1,31.32-29.02,31.32-29.02-37.72,30.21-101.31-35.94-101.31-35.94Z"/>
        <path class="cls-1" d="M134.34,140.18s-56.61,89.44-87.41,92.73c0,0,31.42,57.81,87.41-92.73Z"/>
        <path class="cls-1" d="M84.46,239.96s32.74,35.37,51.54-93.07c0,0-28.8,82.46-51.54,93.07Z"/>
        <path class="cls-1" d="M139.23,154.86s-7.36,68.12-22.17,82.2c0,0,29.68,16.63,22.17-82.2Z"/>
        <path class="cls-1" d="M146.59,172.2c-1.14-4.31-2.47-8.93-3.99-13.87,0,0,6.52,58.42-3.08,74.66,0,0,0,0,0,0h0s0,0,0,0c0,0,13.01,2.09,13.2-22.3.07-8.87-1.56-21.24-6.12-38.49Z"/>
        <path class="cls-1" d="M131.5,113.67c-.23-.29-.42-.53-.57-.72-.22-.27-.33-.41-.33-.41,0,0,54.29,87.45,20.96,127.45,0,0,32.05-1.78,31.39-32.54-.59-27.4-41.65-81.27-50.63-92.73-.31-.4-.59-.75-.82-1.05Z"/>
      </g>
      <g>
        <path class="cls-2" d="M945.94,38.52c.42-.51.67-1.06.75-1.66v-.11c.03-.09.04-.23.04-.39v-.32s0-.85,0-.85c0-.26-.06-.62-.17-1.07-.11-.45-.39-.9-.84-1.35-.45-.45-1.12-.84-2-1.15-.89-.32-2.12-.48-3.67-.48-1.56,0-2.79.17-3.68.51-.9.32-1.56.72-2,1.16-.45.44-.73.88-.84,1.34-.11.45-.17.8-.17,1.07v.78s0,10.37,0,10.37h3.34s0-3.1,0-3.1v-.04s0-.03,0-.03c0-.34.1-.61.3-.82.19-.22.4-.38.63-.5.27-.14.58-.25.92-.32.2-.05.43-.12.71-.21.22-.07.48-.15.77-.23.29-.09.59-.17.9-.27l2.3,5.52h3.51s-2.67-6.49-2.67-6.49c.83-.38,1.46-.82,1.88-1.34ZM943,36.99c-.21.29-.59.53-1.15.7-.14.05-.29.09-.44.14-.16.04-.31.09-.48.14-.64.19-1.38.42-2.23.68-.85.26-1.51.46-1.99.61v-3.21s0-.32,0-.32c0-.19.03-.41.11-.64.07-.24.21-.46.43-.68.22-.22.55-.4.98-.55.43-.15,1.01-.23,1.74-.23.66,0,1.2.05,1.63.17.41.12.75.27,1.02.45.26.18.45.37.57.57.11.2.18.4.2.59v.75c-.05.26-.19.55-.39.84Z"/>
        <path class="cls-2" d="M954.25,38.93v-6.98c0-.26-.03-.59-.08-1-.06-.4-.2-.83-.42-1.28-.23-.45-.56-.91-1-1.37-.45-.47-1.05-.88-1.8-1.25-.75-.37-1.69-.67-2.8-.9-1.12-.24-2.47-.36-4.06-.36h-2.63s-1.41,0-1.41,0h-.84s-3.21,0-3.21,0c-2.37,0-4.23.25-5.58.75-1.35.5-2.37,1.09-3.05,1.77-.68.67-1.1,1.36-1.27,2.04-.17.7-.25,1.23-.25,1.61v6.84s0,.29,0,.29v6.84c0,.38.08.91.26,1.6.16.69.59,1.38,1.27,2.05.69.68,1.7,1.26,3.05,1.76,1.35.5,3.21.74,5.58.74h1.96s2.13,0,2.13,0h1.8s2.22,0,2.22,0c1.59,0,2.94-.12,4.06-.36,1.11-.24,2.04-.54,2.8-.91.75-.37,1.35-.79,1.8-1.25.44-.47.77-.92,1-1.37.22-.45.36-.88.42-1.29.05-.4.07-.73.07-.99v-6.98ZM951.3,46.21c-.11.53-.4,1.05-.88,1.55-.47.5-1.2.92-2.17,1.28-.97.36-2.32.54-4.05.54h-4.21s-4.06,0-4.06,0c-1.73,0-3.08-.17-4.05-.53-.97-.35-1.7-.78-2.17-1.28-.48-.5-.77-1.02-.88-1.55-.11-.53-.17-.97-.17-1.3v-.36s0-5.34,0-5.34v-.57s0-5.34,0-5.34v-.36c0-.33.06-.76.17-1.3.11-.54.4-1.05.88-1.55.47-.5,1.2-.93,2.17-1.28.97-.36,2.32-.54,4.05-.54h4.22s4.05,0,4.05,0c1.73,0,3.09.17,4.05.53.98.35,1.7.78,2.18,1.28.48.5.77,1.01.88,1.55.11.54.16.97.16,1.3v.36s0,5.59,0,5.59v.07s0,5.59,0,5.59v.36c0,.33-.05.77-.16,1.3Z"/>
        <path class="cls-2" d="M389.94,70.83v12.85s24.26-.02,24.26-.02v16.07c.01,5.43-1.04,7.48-1.5,8.11-.65.91-2.81,1.49-5.76,1.56h-14.45c-3.46-.01-6-1.02-7.61-3.15-1.9-2.52-2.83-5.64-2.83-9.55l-.03-38.74c0-1.6.25-3.25.73-4.91.44-1.52,1.15-2.9,2.11-4.12.92-1.18,2.11-2.16,3.54-2.94,1.32-.72,2.89-1.06,4.8-1.07l34.11-.02v-13.15s-35.64.03-35.64.03c-3.67,0-6.99.77-9.87,2.27-2.74,1.43-5.11,3.3-7.04,5.56-1.94,2.26-3.43,4.86-4.42,7.72-.98,2.81-1.47,5.62-1.47,8.35l.03,43.17c0,2.85.5,5.69,1.49,8.45,1,2.81,2.49,5.37,4.42,7.61,1.96,2.28,4.36,4.13,7.13,5.51,2.81,1.4,6.05,2.13,9.62,2.15.06,0,.12,0,.18,0h15.41c7.13-.02,12.4-2.14,15.68-6.33,3.01-3.85,4.54-8.64,4.53-14.23l-.02-31.21-37.4.02Z"/>
        <path class="cls-2" d="M521.98,33.12h0c-3.68-1.91-7.6-1.88-11.04.09-2.57,1.47-3.58,3.36-3.95,4.63l-31.28,84.67h14.22s26.81-73.11,26.81-73.11l21.71,59.92-39.42.03v13.15s58.11-.04,58.11-.04l-30.88-84.56c-.58-1.99-2.03-3.6-4.28-4.78Z"/>
        <path class="cls-2" d="M686.95,38.51c-.38-1.53-1.38-2.84-2.96-3.89-.84-.56-1.85-1.08-2.99-1.56-1.08-.44-2.18-.8-3.28-1.05-2.28-.53-3.84-.56-6.21-.11-1.1.21-2.18.52-3.21.93-1.04.42-2.02.93-2.89,1.51-1.58,1.06-2.57,2.38-2.95,3.92l-15.01,62.87-15.11-62.89c-.38-1.53-1.38-2.83-2.95-3.88-.89-.59-1.91-1.11-3.05-1.54-1.06-.4-2.18-.7-3.32-.9-1.14-.2-2.11-.3-2.84-.29-.96,0-2.03.14-3.26.43-1.13.27-2.23.64-3.29,1.1-1.04.46-2,.97-2.84,1.53-1.57,1.05-2.56,2.36-2.93,3.88l-.14.54.06,83.32h13.15s-.05-75.72-.05-75.72l16.77,69.07c.36,1.43,1.35,3.45,4.04,4.92,1.56.86,3.24,1.38,4.99,1.53l.25.02,1.17-.02c1.71-.16,3.38-.66,4.97-1.49,2.8-1.47,3.83-3.53,4.2-5l16.67-69.06.05,75.7h13.15s-.06-83.22-.06-83.22l-.14-.65Z"/>
        <path class="cls-2" d="M767.11,109.16h-.11c-1.85-.01-3.39-.36-4.69-1.06-1.43-.77-2.63-1.76-3.55-2.94-.98-1.24-1.67-2.57-2.12-4.07-.48-1.6-.73-3.22-.73-4.8v-12.87s43.31-.03,43.31-.03v-12.85s-43.33.03-43.33.03v-12.87c0-1.6.24-3.25.72-4.91.44-1.52,1.15-2.9,2.11-4.12.92-1.18,2.11-2.16,3.54-2.93,1.33-.72,2.9-1.06,4.8-1.06l32.13-.02v-13.15s-33.66.02-33.66.02c-3.67,0-6.99.77-9.87,2.27-2.74,1.43-5.11,3.3-7.04,5.56-1.94,2.25-3.43,4.85-4.43,7.72-.97,2.8-1.47,5.61-1.47,8.35l.03,43.17c0,2.85.5,5.7,1.49,8.45,1,2.81,2.49,5.37,4.42,7.61,1.96,2.28,4.36,4.13,7.13,5.51,2.81,1.4,6.04,2.13,9.62,2.15.06,0,.12,0,.19,0l33.65-.02v-13.15s-32.13.02-32.13.02Z"/>
        <rect class="cls-2" x="854.86" y="51.14" width="13.15" height="71.11"/>
        <path class="cls-2" d="M901.01,81.45c2.53-1.42,4.81-3.3,6.77-5.57,1.97-2.28,3.55-5,4.7-8.09,1.15-3.09,1.73-6.47,1.72-10.04,0-7.55-2.31-13.86-6.86-18.77-4.64-5.01-10.88-7.55-18.57-7.54l-33.96.02v13.15s33.97-.02,33.97-.02c.05,0,.09,0,.14,0,3.66.02,6.55,1.07,8.83,3.2,2.22,2.08,3.3,5.34,3.31,9.97,0,1.99-.31,3.84-.93,5.52-.6,1.61-1.42,2.95-2.52,4.08-1.11,1.15-2.44,2.08-3.94,2.76-1.46.66-3.05.98-4.86.98h-11.78s30.6,51.12,30.6,51.12h16.28s-24.54-39.94-24.54-39.94c.55-.25,1.1-.53,1.64-.83Z"/>
      </g>
      <g>
        <polygon class="cls-1" points="595.89 164.08 565.18 164.1 565.18 171.12 577.07 171.11 577.09 211.71 584.12 211.7 584.09 171.11 595.89 171.1 595.89 164.08"/>
        <path class="cls-1" d="M687.16,204.62c-.98,0-1.79-.18-2.48-.55-.75-.4-1.35-.9-1.84-1.52-.5-.63-.87-1.34-1.1-2.1-.25-.84-.38-1.68-.38-2.49v-6.66s22.64-.02,22.64-.02v-6.86s-22.65.02-22.65.02v-6.66c0-.83.12-1.68.38-2.55.23-.78.59-1.5,1.09-2.13.49-.62,1.09-1.12,1.84-1.52.68-.37,1.49-.55,2.47-.55h16.87s0-7.04,0-7.04h-17.67c-1.93.01-3.68.42-5.19,1.21-1.44.75-2.69,1.74-3.71,2.92-1.02,1.19-1.8,2.55-2.33,4.06-.51,1.47-.77,2.95-.77,4.39l.02,22.57c0,1.5.27,3,.78,4.44.52,1.47,1.3,2.82,2.33,4,1.03,1.2,2.29,2.18,3.75,2.9,1.48.74,3.18,1.12,5.06,1.13.03,0,.07,0,.1,0h17.67s0-7.04,0-7.04h-16.87Z"/>
        <path class="cls-1" d="M793.63,204.55c-1-.02-1.79-.18-2.47-.55-.75-.4-1.35-.9-1.84-1.52-.5-.63-.87-1.33-1.1-2.1-.25-.84-.38-1.67-.38-2.49v-20.18c-.02-.83.11-1.68.36-2.55.23-.78.59-1.5,1.09-2.13.49-.62,1.09-1.12,1.84-1.52.68-.37,1.49-.55,2.47-.55h16.71s0-7.04,0-7.04h-17.51c-1.93.01-3.68.42-5.19,1.21-1.44.75-2.69,1.74-3.71,2.92-1.02,1.19-1.8,2.55-2.33,4.06-.51,1.47-.77,2.95-.77,4.39l.02,22.57c0,1.5.27,3,.78,4.44.52,1.47,1.31,2.82,2.32,4,1.03,1.2,2.3,2.18,3.75,2.9,1.48.74,3.18,1.12,5.06,1.13.03,0,.07,0,.1,0h17.51s0-7.04,0-7.04h-16.71Z"/>
        <polygon class="cls-1" points="922.7 163.9 915.67 163.91 915.69 184.24 899.03 184.25 899.01 163.92 891.99 163.92 892.02 211.54 899.04 211.54 899.03 191.28 915.69 191.27 915.71 211.52 922.73 211.52 922.7 163.9"/>
      </g>
    </g>
  </g>
</svg>