<?xml version="1.0" encoding="UTF-8"?>
<svg id="Capa_2" data-name="Capa 2" xmlns="http://www.w3.org/2000/svg" viewBox="0 0 381.8 389.74">
  <defs>
    <style>
      .cls-1 {
        fill: #89d300;
      }

      .cls-2 {
        fill: #1d2333;
      }
    </style>
  </defs>
  <g id="Capa_1-2" data-name="Capa 1">
    <g>
      <g>
        <path class="cls-1" d="M120.22,67.1s89.91,44.54,100.28,77.13c0,0,8.55-9.2,4.57-22.3,0,0,0,0,0,0,0,0,2.77-10.08-5.92-32.54-8.69-22.46-5.42-35-2.62-44.02,0,0-18.25,14.67-6.63,34.6,8.67,14.88,11.31,24.04,11.77,31.23-3.67-8.72-11.04-21.55-25.54-33.95-25.33-21.67-27.51-47.98-27.51-47.98,0,0-13.98,23,5.93,37.37,7.28,5.26,14.71,10.95,21.43,16.99.02.02.04.03.06.05.53.48,1.05.96,1.57,1.44.04.03.07.07.11.1.51.47,1.01.94,1.5,1.41.05.05.1.09.14.14.48.46.96.93,1.44,1.4.06.06.12.11.17.17.46.46.92.92,1.37,1.38.07.07.14.14.21.21.44.45.87.9,1.3,1.35.08.08.15.16.23.24.42.44.83.89,1.24,1.34.08.09.17.18.25.28.4.44.79.88,1.17,1.32.09.1.18.2.26.3.38.44.75.87,1.11,1.31.09.11.18.22.27.33.36.43.71.87,1.05,1.3.09.12.18.23.27.35.34.43.67.86,1,1.3.09.12.18.24.27.37.32.43.63.86.94,1.3.09.13.18.25.27.38.3.43.59.86.88,1.29.09.13.18.27.26.4.28.43.55.86.82,1.29.09.14.17.28.25.41.26.43.51.86.76,1.29.08.14.16.29.24.43.21.37.41.74.6,1.11-12.76-13.07-40.16-27.71-95.81-40.51Z"/>
        <path class="cls-1" d="M155.85,98.1c1.17.37,2.29.73,3.36,1.06,1.6.5,3.09.96,4.45,1.37,5.41,1.65,8.68,2.55,8.68,2.55,0,0-107.37-45.07-86.89-101.54,0,0-.23.13-.64.38-.17.1-.36.22-.58.36-1,.63-2.55,1.65-4.38,3.02-9.81,7.28-27.95,24.4-16.16,44.82,11.53,19.99,64.73,39.18,92.18,47.97Z"/>
        <path class="cls-1" d="M59.42,97.22c11.4,8.67,38.25,10.69,62.91,10.46,14.32-.13,27.9-1.02,37.28-1.8,2.09-.17,3.96-.34,5.6-.49.82-.08,1.57-.15,2.26-.22.34-.03.67-.07.98-.1.62-.06,1.18-.12,1.66-.17,1.44-.15,2.23-.24,2.23-.24,0,0-108.9-1.11-112.07-56.83,0,0-1.52,1.97-3.44,5.2-5.75,9.7-15.05,30.76,2.59,44.19Z"/>
        <path class="cls-1" d="M171.76,106.29s-90.72,39.76-115.21-5.23c0,0-7.85,35.2,18.67,41.25,26.52,6.05,96.54-36.02,96.54-36.02Z"/>
        <path class="cls-1" d="M102.86,173.14c25.08-4.29,69.5-65.51,69.5-65.51,0,0-63.1,66.64-101.05,36.72,0,0,6.46,33.08,31.55,28.79Z"/>
        <path class="cls-1" d="M334.07,48.28c15.33-27.44-22.44-48.28-22.44-48.28,21.25,56.18-85.49,102.72-85.49,102.72,0,0,92.6-27.01,107.93-54.45Z"/>
        <path class="cls-1" d="M338.96,95.29c23.27-18.22-1.53-49.37-1.53-49.37-2.41,55.75-111.28,58.36-111.28,58.36,0,0,89.53,9.23,112.81-8.99Z"/>
        <path class="cls-1" d="M226.76,105.91s70.59,41.1,97.03,34.69c26.44-6.41,18.1-41.5,18.1-41.5-23.86,45.33-115.13,6.81-115.13,6.81Z"/>
        <path class="cls-1" d="M226.17,107.26s45.26,60.6,70.4,64.54c25.14,3.95,31.15-29.22,31.15-29.22-37.54,30.45-101.55-35.32-101.55-35.32Z"/>
        <path class="cls-1" d="M183.96,141.01s-56.07,89.81-86.86,93.29c0,0,31.79,57.62,86.86-93.29Z"/>
        <path class="cls-1" d="M134.69,241.11s32.96,35.17,50.97-93.41c0,0-28.29,82.66-50.97,93.41Z"/>
        <path class="cls-1" d="M188.94,155.66s-6.94,68.18-21.66,82.35c0,0,29.79,16.45,21.66-82.35Z"/>
        <path class="cls-1" d="M196.41,172.95c-1.17-4.31-2.52-8.92-4.08-13.85,0,0,6.88,58.39-2.62,74.69,0,0,0,0,0,0h0s0,0,0,0c0,0,13.03,2.01,13.07-22.38.01-8.87-1.69-21.24-6.36-38.46Z"/>
        <path class="cls-1" d="M180.96,114.51c-.23-.29-.43-.53-.57-.71-.22-.27-.33-.41-.33-.41,0,0,54.84,87.13,21.75,127.35,0,0,32.04-1.98,31.2-32.75-.76-27.41-42.17-81.03-51.22-92.44-.32-.4-.6-.75-.83-1.04Z"/>
      </g>
      <g>
        <path class="cls-2" d="M376.35,275.29c.27-.33.43-.7.48-1.09v-.07c.02-.06.02-.15.02-.26v-.21s0-.56,0-.56c0-.17-.04-.4-.11-.7-.07-.3-.26-.59-.55-.88-.29-.29-.73-.54-1.31-.74-.58-.2-1.38-.31-2.4-.3-1.02,0-1.82.12-2.4.34-.58.21-1.01.47-1.3.76-.29.29-.47.58-.54.87-.07.29-.11.52-.11.7v.51s.05,6.76.05,6.76l2.18-.02v-2.02s-.01-.02-.01-.02v-.02c0-.22.06-.4.19-.54.12-.14.26-.25.41-.33.18-.09.38-.16.6-.21.13-.03.28-.08.46-.14.14-.05.31-.1.5-.15.19-.06.38-.12.58-.18l1.52,3.59,2.29-.02-1.77-4.22c.54-.25.95-.54,1.22-.88ZM374.42,274.3c-.14.19-.38.35-.75.46-.09.03-.19.06-.28.1-.1.03-.2.06-.31.09-.42.13-.9.28-1.45.45-.56.17-.98.31-1.29.41v-2.09s-.02-.21-.02-.21c0-.13.02-.26.07-.42.04-.15.14-.3.28-.44.15-.14.36-.26.64-.36.28-.1.66-.15,1.13-.16.43,0,.79.03,1.06.11.27.08.49.17.67.29.17.11.29.24.37.37.07.13.12.26.13.38v.49c-.03.17-.12.36-.25.55Z"/>
        <path class="cls-2" d="M381.77,275.52l-.03-4.56c0-.17-.02-.39-.05-.65-.04-.26-.14-.54-.28-.83-.15-.29-.37-.59-.66-.89-.29-.3-.69-.57-1.18-.81-.49-.24-1.1-.43-1.83-.58-.73-.15-1.61-.23-2.65-.22h-1.72s-.92.02-.92.02h-.55s-2.1.02-2.1.02c-1.55.01-2.76.18-3.64.51-.88.33-1.54.72-1.98,1.17-.44.44-.71.89-.82,1.34-.11.45-.16.8-.16,1.05l.03,4.46v.19s.03,4.46.03,4.46c0,.25.06.6.17,1.04.11.45.39.9.84,1.33.45.44,1.12.81,2,1.14.88.32,2.09.47,3.64.46h1.28s1.39-.02,1.39-.02h1.17s1.45-.02,1.45-.02c1.04,0,1.92-.09,2.64-.25.72-.16,1.33-.36,1.82-.6.49-.24.88-.52,1.17-.82.29-.31.5-.61.65-.9.14-.3.23-.58.27-.84.03-.26.05-.48.04-.65l-.03-4.55ZM379.87,280.28c-.07.35-.26.69-.57,1.02-.31.33-.78.61-1.41.84-.63.24-1.51.36-2.64.37l-2.75.02-2.65.02c-1.13,0-2.01-.1-2.65-.33-.64-.23-1.11-.5-1.42-.82-.31-.32-.51-.66-.58-1.01-.07-.35-.12-.63-.12-.85v-.23s-.03-3.49-.03-3.49v-.37s-.03-3.49-.03-3.49v-.23c0-.22.04-.5.1-.85.07-.35.26-.69.57-1.01.3-.33.78-.61,1.41-.85.63-.24,1.51-.36,2.64-.37l2.75-.02,2.64-.02c1.13,0,2.01.1,2.65.33.64.23,1.11.5,1.42.83.31.32.51.66.58,1.01.07.35.11.63.11.85v.23s.03,3.65.03,3.65v.05s.03,3.65.03,3.65v.23c0,.22-.03.5-.1.85Z"/>
        <path class="cls-2" d="M13.8,298.6l.06,8.38,15.82-.11.07,10.49c.02,3.54-.66,4.88-.95,5.3-.42.59-1.83.98-3.75,1.04l-9.43.06c-2.26,0-3.92-.65-4.97-2.03-1.25-1.63-1.87-3.67-1.89-6.22l-.17-25.27c0-1.04.15-2.12.46-3.21.28-.99.74-1.9,1.36-2.7.6-.77,1.37-1.42,2.3-1.93.86-.47,1.88-.71,3.12-.71l22.25-.15-.06-8.58-23.24.16c-2.39.02-4.56.53-6.43,1.52-1.78.95-3.32,2.18-4.57,3.65-1.26,1.48-2.22,3.18-2.85,5.05-.63,1.83-.94,3.67-.92,5.46l.19,28.16c.01,1.86.35,3.71,1,5.51.66,1.83,1.64,3.49,2.91,4.95,1.29,1.48,2.86,2.68,4.67,3.57,1.84.9,3.95,1.36,6.29,1.36.04,0,.08,0,.12,0l10.05-.07c4.65-.03,8.08-1.44,10.2-4.19,1.95-2.53,2.93-5.65,2.9-9.3l-.14-20.36-24.4.17Z"/>
        <path class="cls-2" d="M99.78,273.47h0c-2.41-1.23-4.97-1.2-7.2.1-1.67.97-2.32,2.21-2.56,3.04l-20.06,55.36,9.28-.06,17.19-47.79,14.4,39-25.71.18.06,8.58,37.9-.26-20.48-55.03c-.39-1.3-1.34-2.34-2.81-3.1Z"/>
        <path class="cls-2" d="M207.4,276.32c-.25-1-.91-1.85-1.94-2.53-.55-.36-1.21-.7-1.96-1-.71-.28-1.43-.51-2.14-.67-1.49-.34-2.51-.35-4.05-.05-.72.14-1.42.35-2.09.62-.68.28-1.31.61-1.88,1-1.02.7-1.67,1.56-1.91,2.57l-9.54,41.07-10.11-40.96c-.26-.99-.91-1.84-1.94-2.52-.58-.38-1.25-.72-2-.99-.7-.25-1.42-.45-2.17-.58-.74-.13-1.38-.19-1.86-.18-.63,0-1.32.1-2.12.29-.73.18-1.45.43-2.14.73-.68.3-1.3.64-1.84,1.01-1.02.69-1.66,1.55-1.9,2.54l-.09.35.37,54.35,8.58-.06-.34-49.39,11.22,44.98c.24.93.89,2.25,2.65,3.19,1.02.56,2.12.89,3.26.98h.16s.76,0,.76,0c1.11-.11,2.2-.44,3.24-.99,1.82-.97,2.48-2.32,2.72-3.28l10.59-45.11.34,49.38,8.58-.06-.37-54.28-.09-.42Z"/>
        <path class="cls-2" d="M259.98,322.08h-.07c-1.21,0-2.21-.22-3.06-.67-.94-.5-1.72-1.14-2.33-1.9-.64-.8-1.1-1.67-1.4-2.65-.32-1.04-.49-2.1-.49-3.13l-.06-8.4,28.26-.19-.06-8.38-28.26.19-.06-8.4c0-1.04.15-2.12.46-3.21.28-.99.74-1.9,1.36-2.7.6-.77,1.37-1.42,2.3-1.93.86-.47,1.88-.71,3.13-.71l20.96-.14-.06-8.58-21.95.15c-2.39.02-4.56.53-6.43,1.52-1.78.95-3.32,2.17-4.57,3.65-1.26,1.48-2.22,3.18-2.86,5.05-.62,1.83-.93,3.67-.92,5.45l.19,28.16c.01,1.86.35,3.71,1,5.51.66,1.83,1.65,3.49,2.92,4.94,1.29,1.48,2.86,2.68,4.67,3.57,1.84.9,3.95,1.36,6.28,1.36.04,0,.08,0,.12,0l21.95-.15-.06-8.58-20.96.14Z"/>
        <rect class="cls-2" x="317.13" y="283.85" width="8.58" height="46.39" transform="translate(-2.1 2.22) rotate(-.39)"/>
        <path class="cls-2" d="M347.21,303.47c1.65-.94,3.13-2.17,4.4-3.66,1.27-1.49,2.29-3.28,3.03-5.3.74-2.02,1.1-4.23,1.08-6.56-.03-4.92-1.56-9.03-4.55-12.22-3.05-3.25-7.13-4.88-12.15-4.84l-22.15.15.06,8.58,22.15-.15s.06,0,.09,0c2.39,0,4.28.67,5.77,2.05,1.46,1.35,2.18,3.47,2.2,6.49,0,1.3-.19,2.51-.59,3.6-.39,1.05-.92,1.93-1.63,2.67-.72.76-1.58,1.37-2.56,1.82-.95.43-1.98.65-3.16.66l-7.68.05,20.17,33.22,10.62-.07-16.17-25.94c.36-.17.72-.35,1.07-.55Z"/>
      </g>
      <g>
        <polygon class="cls-1" points="148.51 358.6 128.48 358.73 128.51 363.32 136.27 363.26 136.45 389.74 141.03 389.71 140.85 363.23 148.55 363.18 148.51 358.6"/>
        <path class="cls-1" d="M208.21,384.68c-.64,0-1.17-.11-1.62-.35-.49-.26-.88-.58-1.2-.98-.33-.41-.57-.87-.72-1.36-.17-.54-.25-1.09-.26-1.63l-.03-4.34,14.77-.1-.03-4.48-14.77.1-.03-4.34c0-.54.08-1.1.24-1.66.15-.51.38-.98.7-1.39.32-.41.71-.73,1.19-1,.44-.24.97-.36,1.61-.37l11-.08-.03-4.58-11.52.08c-1.26,0-2.4.28-3.38.8-.94.5-1.75,1.14-2.41,1.92-.66.78-1.17,1.67-1.5,2.66-.33.96-.49,1.93-.49,2.87l.1,14.72c0,.98.19,1.95.53,2.89.35.96.86,1.83,1.53,2.6.68.78,1.5,1.41,2.46,1.88.97.48,2.08.72,3.3.72.02,0,.05,0,.07,0l11.52-.08-.03-4.58-11,.08Z"/>
        <path class="cls-1" d="M277.66,384.2c-.65,0-1.17-.11-1.62-.35-.49-.26-.88-.58-1.2-.98-.33-.41-.57-.87-.72-1.36-.17-.54-.25-1.09-.26-1.63l-.09-13.16c0-.54.08-1.1.24-1.66.15-.51.38-.98.7-1.39.32-.41.71-.73,1.19-1,.44-.24.97-.36,1.61-.37l10.9-.07-.03-4.58-11.42.08c-1.26,0-2.4.28-3.38.8-.94.5-1.74,1.14-2.41,1.92-.66.78-1.17,1.67-1.5,2.66-.33.96-.49,1.93-.49,2.87l.1,14.72c0,.98.19,1.96.53,2.89.35.96.86,1.83,1.53,2.6.68.78,1.51,1.41,2.46,1.88.97.48,2.08.72,3.31.72.02,0,.04,0,.06,0l11.42-.08-.03-4.58-10.9.08Z"/>
        <polygon class="cls-1" points="361.69 357.16 357.11 357.2 357.2 370.46 346.33 370.54 346.24 357.27 341.66 357.3 341.87 388.36 346.45 388.33 346.36 375.12 357.23 375.04 357.32 388.26 361.9 388.23 361.69 357.16"/>
      </g>
    </g>
  </g>
</svg>