<svg id="Layer_1" enable-background="new 0 0 512 512" height="512" viewBox="0 0 512 512" width="512" xmlns="http://www.w3.org/2000/svg"><g id="XMLID_754_"><g id="XMLID_953_"><path id="XMLID_739_" d="m256 488c-11.2 0-21.7-4.4-29.6-12.3l-35.8-35.8c-4.9-4.9-11.4-7.6-18.3-7.6h-50.7c-23.1 0-41.9-18.8-41.9-41.9v-50.7c0-6.9-2.7-13.4-7.6-18.3l-35.8-35.8c-16.3-16.3-16.3-42.9 0-59.2l35.8-35.8c4.9-4.9 7.6-11.4 7.6-18.3v-50.7c0-23.1 18.8-41.9 41.9-41.9h50.7c6.9 0 13.4-2.7 18.3-7.6l35.8-35.8c7.9-7.9 18.4-12.3 29.6-12.3s21.7 4.4 29.6 12.3l35.8 35.8c4.9 4.9 11.4 7.6 18.3 7.6h50.7c23.1 0 41.9 18.8 41.9 41.9v50.7c0 6.9 2.7 13.4 7.6 18.3l35.8 35.8c16.3 16.3 16.3 42.9 0 59.2l-35.8 35.8c-4.9 4.9-7.6 11.4-7.6 18.3v50.7c0 23.1-18.8 41.9-41.9 41.9h-50.7c-6.9 0-13.4 2.7-18.3 7.6l-35.8 35.8c-7.9 7.9-18.4 12.3-29.6 12.3zm-134.4-392.3c-14.3 0-25.9 11.6-25.9 25.9v50.7c0 11.2-4.4 21.7-12.3 29.6l-35.8 35.8c-10.1 10.1-10.1 26.5 0 36.6l35.8 35.8c7.9 7.9 12.3 18.4 12.3 29.6v50.7c0 14.3 11.6 25.9 25.9 25.9h50.7c11.2 0 21.7 4.4 29.6 12.3l35.8 35.8c4.9 4.9 11.4 7.6 18.3 7.6s13.4-2.7 18.3-7.6l35.8-35.8c7.9-7.9 18.4-12.3 29.6-12.3h50.7c14.3 0 25.9-11.6 25.9-25.9v-50.7c0-11.2 4.4-21.7 12.3-29.6l35.8-35.8c10.1-10.1 10.1-26.5 0-36.6l-35.8-35.8c-7.9-7.9-12.3-18.4-12.3-29.6v-50.7c0-14.3-11.6-25.9-25.9-25.9h-50.7c-11.2 0-21.7-4.4-29.6-12.3l-35.8-35.8c-4.9-4.9-11.4-7.6-18.3-7.6s-13.4 2.7-18.3 7.6l-35.8 35.8c-7.9 7.9-18.4 12.3-29.6 12.3z"/></g><g id="XMLID_963_"><path id="XMLID_736_" d="m256 402.1c-80.6 0-146.1-65.6-146.1-146.1s65.5-146.1 146.1-146.1 146.1 65.5 146.1 146.1-65.5 146.1-146.1 146.1zm0-276.2c-71.8 0-130.1 58.4-130.1 130.1s58.3 130.1 130.1 130.1 130.1-58.4 130.1-130.1-58.3-130.1-130.1-130.1z"/></g><g id="XMLID_292_"><path id="XMLID_733_" d="m312 336h-112c-3.6 0-6.7-2.4-7.7-5.8l-32-112.7c-.9-3.2.3-6.7 3-8.7s6.4-2.1 9.1-.2l41.1 27.4 35.6-57c1.5-2.3 4-3.8 6.8-3.8s5.3 1.4 6.8 3.8l35.6 57 41.1-27.4c2.8-1.9 6.4-1.8 9.1.2s3.9 5.4 3 8.7l-32 112.7c-.8 3.4-3.9 5.8-7.5 5.8zm-106-16h100l24.4-86-29.9 20c-1.8 1.2-4 1.6-6.1 1.2-2.1-.5-4-1.7-5.1-3.6l-33.3-53.2-33.2 53.1c-1.1 1.8-3 3.1-5.1 3.6s-4.3 0-6.1-1.2l-29.9-20z"/></g></g></svg>