<?xml version="1.0" encoding="UTF-8"?>
<svg xmlns="http://www.w3.org/2000/svg" id="OBJECT" viewBox="0 0 512 512" width="512" height="512"><path d="M509.8,87.05,425,2.2a7.5,7.5,0,0,0-10.61,0L393.13,23.41a17.52,17.52,0,0,0-1,23.63l-58.25,22.4a7.52,7.52,0,0,0-4.35,4.43l-23,63.13H27.5A27.54,27.54,0,0,0,0,164.5v320A27.54,27.54,0,0,0,27.5,512h320A27.54,27.54,0,0,0,375,484.5v-279l63.13-23.05a7.52,7.52,0,0,0,4.43-4.35L465,119.88a17.49,17.49,0,0,0,23.63-1L509.8,97.66a7.5,7.5,0,0,0,0-10.61ZM291.36,192a17.35,17.35,0,0,0,3.75,5.63l19.27,19.26a17.39,17.39,0,0,0,5.62,3.76V457H55V192ZM360,484.5A12.52,12.52,0,0,1,347.5,497H27.5A12.52,12.52,0,0,1,15,484.5v-320A12.52,12.52,0,0,1,27.5,152H301l-9.12,25H47.5a7.5,7.5,0,0,0-7.5,7.5v280a7.5,7.5,0,0,0,7.5,7.5h280a7.5,7.5,0,0,0,7.5-7.5V220.13L360,211Zm69.78-314.94-102.17,37.3a2.49,2.49,0,0,1-2.63-.58L320.65,202l52-52a27.5,27.5,0,1,0-10.61-10.61l-52,52L305.72,187a2.49,2.49,0,0,1-.58-2.63l37.3-102.17,61.21-23.54,49.67,49.67ZM377.22,117.1a12.5,12.5,0,1,1,0,17.68A12.45,12.45,0,0,1,377.22,117.1ZM478,108.26a2.49,2.49,0,0,1-3.53,0L403.74,37.55a2.49,2.49,0,0,1,0-3.53l15.91-15.91,74.24,74.24Z"/><path d="M120.27,346.51A7.52,7.52,0,0,0,127.5,352h120a7.52,7.52,0,0,0,7.23-5.49l20-72a7.5,7.5,0,0,0-10.3-8.85l-44.07,19.75L194,240.69a7.5,7.5,0,0,0-12.92,0l-26.4,44.72-44.07-19.75a7.5,7.5,0,0,0-10.3,8.85Zm34.35-44.67a7.5,7.5,0,0,0,9.53-3l23.35-39.56,23.35,39.56a7.51,7.51,0,0,0,9.53,3l35.62-16L241.8,337H133.2L119,285.87Z"/><path d="M247.5,367h-120a7.5,7.5,0,0,0-7.5,7.5v20A17.52,17.52,0,0,0,137.5,412h100A17.52,17.52,0,0,0,255,394.5v-20A7.5,7.5,0,0,0,247.5,367ZM240,394.5a2.5,2.5,0,0,1-2.5,2.5h-100a2.5,2.5,0,0,1-2.5-2.5V382H240Z"/></svg>
