<?xml version="1.0" encoding="UTF-8"?>
<svg id="Capa_1" xmlns="http://www.w3.org/2000/svg" version="1.1" viewBox="0 0 512 512">
  <!-- Generator: Adobe Illustrator 30.5.1, SVG Export Plug-In . SVG Version: 2.1.4 Build 3)  -->
  <path d="M186.2,497h-58.9v-62.1c0-3.4-2.3-6.4-5.6-7.3-3.3-.9-6.8.7-8.5,3.7l-36.1,65.7H20l66.5-126.2c18.6-35.4,51.7-60.6,90.8-69.1l33.4-7.3c13.7,6.8,29.1,10.6,45.4,10.6s31.7-3.8,45.4-10.6l33.4,7.3c39.1,8.5,72.1,33.7,90.8,69.1,1.3,2.6,4,4,6.7,4s2.4-.3,3.5-.9c3.7-1.9,5.1-6.5,3.1-10.2-20.7-39.3-57.5-67.3-100.9-76.8l-18.6-4.1c16.6-13.2,29.1-31.4,35-52.3,3.4,1,7,1.5,10.6,1.5,20.4,0,37-16.6,37-37s-2.6-15.4-6.9-21.5c18.5-46,18.6-90.8,0-123.5-11.4-20.1-28.9-33.1-47.9-35.6-20-2.7-35.7,1.8-43.9,5.1-2.1-2.5-5.2-5.4-9.5-8.2C281.2,3.2,263.5-.7,241.4,0c-18.3.6-35.6,7.8-54.2,22.7-3.2,2.6-3.8,7.3-1.2,10.6,2.6,3.2,7.3,3.8,10.6,1.2,16-12.8,30.4-19,45.4-19.5,41.4-1.4,51.4,15.7,52,16.9.8,2.1,2.4,3.5,4.4,4.3,2.1.8,4.4.4,6.3-.8.2,0,16.3-9.5,40.6-6.2,14.4,1.9,27.8,12.2,36.9,28.2,7.5,13.3,22,49.2,1,105.3-5.4-3.1-11.6-4.8-18.2-4.8s-4.5.2-6.7.6v-1.2c0-10.5-4.3-20.5-11.9-27.4,0,0,0,0,0,0-17.2-15.8-36.6-43.8-44.2-55-2.2-3.2-5.6-5.2-9.4-5.5-3.9-.3-7.6,1.2-10.2,4.1-39,42.6-90.4,56.4-110.7,60.4-10.5,2.1-18.2,11.4-18.2,22.1v2.7c-2.2-.4-4.4-.6-6.7-.6-4,0-7.9.7-11.6,1.9-6.8-11.1-22-39.8-23.6-77.4,6.8.7,16.4.9,25.4-1.5,13.2-3.5,25.5-15.3,37.4-26.7,3-2.9,3.1-7.6.3-10.6-2.9-3-7.6-3.1-10.6-.3-10.6,10.1-21.5,20.5-31,23.1-12.5,3.4-27.3,0-27.4,0-2.2-.5-4.6,0-6.4,1.4s-2.9,3.5-2.9,5.8c-.7,45.5,17.3,80.1,25.7,93.8-7.6,6.8-12.4,16.7-12.4,27.6,0,20.4,16.6,37,37,37s7.1-.5,10.6-1.5c5.9,20.9,18.4,39.2,35,52.3l-18.6,4.1c-43.4,9.5-80.2,37.5-100.9,76.8L.9,501c-1.2,2.3-1.1,5.1.2,7.4,1.4,2.3,3.8,3.6,6.4,3.6h74.1c2.7,0,5.3-1.5,6.6-3.9l24.1-43.9v40.3c0,4.1,3.4,7.5,7.5,7.5h66.4c4.2,0,7.5-3.4,7.5-7.5,0-4.2-3.4-7.5-7.5-7.5h0ZM365,173.1c12.1,0,22,9.9,22,22s-9.9,22-22,22-5.1-.5-7.5-1.3c.5-4.3.8-8.7.8-13.1v-28.6c2.2-.7,4.4-1,6.7-1h0ZM147,217.1c-12.1,0-22-9.9-22-22s9.9-22,22-22,4.5.4,6.7,1v28.6c0,4.4.3,8.8.8,13.1-2.4.9-4.9,1.3-7.5,1.3ZM168.7,202.6v-46.7c0-3.6,2.5-6.7,6.1-7.4,21.4-4.2,75-18.6,116.7-62.7,8.8,13,27.6,39.3,44.7,55.1,4.5,4.1,7.1,10.1,7.1,16.4v45.2c0,48.1-39.1,87.3-87.3,87.3s-87.3-39.1-87.3-87.3Z"/>
  <path d="M511.1,501l-58.3-110.7c-1.9-3.7-6.5-5.1-10.2-3.1-3.7,1.9-5.1,6.5-3.1,10.2l52.5,99.7h-57.2l-36.1-65.7c-1.6-3-5.1-4.5-8.5-3.7-3.3.9-5.6,3.8-5.6,7.3v62.1h-168.5c-4.2,0-7.5,3.4-7.5,7.5s3.4,7.5,7.5,7.5h176c4.2,0,7.5-3.4,7.5-7.5v-40.3l24.1,43.9c1.3,2.4,3.8,3.9,6.6,3.9h74.1c2.6,0,5.1-1.4,6.4-3.6,1.4-2.3,1.4-5.1.2-7.4Z"/>
  <path d="M228.4,364.1c-13.7,1.2-29.5,10.3-32.5,32.5-6,43.8,53.9,73.5,56.4,74.7,1.2.6,2.5.9,3.7.9s2.6-.3,3.7-.9c2.6-1.2,62.4-30.9,56.4-74.7-3-22.2-18.8-31.3-32.5-32.5-10.6-.9-20.7,2.5-27.6,8.8-6.9-6.3-17-9.7-27.6-8.8ZM247.2,388.3c1.2,3.8,4.8,6.5,8.8,6.5s7.6-2.6,8.8-6.5c2-6.4,10.6-10.9,19.5-10.1,4.8.4,16.2,3.1,18.4,19.2,3.6,26.1-29.4,50-46.7,59.5-5.2-2.9-14.8-8.7-24.1-16.7-11.7-10-25.1-25.6-22.7-42.9,2.2-16.2,13.6-18.8,18.4-19.2.7,0,1.3,0,2,0,8.2,0,15.7,4.3,17.6,10.2h0Z"/>
</svg>