<svg id="Layer_2" enable-background="new 0 0 500 500" viewBox="0 0 500 500" xmlns="http://www.w3.org/2000/svg"><g fill="rgb(0,0,0)"><path d="m257.0117 160.7007c1.1953 0 2.4033-.3291 3.4863-1.0186l35.2598-22.457c3.0273-1.9282 3.9189-5.9463 1.9902-8.9741-1.9287-3.0288-5.9453-3.9189-8.9746-1.9907l-35.2598 22.457c-3.0273 1.9282-3.9189 5.9463-1.9902 8.9741 1.2393 1.9458 3.3409 3.0093 5.4883 3.0093z"/><path d="m249.8848 110.9033c-2.7812-2.2725-6.874-1.8594-9.1465.9199l-9.6807 11.8462c-2.2715 2.7798-1.8594 6.875.9199 9.1465 1.208.9868 2.6631 1.4668 4.1094 1.4668 1.8838 0 3.752-.8145 5.0371-2.3867l9.6807-11.8462c2.2715-2.7798 1.8594-6.875-.9199-9.1465z"/><path d="m288.0703 173.5645-17.5684 4.459c-3.4795.8833-5.585 4.4199-4.7012 7.8994.7461 2.9429 3.3916 4.9023 6.2949 4.9023.5293 0 1.0674-.0649 1.6035-.2012l17.5684-4.459c3.4795-.8833 5.585-4.4199 4.7012-7.8994-.8818-3.479-4.4228-5.584-7.8984-4.7011z"/><path d="m102.2471 229.1997 21.3555 33.5293c1.2031 1.8896 3.2803 3.0083 5.4805 3.0083.2891 0 .5801-.019.8721-.0586l9.8682-1.3323 8.8447 13.8879c3.4106 5.355 8.6748 9.0898 14.5947 10.6702v135.4988c0 15.8994 12.9346 28.8345 28.834 28.8345h180.9102c15.8994 0 28.834-12.9351 28.834-28.8345v-53.3603c0-3.5898-2.9102-6.5-6.5-6.5s-6.5 2.9102-6.5 6.5v7.7354h-212.5783v-89.9158c7.0635-1.9318 12.9282-6.8665 16.0283-13.635 2.6504-5.7863 2.9668-12.2274 1.0347-18.1042l53.3159-7.198c2.1973-.2964 4.0918-1.6929 5.0254-3.7036.9336-2.0112.7783-4.3594-.4131-6.2295l-18.9155-29.6993c13.9053-10.6642 17.6064-30.4366 8.02-45.4901-9.5874-15.0547-29.0713-20.0598-44.6152-11.9683l-18.915-29.6987c-1.1914-1.8701-3.2529-3.0044-5.4707-3.0083-.0039 0-.0078 0-.0117 0-2.2129 0-4.2734 1.126-5.4697 2.9883l-63.6162 99.0806c-1.3693 2.1321-1.3742 4.866-.0128 7.0032zm286.5937 162.5786v32.625c0 8.731-7.1035 15.8345-15.834 15.8345h-180.9101c-8.7305 0-15.834-7.1035-15.834-15.8345v-32.625zm-208.3691-121.9638c-1.7119 3.7378-5.0273 6.2217-9.0957 6.8145-4.6309.6772-9.2334-1.4385-11.7432-5.3784l-5.6172-8.8201 25.9272-3.5004c1.9571 3.3721 2.1676 7.3057.5289 10.8844zm48.9219-98.0284c5.731 8.9995 3.7847 20.7065-4.0908 27.4595l-22.5234-35.3635c9.4481-4.2825 20.8812-1.0968 26.6142 7.904zm-58.0704-33.0937 63.5049 99.71-102.4941 13.8373-16.8887-26.5176z"/><path d="m84.7246 234.5c-3.0273 1.9287-3.9189 5.9463-1.9902 8.9741l19.6816 30.9014c1.2393 1.9458 3.3408 3.0093 5.4883 3.0093 1.1953 0 2.4033-.3291 3.4863-1.0186 3.0273-1.9287 3.9189-5.9463 1.9902-8.9741l-19.6816-30.9014c-1.9287-3.0293-5.9453-3.9184-8.9746-1.9907z"/><path d="m373.0068 46.7622h-180.9101c-15.8994 0-28.834 12.9351-28.834 28.8345v22.1421c0 3.5898 2.9102 6.5 6.5 6.5s6.5-2.9102 6.5-6.5v-22.1421c0-8.731 7.1035-15.8345 15.834-15.8345h180.9102c8.7305 0 15.834 7.1035 15.834 15.8345v148.8882h-17.4219c-3.5898 0-6.5 2.9102-6.5 6.5v113.7427c0 3.5898 2.9102 6.5 6.5 6.5h40.3643c3.5898 0 6.5-2.9102 6.5-6.5v-113.7427c0-3.5898-2.9102-6.5-6.5-6.5h-9.9424v-148.8882c-.0001-15.8994-12.9347-28.8345-28.8341-28.8345zm32.2764 291.4653h-27.3643v-100.7426h27.3643z"/><path d="m279.4619 420.6196h6.1797c3.5898 0 6.5-2.9102 6.5-6.5s-2.9102-6.5-6.5-6.5h-6.1797c-3.5898 0-6.5 2.9102-6.5 6.5s2.9102 6.5 6.5 6.5z"/><path d="m239.3535 290.3428c-3.5898 0-6.5 2.9102-6.5 6.5v47.8848c0 3.5898 2.9102 6.5 6.5 6.5h40.3643c3.5898 0 6.5-2.9102 6.5-6.5v-47.8848c0-3.5898-2.9102-6.5-6.5-6.5zm33.8643 47.8847h-27.3643v-34.8848h27.3643z"/><path d="m346.1543 258.0361h-40.3643c-3.5898 0-6.5 2.9102-6.5 6.5v80.1914c0 3.5898 2.9102 6.5 6.5 6.5h40.3643c3.5898 0 6.5-2.9102 6.5-6.5v-80.1914c0-3.5898-2.9102-6.5-6.5-6.5zm-6.5 80.1914h-27.3643v-67.1914h27.3643z"/><path d="m354.4951 192.9326c0-1.9033-.834-3.7109-2.2822-4.9458-1.4473-1.2349-3.3604-1.7734-5.2441-1.4727l-29.5273 4.7202c-3.5449.5664-5.959 3.8999-5.3926 7.4443.5664 3.5449 3.8916 5.96 7.4453 5.3926l11.876-1.8984c-13.7451 14.9662-53.5293 53.9928-103.0225 64.3208-3.5137.7334-5.7686 4.1763-5.0352 7.6904.6406 3.0669 3.3438 5.1738 6.3564 5.1738.4404 0 .8867-.0449 1.335-.1387 54.3169-11.3346 96.2676-53.0457 110.4912-68.7922v8.8567c0 3.5898 2.9102 6.5 6.5 6.5s6.5-2.9102 6.5-6.5z"/><path d="m360.4131 99.0654c0-3.5898-2.9102-6.5-6.5-6.5h-11.8359c-3.5898 0-6.5 2.9102-6.5 6.5s2.9102 6.5 6.5 6.5h11.8359c3.5898 0 6.5-2.9101 6.5-6.5z"/></g></svg>