<svg id="Layer_1" enable-background="new 0 0 500 500" viewBox="0 0 500 500" xmlns="http://www.w3.org/2000/svg"><g fill="rgb(0,0,0)"><path d="m269.6 232.3c3.9.5 5.9 3.3 8.3 6.5 2.5 3.4 6 8.2 12.4 8.2 1.9 0 4.2-.4 6.7-1.5 10-4.1 11.8-12 13.2-17.8 1-4.4 1.8-7.1 4.4-8.8 4.3-2.7 7-6.5 7.9-11 1.4-6.6-.9-14.4-6.8-23.3-8.2-12.2-18.2-18.5-26.9-16.7-6 1.2-10.3 6.1-11.6 13.1-1.6 8.4-4.9 10-11.6 13.2-2 1-4.3 2.1-6.8 3.5-5.4 3.2-7.9 9.6-6.5 16.9 1.6 7.7 7.6 16.4 17.3 17.7zm-6.7-27.5c2.2-1.3 4.2-2.2 6.2-3.2 7-3.4 13.6-6.5 16-18.9.4-2.2 1.7-6 5.4-6.8.5-.1 1-.1 1.5-.1 6 0 12.9 7 17.2 13.5 4.5 6.8 6.5 12.9 5.6 17.2-.5 2.4-2 4.4-4.4 5.9-5.4 3.5-6.7 8.9-7.8 13.7-1.3 5.4-2.3 9.7-8.4 12.2-5.1 2.1-6.4.4-9.6-4-2.7-3.7-6.4-8.8-13.7-9.8-5.5-.7-9.5-6.3-10.5-11.2-.5-1.9-1-6.4 2.5-8.5z"/><path d="m367.3 162.2c11.3 0 20.5-9.2 20.5-20.5s-9.2-20.5-20.5-20.5-20.5 9.2-20.5 20.5c0 11.2 9.2 20.5 20.5 20.5zm0-33.1c6.9 0 12.5 5.6 12.5 12.5s-5.6 12.5-12.5 12.5-12.5-5.6-12.5-12.5 5.6-12.5 12.5-12.5z"/><path d="m231.3 68c0-11.3-9.2-20.5-20.5-20.5s-20.5 9.2-20.5 20.5 9.2 20.5 20.5 20.5 20.5-9.2 20.5-20.5zm-33 0c0-6.9 5.6-12.5 12.5-12.5s12.5 5.6 12.5 12.5-5.6 12.5-12.5 12.5-12.5-5.6-12.5-12.5z"/><path d="m206.8 232.8c-11.3 0-20.5 9.2-20.5 20.5s9.2 20.5 20.5 20.5 20.5-9.2 20.5-20.5-9.2-20.5-20.5-20.5zm0 33c-6.9 0-12.5-5.6-12.5-12.5s5.6-12.5 12.5-12.5 12.5 5.6 12.5 12.5-5.6 12.5-12.5 12.5z"/><path d="m135.5 169.9c0-11.3-9.2-20.5-20.5-20.5s-20.5 9.2-20.5 20.5 9.2 20.5 20.5 20.5 20.5-9.2 20.5-20.5zm-33 0c0-6.9 5.6-12.5 12.5-12.5s12.5 5.6 12.5 12.5-5.6 12.5-12.5 12.5-12.5-5.6-12.5-12.5z"/><path d="m408.9 411.5c.7-6 1.7-20.7-2.8-37.2-2.9-10.8-12.8-24.7-22-36 10.3-18.4 16.8-38.8 19.2-59.8 0-.1 0-.2 0-.2.1-.5.1-1 .1-1.4.1-.6.1-1.3.2-1.9.1-.9.2-1.8.2-2.8.1-.7.1-1.4.1-2.1.1-1 .1-1.9.1-2.9 0-.6.1-1.3.1-1.9 0-1.6.1-3.2.1-4.7 0-25.6-6.2-51.1-17.9-73.6 0-.1-.1-.1-.1-.1l16-23.7c0-.1.1-.1.1-.2 3.9-6.4 5.9-13.7 5.9-21.2 0-22.6-18.4-41-41-41-16.8 0-31.3 10.2-37.6 24.7-15.5-9.8-32.4-16.8-50-20.7-.1 0-.1 0-.2 0-11.4-2.6-23.2-3.9-35.1-3.9-2.1 0-4.2 0-6.4.1l7.7-11.4c0-.1.1-.1.1-.2 3.9-6.4 5.9-13.7 5.9-21.2 0-22.6-18.4-41-41-41-10.9 0-21.2 4.3-29 12-7.7 7.7-12 18-12 29 0 6 1.3 11.7 3.7 17.1l3.6-1.7-3.6 1.7c.7 1.4 1.4 2.8 2.2 4.1 0 .1.1.1.1.2l14.1 20.8c-17.8 6.5-34.1 15.9-48.7 28.2-7.1-5.9-16.3-9.5-26.2-9.5-22.6 0-41 18.4-41 41 0 6 1.3 11.7 3.7 17.1.7 1.4 1.4 2.8 2.2 4.1 0 .1.1.1.1.2l12.8 18.9c-.1.3-.3.5-.4.8-5.2 15.9-7.8 32.6-7.8 49.5 0 1.4 0 2.9.1 4.3 0 .4 0 .9.1 1.3 0 1 .1 2 .1 3 0 .5.1 1 .1 1.6.1.9.1 1.8.2 2.7 0 .6.1 1.1.1 1.7.1.9.2 1.7.2 2.6.1.6.1 1.2.2 1.8.1.8.2 1.6.3 2.4.1.6.2 1.3.3 1.9.1.7.2 1.5.3 2.2s.2 1.4.3 2c.1.7.2 1.3.4 2 .1.8.3 1.5.4 2.3l.3 1.5c.2.9.4 1.8.6 2.7.1.3.1.5.2.8 7.9 33.5 26.4 63.9 53.6 86.4.2.2.4.3.6.4 27.6 22.7 62.9 36.4 101.4 36.4 1.6 0 3.1 0 4.7-.1-1.1 2.8-1.6 6.2-.8 10.1s2.9 6.9 6 8.7c4.9 2.9 11.1 2.1 14.2 1.5 5.2 2.7 23.3 10.3 64.1 10.3s58.9-7.5 64.1-10.3c3 .7 9.2 1.4 14.2-1.5 3.1-1.8 5.2-4.9 6-8.7 2.2-9.7-3.2-16.1-7.8-19.2zm-12.6-151c0 1.4 0 2.8-.1 4.2v1.3c0 1.2-.1 2.4-.2 3.6 0 .3 0 .6-.1.9-.1 1-.2 2-.2 3.1-5.6-.9-9.9-4.3-11.1-7.7-4.9-13.9-11-17.9-27-17.9-7.3 0-14.6-6.2-18.2-12.4-2.5-4.4-3.1-8.6-1.6-11.2.7-1.1 1.3-2.2 2-3.3 4.8-7.9 9.8-16 7.9-35.5l16.3 24.2c.7 1.1 2 1.8 3.3 1.8s2.6-.7 3.3-1.8l10.5-15.6c10 20.6 15.2 43.4 15.2 66.3zm-29-151.8c18.2 0 33 14.8 33 33 0 6-1.6 11.9-4.7 17l-28.3 41.9-28.3-41.9c-.6-1-1.2-2.1-1.7-3.2-2-4.3-3-9-3-13.8.1-18.2 14.9-33 33-33zm-184.8-23.7c-.6-1-1.2-2.1-1.7-3.2-2-4.3-3-9-3-13.8 0-8.8 3.4-17.1 9.7-23.3 6.2-6.2 14.5-9.7 23.3-9.7 18.2 0 33 14.8 33 33 0 6-1.6 11.9-4.7 17l-28.3 41.9zm12 32.1 13 19.2c.7 1.1 2 1.8 3.3 1.8s2.6-.7 3.3-1.8l18.3-27.2c4-.3 8-.5 12-.5 10.1 0 20 1 29.8 2.9-1 3.8-3.1 4.9-3.9 5.2l-1.5.7c-12.5 5.9-22.4 10.6-23.1 23.1-.2 3.9-5.1 7.4-9.8 8.9-4.3 1.4-7.2.8-7.9 0-3.8-4.8-11.5-7.6-18.3-6.7-6.1.8-10.8 4.3-13.3 10-1.4 3.1-4 4.7-7.1 4.3-3.7-.5-8.6-4-10.1-12.7-1.9-10.8-8.9-12.6-13.1-13.6-.2 0-.3-.1-.5-.1 9.1-5.4 18.7-10 28.9-13.5zm-107.8 69.8c-.6-1-1.2-2.1-1.7-3.2-2-4.3-3-9-3-13.8 0-18.2 14.8-33 33-33s33 14.8 33 33c0 6-1.6 11.9-4.7 17l-28.3 41.9zm58.4 177.7c.7 4.6.6 8-.5 10.3-22.7-19.8-39.4-46.2-47.2-76.2 0-.2-.1-.3-.1-.5-.3-1-.5-2-.7-2.9-.1-.3-.2-.7-.2-1-.2-.8-.4-1.7-.6-2.6-.1-.5-.2-1-.3-1.4-.1-.7-.3-1.5-.4-2.2-.1-.6-.2-1.2-.3-1.8-.1-.7-.2-1.3-.3-2s-.2-1.4-.3-2-.2-1.2-.3-1.8c-.1-.7-.2-1.5-.3-2.2-.1-.6-.1-1.1-.2-1.7-.1-.8-.2-1.6-.2-2.4 0-.5-.1-1-.1-1.5-.1-.8-.1-1.7-.2-2.6 0-.5-.1-1-.1-1.4 0-.9-.1-1.9-.1-2.8 0-.4 0-.8 0-1.2 0-1.3-.1-2.7-.1-4 0-14.3 2-28.4 5.9-41.9l13.2 19.6c.7 1.1 2 1.8 3.3 1.8s2.6-.7 3.3-1.8l31.6-46.9c0-.1.1-.1.1-.2.4-.7.8-1.3 1.1-2 2.1 2.5 3.7 5.1 5.2 7.5 3.1 5 6.2 10.2 13.3 13.5 5 2.3 10.5 5.3 13.5 9.8-10.5 7.4-17.3 19.6-17.3 33.4 0 3.5.5 7 1.3 10.3-.4.2-.9.4-1.3.6-4.2 1.8-8.4 3-12.4 4.1-9.1 2.5-17.6 4.8-22.4 13.7-6.7 12.4-2.5 35.3 7.5 40.9 1.6.9 3.5 1.8 5.6 2.8 6.9 3.3 17.3 8.2 16.9 13.7-.2 2-1.7 3.1-5.3 5.3-5.1 2.8-12.6 7.3-10.6 19.7zm44.3-42c-2.8-6.1-1-12.2 4.3-15.5l9.7 14.4c.7 1.1 2 1.8 3.3 1.8s2.6-.7 3.3-1.8l9-13.4c6.2 4.6 9 13 6.5 19.8-1.7 4.6-4.8 7-8.7 10.2-4.5 3.6-9.6 7.7-13.2 15.8-2.3 5.3-6.6 6.6-9.9 5.5-2.5-.8-4.8-3.2-3.8-7.5.5-2.4 1.1-4.3 1.5-6.1 2.5-8.6 3.1-12.2-2-23.2zm17.4-10.4-28.3-41.9c-.6-1-1.2-2.1-1.7-3.2-2-4.3-3-9-3-13.8 0-18.2 14.8-33 33-33s33 14.8 33 33c0 6-1.6 11.9-4.7 17zm48.6 99.8c-3.6.3-7.3.4-10.9.4-35.3 0-67.8-12.1-93.6-32.3 2.6-3.9 3.3-9.5 2.1-16.7-1.1-7 2-8.9 6.7-11.7 3.8-2.3 8.6-5.2 9.2-11.5.9-10.9-12-17.1-21.4-21.6-1.9-.9-3.8-1.8-5.1-2.5-5.2-2.9-9.5-20.5-4.3-30.1 3.2-5.9 9.5-7.6 17.5-9.8 4.1-1.1 8.9-2.4 13.5-4.5.3-.1.6-.3.9-.4.6 1.1 1.1 2.3 1.8 3.3 0 .1.1.1.1.2l17.4 25.8c-8.5 5.4-11.5 15.9-7.1 25.5 4.1 8.9 3.7 10.5 1.7 17.9-.5 1.8-1 3.8-1.6 6.3-1.8 7.6 2 14.6 9.1 16.9 1.5.5 3.1.8 4.8.8 5.6 0 11.7-3 15-10.6 2.7-6.3 6.7-9.4 10.8-12.8 4.3-3.4 8.7-7 11.2-13.6 3.8-10.3-.2-22.5-9.5-29.2l18.2-26.9c0-.1.1-.1.1-.2 3.9-6.4 5.9-13.7 5.9-21.2 0-22.6-18.4-41-41-41-5.9 0-11.6 1.3-16.7 3.6-4.1-6.4-10.9-10.2-17.1-13.1-4.8-2.3-6.9-5.7-9.8-10.4-2.1-3.4-4.5-7.3-8.4-11.3-.1-.1-.2-.2-.3-.3 1-3.6 1.5-7.3 1.5-11 0-9.7-3.4-18.7-9.1-25.7 3.5-2.9 7.1-5.7 10.8-8.3 2 1.6 4.5 2.2 6.5 2.7 3.8 1 6.2 1.5 7.2 7.2 2.2 13 10.6 18.5 17 19.3.6.1 1.2.1 1.8.1 5.9 0 11-3.4 13.5-9.1 1.3-3 3.7-4.8 7-5.3 4.5-.6 9.1 1.5 11 3.8 3.1 3.9 9.5 4.9 16.6 2.7 7.3-2.3 14.9-8.2 15.3-16.1.4-7.4 6-10.4 18.6-16.3l1.5-.7c3.1-1.5 6.8-4.5 8.3-10.7 15.9 4.1 31.2 10.7 45.1 19.8 0 0 .1 0 .1.1-.6 2.7-.9 5.6-.9 8.5 0 6 1.3 11.7 3.7 17.1.7 1.4 1.4 2.8 2.2 4.1 0 .1.1.1.1.2l5.8 8.7v.1c0 2.7.2 5.5.7 8.3 3.5 21.8-.8 28.8-5.9 37-.7 1.1-1.4 2.3-2.1 3.4-3 5.2-2.4 12.2 1.6 19.2 4.7 8.1 14.3 16.4 25.1 16.4 13.2 0 15.8 2.5 19.4 12.5 2.4 6.8 9.5 11.8 17.8 13-2.4 17.5-7.9 34.6-16.2 50.2-5.8-6.7-10.6-11.7-12.1-13.3 1-1.8 1.6-3.9 1.6-6.1 0-4.5-2.4-8.5-6-10.6 4.5-6.7 10.9-18.3 8-25.9-4-10.3-18.7-17-37.4-17s-33.3 6.7-37.4 17c-2.9 7.5 3.5 19.2 8 25.9-3.6 2.2-6 6.1-6 10.6 0 2.2.6 4.3 1.6 6.1-4.3 4.5-34.2 35.7-39.7 55.9-4.5 16.5-3.5 31.2-2.8 37.2-.2.1-.4.3-.7.5-.1-.5-.2-.5-.3-.5zm98.1-112.1h-41.8c-5-7-10.5-17.4-9-21.2 2.2-5.7 12.5-11.9 29.9-11.9s27.7 6.2 29.9 11.9c1 2.4-1.3 10.7-9 21.2zm6.6 12.4c0 2.4-2 4.4-4.4 4.4h-46c-2.4 0-4.4-2-4.4-4.4s2-4.4 4.4-4.4h.1 45.8.1c2.4 0 4.4 2 4.4 4.4zm49 116.4c-.5 2.2-1.5 3-2.2 3.5-2.9 1.7-8 .7-9.5.3-1.1-.4-2.4-.2-3.4.5 0 0-3.9 2.5-13.3 4.9-8.7 2.3-24.1 4.9-48 4.9s-39.3-2.7-48-4.9c-9.4-2.4-13.2-4.9-13.2-4.9-.7-.5-1.5-.7-2.3-.7-.4 0-.8.1-1.2.2-1.6.5-6.7 1.4-9.5-.3-.7-.4-1.8-1.3-2.2-3.5-1.6-7.7 5.3-11.1 6.1-11.4 1.7-.7 2.7-2.6 2.3-4.4 0-.2-3-17.2 2.3-36.5 4.7-17.2 31.1-45.6 37-51.7h5.7 46 5.7c5.9 6.1 32.3 34.5 37 51.7 5.3 19.3 2.3 36.2 2.3 36.5-.3 1.8.6 3.6 2.3 4.4.3.2 7.7 3.5 6.1 11.4z"/><path d="m331.8 367.1c.5-.5 1.4-1.1 3.4-1.1 2.5 0 3.3.8 3.5 1.2.9 1.1 1.5 2.9 1.7 5.2.2 2.7 2.5 4.7 5.2 4.5s4.7-2.5 4.5-5.2c-.3-4.5-1.7-8.1-4-10.8-1.1-1.3-3-2.8-5.6-3.7v-3c0-2.7-2.2-4.9-4.9-4.9s-4.9 2.2-4.9 4.9v2.8c-2.1.6-4 1.6-5.6 3.1-1.9 1.7-4.1 4.9-4.1 10.3 0 3 .8 5.7 2.2 8.3 1.3 2.2 3 4.3 5.2 6.4l2.2 2.1s0 .1.1.1l2.8 2.6c1.5 1.4 2.7 2.8 3.5 4.2.6 1 .9 2.1.9 3.3 0 2.3-.7 3-1 3.2-.5.5-1.4 1.1-3.4 1.1-2.5 0-3.3-.8-3.5-1.2-.9-1.1-1.5-2.9-1.7-5.2-.2-2.7-2.5-4.7-5.2-4.5s-4.7 2.5-4.5 5.2c.3 4.5 1.7 8.1 4 10.8 1.1 1.3 3 2.8 5.6 3.7v3c0 2.7 2.2 4.9 4.9 4.9s4.9-2.2 4.9-4.9v-2.8c2.1-.6 4-1.6 5.6-3.1 1.9-1.7 4.1-4.9 4.1-10.3 0-3-.8-5.7-2.2-8.3-1.3-2.2-3-4.3-5.2-6.4l-2.2-2.1s-.1-.1-.1-.1l-2.8-2.6c-1.5-1.4-2.7-2.9-3.5-4.2-.6-1-.9-2.1-.9-3.3 0-2.3.8-3 1-3.2z"/></g></svg>