<svg height="512" viewBox="0 0 128 128" width="512" xmlns="http://www.w3.org/2000/svg"><g><path d="m45.035 60.637a1.749 1.749 0 0 0 -2.288.942l-4.418 10.6-4.418-10.6a1.749 1.749 0 0 0 -3.23 0l-4.419 10.6-4.418-10.6a1.75 1.75 0 0 0 -3.231 1.346l6.033 14.481a1.75 1.75 0 0 0 3.231 0l4.423-10.606 4.418 10.6a1.749 1.749 0 0 0 3.23 0l6.034-14.481a1.749 1.749 0 0 0 -.947-2.282z"/><path d="m76.74 60.637a1.749 1.749 0 0 0 -2.288.942l-4.419 10.6-4.418-10.6a1.749 1.749 0 0 0 -3.23 0l-4.418 10.6-4.419-10.6a1.75 1.75 0 0 0 -3.231 1.347l6.035 14.48a1.749 1.749 0 0 0 3.23 0l4.418-10.606 4.418 10.6a1.749 1.749 0 0 0 3.23 0l6.035-14.48a1.75 1.75 0 0 0 -.943-2.283z"/><path d="m108.444 60.637a1.748 1.748 0 0 0 -2.288.942l-4.418 10.6-4.419-10.6a1.749 1.749 0 0 0 -3.23 0l-4.418 10.6-4.418-10.6a1.75 1.75 0 0 0 -3.231 1.346l6.034 14.481a1.749 1.749 0 0 0 3.23 0l4.414-10.606 4.419 10.6a1.75 1.75 0 0 0 3.231 0l6.033-14.481a1.749 1.749 0 0 0 -.939-2.282z"/><path d="m122.868 33.332c0-.01 0-.019 0-.029v-13.735a10.076 10.076 0 0 0 -10.062-10.068h-97.612a10.076 10.076 0 0 0 -10.059 10.068v13.732.029s0 .019 0 .029v63.97a10.077 10.077 0 0 0 10.059 10.072h6.606a1.738 1.738 0 0 0 .368 1.928l8.659 8.659a1.749 1.749 0 0 0 2.475 0l8.149-8.148 3.455 3.455a1.749 1.749 0 0 0 2.9-.7l1.669-5.192h63.325a10.077 10.077 0 0 0 10.059-10.073v-63.968c.006-.01.009-.019.009-.029zm-107.674-20.332h97.612a6.573 6.573 0 0 1 6.559 6.572v12.01h-110.73v-12.014a6.573 6.573 0 0 1 6.559-6.568zm30.163 95.8-2.666-2.666a1.748 1.748 0 0 0 -2.474 0l-8.15 8.148-6.184-6.185 8.149-8.148a1.749 1.749 0 0 0 0-2.475l-2.666-2.674 20.616-6.62zm67.449-4.893h-62.2l5.75-17.9a1.75 1.75 0 0 0 -2.2-2.2l-26.59 8.542a1.75 1.75 0 0 0 -.7 2.9l3.456 3.456-5.197 5.195h-9.931a6.573 6.573 0 0 1 -6.559-6.573v-62.245h110.73v62.249a6.573 6.573 0 0 1 -6.559 6.569z"/><path d="m19.574 27.965a5.676 5.676 0 1 0 -5.674-5.676 5.682 5.682 0 0 0 5.674 5.676zm0-7.851a2.176 2.176 0 1 1 -2.174 2.175 2.178 2.178 0 0 1 2.174-2.175z"/><path d="m35.314 27.965a5.676 5.676 0 1 0 -5.675-5.676 5.682 5.682 0 0 0 5.675 5.676zm0-7.851a2.176 2.176 0 1 1 -2.175 2.175 2.177 2.177 0 0 1 2.175-2.175z"/><path d="m51.055 27.965a5.676 5.676 0 1 0 -5.676-5.676 5.681 5.681 0 0 0 5.676 5.676zm0-7.851a2.176 2.176 0 1 1 -2.176 2.175 2.177 2.177 0 0 1 2.176-2.175z"/></g></svg>