<svg id="Layer_1" enable-background="new 0 0 500 500" viewBox="0 0 500 500" xmlns="http://www.w3.org/2000/svg"><g fill="rgb(0,0,0)"><path d="m252.9141 176.3262h-132.0118c-10.0024 0-18.1396 8.1372-18.1396 18.1396v31.0747c0 10.0024 8.1372 18.1396 18.1396 18.1396h132.0117c10.0024 0 18.1396-8.1372 18.1396-18.1396v-31.0747c.0001-10.0024-8.1371-18.1396-18.1395-18.1396zm10.1396 49.2143c0 5.5908-4.5488 10.1396-10.1396 10.1396h-132.0118c-5.5908 0-10.1396-4.5488-10.1396-10.1396v-31.0747c0-5.5908 4.5488-10.1396 10.1396-10.1396h132.0117c5.5908 0 10.1396 4.5488 10.1396 10.1396v31.0747z"/><path d="m135.1943 257.1406h-12.981c-8.7544 0-15.877 7.1226-15.877 15.877s7.1226 15.877 15.877 15.877h12.981c8.7544 0 15.877-7.1226 15.877-15.877s-7.1226-15.877-15.877-15.877zm0 23.7539h-12.981c-4.3433 0-7.877-3.5337-7.877-7.877s3.5337-7.877 7.877-7.877h12.981c4.3433 0 7.877 3.5337 7.877 7.877s-3.5337 7.877-7.877 7.877z"/><path d="m180.4175 288.8945h12.9814c8.7544 0 15.8765-7.1226 15.8765-15.877s-7.1221-15.877-15.8765-15.877h-12.9814c-8.7544 0-15.8765 7.1226-15.8765 15.877s7.1221 15.877 15.8765 15.877zm0-23.7539h12.9814c4.3433 0 7.8765 3.5337 7.8765 7.877s-3.5332 7.877-7.8765 7.877h-12.9814c-4.3433 0-7.8765-3.5337-7.8765-7.877s3.5332-7.877 7.8765-7.877z"/><path d="m251.603 257.1406h-12.981c-8.7544 0-15.877 7.1226-15.877 15.877s7.1226 15.877 15.877 15.877h12.981c8.7544 0 15.877-7.1226 15.877-15.877s-7.1226-15.877-15.877-15.877zm0 23.7539h-12.981c-4.3433 0-7.877-3.5337-7.877-7.877s3.5337-7.877 7.877-7.877h12.981c4.3433 0 7.877 3.5337 7.877 7.877s-3.5337 7.877-7.877 7.877z"/><path d="m135.1943 299.9893h-12.981c-8.7544 0-15.877 7.1221-15.877 15.8765s7.1226 15.877 15.877 15.877h12.981c8.7544 0 15.877-7.1226 15.877-15.877s-7.1226-15.8765-15.877-15.8765zm0 23.7534h-12.981c-4.3433 0-7.877-3.5337-7.877-7.877s3.5337-7.8765 7.877-7.8765h12.981c4.3433 0 7.877 3.5332 7.877 7.8765s-3.5337 7.877-7.877 7.877z"/><path d="m180.4175 331.7427h12.9814c8.7544 0 15.8765-7.1226 15.8765-15.877s-7.1221-15.8765-15.8765-15.8765h-12.9814c-8.7544 0-15.8765 7.1221-15.8765 15.8765s7.1221 15.877 15.8765 15.877zm0-23.7534h12.9814c4.3433 0 7.8765 3.5332 7.8765 7.8765s-3.5332 7.877-7.8765 7.877h-12.9814c-4.3433 0-7.8765-3.5337-7.8765-7.877s3.5332-7.8765 7.8765-7.8765z"/><path d="m251.603 299.9893h-12.981c-8.7544 0-15.877 7.1221-15.877 15.8765s7.1226 15.877 15.877 15.877h12.981c8.7544 0 15.877-7.1226 15.877-15.877s-7.1226-15.8765-15.877-15.8765zm0 23.7534h-12.981c-4.3433 0-7.877-3.5337-7.877-7.877s3.5337-7.8765 7.877-7.8765h12.981c4.3433 0 7.877 3.5332 7.877 7.8765s-3.5337 7.877-7.877 7.877z"/><path d="m135.1943 342.8374h-12.981c-8.7544 0-15.877 7.1226-15.877 15.877s7.1226 15.8765 15.877 15.8765h12.981c8.7544 0 15.877-7.1221 15.877-15.8765s-7.1226-15.877-15.877-15.877zm0 23.7534h-12.981c-4.3433 0-7.877-3.5332-7.877-7.8765s3.5337-7.877 7.877-7.877h12.981c4.3433 0 7.877 3.5337 7.877 7.877s-3.5337 7.8765-7.877 7.8765z"/><path d="m180.4175 374.5908h12.9814c8.7544 0 15.8765-7.1221 15.8765-15.8765s-7.1221-15.877-15.8765-15.877h-12.9814c-8.7544 0-15.8765 7.1226-15.8765 15.877s7.1221 15.8765 15.8765 15.8765zm0-23.7534h12.9814c4.3433 0 7.8765 3.5337 7.8765 7.877s-3.5332 7.8765-7.8765 7.8765h-12.9814c-4.3433 0-7.8765-3.5332-7.8765-7.8765s3.5332-7.877 7.8765-7.877z"/><path d="m206.3086 385.686h-38.8008c-8.7544 0-15.8765 7.1221-15.8765 15.8765s7.1221 15.877 15.8765 15.877h38.8008c8.7544 0 15.8765-7.1226 15.8765-15.877s-7.1221-15.8765-15.8765-15.8765zm0 23.7535h-38.8008c-4.3433 0-7.8765-3.5337-7.8765-7.877s3.5332-7.8765 7.8765-7.8765h38.8008c4.3433 0 7.8765 3.5332 7.8765 7.8765s-3.5332 7.877-7.8765 7.877z"/><path d="m251.603 342.8374h-12.981c-8.7544 0-15.877 7.1226-15.877 15.877s7.1226 15.8765 15.877 15.8765h12.981c8.7544 0 15.877-7.1221 15.877-15.8765s-7.1226-15.877-15.877-15.877zm0 23.7534h-12.981c-4.3433 0-7.877-3.5332-7.877-7.8765s3.5337-7.877 7.877-7.877h12.981c4.3433 0 7.877 3.5337 7.877 7.877s-3.5337 7.8765-7.877 7.8765z"/><path d="m336.3389 204.415c0-11.627-9.459-21.0859-21.0859-21.0859h-19.7476v-35.9702c0-22.1611-10.6782-33.3975-31.7378-33.3975h-5.4712v-54.5093c0-1.6001-.9536-3.0464-2.4243-3.6768-1.4712-.6289-3.1768-.3228-4.3345.7808l-14.0884 13.4204-14.0884-13.4204c-1.5449-1.4717-3.9727-1.4717-5.5176 0l-14.0879 13.4204-14.0883-13.4203c-1.5449-1.4717-3.9727-1.4717-5.5176 0l-14.0884 13.4204-14.0879-13.4204c-1.5449-1.4727-3.9736-1.4717-5.5176 0l-14.0884 13.4204-14.0884-13.4204c-1.1572-1.1035-2.8618-1.4097-4.3345-.7808-1.4707.6304-2.4243 2.0767-2.4243 3.6768v54.5093h-5.4712c-21.0596 0-31.7378 11.2363-31.7378 33.3975v28.9996c-10.5233.3412-18.9849 8.9865-18.9849 19.5917s8.4615 19.2505 18.9849 19.5917v16.5657c-10.5233.3412-18.9849 8.9865-18.9849 19.5917 0 10.6047 8.4615 19.25 18.9849 19.5912v139.8595c0 22.1611 10.6782 33.3979 31.7378 33.3979h153.7188c21.0596 0 31.7378-11.2368 31.7378-33.3979v-14.4611h19.7476c10.2585 0 18.8186-7.3668 20.6941-17.0859h85.4768c10.6143 0 19.25-8.6357 19.25-19.25v-21.644-30.8208-81.064c0-10.6143-8.6357-19.25-19.25-19.25h-85.085v-3.1593zm-258.0279 58.8902c-6.1133-.3325-10.9849-5.4111-10.9849-11.606 0-6.1953 4.8716-11.2739 10.9849-11.6069zm0-55.7481c-6.1133-.333-10.9849-5.4116-10.9849-11.6069s4.8716-11.2739 10.9849-11.6069zm45.209-138.77 10.0884 9.6099c1.5449 1.4717 3.9727 1.4717 5.5176 0l14.0884-13.4204 14.0879 13.4204c1.5449 1.4727 3.9736 1.4717 5.5176 0l14.0884-13.4204 14.0884 13.4204c1.5449 1.4727 3.9727 1.4717 5.5176 0l14.0879-13.4204 14.0884 13.4204c1.5449 1.4717 3.9727 1.4717 5.5176 0l10.0884-9.6099v80.7466h-126.7766zm163.9854 118.542v205.3599 18.4609c0 17.8022-7.0991 25.3979-23.7378 25.3979h-153.7188c-16.6387 0-23.7378-7.5957-23.7378-25.3979v-143.8271-31.2476-24.501-31.248-32.9673c0-17.8018 7.0991-25.3975 23.7378-25.3975h5.4712v27.5723h-8.7573c-2.209 0-4 1.791-4 4s1.791 4 4 4h12.7573 134.7764 12.7573c2.209 0 4-1.791 4-4s-1.791-4-4-4h-8.7573v-27.5723h5.4712c16.6387 0 23.7378 7.5957 23.7378 25.3975zm17.7773 201.3599h-9.7773v-197.3599h9.7773zm23.0562-177.1148v96.314 30.8208 36.894c0 7.2158-5.8701 13.0859-13.0859 13.0859h-1.9702v-197.3598h1.9702c7.2158 0 13.0859 5.8701 13.0859 13.0859zm104.3349 148.7788c0 6.2031-5.0469 11.25-11.25 11.25h-85.085v-28.894h96.335zm0-25.644h-96.335v-22.8208h96.335zm-11.25-119.1348c6.2031 0 11.25 5.0469 11.25 11.25v77.064h-96.335v-88.314z"/><path d="m164.6875 108.2383h47.3018c2.209 0 4-1.791 4-4s-1.791-4-4-4h-47.3018c-2.209 0-4 1.791-4 4s1.791 4 4 4z"/><path d="m226.7451 120.8696h-76.8135c-2.209 0-4 1.791-4 4s1.791 4 4 4h76.8135c2.209 0 4-1.791 4-4s-1.791-4-4-4z"/></g></svg>