<?xml version="1.0"?>
<svg id="Capa_2" data-name="Capa 2" xmlns="http://www.w3.org/2000/svg" viewBox="0 0 140.54 163.62">
  <defs>
    
  </defs>
  <g id="Capa_1-2" data-name="Capa 1">
    <path class="cls-1" d="M70.27,0C31.46,0,0,31.47,0,70.27c0,53.03,70.27,93.35,70.27,93.35,0,0,70.27-40.31,70.27-93.35C140.54,31.47,109.08,0,70.27,0ZM67.93,79.73c-.46,3.65-3.38,19.33-19.78,20.03,0,0-20.33.03-26.89.03-.47,0-.53-.68-.07-.76,0,0,.32-.07.47-.1.85-.18,1.61-.42,2.3-.72,6.08-2.41,8.41-13.17,10.17-20.57.92-3.87,1.4-6.79,1.44-7.05v-.02l3.49-17.11s0,0,0-.03c.11-.5,1.45-6.37,2.28-10.01.32-1.38.57-2.43.64-2.69.27-.89.73-2.06,1.49-3.23,0,0,.02-.02.02-.03.99-1.53,2.5-3.07,4.77-4.06,0,0,.02,0,.03-.02,5.61-2.44,9.56,3.32,9.96,3.93,0,0,0,0,0,.02,0,.02.02.03.02.03h0c.28.42.54.89.78,1.39.56,1.08,1.05,2.22,1.43,3.74.07.27,5.57,27.07,7.38,35.81.1.47.12.94.06,1.42ZM119.29,99.79h-27.35s-17.17.36-20.58-19.12l-4.1-20.14-3.37-16.48h0v-.02c-.05-.26-1.67-8.62-7.72-10.98-.14-.06-.12-.25,0-.29h29.47c.62,0,9.75,0,12.01,9.88l7.45,36.05s2.35,16.57,14.27,20.36h.02c.42.13.34.74-.1.74Z"></path>
  </g>
</svg>