<?xml version="1.0"?>
<svg id="Capa_2" data-name="Capa 2" xmlns="http://www.w3.org/2000/svg" viewBox="0 0 566.48 189.12">
  <defs>
    
  </defs>
  <g id="Capa_1-2" data-name="Capa 1">
    <g>
      <g>
        <g>
          <path class="cls-1" d="M313.54,110.73c5.65,0,10.37,1.83,14.16,5.48,3.79,3.65,5.68,8.24,5.68,13.76s-1.89,10.11-5.68,13.76c-3.79,3.65-8.51,5.48-14.16,5.48h-9.36v17.52h-12.16v-55.99h21.52ZM313.06,138.01c2.4,0,4.33-.75,5.8-2.24,1.47-1.49,2.2-3.41,2.2-5.76s-.73-4.28-2.2-5.8c-1.47-1.52-3.4-2.28-5.8-2.28h-8.88v16.08h8.88Z"></path>
          <path class="cls-1" d="M368.97,167.92c-8.53,0-15.64-2.79-21.32-8.36-5.68-5.57-8.52-12.52-8.52-20.84s2.84-15.26,8.52-20.84c5.68-5.57,12.79-8.36,21.32-8.36,5.6,0,10.68,1.27,15.24,3.8,4.56,2.53,8.12,6.03,10.68,10.48,2.56,4.45,3.84,9.43,3.84,14.92,0,8.37-2.83,15.33-8.48,20.88-5.65,5.55-12.75,8.32-21.28,8.32ZM368.97,156.48c3.31,0,6.29-.76,8.96-2.28,2.67-1.52,4.76-3.64,6.28-6.36,1.52-2.72,2.28-5.76,2.28-9.12,0-5.07-1.67-9.29-5-12.68-3.33-3.39-7.49-5.08-12.48-5.08s-9.17,1.69-12.56,5.08c-3.39,3.39-5.08,7.61-5.08,12.68s1.69,9.29,5.08,12.68c3.39,3.39,7.56,5.08,12.52,5.08Z"></path>
          <path class="cls-1" d="M427.45,167.84c-6.51,0-11.75-1.72-15.72-5.16-3.97-3.44-5.96-8.15-5.96-14.12h12.24c0,1.33.25,2.52.76,3.56.51,1.04,1.2,1.88,2.08,2.52.88.64,1.88,1.12,3,1.44,1.12.32,2.29.48,3.52.48,2.45,0,4.57-.59,6.36-1.76,1.79-1.17,2.68-2.77,2.68-4.8,0-.85-.21-1.61-.64-2.28-.43-.67-.92-1.2-1.48-1.6-.56-.4-1.41-.81-2.56-1.24-1.15-.43-2.12-.75-2.92-.96-.8-.21-2-.51-3.6-.88-1.28-.32-2.24-.56-2.88-.72-.64-.16-1.59-.43-2.84-.8-1.25-.37-2.21-.71-2.88-1-.67-.29-1.53-.71-2.6-1.24-1.07-.53-1.89-1.07-2.48-1.6-.59-.53-1.24-1.2-1.96-2s-1.27-1.64-1.64-2.52c-.37-.88-.69-1.89-.96-3.04-.27-1.15-.4-2.36-.4-3.64,0-5.33,1.81-9.47,5.44-12.4,3.63-2.93,8.59-4.4,14.88-4.4s11.29,1.6,14.84,4.8c3.55,3.2,5.32,7.6,5.32,13.2h-12c0-2.29-.81-4.04-2.44-5.24-1.63-1.2-3.64-1.8-6.04-1.8-2.13,0-3.99.45-5.56,1.36-1.57.91-2.36,2.21-2.36,3.92,0,.8.2,1.51.6,2.12.4.61.87,1.12,1.4,1.52.53.4,1.36.8,2.48,1.2,1.12.4,2.07.69,2.84.88.77.19,1.93.47,3.48.84,1.71.43,2.99.76,3.84,1,.85.24,2.08.64,3.68,1.2,1.6.56,2.84,1.11,3.72,1.64.88.53,1.91,1.24,3.08,2.12,1.17.88,2.07,1.84,2.68,2.88.61,1.04,1.15,2.29,1.6,3.76.45,1.47.68,3.05.68,4.76,0,3.89-.99,7.23-2.96,10-1.97,2.77-4.52,4.8-7.64,6.08-3.12,1.28-6.68,1.92-10.68,1.92Z"></path>
        </g>
        <g>
          <path class="cls-2" d="M213.19,80.39c0,4.53-2.39,6.79-7.17,6.79h-4.72l-1.04,6.51c.75.32,1.68.57,2.78.75,1.1.19,2.25.33,3.44.42,1.19.09,2.23.14,3.11.14,4.15,0,7.36-1.21,9.62-3.63,2.26-2.42,3.4-5.99,3.4-10.71V27.65h-9.43v52.74Z"></path>
          <path class="cls-2" d="M265.93,28.35c-.63-.47-1.35-.71-2.17-.71h-9.62c-.82,0-1.54.23-2.17.71-.63.47-1.07,1.09-1.32,1.84l-20.57,64.82h9.72l6.22-20.95h25.77l6.22,20.95h9.81l-20.57-64.82c-.25-.75-.69-1.37-1.32-1.84ZM248.34,66.23l7.68-25.85c.31-.94.6-1.89.85-2.83.25-.94.5-1.82.75-2.64h2.64c.25.82.5,1.7.75,2.64.25.94.5,1.89.75,2.83l7.68,25.85h-21.11Z"></path>
          <path class="cls-2" d="M310.84,87.09c-2.08,0-3.62-.49-4.62-1.46-1.01-.97-1.51-2.47-1.51-4.48V27.65h-9.34v54.91c0,3.58,1.04,6.56,3.11,8.92,2.08,2.36,5.5,3.54,10.28,3.54,4.34,0,8.68-.03,13.02-.09s8.62-.25,12.83-.57l-.47-7.26h-23.3Z"></path>
          <polygon class="cls-2" points="348.77 27.65 328.1 27.65 328.1 35.76 348.77 35.76 348.77 95.01 358.2 95.01 358.2 35.76 378.96 35.76 378.96 27.65 358.2 27.65 348.77 27.65"></polygon>
          <path class="cls-2" d="M398.3,36.89c.88-.94,2.26-1.42,4.15-1.42h25.95l.38-7.26c-2.89-.19-5.93-.33-9.11-.42-3.18-.09-6.4-.14-9.67-.14h-9.62c-3.9,0-7,1.04-9.29,3.11-2.3,2.08-3.48,4.91-3.54,8.49v44.16c.06,3.52,1.24,6.34,3.54,8.44,2.3,2.11,5.39,3.16,9.29,3.16,3.15,0,6.35-.02,9.62-.05,3.27-.03,6.49-.08,9.67-.14,3.18-.06,6.21-.19,9.11-.38l-.38-7.17h-25.95c-1.89,0-3.27-.49-4.15-1.46-.88-.97-1.32-2.5-1.32-4.58v-18.02h27.74v-7.26h-27.74v-14.53c0-2.08.44-3.59,1.32-4.53Z"></path>
          <path class="cls-2" d="M473.54,86.47c-2.8.16-6.24.24-10.33.24s-7.2-.79-9.53-2.36c-2.33-1.57-3.98-4.2-4.95-7.88-.98-3.68-1.46-8.73-1.46-15.14s.49-11.46,1.46-15.14c.97-3.68,2.62-6.3,4.95-7.88,2.33-1.57,5.5-2.36,9.53-2.36,2.58,0,4.8.03,6.65.09,1.85.06,3.6.14,5.24.24,1.63.09,3.4.24,5.28.42l.94-7.08c-1.83-.5-3.59-.89-5.28-1.18-1.7-.28-3.56-.49-5.57-.61-2.01-.13-4.43-.19-7.26-.19-6.29,0-11.34,1.09-15.14,3.25-3.81,2.17-6.56,5.71-8.26,10.62-1.7,4.91-2.55,11.51-2.55,19.81s.85,14.91,2.55,19.81c1.7,4.91,4.45,8.44,8.26,10.61,3.8,2.17,8.85,3.26,15.14,3.26,4.34,0,7.97-.17,10.9-.52,2.92-.35,5.77-.93,8.54-1.75l-.94-7.08c-2.64.38-5.36.65-8.16.8Z"></path>
          <polygon class="cls-2" points="530.95 55.2 502.27 55.2 502.27 27.65 492.83 27.65 492.83 95.01 502.27 95.01 502.27 63.03 530.95 63.03 530.95 95.01 540.48 95.01 540.48 27.65 530.95 27.65 530.95 55.2"></polygon>
          <path class="cls-2" d="M566.44,31.43c-.03-.25-.1-.51-.22-.79-.12-.28-.29-.56-.53-.85-.23-.29-.55-.54-.95-.78-.4-.23-.89-.42-1.47-.57-.59-.15-1.3-.23-2.14-.23h-1.39s-.75,0-.75,0h-.44s-1.7,0-1.7,0c-1.25,0-2.23.15-2.95.45-.71.31-1.25.67-1.61,1.09-.36.42-.59.84-.67,1.27-.09.43-.14.76-.14.99v4.23s-.01.18-.01.18v4.23c-.01.23.03.57.12.99.09.43.31.85.67,1.27.36.42.9.78,1.61,1.1.71.31,1.69.47,2.94.47h1.04s1.12,0,1.12,0h.95s1.17,0,1.17,0c.84,0,1.55-.07,2.14-.21.59-.15,1.08-.33,1.48-.56.4-.23.72-.48.95-.77.23-.28.41-.57.53-.85.12-.28.19-.54.22-.79.03-.25.04-.45.04-.62v-4.32s.03-4.32.03-4.32c0-.16-.01-.37-.04-.62ZM565,32.88v3.46s-.01.04-.01.04v3.46s-.01.22-.01.22c0,.21-.03.47-.09.8-.06.33-.21.65-.46.96-.25.31-.63.57-1.15.79-.52.22-1.23.33-2.14.32h-2.23s-2.14-.01-2.14-.01c-.91,0-1.62-.12-2.14-.34-.51-.22-.9-.49-1.14-.8-.25-.31-.4-.63-.46-.96-.06-.33-.09-.6-.09-.8v-.22s.01-3.31.01-3.31v-3.66s.01-.22.01-.22c0-.21.03-.47.09-.81.06-.33.21-.65.46-.96.25-.31.63-.57,1.15-.79.52-.22,1.23-.33,2.14-.32h2.23s2.14.01,2.14.01c.91,0,1.63.12,2.14.34.51.22.9.49,1.15.8.25.31.4.63.46.96.06.33.09.6.09.81v.22Z"></path>
          <path class="cls-2" d="M561.98,32.54c-.23-.28-.59-.52-1.06-.72-.47-.2-1.12-.3-1.94-.3-.82,0-1.47.1-1.94.3-.47.2-.82.44-1.06.71-.24.27-.38.55-.45.83-.06.28-.09.5-.09.66v.49l-.02,6.42h1.76s0-1.92,0-1.92v-.04c0-.21.05-.37.15-.51.1-.13.22-.23.33-.31.15-.09.31-.15.49-.2.1-.03.23-.07.38-.13.12-.04.25-.09.41-.14.15-.05.31-.11.47-.17l1.2,3.42h1.85s-1.4-4.01-1.4-4.01c.44-.23.77-.51.99-.83.22-.31.36-.65.4-1.02v-.06c.02-.06.03-.14.03-.25v-.2s0-.53,0-.53c0-.16-.03-.38-.09-.66-.06-.28-.21-.56-.44-.84ZM560.74,34.63c-.03.16-.1.33-.21.52-.11.18-.31.33-.61.43-.07.03-.15.06-.23.09-.08.03-.17.06-.25.09-.34.12-.73.26-1.18.42-.45.16-.8.28-1.05.37v-1.99s0-.2,0-.2c0-.12.02-.25.06-.4.04-.14.11-.29.23-.42.12-.13.29-.25.52-.34.23-.09.53-.14.92-.14.35,0,.64.04.86.11.22.07.4.17.54.28.14.11.24.23.3.35.06.13.09.25.11.36v.46Z"></path>
        </g>
      </g>
      <path class="cls-1" d="M81.22,0C36.36,0,0,36.37,0,81.22c0,61.3,81.22,107.89,81.22,107.89,0,0,81.22-46.6,81.22-107.89C162.45,36.37,126.07,0,81.22,0ZM78.52,92.15c-.53,4.22-3.91,22.35-22.87,23.15,0,0-23.5.04-31.08.04-.54,0-.62-.78-.08-.88,0,0,.37-.08.54-.12.98-.21,1.86-.48,2.66-.83,7.03-2.78,9.72-15.22,11.75-23.78,1.07-4.47,1.62-7.85,1.67-8.14v-.02l4.04-19.78s0,0,0-.04c.13-.58,1.68-7.36,2.64-11.57.37-1.6.66-2.8.74-3.11.31-1.03.84-2.38,1.73-3.73,0,0,.02-.02.02-.03,1.15-1.76,2.89-3.55,5.51-4.69,0,0,.02,0,.03-.02,6.49-2.82,11.05,3.84,11.51,4.55,0,0,0,0,0,.02,0,.02.02.03.02.03h0c.32.49.63,1.03.9,1.61.65,1.24,1.22,2.57,1.66,4.32.08.31,6.44,31.29,8.53,41.39.12.54.14,1.09.07,1.64ZM137.88,115.34h-31.61s-19.85.42-23.79-22.1l-4.74-23.28-3.89-19.04h0v-.02c-.06-.3-1.93-9.96-8.92-12.69-.16-.07-.14-.29,0-.33h34.06c.72,0,11.27,0,13.88,11.42l8.61,41.67s2.71,19.15,16.5,23.53h.02c.48.15.39.85-.12.85Z"></path>
    </g>
  </g>
</svg>