<?xml version="1.0"?>
<svg id="Capa_2" data-name="Capa 2" xmlns="http://www.w3.org/2000/svg" viewBox="0 0 81.16 81.97">
  <defs>
    
  </defs>
  <g id="Capa_1-2" data-name="Capa 1">
    <g>
      <path class="cls-2" d="M27.43,81.97c-3.72,0-7.24-.46-10.47-1.37-3.31-.95-6.23-2.27-8.7-3.94-2.78-1.89-4.9-4.17-6.33-6.79-1.58-2.91-2.19-6.02-1.81-9.24L5.35,19.9c.38-3.18,1.73-6.17,3.99-8.86,1.99-2.33,4.45-4.33,7.32-5.98,2.73-1.58,5.86-2.83,9.29-3.73,3.36-.88,6.96-1.33,10.7-1.33h17.42c3.7,0,7.18.46,10.34,1.37,3.28.95,6.18,2.28,8.62,3.98,2.67,1.83,4.77,4.1,6.2,6.73,1.59,2.95,2.19,6.09,1.81,9.36l-5.47,40.73c-.39,3.11-1.7,6.03-3.9,8.69-1.88,2.29-4.3,4.31-7.18,6-2.7,1.58-5.76,2.84-9.11,3.75-3.39.9-6.89,1.36-10.42,1.36h-17.54Z"></path>
      <path class="cls-1" d="M73.71,15.1c-.95-1.74-2.37-3.28-4.27-4.58-1.9-1.32-4.16-2.34-6.78-3.1-2.62-.76-5.49-1.13-8.59-1.13h-17.42c-3.19,0-6.23.37-9.11,1.13-2.89.76-5.47,1.78-7.75,3.1-2.27,1.3-4.15,2.84-5.64,4.58-1.48,1.76-2.32,3.63-2.56,5.61l-5.24,40.66c-.22,1.9.13,3.74,1.08,5.48.96,1.75,2.39,3.27,4.33,4.59,1.94,1.31,4.23,2.34,6.89,3.1,2.66.75,5.58,1.13,8.77,1.13h17.54c3.03,0,5.95-.39,8.76-1.13,2.8-.76,5.33-1.79,7.57-3.1,2.24-1.32,4.08-2.84,5.52-4.59,1.45-1.75,2.28-3.58,2.51-5.48l5.46-40.66c.23-1.98-.13-3.85-1.08-5.61M29.02,67.8l11.22-25.86h-10.76l4.23-23.3h20.62l-12.7,18.51h15.28l-27.9,30.65Z"></path>
    </g>
  </g>
</svg>