<?xml version="1.0" encoding="UTF-8"?>
<svg id="Capa_2" data-name="Capa 2" xmlns="http://www.w3.org/2000/svg" viewBox="0 0 68.56 69.38">
  <defs>
    <style>
      .cls-1 {
        fill: #333;
      }
    </style>
  </defs>
  <g id="Capa_1-2" data-name="Capa 1">
    <path class="cls-1" d="M67.42,8.81c-.95-1.74-2.37-3.28-4.27-4.58-1.9-1.32-4.16-2.34-6.78-3.1-2.62-.76-5.49-1.13-8.59-1.13h-17.42c-3.19,0-6.23.37-9.11,1.13-2.89.76-5.47,1.78-7.75,3.1-2.27,1.3-4.15,2.84-5.64,4.58-1.48,1.76-2.32,3.63-2.56,5.61L.06,55.07c-.22,1.9.13,3.74,1.08,5.48.96,1.75,2.39,3.27,4.33,4.59,1.94,1.31,4.23,2.34,6.89,3.1,2.66.75,5.58,1.13,8.77,1.13h17.54c3.03,0,5.95-.39,8.76-1.13,2.8-.76,5.33-1.79,7.57-3.1,2.24-1.32,4.08-2.84,5.52-4.59,1.45-1.75,2.28-3.58,2.51-5.48l5.46-40.66c.23-1.98-.13-3.85-1.08-5.61M22.72,61.5l11.22-25.86h-10.76l4.23-23.3h20.62l-12.7,18.51h15.28l-27.9,30.65Z"/>
  </g>
</svg>