<?xml version="1.0" encoding="UTF-8"?>
<svg id="Capa_2" data-name="Capa 2" xmlns="http://www.w3.org/2000/svg" viewBox="0 0 434 98.45">
  <defs>
    <style>
      .cls-1 {
        fill: #fff;
      }
    </style>
  </defs>
  <g id="Capa_1-2" data-name="Capa 1">
    <g>
      <path class="cls-1" d="M425.19,28.19l-.2,1.37c0,.14-.11.25-.31.36-.18.11-.38.17-.6.17h-1.74l.34-2.45h1.68c.27,0,.46.05.62.18.15.11.22.24.21.38Z"/>
      <path class="cls-1" d="M424.98,27.81c.15.11.22.24.21.38l-.2,1.37c0,.14-.11.25-.31.36-.18.11-.38.17-.6.17h-1.74l.34-2.45h1.68c.27,0,.46.05.62.18Z"/>
      <path class="cls-1" d="M423.38,20.62c-5.86,0-10.63,4.75-10.63,10.63s4.76,10.63,10.63,10.63,10.63-4.76,10.63-10.63-4.76-10.63-10.63-10.63ZM427.43,29.11c-.05.35-.21.68-.44.97-.23.29-.6.52-1.1.67.28.05.5.15.68.26.19.11.32.24.42.39.1.15.17.31.2.47.03.18.05.35,0,.53l-.47,3.65h-2.36l.49-4.05c.05-.15-.02-.28-.15-.4-.15-.12-.34-.18-.57-.18h-1.96l-.28,2.24c-.08.47-.19.88-.34,1.24-.15.35-.34.64-.58.86-.23.21-.5.35-.79.41-.31.05-.65.03-1.01-.11l1.29-9.76h4.75c.37,0,.7.05,1,.13.31.08.57.2.79.35.21.15.37.33.47.51.11.21.15.42.11.65l-.15,1.17Z"/>
      <path class="cls-1" d="M425.19,28.19l-.2,1.37c0,.14-.11.25-.31.36-.18.11-.38.17-.6.17h-1.74l.34-2.45h1.68c.27,0,.46.05.62.18.15.11.22.24.21.38Z"/>
      <path class="cls-1" d="M59.09,20.82l-1.6,10.48h-18.92l-8.81,65.72H11.24L20.05,31.3H.82C.02,29.84-.19,28.46.17,27.16c.37-1.29,1.1-2.41,2.2-3.35,1.11-.95,2.49-1.68,4.16-2.21,1.67-.52,3.44-.78,5.31-.78h47.25Z"/>
      <path class="cls-1" d="M102.95,44.78c-.8-1.51-2.02-2.82-3.65-3.94-1.64-1.12-3.62-2.01-5.95-2.68-2.34-.67-4.91-.99-7.71-.99h-15.01c-2.81,0-5.5.32-8.06.99-2.58.67-4.85,1.57-6.86,2.74-2,1.15-3.63,2.49-4.91,4.02-1.27,1.54-2,3.19-2.19,4.92l-4.51,34.39c-.21,1.75.13,3.4,1,4.98.86,1.57,2.13,2.94,3.8,4.09,1.67,1.16,3.67,2.06,6.01,2.73,2.34.67,4.91.99,7.71.99h14.91c2.81,0,5.4-.37,7.77-1.1,2.36-.73,4.49-1.71,6.35-2.93,1.87-1.22,3.46-2.59,4.76-4.1,1.3-1.51,2.28-3.06,2.95-4.66,1.06-2.23,1.44-3.97,1.15-5.19-.3-1.22-1.24-1.97-2.8-2.26-1.57-.28-3.73-.1-6.47.53-2.73.63-5.93,1.68-9.6,3.15v1.88c-.28,1.12-1.18,2.09-2.71,2.94-1.53.84-3.2,1.26-5,1.26h-4.81c-1.93,0-3.5-.42-4.7-1.26-1.21-.84-1.74-1.82-1.61-2.94l1.9-14.26h36.65l2.41-18.56c.26-1.67,0-3.26-.81-4.75ZM84.73,57.61h-18.53l.9-5.45c.07-1.19.83-2.22,2.3-3.1,1.47-.87,3.17-1.31,5.11-1.31h4.81c1.8,0,3.33.44,4.56,1.31,1.24.88,1.82,1.9,1.75,3.1l-.89,5.45Z"/>
      <path class="cls-1" d="M165.83,49.85c-.54,3.29-2.35,5.19-5.46,5.71-3.1.53-7.53-.47-13.26-2.99l.3-.42c.07-1.18-.51-2.21-1.75-3.08-1.23-.88-2.75-1.31-4.55-1.31h-4.81c-1.94,0-3.64.44-5.11,1.31-1.47.87-2.23,1.9-2.3,3.08l-4.3,30.2c-.14,1.12.4,2.09,1.6,2.94,1.2.84,2.77,1.25,4.71,1.25h4.8c1.8,0,3.47-.41,5.01-1.25,1.53-.85,2.44-1.82,2.7-2.94l.29-5.03h18.33l-.89,6.92c-.2,1.75-.94,3.4-2.2,4.97-1.27,1.57-2.89,2.94-4.87,4.09-1.96,1.16-4.21,2.07-6.75,2.73-2.54.67-5.21.99-8,.99h-14.92c-2.81,0-5.38-.32-7.72-.99-2.33-.66-4.34-1.57-6.01-2.73-1.67-1.15-2.93-2.51-3.8-4.09-.87-1.57-1.2-3.22-1-4.97l4.5-34.39c.2-1.74.94-3.39,2.2-4.93,1.27-1.53,2.9-2.87,4.91-4.02,2-1.16,4.28-2.07,6.86-2.73s5.26-1,8.06-1h15.02c2.81,0,5.41.33,7.81,1,2.41.67,4.46,1.58,6.16,2.73,1.7,1.15,2.98,2.49,3.8,4.02.84,1.54,1.05,3.18.66,4.93h0Z"/>
      <path class="cls-1" d="M209.48,37.17c2.74,0,5.25.33,7.55,1,2.31.67,4.3,1.58,5.96,2.73,1.67,1.15,2.93,2.49,3.76,4.02.83,1.54,1.15,3.19.95,4.93l-6.2,47.17c-2.81.98-5.33,1.45-7.57,1.43-2.23-.04-4.12-.52-5.66-1.43-1.53-.9-2.65-2.25-3.35-4.03-.7-1.78-.85-3.94-.45-6.45l4.72-34.38c.06-1.19-.51-2.21-1.71-3.09-1.21-.87-2.73-1.32-4.6-1.32h-4.81c-1.93,0-3.63.44-5.11,1.32-1.47.88-2.24,1.9-2.31,3.09l-5.8,44.86h-18.82l8.01-58.8c2.27-.27,4.45-.55,6.55-.79,2.11-.24,3.99-.32,5.67-.26,1.66.07,3.03.33,4.1.78,1.06.45,1.7,1.17,1.9,2.15,3.87-1.96,8.07-2.94,12.61-2.94h4.61Z"/>
      <path class="cls-1" d="M237.92,21.13l-1.31,11.63h18.22l1.61-11.63h-18.52ZM252.28,42.35c-.63-1.78-1.7-3.09-3.2-3.93-1.5-.83-3.38-1.25-5.66-1.25s-4.8.35-7.61,1.05l-8,58.91h18.41l6.31-47.7c.46-2.94.39-5.3-.25-7.08Z"/>
      <path class="cls-1" d="M335.76,16.4c-.42,3.56-2.74,5.87-6.94,6.94-4.21,1.08-10.05,1.12-17.52.13l.89-4.4c.17-1.51-.51-2.8-2.03-3.87-1.54-1.07-3.53-1.59-6-1.59h-8.53c-2.38,0-4.46.52-6.24,1.59-1.79,1.07-2.76,2.36-2.93,3.87l-8.28,60.42c-.17,1.51.53,2.78,2.1,3.81,1.57,1.02,3.58,1.53,6.05,1.53h8.4c2.38,0,4.46-.51,6.25-1.53,1.78-1.03,2.8-2.29,3.06-3.81l3.82-28.28h-12.99c-.77-2.23-.68-4.16.25-5.8.94-1.64,2.44-3.02,4.52-4.13,2.09-1.12,4.61-1.95,7.59-2.54,2.97-.57,6.2-.86,9.69-.86h16.04l-6.24,44.55c-.17,2.14-1.04,4.16-2.61,6.08-1.57,1.91-3.61,3.58-6.11,5-2.51,1.43-5.38,2.56-8.61,3.41-3.23.84-6.63,1.26-10.19,1.26h-21.14c-3.57,0-6.85-.42-9.82-1.26-2.97-.84-5.53-1.98-7.71-3.41-2.17-1.42-3.78-3.09-4.84-5-1.06-1.92-1.47-3.94-1.21-6.08l8.66-66.03c.42-2.22,1.47-4.33,3.12-6.34,1.65-2,3.72-3.73,6.18-5.21,2.46-1.46,5.28-2.64,8.47-3.53,3.19-.89,6.52-1.33,10.01-1.33h21.53c3.39,0,6.6.44,9.62,1.33,3.02.89,5.58,2.07,7.71,3.53,2.11,1.47,3.74,3.2,4.84,5.21,1.1,2,1.48,4.12,1.14,6.34h0Z"/>
      <path class="cls-1" d="M410.24,30.67c-1.06-1.95-2.65-3.67-4.78-5.13-2.13-1.47-4.65-2.62-7.58-3.46-2.94-.85-6.15-1.27-9.62-1.27h-19.49c-3.58,0-6.97.42-10.2,1.27-3.24.84-6.12,2-8.68,3.46-2.54,1.46-4.65,3.18-6.31,5.13-1.66,1.96-2.6,4.06-2.87,6.27l-5.86,45.5c-.25,2.13.15,4.18,1.21,6.13,1.07,1.96,2.68,3.67,4.84,5.14,2.18,1.47,4.74,2.62,7.71,3.47,2.97.84,6.25,1.27,9.81,1.27h19.63c3.39,0,6.66-.43,9.81-1.27,3.13-.85,5.97-2,8.47-3.47,2.51-1.47,4.56-3.17,6.18-5.14,1.62-1.95,2.55-4.01,2.81-6.13l6.11-45.5c.26-2.21-.15-4.3-1.21-6.27ZM360.23,89.63l12.56-28.94h-12.05l4.74-26.07h23.09l-14.22,20.71h17.1l-31.22,34.3Z"/>
    </g>
  </g>
</svg>