<?xml version="1.0" encoding="UTF-8"?>
<svg id="Capa_2" data-name="Capa 2" xmlns="http://www.w3.org/2000/svg" viewBox="0 0 434 115.16">
  <defs>
    <style>
      .cls-1 {
        fill: #fff;
      }
    </style>
  </defs>
  <g id="Capa_1-2" data-name="Capa 1">
    <g>
      <path class="cls-1" d="M90.11,57.43c-1.18-.83-2.62-1.25-4.34-1.25h-4.58c-1.84,0-3.46.42-4.86,1.25-1.4.84-2.13,1.81-2.2,2.94l-.85,5.2h17.64l.86-5.2c.06-1.13-.49-2.1-1.67-2.94ZM90.11,57.43c-1.18-.83-2.62-1.25-4.34-1.25h-4.58c-1.84,0-3.46.42-4.86,1.25-1.4.84-2.13,1.81-2.2,2.94l-.85,5.2h17.64l.86-5.2c.06-1.13-.49-2.1-1.67-2.94ZM90.11,57.43c-1.18-.83-2.62-1.25-4.34-1.25h-4.58c-1.84,0-3.46.42-4.86,1.25-1.4.84-2.13,1.81-2.2,2.94l-.85,5.2h17.64l.86-5.2c.06-1.13-.49-2.1-1.67-2.94ZM90.11,57.43c-1.18-.83-2.62-1.25-4.34-1.25h-4.58c-1.84,0-3.46.42-4.86,1.25-1.4.84-2.13,1.81-2.2,2.94l-.85,5.2h17.64l.86-5.2c.06-1.13-.49-2.1-1.67-2.94ZM90.11,57.43c-1.18-.83-2.62-1.25-4.34-1.25h-4.58c-1.84,0-3.46.42-4.86,1.25-1.4.84-2.13,1.81-2.2,2.94l-.85,5.2h17.64l.86-5.2c.06-1.13-.49-2.1-1.67-2.94ZM90.11,57.43c-1.18-.83-2.62-1.25-4.34-1.25h-4.58c-1.84,0-3.46.42-4.86,1.25-1.4.84-2.13,1.81-2.2,2.94l-.85,5.2h17.64l.86-5.2c.06-1.13-.49-2.1-1.67-2.94ZM90.11,57.43c-1.18-.83-2.62-1.25-4.34-1.25h-4.58c-1.84,0-3.46.42-4.86,1.25-1.4.84-2.13,1.81-2.2,2.94l-.85,5.2h17.64l.86-5.2c.06-1.13-.49-2.1-1.67-2.94ZM383.02,63.4h-16.29l13.54-19.72h-21.98l-4.51,24.82h11.47l-11.97,27.57,29.74-32.67ZM383.02,63.4h-16.29l13.54-19.72h-21.98l-4.51,24.82h11.47l-11.97,27.57,29.74-32.67ZM90.11,57.43c-1.18-.83-2.62-1.25-4.34-1.25h-4.58c-1.84,0-3.46.42-4.86,1.25-1.4.84-2.13,1.81-2.2,2.94l-.85,5.2h17.64l.86-5.2c.06-1.13-.49-2.1-1.67-2.94ZM410.13,35.01s-.02-.04-.04-.07c-.94-1.71-2.09-3.31-3.44-4.76-1.35-1.51-2.9-2.87-4.66-4.08-2.91-2.01-6.31-3.59-10.13-4.69-3.67-1.06-7.66-1.59-11.87-1.59h-18.57c-4.22,0-8.31.51-12.2,1.52-3.2.85-6.19,1.98-8.9,3.37-.03-3.4-.9-6.73-2.58-9.78-1.84-3.35-4.48-6.22-7.83-8.52-2.89-2-6.32-3.6-10.2-4.74-3.77-1.11-7.77-1.67-11.92-1.67h-20.52c-4.18,0-8.27.55-12.15,1.63-3.86,1.08-7.4,2.56-10.48,4.4-3.34,1.99-6.22,4.43-8.57,7.25-1.77,2.14-3.12,4.43-4.08,6.84h-15.19c-5.19,0-9.55,4.06-10.14,9.46l-1.08,9.55c-1.82-.96-3.8-1.78-5.95-2.4-3.06-.88-6.39-1.33-9.91-1.33h-4.39c-3.54,0-6.98.47-10.25,1.42-2.07-.83-4.39-1.3-7.08-1.41-2.07-.1-4.4.02-6.92.31-2.03.24-4.12.49-6.3.75-2.56.31-4.82,1.61-6.44,3.51-2.27-1.38-4.84-2.48-7.69-3.28-3.13-.86-6.51-1.3-10.05-1.3h-14.3c-3.49,0-6.9.43-10.13,1.26-3.31.86-6.34,2.07-9,3.61-1.41.81-2.72,1.72-3.92,2.7-.88-.84-1.84-1.62-2.89-2.34-2.44-1.66-5.32-2.98-8.57-3.91-3.09-.87-6.46-1.32-10.03-1.32h-14.3c-.45,0-.91.03-1.36.04l.49-3.23c.47-3.08-.38-6.24-2.31-8.63-1.95-2.38-4.79-3.75-7.78-3.75H21.5c-2.76,0-5.45.4-7.99,1.19-2.88.91-5.4,2.28-7.48,4.07-2.63,2.24-4.51,5.16-5.43,8.43-.81,2.84-1.2,7.27,1.54,12.3,1.82,3.33,5.2,5.38,8.87,5.38h6.56l-6.75,50.42c-.42,3.06.46,6.17,2.4,8.5,1.94,2.35,4.75,3.68,7.71,3.68h17.64c4.56,0,8.48-3.14,9.77-7.6.87.83,1.8,1.59,2.81,2.29,2.49,1.72,5.42,3.06,8.67,3.99,3.08.88,6.46,1.32,10.03,1.32h14.21c3.64,0,7.1-.5,10.28-1.49,3.13-.96,6.02-2.3,8.58-3.99,1.29-.84,2.5-1.75,3.64-2.73,1.02,1.06,2.16,2.03,3.43,2.9,2.49,1.72,5.41,3.06,8.67,3.99,3.08.88,6.45,1.32,10.02,1.32h14.21c3.49,0,6.89-.43,10.1-1.27,2.65-.69,5.1-1.63,7.37-2.78.09.12.17.25.27.36,1.94,2.35,4.76,3.69,7.71,3.69h17.93c5.11,0,9.44-3.95,10.13-9.26v-.1c1.59,3.4,4.04,6.14,7.16,7.98,2.95,1.74,6.41,2.67,10.26,2.73h.37c3.04.01,6.35-.61,9.82-1.78,1.02.35,2.08.53,3.17.53h17.54c3.56,0,6.73-1.91,8.56-4.87,2.83,1.81,6.1,3.27,9.74,4.29,3.68,1.05,7.73,1.58,12.02,1.58h20.14c4.21,0,8.31-.52,12.18-1.53,3.9-1.02,7.46-2.43,10.59-4.21,2.38-1.36,4.5-2.93,6.35-4.69.05.07.12.14.19.21,1.33,1.44,2.88,2.76,4.63,3.95,2.97,2.01,6.44,3.59,10.38,4.72,3.78,1.06,7.88,1.6,12.19,1.6h18.56c4.1,0,8.15-.53,12.1-1.58,3.89-1.06,7.46-2.53,10.64-4.39,3.46-2.03,6.38-4.48,8.67-7.27,2.83-3.41,4.52-7.21,5.04-11.27l1.6-11.93,4.17-31.04c.01-.06.01-.12.02-.18.5-4.25-.32-8.5-2.35-12.28ZM46.96,40.51l-8.38,62.59h-17.65l8.39-62.59H11.01c-.76-1.39-.96-2.71-.62-3.94.35-1.24,1.05-2.3,2.1-3.2,1.05-.9,2.37-1.6,3.96-2.1,1.59-.5,3.27-.75,5.05-.75h45l-1.52,9.99h-18.02ZM109.04,57.87l-2.29,17.68h-34.9l-1.81,13.58c-.13,1.06.38,1.99,1.52,2.79,1.15.8,2.64,1.2,4.48,1.2h4.58c1.72,0,3.31-.4,4.77-1.2s2.32-1.73,2.57-2.79v-1.8c3.5-1.39,6.55-2.4,9.16-3,2.6-.6,4.65-.77,6.15-.5,1.49.27,2.39.99,2.67,2.15.28,1.16-.08,2.82-1.1,4.95-.64,1.53-1.57,3-2.81,4.43-1.24,1.44-2.76,2.74-4.53,3.9-1.78,1.16-3.8,2.09-6.06,2.8-2.25.69-4.71,1.04-7.39,1.04h-14.2c-2.67,0-5.12-.31-7.35-.95-2.22-.62-4.12-1.49-5.72-2.59-1.59-1.1-2.79-2.4-3.62-3.9s-1.14-3.07-.95-4.73l4.29-32.76c.19-1.66.89-3.22,2.09-4.69,1.22-1.45,2.77-2.73,4.67-3.83,1.92-1.1,4.09-1.97,6.54-2.61,2.44-.63,5-.94,7.68-.94h14.3c2.67,0,5.12.31,7.34.94,2.23.64,4.12,1.49,5.67,2.55,1.56,1.07,2.72,2.31,3.49,3.75.76,1.43,1.01,2.95.76,4.53ZM168.16,58.18c-.52,3.13-2.24,4.94-5.2,5.44-2.96.5-7.17-.45-12.64-2.85l.29-.4c.06-1.13-.49-2.11-1.67-2.94-1.17-.83-2.62-1.25-4.34-1.25h-4.57c-1.85,0-3.47.42-4.87,1.25-1.4.83-2.12,1.81-2.19,2.94l-4.1,28.76c-.13,1.06.38,1.99,1.53,2.8,1.14.79,2.64,1.19,4.48,1.19h4.58c1.71,0,3.3-.4,4.76-1.19,1.46-.81,2.32-1.74,2.58-2.8l.27-4.8h17.46l-.85,6.6c-.2,1.66-.9,3.23-2.1,4.73-1.21,1.5-2.75,2.8-4.64,3.9-1.87,1.1-4.01,1.96-6.43,2.59-2.42.64-4.96.95-7.62.95h-14.21c-2.67,0-5.12-.31-7.34-.95-2.23-.63-4.14-1.49-5.73-2.59-1.58-1.1-2.79-2.4-3.62-3.9-.83-1.5-1.14-3.07-.95-4.73l4.29-32.75c.19-1.66.89-3.23,2.1-4.7,1.21-1.45,2.76-2.73,4.67-3.83,1.9-1.1,4.08-1.97,6.53-2.6,2.45-.64,5.01-.95,7.68-.95h14.3c2.67,0,5.15.31,7.43.95,2.3.63,4.25,1.5,5.87,2.6s2.84,2.38,3.62,3.83c.8,1.47,1,3.04.63,4.7ZM227.08,58.18l-5.91,44.92c-2.67.94-5.07,1.38-7.2,1.36-2.13-.04-3.93-.49-5.39-1.36-1.46-.86-2.52-2.14-3.19-3.84-.67-1.69-.82-3.75-.43-6.14l4.49-32.75c.06-1.13-.49-2.1-1.63-2.94-1.15-.83-2.6-1.25-4.38-1.25h-4.58c-1.84,0-3.46.42-4.87,1.25-1.39.84-2.13,1.81-2.19,2.94l-5.52,42.73h-17.93l7.63-56c2.16-.26,4.23-.52,6.24-.75s3.8-.31,5.39-.25c1.58.07,2.89.31,3.91.75,1.01.43,1.62,1.11,1.81,2.05,3.69-1.87,7.69-2.8,12.01-2.8h4.39c2.61,0,5.01.31,7.19.95,2.2.63,4.1,1.5,5.68,2.6,1.59,1.09,2.78,2.38,3.58,3.83.79,1.47,1.1,3.04.9,4.7ZM250.73,57.78l-6.01,45.42h-17.54l7.63-56.1c2.67-.67,5.07-1,7.24-1s3.96.4,5.39,1.19c1.43.8,2.45,2.05,3.05,3.75.61,1.69.68,3.94.24,6.74ZM235.56,41.91l1.25-11.08h17.64l-1.53,11.08h-17.36ZM305.61,25.18c-1.46-1.02-3.36-1.52-5.71-1.52h-8.12c-2.27,0-4.25.5-5.94,1.52-1.71,1.02-2.63,2.25-2.8,3.69l-7.89,57.54c-.16,1.44.51,2.65,2,3.63,1.5.97,3.41,1.45,5.77,1.45h8c2.27,0,4.25-.48,5.95-1.45,1.7-.98,2.67-2.19,2.92-3.63l3.63-26.93h-12.37c-.74-2.12-.65-3.96.24-5.53.89-1.56,2.33-2.87,4.31-3.93s4.39-1.86,7.22-2.42c2.83-.55,5.9-.82,9.23-.82h15.28l-5.94,42.43c-.17,2.03-1,3.96-2.49,5.78-1.5,1.82-3.44,3.41-5.82,4.76-2.4,1.36-5.13,2.44-8.2,3.25-3.07.8-6.31,1.2-9.71,1.2h-20.13c-3.4,0-6.53-.4-9.35-1.2-2.83-.81-5.27-1.89-7.34-3.25-2.07-1.35-3.6-2.94-4.61-4.76-1.01-1.82-1.4-3.75-1.15-5.78l8.25-62.89c.4-2.12,1.4-4.13,2.97-6.04,1.57-1.9,3.54-3.55,5.89-4.95,2.34-1.39,5.03-2.52,8.06-3.36,3.04-.85,6.21-1.27,9.53-1.27h20.51c3.23,0,6.28.42,9.15,1.27,2.88.84,5.32,1.97,7.35,3.36,2.01,1.4,3.56,3.05,4.61,4.95,1.05,1.91,1.41,3.92,1.09,6.04-.41,3.39-2.61,5.59-6.61,6.61-4.01,1.02-9.57,1.06-16.69.12l.85-4.18c.16-1.44-.48-2.67-1.94-3.69ZM402.06,45.88l-5.81,43.33c-.25,2.03-1.14,3.98-2.68,5.84-1.53,1.87-3.5,3.49-5.88,4.9-2.39,1.39-5.08,2.49-8.07,3.3-3,.8-6.11,1.21-9.34,1.21h-18.69c-3.4,0-6.51-.41-9.35-1.21-2.83-.81-5.27-1.91-7.34-3.3-2.06-1.41-3.59-3.03-4.61-4.9-1.01-1.86-1.39-3.81-1.15-5.84l5.58-43.33c.25-2.1,1.15-4.1,2.73-5.97,1.58-1.86,3.59-3.49,6.01-4.88,2.43-1.4,5.17-2.5,8.25-3.31,3.07-.8,6.31-1.2,9.71-1.2h18.56c3.31,0,6.37.4,9.16,1.2,2.79.81,5.2,1.91,7.23,3.31,2.02,1.39,3.53,3.02,4.55,4.88,1,1.87,1.39,3.87,1.14,5.97ZM380.27,43.68h-21.98l-4.51,24.82h11.47l-11.97,27.57,29.74-32.67h-16.29l13.54-19.72ZM90.11,57.43c-1.18-.83-2.62-1.25-4.34-1.25h-4.58c-1.84,0-3.46.42-4.86,1.25-1.4.84-2.13,1.81-2.2,2.94l-.85,5.2h17.64l.86-5.2c.06-1.13-.49-2.1-1.67-2.94ZM90.11,57.43c-1.18-.83-2.62-1.25-4.34-1.25h-4.58c-1.84,0-3.46.42-4.86,1.25-1.4.84-2.13,1.81-2.2,2.94l-.85,5.2h17.64l.86-5.2c.06-1.13-.49-2.1-1.67-2.94ZM90.11,57.43c-1.18-.83-2.62-1.25-4.34-1.25h-4.58c-1.84,0-3.46.42-4.86,1.25-1.4.84-2.13,1.81-2.2,2.94l-.85,5.2h17.64l.86-5.2c.06-1.13-.49-2.1-1.67-2.94ZM90.11,57.43c-1.18-.83-2.62-1.25-4.34-1.25h-4.58c-1.84,0-3.46.42-4.86,1.25-1.4.84-2.13,1.81-2.2,2.94l-.85,5.2h17.64l.86-5.2c.06-1.13-.49-2.1-1.67-2.94ZM90.11,57.43c-1.18-.83-2.62-1.25-4.34-1.25h-4.58c-1.84,0-3.46.42-4.86,1.25-1.4.84-2.13,1.81-2.2,2.94l-.85,5.2h17.64l.86-5.2c.06-1.13-.49-2.1-1.67-2.94ZM90.11,57.43c-1.18-.83-2.62-1.25-4.34-1.25h-4.58c-1.84,0-3.46.42-4.86,1.25-1.4.84-2.13,1.81-2.2,2.94l-.85,5.2h17.64l.86-5.2c.06-1.13-.49-2.1-1.67-2.94ZM90.11,57.43c-1.18-.83-2.62-1.25-4.34-1.25h-4.58c-1.84,0-3.46.42-4.86,1.25-1.4.84-2.13,1.81-2.2,2.94l-.85,5.2h17.64l.86-5.2c.06-1.13-.49-2.1-1.67-2.94Z"/>
      <g>
        <path class="cls-1" d="M425.4,26.94c.15.11.22.23.2.36l-.18,1.31c-.02.13-.12.24-.29.35-.18.1-.37.15-.58.15h-1.66l.32-2.34h1.61c.25,0,.44.06.58.17Z"/>
        <path class="cls-1" d="M423.88,20.1c-5.59,0-10.12,4.53-10.12,10.12s4.53,10.12,10.12,10.12,10.12-4.53,10.12-10.12-4.54-10.12-10.12-10.12ZM427.88,27.07l-.14,1.11c-.06.34-.2.65-.42.93-.22.28-.57.49-1.04.63.25.06.47.15.64.26.18.1.31.22.4.36.1.14.16.29.19.46.03.16.04.33.01.5l-.45,3.48h-2.25l.47-3.86c.04-.14-.02-.27-.15-.38-.15-.11-.32-.17-.55-.17h-1.86l-.27,2.14c-.07.44-.18.83-.32,1.18-.15.33-.33.61-.55.82-.22.19-.48.32-.76.38-.3.05-.62.03-.97-.11l1.24-9.3h4.52c.35,0,.67.04.95.13.3.08.54.19.75.33.19.14.35.31.46.49.1.2.14.4.1.62Z"/>
      </g>
    </g>
  </g>
</svg>