<?xml version="1.0"?>
<svg id="Capa_2" data-name="Capa 2" xmlns="http://www.w3.org/2000/svg" viewBox="0 0 221.37 229.86">
  <defs>
    
  </defs>
  <g id="Capa_1-2" data-name="Capa 1">
    <g>
      <path class="cls-2" d="M122,109.32c.56,1.04.84,2.2.84,3.48,0,2.03-.63,3.67-1.88,4.92-1.26,1.25-2.87,1.88-4.84,1.88h-6.56v-13.6h6.56c1.33,0,2.5.29,3.52.88,1.01.59,1.8,1.4,2.36,2.44Z"></path>
      <path class="cls-2" d="M44.22,169.69l1.65-.95,30.46-17.59c14.38,17.55,33.89,28.74,33.89,28.74,0,0,19.79-11.35,34.19-29.11l31.41,18.13,2.46,1.18,2.38-8.46-.68-.71-30.22-17.45c5.53-8.54,9.38-18.2,9.38-28.55,0-25.33-19.27-46.18-43.95-48.67v-23.06h-9v22.97c-25.14,2.06-44.89,23.11-44.89,48.76,0,10.51,3.97,20.3,9.64,28.94l-28.8,16.63-2.36,1.36,4.44,7.84ZM132.76,127.36c-3.95,3.84-8.88,5.76-14.8,5.76h-8.4v15.44h-15.44v-56h23.84c5.97,0,10.92,1.91,14.84,5.72s5.88,8.65,5.88,14.52-1.98,10.72-5.92,14.56Z"></path>
      <polygon class="cls-2" points="205.73 175.79 201.23 183.58 198.45 181.98 201.57 173.39 205.73 175.79"></polygon>
      <g>
        <path class="cls-1" d="M138.97,31.29c39.13,12.1,67.63,48.61,67.63,91.65,0,8.54-1.13,16.82-3.23,24.71,3.68.69,7.16,2.09,10.27,4.14,2.58-9.18,3.96-18.86,3.96-28.85,0-48.8-32.86-90.06-77.62-102.83.13,1.17.19,2.36.17,3.56-.04,2.64-.46,5.19-1.19,7.61Z"></path>
        <path class="cls-3" d="M176.07,193.05c-17.14,16-40.14,25.81-65.38,25.81s-48.83-10.06-66.05-26.43c-.56.64-1.14,1.27-1.76,1.87-2.09,2.03-4.45,3.69-6.99,4.96,19.29,18.92,45.7,30.6,74.79,30.6s54.64-11.3,73.85-29.68c-2.44-1.35-4.7-3.06-6.7-5.13-.62-.65-1.21-1.32-1.77-2.01Z"></path>
        <path class="cls-2" d="M14.78,122.95c0-43.87,29.6-80.95,69.88-92.32-.68-2.5-1.03-5.13-.99-7.84.02-1.14.11-2.26.26-3.36C37.89,31.34,3.78,73.23,3.78,122.95c0,9.58,1.27,18.86,3.65,27.7,3.05-2.08,6.51-3.58,10.24-4.34-1.88-7.48-2.88-15.31-2.88-23.37Z"></path>
      </g>
      <path class="cls-2" d="M23.24,164.19c-2.5,0-4.52,2.02-4.52,4.52,0,1.71.95,3.2,2.34,3.96.65.36,1.39.56,2.18.56,2.47,0,4.47-1.97,4.52-4.43v-.09c0-2.5-2.02-4.52-4.52-4.52ZM23.24,164.19c-2.5,0-4.52,2.02-4.52,4.52,0,1.71.95,3.2,2.34,3.96.65.36,1.39.56,2.18.56,2.47,0,4.47-1.97,4.52-4.43v-.09c0-2.5-2.02-4.52-4.52-4.52ZM23.24,164.19c-2.5,0-4.52,2.02-4.52,4.52,0,1.71.95,3.2,2.34,3.96.65.36,1.39.56,2.18.56,2.47,0,4.47-1.97,4.52-4.43v-.09c0-2.5-2.02-4.52-4.52-4.52ZM23.24,164.19c-2.5,0-4.52,2.02-4.52,4.52,0,1.71.95,3.2,2.34,3.96.65.36,1.39.56,2.18.56,2.47,0,4.47-1.97,4.52-4.43v-.09c0-2.5-2.02-4.52-4.52-4.52ZM23.24,164.19c-2.5,0-4.52,2.02-4.52,4.52,0,1.71.95,3.2,2.34,3.96.65.36,1.39.56,2.18.56,2.47,0,4.47-1.97,4.52-4.43v-.09c0-2.5-2.02-4.52-4.52-4.52ZM23.24,164.19c-2.5,0-4.52,2.02-4.52,4.52,0,1.71.95,3.2,2.34,3.96.65.36,1.39.56,2.18.56,2.47,0,4.47-1.97,4.52-4.43v-.09c0-2.5-2.02-4.52-4.52-4.52ZM45.87,168.74c-.7-3.02-1.98-5.81-3.73-8.25-4.22-5.89-11.11-9.72-18.9-9.72-12.83,0-23.24,10.4-23.24,23.23s10.41,23.24,23.24,23.24,23.23-10.4,23.23-23.24c0-1.81-.21-3.57-.6-5.26ZM23.24,188.32s-9.84-11.38-9.84-18.81c0-5.43,4.41-9.84,9.84-9.84,4.22,0,7.83,2.67,9.22,6.41.4,1.07.62,2.23.62,3.43,0,2.43-1.06,5.3-2.48,8.04-2.92,5.63-7.36,10.77-7.36,10.77ZM23.24,164.19c-2.5,0-4.52,2.02-4.52,4.52,0,1.71.95,3.2,2.34,3.96.65.36,1.39.56,2.18.56,2.47,0,4.47-1.97,4.52-4.43v-.09c0-2.5-2.02-4.52-4.52-4.52ZM23.24,164.19c-2.5,0-4.52,2.02-4.52,4.52,0,1.71.95,3.2,2.34,3.96.65.36,1.39.56,2.18.56,2.47,0,4.47-1.97,4.52-4.43v-.09c0-2.5-2.02-4.52-4.52-4.52ZM23.24,164.19c-2.5,0-4.52,2.02-4.52,4.52,0,1.71.95,3.2,2.34,3.96.65.36,1.39.56,2.18.56,2.47,0,4.47-1.97,4.52-4.43v-.09c0-2.5-2.02-4.52-4.52-4.52ZM23.24,164.19c-2.5,0-4.52,2.02-4.52,4.52,0,1.71.95,3.2,2.34,3.96.65.36,1.39.56,2.18.56,2.47,0,4.47-1.97,4.52-4.43v-.09c0-2.5-2.02-4.52-4.52-4.52ZM23.24,164.19c-2.5,0-4.52,2.02-4.52,4.52,0,1.71.95,3.2,2.34,3.96.65.36,1.39.56,2.18.56,2.47,0,4.47-1.97,4.52-4.43v-.09c0-2.5-2.02-4.52-4.52-4.52Z"></path>
      <path class="cls-1" d="M111.91,0c-12.83,0-23.23,10.4-23.23,23.23,0,10.86,7.44,19.98,17.51,22.53,1.83.46,3.75.71,5.72.71,1.11,0,2.21-.08,3.28-.24,11.29-1.58,19.96-11.27,19.96-23,0-12.83-10.4-23.23-23.24-23.23ZM106.19,31.96c-.24.04-.49.07-.76.08,0,0-5.95,0-7.87,0-.14,0-.16-.2-.02-.23,0,0,.09-.02.14-.02.24-.06.47-.13.67-.22,1.78-.7,2.46-3.85,2.98-6.02.27-1.13.41-1.99.42-2.06h0s1.02-5.02,1.02-5.02h.01c.03-.16.42-1.88.66-2.94.1-.41.17-.71.19-.79.08-.26.22-.6.44-.94h0c.3-.46.74-.91,1.4-1.2h.01c1.64-.72,2.8.97,2.91,1.15h.01c.08.13.16.27.23.42.16.31.31.65.42,1.09.01.04.35,1.67.76,3.69.5,2.43,1.11,5.4,1.4,6.8.03.13.03.27.02.41-.13,1.01-.9,5.17-5.04,5.79ZM126.27,32.05h-8.01s-1.53.03-3.07-.89c-1.25-.76-2.51-2.15-2.96-4.71l-1.2-5.9-.32-1.59-.66-3.23h0c-.02-.08-.49-2.53-2.26-3.23-.04-.01-.04-.07,0-.08h8.63c.18,0,2.85,0,3.51,2.89l2.19,10.56s.68,4.85,4.17,5.96h.01c.12.04.1.22-.03.22Z"></path>
      <path class="cls-3" d="M198.14,152.18c-7.35,0-13.9,3.41-18.16,8.74-1.87,2.34-3.3,5.04-4.16,7.99-.6,2.06-.92,4.24-.92,6.5,0,12.83,10.41,23.24,23.24,23.24s23.23-10.41,23.23-23.24-10.4-23.23-23.23-23.23ZM192.27,183.56s-.03.1-.08.13c-.02.01-.05.02-.07.02-.03,0-.06-.01-.08-.02l-11.31-7.21s-.07-.07-.07-.13v-.86s.03-.1.07-.13l2.94-1.92h.01l8.36-5.44s.1-.03.15-.01c.05.03.08.08.08.14v4.33c0,.06-.03.11-.08.13l-5.02,2.88-.72.41,5.74,3.24s.08.07.08.13v4.31ZM196.73,186.74c-.02.06-.08.1-.14.1h-4.03s-.09-.03-.12-.07c-.03-.04-.03-.09-.02-.13l2.44-6.74,3.11-8.59,2.47-6.81c.02-.06.08-.1.14-.1h4.03s.09.02.12.06c.03.04.03.09.02.14l-3.18,8.79-3.12,8.59-1.72,4.76ZM215.94,176.48l-11.31,7.21s-.05.02-.08.02c-.02,0-.05-.01-.07-.02-.05-.03-.08-.08-.08-.13v-4.31c0-.06.03-.11.08-.13l5.74-3.24-5.74-3.29s-.08-.07-.08-.13v-4.33c0-.06.03-.11.08-.14.05-.02.11-.02.16.01l11.3,7.36s.07.08.07.13v.86c0,.06-.03.1-.07.13Z"></path>
    </g>
  </g>
</svg>