<?xml version="1.0" encoding="UTF-8"?>
<svg id="Capa_2" xmlns="http://www.w3.org/2000/svg" version="1.1" viewBox="0 0 221.4 229.9">
  <!-- Generator: Adobe Illustrator 30.5.1, SVG Export Plug-In . SVG Version: 2.1.4 Build 3)  -->
  <defs>
    <style>
      .st0 {
        fill: #ff8600;
      }

      .st1 {
        fill: #529a00;
      }

      .st2 {
        fill: #fff;
      }
    </style>
  </defs>
  <g id="Capa_1-2">
    <g>
      <path class="st2" d="M122,109.3c.6,1,.8,2.2.8,3.5,0,2-.6,3.7-1.9,4.9-1.3,1.2-2.9,1.9-4.8,1.9h-6.6v-13.6h6.6c1.3,0,2.5.3,3.5.9,1,.6,1.8,1.4,2.4,2.4Z"/>
      <path class="st2" d="M44.2,169.7l1.7-.9,30.5-17.6c14.4,17.6,33.9,28.7,33.9,28.7,0,0,19.8-11.4,34.2-29.1l31.4,18.1,2.5,1.2,2.4-8.5-.7-.7-30.2-17.4c5.5-8.5,9.4-18.2,9.4-28.6,0-25.3-19.3-46.2-43.9-48.7v-23.1h-9v23c-25.1,2.1-44.9,23.1-44.9,48.8s4,20.3,9.6,28.9l-28.8,16.6-2.4,1.4,4.4,7.8h0ZM132.8,127.4c-3.9,3.8-8.9,5.8-14.8,5.8h-8.4v15.4h-15.4v-56h23.8c6,0,10.9,1.9,14.8,5.7s5.9,8.7,5.9,14.5-2,10.7-5.9,14.6Z"/>
      <g>
        <path class="st1" d="M139,31.3c39.1,12.1,67.6,48.6,67.6,91.7s-1.1,16.8-3.2,24.7c3.7.7,7.2,2.1,10.3,4.1,2.6-9.2,4-18.9,4-28.8,0-48.8-32.9-90.1-77.6-102.8.1,1.2.2,2.4.2,3.6,0,2.6-.5,5.2-1.2,7.6h0Z"/>
        <path class="st0" d="M176.1,193.1c-17.1,16-40.1,25.8-65.4,25.8s-48.8-10.1-66.1-26.4c-.6.6-1.1,1.3-1.8,1.9-2.1,2-4.5,3.7-7,5,19.3,18.9,45.7,30.6,74.8,30.6s54.6-11.3,73.8-29.7c-2.4-1.4-4.7-3.1-6.7-5.1-.6-.6-1.2-1.3-1.8-2h0Z"/>
        <path class="st2" d="M14.8,122.9c0-43.9,29.6-80.9,69.9-92.3-.7-2.5-1-5.1-1-7.8,0-1.1.1-2.3.3-3.4C37.9,31.3,3.8,73.2,3.8,122.9s1.3,18.9,3.7,27.7c3.1-2.1,6.5-3.6,10.2-4.3-1.9-7.5-2.9-15.3-2.9-23.4h0Z"/>
      </g>
      <path class="st2" d="M23.2,164.2c-2.5,0-4.5,2-4.5,4.5s1,3.2,2.3,4c.6.4,1.4.6,2.2.6,2.5,0,4.5-2,4.5-4.4h0c0-2.6-2-4.6-4.5-4.6h0ZM23.2,164.2c-2.5,0-4.5,2-4.5,4.5s1,3.2,2.3,4c.6.4,1.4.6,2.2.6,2.5,0,4.5-2,4.5-4.4h0c0-2.6-2-4.6-4.5-4.6h0ZM23.2,164.2c-2.5,0-4.5,2-4.5,4.5s1,3.2,2.3,4c.6.4,1.4.6,2.2.6,2.5,0,4.5-2,4.5-4.4h0c0-2.6-2-4.6-4.5-4.6h0ZM23.2,164.2c-2.5,0-4.5,2-4.5,4.5s1,3.2,2.3,4c.6.4,1.4.6,2.2.6,2.5,0,4.5-2,4.5-4.4h0c0-2.6-2-4.6-4.5-4.6h0ZM23.2,164.2c-2.5,0-4.5,2-4.5,4.5s1,3.2,2.3,4c.6.4,1.4.6,2.2.6,2.5,0,4.5-2,4.5-4.4h0c0-2.6-2-4.6-4.5-4.6h0ZM23.2,164.2c-2.5,0-4.5,2-4.5,4.5s1,3.2,2.3,4c.6.4,1.4.6,2.2.6,2.5,0,4.5-2,4.5-4.4h0c0-2.6-2-4.6-4.5-4.6h0ZM45.9,168.7c-.7-3-2-5.8-3.7-8.2-4.2-5.9-11.1-9.7-18.9-9.7-12.8,0-23.2,10.4-23.2,23.2s10.4,23.2,23.2,23.2,23.2-10.4,23.2-23.2-.2-3.6-.6-5.3ZM23.2,188.3s-9.8-11.4-9.8-18.8,4.4-9.8,9.8-9.8,7.8,2.7,9.2,6.4c.4,1.1.6,2.2.6,3.4,0,2.4-1.1,5.3-2.5,8-2.9,5.6-7.4,10.8-7.4,10.8ZM23.2,164.2c-2.5,0-4.5,2-4.5,4.5s1,3.2,2.3,4c.6.4,1.4.6,2.2.6,2.5,0,4.5-2,4.5-4.4h0c0-2.6-2-4.6-4.5-4.6h0ZM23.2,164.2c-2.5,0-4.5,2-4.5,4.5s1,3.2,2.3,4c.6.4,1.4.6,2.2.6,2.5,0,4.5-2,4.5-4.4h0c0-2.6-2-4.6-4.5-4.6h0ZM23.2,164.2c-2.5,0-4.5,2-4.5,4.5s1,3.2,2.3,4c.6.4,1.4.6,2.2.6,2.5,0,4.5-2,4.5-4.4h0c0-2.6-2-4.6-4.5-4.6h0ZM23.2,164.2c-2.5,0-4.5,2-4.5,4.5s1,3.2,2.3,4c.6.4,1.4.6,2.2.6,2.5,0,4.5-2,4.5-4.4h0c0-2.6-2-4.6-4.5-4.6h0ZM23.2,164.2c-2.5,0-4.5,2-4.5,4.5s1,3.2,2.3,4c.6.4,1.4.6,2.2.6,2.5,0,4.5-2,4.5-4.4h0c0-2.6-2-4.6-4.5-4.6h0Z"/>
      <path class="st1" d="M111.9,0c-12.8,0-23.2,10.4-23.2,23.2s7.4,20,17.5,22.5c1.8.5,3.8.7,5.7.7s2.2,0,3.3-.2c11.3-1.6,20-11.3,20-23S124.8,0,111.9,0ZM106.2,32c-.2,0-.5,0-.8,0h-7.9c-.1,0-.2-.2,0-.2,0,0,0,0,.1,0,.2,0,.5-.1.7-.2,1.8-.7,2.5-3.9,3-6,.3-1.1.4-2,.4-2.1h0l1-5h0c0-.2.4-1.9.7-2.9,0-.4.2-.7.2-.8,0-.3.2-.6.4-.9h0c.3-.5.7-.9,1.4-1.2h0c1.6-.7,2.8,1,2.9,1.1h0c0,.1.2.3.2.4.2.3.3.6.4,1.1,0,0,.3,1.7.8,3.7.5,2.4,1.1,5.4,1.4,6.8,0,.1,0,.3,0,.4-.1,1-.9,5.2-5,5.8h0ZM126.3,32h-8s-1.5,0-3.1-.9c-1.2-.8-2.5-2.1-3-4.7l-1.2-5.9-.3-1.6-.7-3.2h0c0,0-.5-2.5-2.3-3.2,0,0,0,0,0,0h8.6c.2,0,2.8,0,3.5,2.9l2.2,10.6s.7,4.9,4.2,6h0c.1,0,0,.2,0,.2Z"/>
      <path class="st0" d="M198.1,152.2c-7.4,0-13.9,3.4-18.2,8.7-1.9,2.3-3.3,5-4.2,8-.6,2.1-.9,4.2-.9,6.5,0,12.8,10.4,23.2,23.2,23.2s23.2-10.4,23.2-23.2-10.4-23.2-23.2-23.2ZM192.3,172.5c0,0,0,.1,0,.1l-5,2.9-.7.4,5.7,3.2s0,0,0,.1v4.3s0,0,0,.1c0,0,0,0,0,0,0,0,0,0,0,0l-11.3-7.2s0,0,0-.1v-.9s0-.1,0-.1l2.9-1.9h0l8.4-5.4s.1,0,.2,0c0,0,0,0,0,.1v4.3ZM196.7,186.7h0c0,0,0,.1-.1.1h-4s0,0-.1,0c0,0,0,0,0-.1l2.4-6.7,3.1-8.6,2.5-6.8c0,0,0-.1.1-.1h4s0,0,.1,0c0,0,0,0,0,.1l-3.2,8.8-3.1,8.6-1.7,4.8ZM215.9,176.5l-11.3,7.2s0,0,0,0,0,0,0,0c0,0,0,0,0-.1v-4.3c0,0,0-.1,0-.1l5.7-3.2-5.7-3.3s0,0,0-.1v-4.3c0,0,0-.1,0-.1,0,0,.1,0,.2,0l11.3,7.4s0,0,0,.1v.9c0,0,0,0,0,.1Z"/>
    </g>
  </g>
</svg>