<?xml version="1.0" encoding="UTF-8"?>
<svg id="Capa_2" xmlns="http://www.w3.org/2000/svg" version="1.1" viewBox="0 0 814.2 169.9">
  <!-- Generator: Adobe Illustrator 30.5.1, SVG Export Plug-In . SVG Version: 2.1.4 Build 3)  -->
  <defs>
    <style>
      .st0 {
        fill: #ff8600;
      }

      .st1 {
        fill: #529a00;
      }

      .st2 {
        fill: #5c5c63;
      }

      .st3 {
        fill: #1d2333;
      }
    </style>
  </defs>
  <g id="Capa_1-2">
    <g>
      <g>
        <path class="st3" d="M260.6,64.6c-1.6-2.8-3.9-5-6.8-6.6-2.9-1.6-6.1-2.4-9.6-2.4h-20.5v55.5h9.1v-18.9h11.4c5.4,0,9.9-1.7,13.5-5.2,3.6-3.5,5.4-7.8,5.4-13.1s-.8-6.6-2.5-9.4h0ZM253.1,77.8c-.5,1.2-1.2,2.2-2.1,3.1-.9.8-2,1.5-3.2,2-1.2.5-2.6.7-4.1.7h-10.9v-19.3h10.9c2,0,3.7.4,5.2,1.3,1.5.8,2.7,2,3.6,3.4.9,1.5,1.3,3.1,1.3,5s-.2,2.7-.8,3.9Z"/>
        <path class="st3" d="M295,55.6h-8.6l-22.4,55.5h9.7l4.8-12.1h24.7l4.8,12.1h9.8l-22.9-55.5h0ZM281.7,90.9l9.1-23.4,9.3,23.4h-18.4,0Z"/>
        <path class="st3" d="M356.7,89.3c3.4-1.3,6.2-3.3,8.2-6.2,2.1-2.9,3.1-6.2,3.1-9.9s-.8-6.3-2.4-9c-1.6-2.7-3.9-4.8-6.7-6.3-2.9-1.5-6-2.2-9.5-2.2h-21.6v55.5h9.1v-20.5h10.5l11.9,20.5h10.2l-12.8-21.8ZM353,81.4c-1.2.4-2.6.6-4.1.6h-12v-17.8h12c3,0,5.4.8,7.2,2.5,1.8,1.7,2.7,3.8,2.7,6.4s-.2,2.5-.7,3.6c-.5,1.1-1.1,2.1-2,2.9-.8.8-1.9,1.4-3.1,1.8h0Z"/>
        <path class="st3" d="M374.7,55.6v8.5h16.3v47h9v-47h16.3v-8.5s-41.7,0-41.7,0Z"/>
        <path class="st3" d="M463.3,55.6v39l-28.2-39h-8.2v55.5h9v-39.6l28.8,39.6h7.7v-55.5s-9,0-9,0Z"/>
        <path class="st3" d="M497.1,102.5v-15.5h21.1v-8.4h-21.1v-14.4h23.1v-8.6h-32.3v55.5h33.1v-8.6h-24Z"/>
        <path class="st3" d="M562.7,89.3c3.4-1.3,6.2-3.3,8.2-6.2s3.1-6.2,3.1-9.9-.8-6.3-2.4-9c-1.6-2.7-3.8-4.8-6.7-6.3-2.9-1.5-6-2.2-9.5-2.2h-21.6v55.5h9.1v-20.5h10.5l11.9,20.5h10.2l-12.8-21.8h0ZM558.9,81.4c-1.2.4-2.6.6-4.1.6h-12v-17.8h12c3,0,5.3.8,7.2,2.5,1.8,1.7,2.7,3.8,2.7,6.4s-.2,2.5-.7,3.6c-.5,1.1-1.1,2.1-2,2.9-.8.8-1.9,1.4-3.1,1.8Z"/>
        <path class="st3" d="M624.1,91.3c-.3-1.1-.6-2.1-1-3s-.9-1.7-1.6-2.5-1.4-1.4-1.9-2c-.6-.5-1.4-1.1-2.5-1.6-1.1-.5-1.9-.9-2.6-1.2-.7-.3-1.7-.6-2.9-1-1.3-.4-2.2-.7-2.9-.8-.7-.2-1.7-.4-3-.7-1.7-.4-3-.8-3.8-1-.9-.2-1.9-.6-3.2-1.1-1.3-.5-2.2-1-2.8-1.5-.6-.5-1.2-1.2-1.7-1.9-.5-.8-.7-1.7-.7-2.6,0-2.2,1-3.9,2.9-5.2,1.9-1.2,4.3-1.9,7.2-1.9s5.5.8,7.4,2.3c1.9,1.5,2.9,3.6,2.9,6.2h9c0-5.2-1.7-9.4-5.1-12.4-3.4-3-8.1-4.6-14.1-4.6s-10.6,1.4-14.2,4.2c-3.5,2.8-5.3,6.7-5.3,11.7s.2,3.1.6,4.4c.4,1.3.9,2.4,1.5,3.4.6.9,1.4,1.8,2.5,2.6,1.1.8,2.1,1.5,2.9,1.9.8.5,2,1,3.5,1.5,1.5.5,2.7.9,3.5,1.1.8.2,2.1.6,3.7.9,1.5.4,2.6.6,3.3.8.7.2,1.7.5,2.9.8s2.1.8,2.7,1.2,1.2.9,1.9,1.4c.7.5,1.1,1.2,1.4,1.9s.4,1.6.4,2.5c0,2.4-1.1,4.4-3.2,5.9-2.1,1.5-4.7,2.3-7.8,2.3s-6.2-.9-8.4-2.6c-2.2-1.7-3.3-4.1-3.3-7h-9.2c0,3.7.9,6.9,2.6,9.7,1.8,2.8,4.2,4.9,7.3,6.4,3.1,1.5,6.8,2.2,11,2.2s10.6-1.5,14.4-4.5c3.8-3,5.7-7.2,5.7-12.6s-.1-2.5-.4-3.6h0Z"/>
      </g>
      <g>
        <path class="st1" d="M695.5,60.8c-3.9-3.8-8.9-5.7-14.8-5.7h-23.8v56h15.4v-15.4h8.4c5.9,0,10.8-1.9,14.8-5.8,3.9-3.8,5.9-8.7,5.9-14.6s-2-10.7-5.9-14.5h0ZM683.7,80.3c-1.3,1.3-2.9,1.9-4.8,1.9h-6.6v-13.6h6.6c1.3,0,2.5.3,3.5.9,1,.6,1.8,1.4,2.4,2.4s.8,2.2.8,3.5c0,2-.6,3.7-1.9,4.9Z"/>
        <path class="st1" d="M756.9,62c-5.8-5.5-13.1-8.3-22.1-8.3s-16.4,2.8-22.2,8.3c-5.8,5.5-8.7,12.6-8.7,21.2s2.9,15.6,8.7,21.2c5.8,5.5,13.2,8.3,22.2,8.3s16.3-2.8,22.1-8.3,8.6-12.6,8.6-21.2-2.9-15.6-8.6-21.2ZM745.3,93.9c-2.8,2.8-6.3,4.2-10.5,4.2s-7.8-1.4-10.6-4.2c-2.8-2.8-4.2-6.4-4.2-10.8s1.4-8,4.2-10.8c2.8-2.8,6.3-4.2,10.6-4.2s7.8,1.4,10.5,4.2c2.7,2.8,4.1,6.4,4.1,10.8s-1.4,8-4.1,10.8Z"/>
        <path class="st1" d="M813.5,89.1c-.5-1.5-1-2.8-1.6-3.8-.6-1.1-1.5-2.1-2.7-3-1.2-.9-2.2-1.6-3.1-2.2-.9-.5-2.1-1.1-3.7-1.6-1.6-.6-2.8-1-3.6-1.2-.8-.2-2.1-.6-3.7-1-1.2-.3-2-.5-2.6-.6-.6-.2-1.3-.4-2.2-.7-.9-.3-1.5-.6-2-.8-.5-.2-.9-.5-1.4-.9-.5-.3-.8-.7-1-1.2-.2-.4-.3-.9-.3-1.4,0-1.3.5-2.2,1.6-2.9,1.1-.6,2.3-1,3.8-1s3,.4,4.2,1.3,1.7,2.2,1.7,3.9h15.4c0-5.7-1.8-10.2-5.6-13.4-3.7-3.2-8.9-4.9-15.6-4.9s-11.9,1.5-15.6,4.6c-3.8,3.1-5.7,7.3-5.7,12.8s.2,3.4.7,4.9c.4,1.5.9,2.8,1.5,3.8.6,1,1.5,2,2.6,2.9,1.1.9,2.1,1.6,3,2.1.8.5,2,1,3.6,1.6,1.5.5,2.7.9,3.5,1.1.8.2,2,.5,3.6,1,.9.2,1.6.4,2,.5.4.1,1,.3,1.8.5.8.2,1.3.4,1.7.5.4.1.8.3,1.4.6.6.2,1,.5,1.2.7.3.2.5.5.8.8.3.3.5.7.6,1,.1.3.2.8.2,1.2,0,1.4-.6,2.6-1.9,3.4-1.2.9-2.7,1.3-4.4,1.3s-3.4-.5-4.7-1.5c-1.2-1-1.9-2.5-1.9-4.4h-15.9c0,6.1,2,10.8,6.1,14.3,4.1,3.4,9.5,5.2,16.5,5.2s12.1-1.6,16.2-4.8c4.1-3.2,6.2-7.8,6.2-13.7s-.2-3.4-.7-4.9h0Z"/>
      </g>
      <g>
        <path class="st2" d="M673.3,134.8c-1.5-1.5-3.3-2.2-5.6-2.2s-4.1.8-5.6,2.2v-7.3h-2.4v20.6h1.8l.3-2.2c1.5,1.7,3.5,2.5,5.8,2.5s4.1-.8,5.6-2.3,2.2-3.4,2.2-5.7-.7-4.2-2.2-5.7ZM672.3,143.4c-.5.9-1.1,1.5-2,2-.8.5-1.8.7-2.9.7s-1.2-.1-1.8-.3c-.6-.2-1.1-.4-1.5-.8-.5-.3-.9-.7-1.2-1.2-.3-.5-.6-1-.8-1.6s-.3-1.2-.3-1.8c0-1.6.5-2.9,1.6-4,1.1-1.1,2.4-1.6,4-1.6s2.9.5,4,1.6c1,1.1,1.6,2.4,1.6,4s-.2,2-.7,2.9h0Z"/>
        <path class="st2" d="M690,132.9l-5,11.5-5.4-11.5h-2.6l6.7,14.1-.5,1.2c-.6,1.3-1.2,2.1-1.7,2.5-.5.4-1.3.6-2.3.6h-1.2v2.2h1.4c1,0,1.8-.1,2.5-.5.7-.3,1.3-.8,1.8-1.5.5-.7,1.1-1.6,1.7-2.9l7.2-15.8h-2.6Z"/>
        <path class="st2" d="M711.2,128.4v13c0,1.3-.4,2.4-1.2,3.2-.8.9-1.8,1.3-3,1.3s-2.3-.4-3.2-1.3-1.2-1.9-1.2-3.3v-.3h-2.4v.4c0,2,.7,3.6,1.9,4.9,1.3,1.3,2.9,1.9,4.9,1.9s3.5-.6,4.8-1.9c1.3-1.3,1.9-2.9,1.9-4.9v-13.1h-2.5Z"/>
        <path class="st2" d="M731.6,132.9l-.3,2.3c-.7-.8-1.6-1.5-2.6-2-1-.5-2.2-.7-3.4-.7-2.2,0-4.1.8-5.6,2.3-1.5,1.5-2.2,3.4-2.2,5.7s.8,4.1,2.2,5.7c1.5,1.5,3.4,2.3,5.6,2.3s2.3-.2,3.4-.7c1-.5,1.9-1.1,2.6-1.9l.2,2.3h2v-15.2h-1.9,0ZM729.5,144.5c-1,1.1-2.4,1.6-4,1.6s-2.9-.5-4-1.6c-1.1-1.1-1.6-2.4-1.6-4s.5-2.9,1.6-4,2.4-1.6,4-1.6,2.9.5,4,1.6c1,1.1,1.6,2.4,1.6,4s-.5,2.9-1.6,4h0Z"/>
        <path class="st2" d="M738.6,127.5v20.6h2.4v-20.6h-2.4Z"/>
        <path class="st2" d="M752.4,145.9c-.7,0-1.2-.1-1.7-.4-.5-.2-.8-.6-1.1-1.1-.2-.5-.4-1.1-.4-1.7v-7.6h4.8v-2.2h-4.8v-3.2h-.4l-4.7,4.9v.4h2.7v7.7c0,1.6.5,2.9,1.4,3.9.9.9,2.2,1.4,3.8,1.4h2v-2.2h-1.7Z"/>
        <path class="st2" d="M771.5,140.6c0-2.2-.7-4.1-2.1-5.7-1.4-1.5-3.3-2.3-5.5-2.3s-4,.8-5.5,2.3c-1.5,1.5-2.2,3.4-2.2,5.6s.7,4.1,2.2,5.7c1.5,1.5,3.3,2.3,5.5,2.3s3.1-.4,4.4-1.3c1.3-.9,2.2-2.1,2.9-3.7h-2.5c-.5.8-1.1,1.5-2,1.9-.8.5-1.7.7-2.8.7s-2.6-.4-3.6-1.3c-1-.9-1.5-2-1.7-3.4h13c0-.4,0-.7,0-.9ZM758.6,139.2c.2-.9.5-1.6,1-2.3.5-.7,1.1-1.2,1.8-1.5.7-.4,1.6-.5,2.5-.5s1.7.2,2.4.5c.7.3,1.3.9,1.8,1.5.5.7.8,1.4,1,2.3h-10.5Z"/>
        <path class="st2" d="M787.1,142.9c-.5,1-1.1,1.8-2,2.4-.9.6-1.8.9-3,.9s-2-.2-2.8-.8c-.8-.5-1.5-1.2-2-2-.5-.9-.7-1.8-.7-2.9,0-1.6.5-2.9,1.6-4s2.3-1.6,3.9-1.6,2.1.3,3,.8,1.6,1.3,2,2.3h2.4c-.5-1.6-1.4-3-2.7-4s-2.9-1.5-4.7-1.5-4.1.8-5.6,2.3c-1.5,1.5-2.3,3.4-2.3,5.7s.3,2.8,1,4.1c.7,1.2,1.6,2.2,2.8,2.9,1.2.7,2.5,1,4,1s3.3-.5,4.7-1.5c1.3-1,2.2-2.4,2.7-4h-2.4Z"/>
        <path class="st2" d="M805,134.3c-1-1.1-2.5-1.7-4.3-1.7s-2.1.2-3,.6c-.9.4-1.6,1-2.2,1.8v-7.5h-2.4v20.6h2.4v-8.3c0-1.4.4-2.6,1.3-3.6.9-1,2-1.4,3.2-1.4s1.6.2,2.2.6c.6.4,1.1.9,1.4,1.6.3.7.5,1.6.5,2.6v8.5h2.4v-9.1c0-2-.5-3.6-1.6-4.7h0Z"/>
      </g>
      <g>
        <path class="st3" d="M90.2,80.8c.4.8.6,1.6.6,2.6,0,1.5-.5,2.7-1.4,3.6-.9.9-2.1,1.4-3.6,1.4h-4.8v-10.1h4.8c1,0,1.8.2,2.6.7s1.3,1,1.7,1.8h0Z"/>
        <path class="st3" d="M32.7,125.5l1.2-.7,22.5-13c10.6,13,25.1,21.3,25.1,21.3,0,0,14.6-8.4,25.3-21.5l23.2,13.4,1.8.9,1.8-6.2-.5-.5-22.3-12.9c4.1-6.3,6.9-13.5,6.9-21.1,0-18.7-14.2-34.1-32.5-36v-17h-6.7v17c-18.6,1.5-33.2,17.1-33.2,36s2.9,15,7.1,21.4l-21.3,12.3-1.7,1,3.3,5.8h0ZM98.2,94.2c-2.9,2.8-6.6,4.3-10.9,4.3h-6.2v11.4h-11.4v-41.4h17.6c4.4,0,8.1,1.4,11,4.2s4.3,6.4,4.3,10.7-1.5,7.9-4.4,10.8h0Z"/>
        <g>
          <path class="st1" d="M102.7,23.1c28.9,8.9,50,35.9,50,67.8s-.8,12.4-2.4,18.3c2.7.5,5.3,1.6,7.6,3.1,1.9-6.8,2.9-13.9,2.9-21.3,0-36.1-24.3-66.6-57.4-76,0,.9.1,1.8.1,2.6,0,2-.3,3.8-.9,5.6h0Z"/>
          <path class="st3" d="M10.9,90.9c0-32.4,21.9-59.8,51.7-68.2-.5-1.9-.8-3.8-.7-5.8,0-.8,0-1.7.2-2.5C28,23.2,2.8,54.1,2.8,90.9s.9,13.9,2.7,20.5c2.2-1.5,4.8-2.7,7.6-3.2-1.4-5.5-2.1-11.3-2.1-17.3Z"/>
        </g>
        <path class="st3" d="M17.2,121.4c-1.9,0-3.3,1.5-3.3,3.3s.7,2.4,1.7,2.9c.5.3,1,.4,1.6.4,1.8,0,3.3-1.5,3.3-3.3h0c0-1.9-1.5-3.4-3.3-3.4h0ZM17.2,121.4c-1.9,0-3.3,1.5-3.3,3.3s.7,2.4,1.7,2.9c.5.3,1,.4,1.6.4,1.8,0,3.3-1.5,3.3-3.3h0c0-1.9-1.5-3.4-3.3-3.4h0ZM17.2,121.4c-1.9,0-3.3,1.5-3.3,3.3s.7,2.4,1.7,2.9c.5.3,1,.4,1.6.4,1.8,0,3.3-1.5,3.3-3.3h0c0-1.9-1.5-3.4-3.3-3.4h0ZM17.2,121.4c-1.9,0-3.3,1.5-3.3,3.3s.7,2.4,1.7,2.9c.5.3,1,.4,1.6.4,1.8,0,3.3-1.5,3.3-3.3h0c0-1.9-1.5-3.4-3.3-3.4h0ZM17.2,121.4c-1.9,0-3.3,1.5-3.3,3.3s.7,2.4,1.7,2.9c.5.3,1,.4,1.6.4,1.8,0,3.3-1.5,3.3-3.3h0c0-1.9-1.5-3.4-3.3-3.4h0ZM17.2,121.4c-1.9,0-3.3,1.5-3.3,3.3s.7,2.4,1.7,2.9c.5.3,1,.4,1.6.4,1.8,0,3.3-1.5,3.3-3.3h0c0-1.9-1.5-3.4-3.3-3.4h0ZM33.9,124.8c-.5-2.2-1.5-4.3-2.8-6.1-3.1-4.3-8.2-7.2-14-7.2-9.5,0-17.2,7.7-17.2,17.2s7.7,17.2,17.2,17.2,17.2-7.7,17.2-17.2-.2-2.6-.4-3.9h0ZM17.2,139.2s-7.3-8.4-7.3-13.9,3.3-7.3,7.3-7.3,5.8,2,6.8,4.7c.3.8.5,1.7.5,2.5,0,1.8-.8,3.9-1.8,5.9-2.2,4.2-5.4,8-5.4,8h0ZM17.2,121.4c-1.9,0-3.3,1.5-3.3,3.3s.7,2.4,1.7,2.9c.5.3,1,.4,1.6.4,1.8,0,3.3-1.5,3.3-3.3h0c0-1.9-1.5-3.4-3.3-3.4h0ZM17.2,121.4c-1.9,0-3.3,1.5-3.3,3.3s.7,2.4,1.7,2.9c.5.3,1,.4,1.6.4,1.8,0,3.3-1.5,3.3-3.3h0c0-1.9-1.5-3.4-3.3-3.4h0ZM17.2,121.4c-1.9,0-3.3,1.5-3.3,3.3s.7,2.4,1.7,2.9c.5.3,1,.4,1.6.4,1.8,0,3.3-1.5,3.3-3.3h0c0-1.9-1.5-3.4-3.3-3.4h0ZM17.2,121.4c-1.9,0-3.3,1.5-3.3,3.3s.7,2.4,1.7,2.9c.5.3,1,.4,1.6.4,1.8,0,3.3-1.5,3.3-3.3h0c0-1.9-1.5-3.4-3.3-3.4h0ZM17.2,121.4c-1.9,0-3.3,1.5-3.3,3.3s.7,2.4,1.7,2.9c.5.3,1,.4,1.6.4,1.8,0,3.3-1.5,3.3-3.3h0c0-1.9-1.5-3.4-3.3-3.4h0Z"/>
        <path class="st1" d="M82.7,0c-9.5,0-17.2,7.7-17.2,17.2s5.5,14.8,12.9,16.7c1.3.3,2.8.5,4.2.5s1.6,0,2.4-.2c8.3-1.2,14.8-8.3,14.8-17S92.2,0,82.8,0h0ZM78.5,23.6c-.2,0-.4,0-.6,0h-5.8c0,0-.1-.1,0-.2,0,0,0,0,0,0,.2,0,.3-.1.5-.2,1.3-.5,1.8-2.9,2.2-4.5.2-.8.3-1.5.3-1.5h0l.8-3.7h0c0-.1.3-1.4.5-2.2,0-.3.1-.5.1-.6,0-.2.2-.4.3-.7h0c.2-.3.6-.7,1-.9h0c1.2-.5,2.1.7,2.2.9h0c0,.1.1.2.2.3.1.2.2.5.3.8,0,0,.3,1.2.6,2.7.4,1.8.8,4,1,5,0,.1,0,.2,0,.3,0,.8-.7,3.8-3.7,4.3h0ZM93.4,23.7h-5.9s-1.1,0-2.3-.7c-.9-.6-1.9-1.6-2.2-3.5l-.9-4.4-.2-1.2-.5-2.4h0c0,0-.4-1.9-1.7-2.4,0,0,0,0,0,0h6.4c.1,0,2.1,0,2.6,2.1l1.6,7.8s.5,3.6,3.1,4.4h0c0,0,0,.2,0,.2h0Z"/>
        <g>
          <path class="st0" d="M130.2,142.7h0c-12.7,11.8-29.7,19.1-48.3,19.1s-36.1-7.4-48.8-19.5c-.4.5-.8.9-1.3,1.4-1.6,1.5-3.3,2.7-5.2,3.7,14.3,14,33.8,22.6,55.3,22.6s40.4-8.4,54.6-21.9c-1.8-1-3.5-2.3-5-3.8-.5-.5-.9-1-1.3-1.5Z"/>
          <path class="st0" d="M146.5,112.5h0c-5.4,0-10.3,2.5-13.4,6.4-1.4,1.7-2.4,3.7-3.1,5.9-.4,1.5-.7,3.1-.7,4.8,0,9.5,7.7,17.2,17.2,17.2s17.2-7.7,17.2-17.2-7.7-17.2-17.2-17.2ZM142.1,132.4s0,0,0,0v3.2s0,0,0,.1c0,0,0,0,0,0,0,0,0,0,0,0l-8.4-5.3s0,0,0,0v-.6s0,0,0-.1l2.2-1.4,6.2-4s0,0,.1,0c0,0,0,0,0,0v3.2h0s0,0,0,0l-3.7,2.1-.5.3,4.2,2.4ZM146.7,134.5l-1.3,3.5s0,0-.1,0h-3s0,0,0,0c0,0,0,0,0-.1l1.8-5,2.3-6.3,1.8-5s0,0,.1,0h3s0,0,0,0c0,0,0,0,0,0l-2.3,6.5-2.3,6.3ZM159.7,130.5h0s-8.4,5.3-8.4,5.3c0,0,0,0,0,0s0,0,0,0c0,0,0,0,0-.1v-3.2s0,0,0,0l4.2-2.4-4.2-2.4s0,0,0,0v-3.2s0,0,0,0c0,0,0,0,.1,0l8.4,5.4s0,0,0,0v.6s0,0,0,0Z"/>
        </g>
      </g>
    </g>
  </g>
</svg>