<?xml version="1.0"?>
<svg id="Capa_2" data-name="Capa 2" xmlns="http://www.w3.org/2000/svg" viewBox="0 0 814.18 169.94">
  <defs>
    
  </defs>
  <g id="Capa_1-2" data-name="Capa 1">
    <g>
      <g>
        <path class="cls-1" d="M260.64,64.59c-1.64-2.8-3.9-4.99-6.78-6.58-2.88-1.58-6.09-2.37-9.63-2.37h-20.53v55.49h9.11v-18.87h11.42c5.39,0,9.88-1.74,13.48-5.23,3.59-3.49,5.39-7.85,5.39-13.08,0-3.44-.82-6.55-2.46-9.36ZM253.15,77.83c-.5,1.22-1.2,2.25-2.1,3.1-.9.84-1.97,1.5-3.21,1.98-1.25.47-2.61.71-4.09.71h-10.94v-19.34h10.94c1.96,0,3.7.42,5.24,1.27,1.53.84,2.73,1.99,3.6,3.44.88,1.46,1.31,3.11,1.31,4.96,0,1.37-.25,2.67-.75,3.88Z"></path>
        <path class="cls-1" d="M295.05,55.64h-8.56l-22.36,55.49h9.67l4.76-12.05h24.73l4.84,12.05h9.83l-22.91-55.49ZM281.73,90.92l9.12-23.39,9.27,23.39h-18.39Z"></path>
        <path class="cls-1" d="M356.73,89.33c3.43-1.27,6.18-3.34,8.24-6.22,2.07-2.88,3.1-6.2,3.1-9.95,0-3.33-.81-6.35-2.42-9.04-1.62-2.7-3.85-4.78-6.7-6.26-2.86-1.48-6.03-2.22-9.52-2.22h-21.64v55.49h9.12v-20.53h10.54l11.89,20.53h10.23l-12.84-21.8ZM352.96,81.4c-1.24.43-2.6.64-4.08.64h-11.97v-17.84h11.97c2.96,0,5.35.83,7.17,2.5,1.83,1.66,2.74,3.79,2.74,6.38,0,1.32-.24,2.53-.71,3.64-.48,1.11-1.14,2.07-1.99,2.86-.84.79-1.89,1.4-3.13,1.82Z"></path>
        <path class="cls-1" d="M374.72,55.64v8.48h16.34v47.01h9.03v-47.01h16.34v-8.48h-41.71Z"></path>
        <path class="cls-1" d="M463.28,55.64v39l-28.22-39h-8.25v55.49h8.96v-39.64l28.78,39.64h7.69v-55.49h-8.96Z"></path>
        <path class="cls-1" d="M497.13,102.49v-15.46h21.09v-8.4h-21.09v-14.43h23.15v-8.56h-32.27v55.49h33.14v-8.64h-24.02Z"></path>
        <path class="cls-1" d="M562.7,89.33c3.43-1.27,6.18-3.34,8.24-6.22s3.09-6.2,3.09-9.95c0-3.33-.8-6.35-2.41-9.04-1.62-2.7-3.85-4.78-6.7-6.26-2.86-1.48-6.03-2.22-9.52-2.22h-21.64v55.49h9.12v-20.53h10.54l11.89,20.53h10.23l-12.84-21.8ZM558.93,81.4c-1.24.43-2.6.64-4.08.64h-11.97v-17.84h11.97c2.96,0,5.35.83,7.17,2.5,1.83,1.66,2.74,3.79,2.74,6.38,0,1.32-.24,2.53-.72,3.64-.47,1.11-1.13,2.07-1.98,2.86-.84.79-1.89,1.4-3.13,1.82Z"></path>
        <path class="cls-1" d="M624.14,91.35c-.27-1.13-.58-2.14-.95-3.01-.37-.87-.92-1.71-1.63-2.5-.71-.79-1.36-1.45-1.94-1.98-.58-.53-1.4-1.06-2.46-1.59-1.06-.52-1.93-.93-2.61-1.23-.69-.28-1.67-.63-2.94-1.03-1.27-.39-2.23-.67-2.89-.83-.66-.16-1.65-.39-2.98-.71-1.69-.42-2.97-.75-3.84-.99-.87-.24-1.94-.6-3.21-1.07-1.27-.48-2.22-.97-2.85-1.47-.64-.5-1.19-1.15-1.67-1.94-.48-.8-.71-1.67-.71-2.62,0-2.22.96-3.95,2.89-5.19,1.93-1.24,4.35-1.86,7.25-1.86s5.49.75,7.42,2.26c1.93,1.5,2.89,3.58,2.89,6.22h9.04c0-5.23-1.69-9.37-5.08-12.41-3.38-3.04-8.08-4.56-14.11-4.56s-10.63,1.4-14.15,4.2c-3.51,2.81-5.27,6.69-5.27,11.66,0,1.64.21,3.12.63,4.44.43,1.32.91,2.44,1.47,3.37.56.92,1.39,1.8,2.5,2.61,1.11.82,2.07,1.47,2.89,1.95.82.47,1.98.96,3.49,1.46,1.51.51,2.68.88,3.53,1.11.84.24,2.08.55,3.72.92,1.48.37,2.59.64,3.33.83.74.18,1.71.46,2.9.83,1.19.37,2.08.75,2.69,1.15.61.4,1.24.86,1.91,1.39.66.53,1.13,1.16,1.42,1.9.29.74.44,1.56.44,2.46,0,2.43-1.06,4.4-3.17,5.9-2.12,1.51-4.71,2.26-7.77,2.26-3.39,0-6.17-.86-8.37-2.57-2.19-1.72-3.29-4.06-3.29-7.02h-9.19c0,3.7.87,6.94,2.61,9.71,1.75,2.78,4.19,4.91,7.34,6.38,3.14,1.48,6.8,2.22,10.98,2.22,5.81,0,10.62-1.49,14.43-4.48,3.8-2.98,5.7-7.17,5.7-12.56,0-1.27-.13-2.47-.39-3.61Z"></path>
      </g>
      <g>
        <path class="cls-1" d="M695.51,60.85c-3.92-3.81-8.87-5.72-14.84-5.72h-23.84v56h15.44v-15.44h8.4c5.92,0,10.85-1.92,14.8-5.76,3.94-3.84,5.92-8.69,5.92-14.56s-1.96-10.7-5.88-14.52ZM683.67,80.29c-1.26,1.26-2.87,1.88-4.84,1.88h-6.56v-13.6h6.56c1.33,0,2.5.3,3.52.88,1.01.59,1.8,1.4,2.36,2.44.56,1.04.84,2.2.84,3.48,0,2.03-.63,3.67-1.88,4.92Z"></path>
        <path class="cls-1" d="M756.91,61.97c-5.76-5.52-13.12-8.28-22.08-8.28s-16.42,2.76-22.2,8.28c-5.79,5.52-8.68,12.58-8.68,21.16s2.89,15.64,8.68,21.16c5.78,5.52,13.18,8.28,22.2,8.28s16.32-2.76,22.08-8.28c5.76-5.52,8.64-12.57,8.64-21.16s-2.88-15.64-8.64-21.16ZM745.35,93.93c-2.75,2.83-6.26,4.24-10.52,4.24s-7.8-1.41-10.6-4.24c-2.8-2.82-4.2-6.42-4.2-10.8s1.4-7.97,4.2-10.8c2.8-2.82,6.33-4.24,10.6-4.24s7.77,1.42,10.52,4.24c2.74,2.83,4.12,6.43,4.12,10.8s-1.38,7.98-4.12,10.8Z"></path>
        <path class="cls-1" d="M813.5,89.05c-.45-1.49-.98-2.77-1.6-3.84-.61-1.06-1.5-2.05-2.68-2.96-1.17-.9-2.2-1.62-3.08-2.16-.88-.53-2.1-1.08-3.68-1.64-1.57-.56-2.78-.96-3.64-1.2-.85-.24-2.07-.57-3.68-1-1.17-.26-2.04-.48-2.59-.64-.57-.16-1.29-.38-2.17-.68-.88-.29-1.54-.56-2-.8-.45-.24-.92-.53-1.4-.88-.48-.34-.82-.73-1.04-1.16-.21-.42-.31-.88-.31-1.36,0-1.28.53-2.24,1.59-2.88,1.07-.64,2.35-.96,3.84-.96,1.66,0,3.04.44,4.16,1.32s1.68,2.18,1.68,3.88h15.44c0-5.7-1.85-10.18-5.56-13.44-3.7-3.25-8.89-4.88-15.56-4.88s-11.88,1.54-15.63,4.6c-3.77,3.07-5.65,7.32-5.65,12.76,0,1.76.22,3.39.65,4.88.42,1.5.93,2.75,1.51,3.76.59,1.02,1.45,1.98,2.57,2.88,1.11.91,2.1,1.62,2.96,2.12.85.51,2.05,1.03,3.59,1.56,1.55.54,2.72.91,3.53,1.12.8.22,2,.54,3.59.96.91.22,1.56.38,1.96.48.41.11.99.27,1.76.48.78.22,1.35.39,1.72.52.38.14.85.32,1.4.56.57.24.98.48,1.24.72.27.24.55.52.84.84.3.32.5.66.6,1,.11.35.16.76.16,1.24,0,1.44-.62,2.59-1.88,3.44-1.25.86-2.73,1.28-4.43,1.28-1.87,0-3.43-.5-4.69-1.52-1.25-1.01-1.88-2.48-1.88-4.4h-15.92c0,6.08,2.03,10.84,6.08,14.28,4.06,3.44,9.55,5.16,16.48,5.16s12.14-1.61,16.24-4.84c4.11-3.22,6.16-7.8,6.16-13.72,0-1.76-.22-3.38-.68-4.88Z"></path>
      </g>
      <g>
        <path class="cls-1" d="M673.29,134.83c-1.47-1.5-3.33-2.25-5.6-2.25s-4.14.75-5.62,2.25v-7.33h-2.38v20.58h1.85l.31-2.16c1.52,1.67,3.46,2.5,5.84,2.5s4.13-.75,5.6-2.26c1.47-1.51,2.21-3.39,2.21-5.66s-.74-4.17-2.21-5.67ZM672.34,143.38c-.48.85-1.14,1.52-1.98,2.01-.84.48-1.8.73-2.87.73-.63,0-1.24-.1-1.81-.28-.57-.19-1.08-.45-1.54-.79-.46-.34-.86-.73-1.2-1.19-.33-.46-.59-.98-.77-1.56-.18-.58-.26-1.18-.26-1.8,0-1.59.53-2.92,1.6-4,1.06-1.08,2.4-1.61,4-1.61s2.92.53,3.97,1.6c1.05,1.06,1.57,2.4,1.57,4.01,0,1.07-.23,2.03-.71,2.88Z"></path>
        <path class="cls-1" d="M690.01,132.92l-5.05,11.48-5.39-11.48h-2.61l6.74,14.12-.54,1.16c-.61,1.27-1.18,2.11-1.68,2.52-.51.41-1.27.62-2.28.62h-1.23v2.16h1.43c.97,0,1.8-.15,2.47-.46.68-.31,1.28-.8,1.83-1.47.54-.68,1.09-1.63,1.65-2.87l7.22-15.78h-2.56Z"></path>
        <path class="cls-1" d="M711.24,128.43v13.03c0,1.31-.4,2.39-1.22,3.25-.81.87-1.83,1.3-3.04,1.3-1.28,0-2.33-.43-3.15-1.28-.82-.85-1.24-1.94-1.24-3.27v-.28h-2.41v.39c0,1.98.65,3.62,1.94,4.91,1.29,1.29,2.91,1.94,4.86,1.94s3.55-.65,4.81-1.94c1.26-1.29,1.9-2.93,1.9-4.91v-13.14h-2.45Z"></path>
        <path class="cls-1" d="M731.6,132.92l-.31,2.33c-.71-.84-1.57-1.5-2.59-1.97-1.02-.46-2.15-.7-3.39-.7-2.22,0-4.09.76-5.59,2.26-1.49,1.51-2.24,3.4-2.24,5.66s.75,4.15,2.24,5.66c1.5,1.51,3.37,2.26,5.59,2.26,1.22,0,2.34-.23,3.36-.69,1.02-.46,1.88-1.11,2.6-1.95l.25,2.3h1.99v-15.16h-1.91ZM729.5,144.52c-1.05,1.06-2.38,1.6-3.99,1.6s-2.94-.54-4-1.62c-1.06-1.07-1.59-2.41-1.59-4s.53-2.92,1.59-4c1.06-1.08,2.39-1.61,4-1.61s2.94.53,3.99,1.6c1.05,1.06,1.57,2.4,1.57,4.01s-.52,2.95-1.57,4.02Z"></path>
        <path class="cls-1" d="M738.62,127.5v20.58h2.39v-20.58h-2.39Z"></path>
        <path class="cls-1" d="M752.38,145.87c-.67,0-1.25-.13-1.72-.37-.48-.24-.84-.6-1.09-1.07-.24-.46-.36-1.05-.36-1.74v-7.61h4.75v-2.16h-4.75v-3.2h-.37l-4.69,4.94v.42h2.67v7.7c0,1.64.47,2.94,1.41,3.89.93.94,2.21,1.41,3.84,1.41h1.97v-2.21h-1.66Z"></path>
        <path class="cls-1" d="M771.53,140.56c0-2.25-.71-4.14-2.13-5.67-1.42-1.54-3.27-2.31-5.53-2.31s-4.03.76-5.51,2.26c-1.48,1.51-2.22,3.39-2.22,5.65s.74,4.14,2.22,5.66c1.48,1.51,3.32,2.27,5.51,2.27,1.64,0,3.1-.43,4.38-1.31,1.27-.87,2.23-2.09,2.86-3.66h-2.5c-.48.84-1.13,1.49-1.95,1.95-.81.46-1.74.69-2.79.69-1.43,0-2.62-.43-3.6-1.28-.97-.85-1.55-1.98-1.74-3.38h12.95c.03-.38.05-.67.05-.87ZM758.59,139.21c.17-.86.49-1.62.98-2.29.49-.66,1.1-1.17,1.84-1.53.74-.35,1.56-.53,2.46-.53s1.71.17,2.44.52c.73.34,1.34.85,1.83,1.51.48.67.81,1.44.98,2.32h-10.53Z"></path>
        <path class="cls-1" d="M787.06,142.89c-.47,1.01-1.14,1.8-2.01,2.37-.87.57-1.85.86-2.96.86-1.03,0-1.96-.25-2.79-.75-.84-.49-1.49-1.17-1.95-2.02-.47-.85-.71-1.8-.71-2.85,0-1.59.52-2.92,1.56-4s2.34-1.61,3.89-1.61c1.11,0,2.1.28,2.99.84.89.56,1.56,1.33,2.01,2.3h2.36c-.47-1.65-1.36-2.97-2.68-3.96-1.32-.99-2.88-1.49-4.68-1.49-2.25,0-4.12.76-5.63,2.26-1.51,1.51-2.26,3.4-2.26,5.66,0,1.48.34,2.83,1.03,4.05.68,1.21,1.62,2.16,2.83,2.85,1.21.68,2.55,1.02,4.03,1.02,1.78,0,3.34-.5,4.68-1.5,1.34-1,2.24-2.35,2.71-4.03h-2.42Z"></path>
        <path class="cls-1" d="M804.98,134.31c-1.05-1.15-2.47-1.73-4.27-1.73-1.09,0-2.08.21-2.98.63-.89.43-1.64,1.01-2.22,1.76v-7.47h-2.38v20.58h2.38v-8.28c0-1.42.44-2.62,1.33-3.58.87-.96,1.96-1.45,3.25-1.45.88,0,1.63.19,2.23.56.61.38,1.07.92,1.38,1.63.31.72.46,1.59.46,2.62v8.5h2.39v-9.07c0-1.98-.52-3.55-1.57-4.7Z"></path>
      </g>
      <g>
        <path class="cls-1" d="M90.2,80.82c.41.77.62,1.63.62,2.57,0,1.5-.47,2.71-1.39,3.64-.93.92-2.12,1.39-3.58,1.39h-4.85v-10.05h4.85c.98,0,1.85.21,2.6.65.75.44,1.33,1.04,1.74,1.8Z"></path>
        <path class="cls-1" d="M32.69,125.46l1.22-.7,22.52-13c10.63,12.98,25.06,21.25,25.06,21.25,0,0,14.63-8.39,25.28-21.52l23.22,13.4,1.82.87,1.76-6.25-.5-.53-22.34-12.9c4.09-6.31,6.93-13.46,6.93-21.11,0-18.73-14.25-34.14-32.49-35.98v-17.05h-6.65v16.98c-18.59,1.52-33.19,17.09-33.19,36.05,0,7.77,2.94,15.01,7.13,21.4l-21.29,12.3-1.74,1.01,3.28,5.8ZM98.15,94.16c-2.92,2.84-6.57,4.26-10.94,4.26h-6.21v11.42h-11.42v-41.4h17.63c4.41,0,8.07,1.41,10.97,4.23,2.9,2.82,4.35,6.4,4.35,10.74s-1.46,7.93-4.38,10.76Z"></path>
        <g>
          <path class="cls-1" d="M102.74,23.14c28.93,8.94,50,35.94,50,67.76,0,6.31-.83,12.44-2.39,18.27,2.72.51,5.29,1.55,7.6,3.06,1.9-6.79,2.93-13.94,2.93-21.33,0-36.08-24.3-66.59-57.38-76.02.09.87.14,1.75.13,2.63-.03,1.95-.34,3.84-.88,5.63Z"></path>
          <path class="cls-1" d="M130.18,142.72c-12.68,11.83-29.68,19.08-48.34,19.08s-36.11-7.44-48.83-19.54c-.41.48-.84.94-1.3,1.38-1.55,1.5-3.29,2.72-5.17,3.67,14.27,13.98,33.79,22.62,55.3,22.62s40.4-8.36,54.6-21.94c-1.81-1-3.48-2.26-4.95-3.79-.46-.48-.9-.97-1.31-1.49Z"></path>
          <path class="cls-1" d="M10.93,90.9c0-32.43,21.89-59.85,51.66-68.25-.5-1.85-.76-3.79-.73-5.8.01-.84.08-1.67.19-2.48C28.01,23.17,2.79,54.14,2.79,90.9c0,7.08.94,13.95,2.7,20.48,2.25-1.54,4.82-2.65,7.57-3.21-1.39-5.53-2.13-11.32-2.13-17.27Z"></path>
        </g>
        <path class="cls-1" d="M17.18,121.39c-1.85,0-3.34,1.49-3.34,3.34,0,1.26.7,2.37,1.73,2.93.48.27,1.03.41,1.61.41,1.83,0,3.3-1.46,3.34-3.28v-.07c0-1.85-1.49-3.34-3.34-3.34ZM17.18,121.39c-1.85,0-3.34,1.49-3.34,3.34,0,1.26.7,2.37,1.73,2.93.48.27,1.03.41,1.61.41,1.83,0,3.3-1.46,3.34-3.28v-.07c0-1.85-1.49-3.34-3.34-3.34ZM17.18,121.39c-1.85,0-3.34,1.49-3.34,3.34,0,1.26.7,2.37,1.73,2.93.48.27,1.03.41,1.61.41,1.83,0,3.3-1.46,3.34-3.28v-.07c0-1.85-1.49-3.34-3.34-3.34ZM17.18,121.39c-1.85,0-3.34,1.49-3.34,3.34,0,1.26.7,2.37,1.73,2.93.48.27,1.03.41,1.61.41,1.83,0,3.3-1.46,3.34-3.28v-.07c0-1.85-1.49-3.34-3.34-3.34ZM17.18,121.39c-1.85,0-3.34,1.49-3.34,3.34,0,1.26.7,2.37,1.73,2.93.48.27,1.03.41,1.61.41,1.83,0,3.3-1.46,3.34-3.28v-.07c0-1.85-1.49-3.34-3.34-3.34ZM17.18,121.39c-1.85,0-3.34,1.49-3.34,3.34,0,1.26.7,2.37,1.73,2.93.48.27,1.03.41,1.61.41,1.83,0,3.3-1.46,3.34-3.28v-.07c0-1.85-1.49-3.34-3.34-3.34ZM33.91,124.76c-.52-2.23-1.46-4.3-2.76-6.1-3.12-4.35-8.21-7.19-13.97-7.19-9.49,0-17.18,7.69-17.18,17.17s7.7,17.18,17.18,17.18,17.17-7.69,17.17-17.18c0-1.34-.16-2.64-.44-3.89ZM17.18,139.23s-7.28-8.41-7.28-13.91c0-4.01,3.26-7.28,7.28-7.28,3.12,0,5.79,1.97,6.82,4.74.3.79.46,1.65.46,2.54,0,1.8-.78,3.92-1.83,5.94-2.16,4.16-5.44,7.96-5.44,7.96ZM17.18,121.39c-1.85,0-3.34,1.49-3.34,3.34,0,1.26.7,2.37,1.73,2.93.48.27,1.03.41,1.61.41,1.83,0,3.3-1.46,3.34-3.28v-.07c0-1.85-1.49-3.34-3.34-3.34ZM17.18,121.39c-1.85,0-3.34,1.49-3.34,3.34,0,1.26.7,2.37,1.73,2.93.48.27,1.03.41,1.61.41,1.83,0,3.3-1.46,3.34-3.28v-.07c0-1.85-1.49-3.34-3.34-3.34ZM17.18,121.39c-1.85,0-3.34,1.49-3.34,3.34,0,1.26.7,2.37,1.73,2.93.48.27,1.03.41,1.61.41,1.83,0,3.3-1.46,3.34-3.28v-.07c0-1.85-1.49-3.34-3.34-3.34ZM17.18,121.39c-1.85,0-3.34,1.49-3.34,3.34,0,1.26.7,2.37,1.73,2.93.48.27,1.03.41,1.61.41,1.83,0,3.3-1.46,3.34-3.28v-.07c0-1.85-1.49-3.34-3.34-3.34ZM17.18,121.39c-1.85,0-3.34,1.49-3.34,3.34,0,1.26.7,2.37,1.73,2.93.48.27,1.03.41,1.61.41,1.83,0,3.3-1.46,3.34-3.28v-.07c0-1.85-1.49-3.34-3.34-3.34Z"></path>
        <path class="cls-1" d="M82.74,0c-9.49,0-17.17,7.69-17.17,17.17,0,8.03,5.5,14.77,12.95,16.66,1.35.34,2.77.52,4.23.52.82,0,1.63-.06,2.43-.18,8.35-1.17,14.76-8.33,14.76-17,0-9.49-7.69-17.17-17.18-17.17ZM78.51,23.63c-.18.03-.36.05-.56.06,0,0-4.4,0-5.82,0-.1,0-.12-.15-.01-.17,0,0,.07-.01.1-.01.18-.04.35-.1.5-.16,1.32-.52,1.82-2.85,2.2-4.45.2-.84.3-1.47.31-1.52h0s.75-3.71.75-3.71h0c.02-.12.31-1.39.49-2.17.07-.3.13-.52.14-.58.06-.19.16-.44.33-.69h0c.22-.34.55-.67,1.04-.89h0c1.21-.53,2.07.72,2.15.85h0c.06.1.12.2.17.31.12.23.23.48.31.81,0,.03.26,1.23.56,2.73.37,1.8.82,3.99,1.04,5.03.02.1.02.2.01.3-.1.75-.67,3.82-3.73,4.28ZM93.36,23.7h-5.92s-1.13.02-2.27-.66c-.92-.56-1.86-1.59-2.19-3.48l-.89-4.36-.24-1.18-.49-2.39h0c-.01-.06-.36-1.87-1.67-2.39-.03,0-.03-.05,0-.06h6.38c.13,0,2.11,0,2.6,2.14l1.62,7.81s.5,3.59,3.08,4.41h0c.09.03.07.16-.02.16Z"></path>
        <path class="cls-1" d="M146.49,112.51c-5.43,0-10.28,2.52-13.43,6.46-1.38,1.73-2.44,3.73-3.08,5.91-.44,1.52-.68,3.13-.68,4.81,0,9.49,7.7,17.18,17.18,17.18s17.17-7.7,17.17-17.18-7.69-17.17-17.17-17.17ZM142.15,127.51s-.02.08-.06.1l-3.71,2.13-.53.3,4.24,2.4s.06.05.06.1v3.19s-.02.07-.06.1c-.01,0-.04.01-.05.01-.02,0-.04,0-.06-.01l-8.36-5.33s-.05-.05-.05-.1v-.64s.02-.07.05-.1l2.17-1.42h0l6.18-4.02s.07-.02.11,0c.04.02.06.06.06.1v3.2ZM145.45,138.06s-.06.07-.1.07h-2.98s-.07-.02-.09-.05-.02-.07-.01-.1l1.8-4.98,2.3-6.35,1.83-5.03s.06-.07.1-.07h2.98s.07.01.09.04c.02.03.02.07.01.1l-2.35,6.5-2.31,6.35-1.27,3.52ZM159.65,130.48l-8.36,5.33s-.04.01-.06.01c-.01,0-.04,0-.05-.01-.04-.02-.06-.06-.06-.1v-3.19s.02-.08.06-.1l4.24-2.4-4.24-2.43s-.06-.05-.06-.1v-3.2s.02-.08.06-.1c.04-.01.08-.01.12,0l8.35,5.44s.05.06.05.1v.64s-.02.07-.05.1Z"></path>
      </g>
    </g>
  </g>
</svg>