<?xml version="1.0" encoding="UTF-8"?>
<svg id="Capa_1" xmlns="http://www.w3.org/2000/svg" version="1.1" viewBox="0 0 500 500">
  <!-- Generator: Adobe Illustrator 30.5.1, SVG Export Plug-In . SVG Version: 2.1.4 Build 3)  -->
  <g id="Page-1">
    <g id="_x30_67---Click-Button">
      <path id="Shape" d="M375,83.3H125C56,83.3,0,139.3,0,208.3s56,125,125,125h174l-30.5,62c-2.9,5.8-2.2,12.7,1.8,17.7,4,5.1,10.5,7.4,16.8,6l46.3-10.6v74.9c0,9.2,7.5,16.7,16.7,16.7h50c9.2,0,16.7-7.5,16.7-16.7v-74.9c0,0,46.4,10.6,46.4,10.6,6.3,1.4,12.8-.9,16.7-6s4.7-11.9,1.8-17.7l-40-81.3c47.1-29.7,68.9-86.9,53.5-140.4-15.4-53.5-64.4-90.3-120.1-90.4ZM420.3,392.2c-4.9-1.1-10.1.1-14,3.3-3.9,3.2-6.2,7.9-6.2,13v74.9h-50v-74.9c0-5.1-2.3-9.9-6.3-13-4-3.2-9.1-4.4-14.1-3.2l-46.3,10.6,91.6-186.1,48.3,98.1h0c0,0,0,.1,0,.1l43.3,88-46.4-10.6ZM451.6,285c-5.3,5.3-11.2,10-17.4,14.1l-44.3-89.8c-2.8-5.7-8.6-9.2-14.9-9.2s-12.1,3.6-14.9,9.2l-52.9,107.5H125c-59.8,0-108.3-48.5-108.3-108.3s48.5-108.3,108.3-108.3h250c43.8,0,83.3,26.4,100.1,66.9,16.8,40.5,7.5,87.1-23.5,118.1h0Z"/>
      <path id="Shape1" data-name="Shape" d="M125,116.7c-24.3,0-47.7,9.6-64.9,26.9-2.2,2.1-3,5.2-2.3,8.1.8,2.9,3,5.2,5.9,6s6,0,8.1-2.2c14.1-14.1,33.2-22,53.1-22,4.6,0,8.3-3.7,8.3-8.3,0-4.6-3.7-8.3-8.3-8.3Z"/>
      <path id="Shape2" data-name="Shape" d="M241.7,8.3v41.7c0,4.6,3.7,8.3,8.3,8.3s8.3-3.7,8.3-8.3V8.3c0-4.6-3.7-8.3-8.3-8.3s-8.3,3.7-8.3,8.3Z"/>
      <path id="Shape3" data-name="Shape" d="M180.9,19.1c-3.3-3.2-8.5-3.1-11.7.1s-3.3,8.4-.1,11.7l33.3,33.3c3.3,3.2,8.5,3.1,11.7-.1,3.2-3.2,3.3-8.4.1-11.7l-33.3-33.3Z"/>
      <path id="Shape4" data-name="Shape" d="M319.1,19.1l-33.3,33.3c-2.2,2.1-3,5.2-2.3,8.1.8,2.9,3,5.2,6,6s6-.1,8.1-2.3l33.3-33.3c2.2-2.1,3-5.2,2.3-8.1s-3-5.2-6-6-6,.1-8.1,2.3Z"/>
      <path id="Shape5" data-name="Shape" d="M166.7,116.7h-8.3c-4.6,0-8.3,3.7-8.3,8.3s3.7,8.3,8.3,8.3h8.3c4.6,0,8.3-3.7,8.3-8.3s-3.7-8.3-8.3-8.3Z"/>
    </g>
  </g>
</svg>