<?xml version="1.0" encoding="UTF-8"?>
<svg id="Capa_1" xmlns="http://www.w3.org/2000/svg" version="1.1" viewBox="0 0 510 510">
  <!-- Generator: Adobe Illustrator 30.5.1, SVG Export Plug-In . SVG Version: 2.1.4 Build 3)  -->
  <defs>
    <style>
      .st0 {
        fill: #fff;
      }
    </style>
  </defs>
  <g id="Page-1">
    <g id="_x30_67---Click-Button">
      <path id="Shape" class="st0" d="M380.1,88.3h-250c-69,0-125,56-125,125s56,125,125,125h174l-30.5,62c-2.8,5.8-2.1,12.7,1.8,17.8,4,5.1,10.5,7.4,16.8,6l46.3-10.6v74.9c0,9.2,7.4,16.7,16.7,16.7h50c9.2,0,16.7-7.4,16.7-16.7v-74.9l46.4,10.6c6.3,1.4,12.8-1,16.7-6s4.7-11.9,1.8-17.7l-40-81.3c47.1-29.7,69-86.9,53.5-140.5-15.4-53.5-64.4-90.3-120-90.3h0ZM425.4,397.2c-5-1.1-10.1,0-14.1,3.2s-6.3,7.9-6.3,13v74.9h-50v-74.9c0-5.1-2.3-9.9-6.3-13-3.9-3.1-9.2-4.4-14.1-3.2l-46.3,10.5,91.6-186.2,48.3,98.1h0l43.3,88.1-46.4-10.6h.3ZM456.5,289.9c-5.3,5.3-11.1,10.1-17.5,14.2l-44.2-89.9c-2.8-5.7-8.6-9.3-14.9-9.3s-12.1,3.6-14.9,9.3l-52.9,107.4h-182.2c-59.9,0-108.3-48.5-108.3-108.3s48.5-108.3,108.3-108.3h249.9c43.9,0,83.3,26.4,100.1,66.9,16.8,40.5,7.5,87.1-23.5,118.1h0Z"/>
      <path id="Shape1" class="st0" d="M130,121.7c-24.3,0-47.7,9.7-64.9,26.9-2.1,2.1-3,5.2-2.2,8.1s3,5.2,6,6c2.9.8,6.1,0,8.1-2.2,14.1-14.2,33.2-22.1,53.1-22.1s8.3-3.7,8.3-8.3-3.7-8.3-8.3-8.3h0Z"/>
      <path id="Shape2" class="st0" d="M246.7,13.3v41.7c0,4.6,3.7,8.3,8.3,8.3s8.3-3.7,8.3-8.3V13.3c0-4.6-3.7-8.3-8.3-8.3s-8.3,3.7-8.3,8.3h0Z"/>
      <path id="Shape3" class="st0" d="M185.9,24.1c-3.2-3.1-8.5-3.1-11.7,0s-3.2,8.4,0,11.7l33.3,33.3c3.2,3.1,8.5,3.1,11.7,0,3.2-3.2,3.2-8.4,0-11.7l-33.3-33.3h0Z"/>
      <path id="Shape4" class="st0" d="M324.2,24.1l-33.3,33.3c-2.1,2.1-3,5.2-2.2,8.1.8,2.9,3,5.2,6,6s6.1,0,8.1-2.2l33.3-33.3c2.1-2.1,3-5.2,2.2-8.1s-3-5.2-6-6-6.1,0-8.1,2.2Z"/>
      <path id="Shape5" class="st0" d="M171.7,121.7h-8.3c-4.6,0-8.3,3.7-8.3,8.3s3.7,8.3,8.3,8.3h8.3c4.6,0,8.3-3.7,8.3-8.3s-3.7-8.3-8.3-8.3Z"/>
    </g>
  </g>
</svg>