<?xml version="1.0" encoding="UTF-8"?>
<svg id="Layer_1" xmlns="http://www.w3.org/2000/svg" version="1.1" viewBox="0 0 510 510">
  <!-- Generator: Adobe Illustrator 30.5.1, SVG Export Plug-In . SVG Version: 2.1.4 Build 3)  -->
  <path d="M496.9,74h-37.4v-20.3c0-4.5-3.6-8.1-8.1-8.1-92.8,0-122.6,8.1-182,24.2-4.6,1.3-9.4,2.6-14.5,3.9-5-1.4-9.8-2.7-14.5-3.9-59.2-16.1-89.1-24.2-181.9-24.2-8.4,0-8.1,3.6-8.1,8.1v20.3H13.1c-4.5,0-8.1,3.6-8.1,8.1v348.1c0,4.5,3.6,8.1,8.1,8.1h198.7v.2c0,14.3,11.7,26,26,26h34.9c14.3,0,26-11.7,26-26v-.2h198.3c4.5,0,8.1-3.6,8.1-8.1V82c0-4.5-3.6-8.1-8.1-8.1h-.1ZM273.7,85.3c58-15.7,85.4-23.1,169.7-23.6v320.7c-78.5.7-137.7,11.1-180.3,31.8V88.2c3.6-1,7.2-1.9,10.6-2.9h0ZM66.6,61.7c84.3.4,111.7,7.9,169.7,23.6,3.4.9,7,1.9,10.6,2.9v326c-42.6-20.7-101.9-31.1-180.3-31.8,0,0,0-320.7,0-320.7ZM488.9,422h-198.3c-4.5,0-8.1,3.6-8.1,8.1v8.2c0,5.4-4.4,9.9-9.9,9.9h-34.9c-5.4,0-9.9-4.4-9.9-9.9v-8.2c0-4.5-3.6-8.1-8.1-8.1H21.1V90.1h29.3v300.4c0,4.5,3.6,8.1,8.1,8.1,87.4,0,150.4,11.8,192.4,36.1,1.2.7,2.6,1.1,4,1.1s2.8-.4,4-1.1c42.1-24.3,105-36.1,192.4-36.1,5.7,0,8.1-3.6,8.1-8.1V90.1h29.3v331.9h.2ZM232.5,192.3l-71.7-41.4c-2.5-1.4-5.6-1.4-8.1,0l-71.7,41.4c-2.5,1.4-4,4.1-4,7v82.8c0,2.9,1.5,5.5,4,7l71.7,41.4c1.2.7,2.6,1.1,4,1.1s2.8-.4,4-1.1l71.7-41.4c2.5-1.4,4-4.1,4-7v-82.8c0-2.9-1.5-5.5-4-7h.1ZM156.8,231.3l-9.3-5.4,55.6-32.1,9.3,5.4-55.6,32.1h0ZM126.7,213.9l55.6-32.1,4.7,2.7-55.6,32.1s-4.7-2.7-4.7-2.7ZM118.6,227.9l4.7,2.7v14l-4.7-2.7v-14ZM156.8,167.2l9.3,5.4-55.6,32.1-9.3-5.4,55.6-32.1h0ZM93.1,213.2l9.3,5.4v27.9c0,2.9,1.5,5.5,4,7l20.8,12c1.2.7,2.6,1.1,4,1.1s2.8-.4,4-1.1c2.5-1.4,4-4.1,4-7v-18.6l9.3,5.4v64.2l-55.6-32.1v-64.2h.2ZM164.8,309.4v-64.2l55.6-32.1v64.2l-55.6,32.1h0ZM348.5,181.9c0-4.5,3.6-8.1,8.1-8.1h61.3c4.5,0,8.1,3.6,8.1,8.1s-3.6,8.1-8.1,8.1h-61.3c-4.5,0-8.1-3.6-8.1-8.1ZM348.5,155.9c0-4.5,3.6-8.1,8.1-8.1h61.3c4.5,0,8.1,3.6,8.1,8.1s-3.6,8.1-8.1,8.1h-61.3c-4.5,0-8.1-3.6-8.1-8.1ZM348.5,227.6c0-4.5,3.6-8.1,8.1-8.1h61.3c4.5,0,8.1,3.6,8.1,8.1s-3.6,8.1-8.1,8.1h-61.3c-4.5,0-8.1-3.6-8.1-8.1ZM348.5,253.8c0-4.5,3.6-8.1,8.1-8.1h61.3c4.5,0,8.1,3.6,8.1,8.1s-3.6,8.1-8.1,8.1h-61.3c-4.5,0-8.1-3.6-8.1-8.1ZM348.5,325.4c0-4.5,3.6-8.1,8.1-8.1h61.3c4.5,0,8.1,3.6,8.1,8.1s-3.6,8.1-8.1,8.1h-61.3c-4.5,0-8.1-3.6-8.1-8.1ZM348.5,299.3c0-4.5,3.6-8.1,8.1-8.1h61.3c4.5,0,8.1,3.6,8.1,8.1s-3.6,8.1-8.1,8.1h-61.3c-4.5,0-8.1-3.6-8.1-8.1h0ZM295.9,195.2h22c8.4,0,15.3-6.9,15.3-15.3v-22c0-8.4-6.9-15.3-15.3-15.3h-22c-8.4,0-15.3,6.9-15.3,15.3v22c0,8.4,6.9,15.3,15.3,15.3ZM296.7,158.7h20.4v20.4h-20.4v-20.4ZM295.9,267h22c8.4,0,15.3-6.9,15.3-15.3v-22c0-8.4-6.9-15.3-15.3-15.3h-22c-8.4,0-15.3,6.9-15.3,15.3v22c0,8.4,6.9,15.3,15.3,15.3ZM296.7,230.5h20.4v20.4h-20.4v-20.4ZM295.9,338.8h22c8.4,0,15.3-6.9,15.3-15.3v-22c0-8.4-6.9-15.3-15.3-15.3h-22c-8.4,0-15.3,6.9-15.3,15.3v22c0,8.4,6.9,15.3,15.3,15.3ZM296.7,302.2h20.4v20.4h-20.4v-20.4Z"/>
</svg>