<svg id="Layer_1" enable-background="new 0 0 512 512" height="512" viewBox="0 0 512 512" width="512" xmlns="http://www.w3.org/2000/svg"><path d="m496 76.45h-37.097v-20.126c0-4.418-3.582-8-8-8-92.079 0-121.647 8.01-180.555 23.968-4.579 1.241-9.356 2.534-14.348 3.875-4.991-1.341-9.769-2.634-14.348-3.875-58.908-15.958-88.476-23.968-180.555-23.968-4.418 0-8 3.582-8 8v20.126h-37.097c-4.418 0-8 3.582-8 8v345.29c0 4.418 3.582 8 8 8h197.093v.149c0 14.219 11.568 25.788 25.787 25.788h34.617c14.219 0 25.788-11.568 25.788-25.788v-.149h196.715c4.418 0 8-3.582 8-8v-345.29c0-4.419-3.582-8-8-8zm-221.469 11.285c57.542-15.588 84.751-22.959 168.371-23.391v318.096c-77.842.659-136.622 11.02-178.902 31.564v-323.421c3.62-.976 7.133-1.927 10.531-2.848zm-205.434-23.391c83.621.432 110.829 7.803 168.372 23.391 3.403.922 6.907 1.871 10.531 2.848v323.414c-42.279-20.542-101.063-30.897-178.903-31.556zm418.903 357.395h-196.715c-4.418 0-8 3.582-8 8v8.149c0 5.397-4.391 9.788-9.788 9.788h-34.617c-5.396 0-9.787-4.391-9.787-9.788v-8.149c0-4.418-3.582-8-8-8h-197.093v-329.289h29.097v297.957c0 4.418 3.582 8 8 8 86.729 0 149.173 11.711 190.903 35.804 1.238.714 2.619 1.072 4 1.072s2.762-.357 4-1.072c41.729-24.093 104.174-35.804 190.902-35.804 4.418 0 8-3.582 8-8v-297.957h29.098zm-254.337-227.922-71.114-41.057c-2.476-1.429-5.524-1.429-8 0l-71.114 41.057c-2.475 1.429-4 4.07-4 6.928v82.115c0 2.858 1.525 5.499 4 6.928l71.114 41.057c1.238.714 2.619 1.072 4 1.072s2.762-.357 4-1.072l71.114-41.057c2.475-1.429 4-4.07 4-6.928v-82.115c0-2.857-1.525-5.498-4-6.928zm-75.114 38.749-9.245-5.338 55.114-31.82 9.245 5.338zm-29.868-17.245 55.114-31.82 4.623 2.669-55.114 31.82zm-8 13.857 4.623 2.669v13.86l-4.623-2.668zm37.868-60.252 9.245 5.338-55.114 31.82-9.246-5.338zm-63.114 45.676 9.246 5.338v27.717c0 2.858 1.525 5.499 4 6.928l20.623 11.906c1.238.714 2.619 1.072 4 1.072s2.762-.357 4-1.072c2.475-1.429 4-4.07 4-6.928v-18.479l9.246 5.338v63.64l-55.114-31.82v-63.64zm71.114 95.46v-63.64l55.114-31.82v63.64zm182.212-126.498c0-4.418 3.582-8 8-8h60.769c4.418 0 8 3.582 8 8s-3.582 8-8 8h-60.769c-4.418 0-8-3.581-8-8zm0-25.861c0-4.418 3.582-8 8-8h60.769c4.418 0 8 3.582 8 8s-3.582 8-8 8h-60.769c-4.418 0-8-3.582-8-8zm0 71.17c0-4.418 3.582-8 8-8h60.769c4.418 0 8 3.582 8 8s-3.582 8-8 8h-60.769c-4.418 0-8-3.582-8-8zm0 25.861c0-4.418 3.582-8 8-8h60.769c4.418 0 8 3.582 8 8s-3.582 8-8 8h-60.769c-4.418 0-8-3.582-8-8zm0 71.17c0-4.418 3.582-8 8-8h60.769c4.418 0 8 3.582 8 8s-3.582 8-8 8h-60.769c-4.418 0-8-3.582-8-8zm0-25.862c0-4.418 3.582-8 8-8h60.769c4.418 0 8 3.582 8 8s-3.582 8-8 8h-60.769c-4.418 0-8-3.582-8-8zm-52.192-103.307h21.809c8.379 0 15.197-6.817 15.197-15.197v-21.809c0-8.379-6.817-15.196-15.197-15.196h-21.809c-8.379 0-15.197 6.817-15.197 15.196v21.809c0 8.379 6.818 15.197 15.197 15.197zm.803-36.202h20.202v20.202h-20.202zm-.803 107.371h21.809c8.379 0 15.197-6.817 15.197-15.196v-21.809c0-8.379-6.817-15.197-15.197-15.197h-21.809c-8.379 0-15.197 6.817-15.197 15.197v21.809c0 8.379 6.818 15.196 15.197 15.196zm.803-36.202h20.202v20.202h-20.202zm-.803 107.372h21.809c8.379 0 15.197-6.817 15.197-15.196v-21.809c0-8.379-6.817-15.197-15.197-15.197h-21.809c-8.379 0-15.197 6.817-15.197 15.197v21.809c0 8.379 6.818 15.196 15.197 15.196zm.803-36.202h20.202v20.202h-20.202z"/></svg>