<?xml version="1.0" encoding="UTF-8"?>
<svg id="Layer_1" xmlns="http://www.w3.org/2000/svg" version="1.1" viewBox="0 0 500 418.7">
  <!-- Generator: Adobe Illustrator 30.5.1, SVG Export Plug-In . SVG Version: 2.1.4 Build 3)  -->
  <path d="M491.9,28.4h-37.4V8.1c0-4.5-3.6-8.1-8.1-8.1-92.8,0-122.6,8.1-182,24.2-4.6,1.3-9.4,2.6-14.5,3.9-5-1.4-9.8-2.7-14.5-3.9C176.2,8.1,146.3,0,53.5,0s-8.1,3.6-8.1,8.1v20.3H8.1c-4.5,0-8.1,3.6-8.1,8.1v348.1c0,4.5,3.6,8.1,8.1,8.1h198.7v.2c0,14.3,11.7,26,26,26h34.9c14.3,0,26-11.7,26-26v-.2h198.3c4.5,0,8.1-3.6,8.1-8.1V36.4c0-4.5-3.6-8.1-8.1-8.1h0ZM268.7,39.7c58-15.7,85.4-23.1,169.7-23.6v320.7c-78.5.7-137.7,11.1-180.3,31.8V42.6c3.6-1,7.2-1.9,10.6-2.9ZM61.6,16.1c84.3.4,111.7,7.9,169.7,23.6,3.4.9,7,1.9,10.6,2.9v326c-42.6-20.7-101.9-31.1-180.3-31.8V16.1ZM483.9,376.4h-198.3c-4.5,0-8.1,3.6-8.1,8.1v8.2c0,5.4-4.4,9.9-9.9,9.9h-34.9c-5.4,0-9.9-4.4-9.9-9.9v-8.2c0-4.5-3.6-8.1-8.1-8.1H16.1V44.5h29.3v300.4c0,4.5,3.6,8.1,8.1,8.1,87.4,0,150.4,11.8,192.4,36.1,1.2.7,2.6,1.1,4,1.1s2.8-.4,4-1.1c42.1-24.3,105-36.1,192.4-36.1s8.1-3.6,8.1-8.1V44.5h29.3v331.9ZM227.5,146.7l-71.7-41.4c-2.5-1.4-5.6-1.4-8.1,0l-71.7,41.4c-2.5,1.4-4,4.1-4,7v82.8c0,2.9,1.5,5.5,4,7l71.7,41.4c1.2.7,2.6,1.1,4,1.1s2.8-.4,4-1.1l71.7-41.4c2.5-1.4,4-4.1,4-7v-82.8c0-2.9-1.5-5.5-4-7h0ZM151.8,185.7l-9.3-5.4,55.6-32.1,9.3,5.4-55.6,32.1ZM121.7,168.3l55.6-32.1,4.7,2.7-55.6,32.1-4.7-2.7ZM113.6,182.3l4.7,2.7v14l-4.7-2.7v-14ZM151.8,121.6l9.3,5.4-55.6,32.1-9.3-5.4,55.6-32.1ZM88.1,167.6l9.3,5.4v27.9c0,2.9,1.5,5.5,4,7l20.8,12c1.2.7,2.6,1.1,4,1.1s2.8-.4,4-1.1c2.5-1.4,4-4.1,4-7v-18.6l9.3,5.4v64.2l-55.6-32.1v-64.2h0ZM159.8,263.8v-64.2l55.6-32.1v64.2l-55.6,32.1ZM343.5,136.3c0-4.5,3.6-8.1,8.1-8.1h61.3c4.5,0,8.1,3.6,8.1,8.1s-3.6,8.1-8.1,8.1h-61.3c-4.5,0-8.1-3.6-8.1-8.1ZM343.5,110.3c0-4.5,3.6-8.1,8.1-8.1h61.3c4.5,0,8.1,3.6,8.1,8.1s-3.6,8.1-8.1,8.1h-61.3c-4.5,0-8.1-3.6-8.1-8.1ZM343.5,182c0-4.5,3.6-8.1,8.1-8.1h61.3c4.5,0,8.1,3.6,8.1,8.1s-3.6,8.1-8.1,8.1h-61.3c-4.5,0-8.1-3.6-8.1-8.1ZM343.5,208.1c0-4.5,3.6-8.1,8.1-8.1h61.3c4.5,0,8.1,3.6,8.1,8.1s-3.6,8.1-8.1,8.1h-61.3c-4.5,0-8.1-3.6-8.1-8.1ZM343.5,279.8c0-4.5,3.6-8.1,8.1-8.1h61.3c4.5,0,8.1,3.6,8.1,8.1s-3.6,8.1-8.1,8.1h-61.3c-4.5,0-8.1-3.6-8.1-8.1ZM343.5,253.7c0-4.5,3.6-8.1,8.1-8.1h61.3c4.5,0,8.1,3.6,8.1,8.1s-3.6,8.1-8.1,8.1h-61.3c-4.5,0-8.1-3.6-8.1-8.1ZM290.9,149.6h22c8.4,0,15.3-6.9,15.3-15.3v-22c0-8.4-6.9-15.3-15.3-15.3h-22c-8.4,0-15.3,6.9-15.3,15.3v22c0,8.4,6.9,15.3,15.3,15.3ZM291.7,113.1h20.4v20.4h-20.4v-20.4ZM290.9,221.4h22c8.4,0,15.3-6.9,15.3-15.3v-22c0-8.4-6.9-15.3-15.3-15.3h-22c-8.4,0-15.3,6.9-15.3,15.3v22c0,8.4,6.9,15.3,15.3,15.3ZM291.7,184.9h20.4v20.4h-20.4v-20.4ZM290.9,293.1h22c8.4,0,15.3-6.9,15.3-15.3v-22c0-8.4-6.9-15.3-15.3-15.3h-22c-8.4,0-15.3,6.9-15.3,15.3v22c0,8.4,6.9,15.3,15.3,15.3ZM291.7,256.6h20.4v20.4h-20.4v-20.4Z"/>
</svg>