<?xml version="1.0" encoding="UTF-8"?>
<svg id="Layer_1" xmlns="http://www.w3.org/2000/svg" version="1.1" viewBox="0 0 510 510">
  <!-- Generator: Adobe Illustrator 30.5.1, SVG Export Plug-In . SVG Version: 2.1.4 Build 3)  -->
  <defs>
    <style>
      .st0 {
        fill: #fff;
      }
    </style>
  </defs>
  <path class="st0" d="M496.9,74h-37.4v-20.2c0-4.4-3.6-8.1-8.1-8.1-92.8,0-122.6,8.1-182.1,24.2-4.6,1.2-9.5,2.5-14.4,3.9-5-1.3-9.9-2.6-14.4-3.9-59.4-16.1-89.1-24.2-182-24.2s-8.1,3.6-8.1,8.1v20.3H13.1c-4.4,0-8.1,3.6-8.1,8.1v348.1c0,4.4,3.6,8.1,8.1,8.1h198.7c0,14.5,11.7,26.1,26,26.1h34.9c14.3,0,26-11.7,26-26h0c0-.1,198.3-.1,198.3-.1,4.4,0,8.1-3.6,8.1-8.1V82.1c0-4.4-3.6-8.1-8.1-8.1h-.1ZM273.6,85.4c58-15.7,85.5-23.2,169.8-23.6v320.7c-78.4.7-137.7,11.1-180.3,31.9V88.3c3.6-1,7.2-1.9,10.6-2.8h-.1ZM66.6,61.8c84.3.4,111.7,7.9,169.8,23.6,3.4.9,7,1.9,10.6,2.8v326c-42.6-20.7-101.9-31.1-180.3-31.9V61.7h0ZM488.9,422.1h-198.3c-4.4,0-8.1,3.6-8.1,8.1v8.2c0,5.4-4.4,9.9-9.9,9.9h-34.9c-5.4,0-9.9-4.4-9.9-9.9v-8.2c0-4.4-3.6-8.1-8.1-8.1H21.1V90.2h29.3v300.4c0,4.4,3.6,8.1,8.1,8.1,87.4,0,150.4,11.8,192.4,36.1,1.2.7,2.6,1.1,4,1.1s2.8-.4,4-1.1c42-24.3,105-36.1,192.4-36.1s8.1-3.6,8.1-8.1V90.2h29.3v332h.2ZM232.5,192.4l-71.7-41.4c-2.5-1.4-5.5-1.4-8.1,0l-71.7,41.4c-2.5,1.4-4,4.1-4,7v82.8c0,2.9,1.5,5.5,4,7l71.7,41.4c1.2.7,2.6,1.1,4,1.1s2.8-.4,4-1.1l71.7-41.4c2.5-1.4,4-4.1,4-7v-82.8c0-2.9-1.5-5.5-4-7h.1ZM156.7,231.4l-9.3-5.3,55.5-32.1,9.3,5.3-55.5,32.1h0ZM126.7,214l55.5-32.1,4.6,2.7-55.5,32.1s-4.6-2.7-4.6-2.7ZM118.6,228.1l4.6,2.7v14l-4.6-2.7v-14ZM156.7,167.3l9.3,5.3-55.5,32.1-9.3-5.3,55.5-32.1ZM93.1,213.3l9.3,5.3v27.9c0,2.9,1.5,5.5,4,7l20.8,12c1.2.7,2.6,1.1,4,1.1s2.8-.4,4-1.1c2.5-1.4,4-4.1,4-7v-18.6l9.3,5.3v64.1l-55.5-32.1v-64.1h0v.2ZM164.8,309.5v-64.1l55.5-32.1v64.1l-55.5,32.1h0ZM348.5,182c0-4.4,3.6-8.1,8.1-8.1h61.3c4.4,0,8.1,3.6,8.1,8.1s-3.6,8.1-8.1,8.1h-61.3c-4.4,0-8.1-3.6-8.1-8.1ZM348.5,156c0-4.4,3.6-8.1,8.1-8.1h61.3c4.4,0,8.1,3.6,8.1,8.1s-3.6,8.1-8.1,8.1h-61.3c-4.4,0-8.1-3.6-8.1-8.1ZM348.5,227.7c0-4.4,3.6-8.1,8.1-8.1h61.3c4.4,0,8.1,3.6,8.1,8.1s-3.6,8.1-8.1,8.1h-61.3c-4.4,0-8.1-3.6-8.1-8.1ZM348.5,253.8c0-4.4,3.6-8.1,8.1-8.1h61.3c4.4,0,8.1,3.6,8.1,8.1s-3.6,8.1-8.1,8.1h-61.3c-4.4,0-8.1-3.6-8.1-8.1ZM348.5,325.5c0-4.4,3.6-8.1,8.1-8.1h61.3c4.4,0,8.1,3.6,8.1,8.1s-3.6,8.1-8.1,8.1h-61.3c-4.4,0-8.1-3.6-8.1-8.1ZM348.5,299.4c0-4.4,3.6-8.1,8.1-8.1h61.3c4.4,0,8.1,3.6,8.1,8.1s-3.6,8.1-8.1,8.1h-61.3c-4.4,0-8.1-3.6-8.1-8.1h0ZM295.9,195.3h22c8.5,0,15.3-6.9,15.3-15.3v-22c0-8.5-6.9-15.3-15.3-15.3h-22c-8.5,0-15.3,6.9-15.3,15.3v22c0,8.5,6.9,15.3,15.3,15.3ZM296.7,158.8h20.4v20.4h-20.4v-20.4ZM295.9,267.1h22c8.5,0,15.3-6.9,15.3-15.3v-22c0-8.5-6.9-15.3-15.3-15.3h-22c-8.5,0-15.3,6.9-15.3,15.3v22c0,8.5,6.9,15.3,15.3,15.3ZM296.7,230.6h20.4v20.4h-20.4v-20.4ZM295.9,338.8h22c8.5,0,15.3-6.9,15.3-15.3v-22c0-8.5-6.9-15.3-15.3-15.3h-22c-8.5,0-15.3,6.9-15.3,15.3v22c0,8.5,6.9,15.3,15.3,15.3ZM296.7,302.3h20.4v20.4h-20.4v-20.4h0Z"/>
</svg>