<?xml version="1.0" encoding="UTF-8"?>
<svg id="OBJECT" xmlns="http://www.w3.org/2000/svg" version="1.1" viewBox="0 0 510 510">
  <!-- Generator: Adobe Illustrator 30.5.1, SVG Export Plug-In . SVG Version: 2.1.4 Build 3)  -->
  <defs>
    <style>
      .st0 {
        fill: #fff;
      }
    </style>
  </defs>
  <path class="st0" d="M503,90L420.1,7.1c-2.8-2.8-7.5-2.8-10.4,0h0l-20.8,20.7c-6.3,6.3-6.6,16.3-1,23.1l-56.8,21.9c-2,.8-3.5,2.3-4.3,4.3l-22.5,61.6H31.8c-14.8,0-26.9,12-26.9,26.9v312.6c0,14.8,12,26.9,26.9,26.9h312.6c14.8,0,26.9-12,26.9-26.9V205.7l61.6-22.6c2-.7,3.5-2.2,4.3-4.3l21.9-56.8c6.7,5.8,16.8,5.3,23.1-1l20.7-20.7c2.8-2.8,2.8-7.5,0-10.4h0ZM289.6,192.5c.9,2.1,2.1,3.9,3.7,5.5l18.9,18.9c1.6,1.6,3.4,2.8,5.5,3.7v230.9H58.7V192.5h230.9ZM356.6,478.2c0,6.7-5.5,12.2-12.2,12.2H31.8c-6.7,0-12.2-5.5-12.2-12.2V165.7c0-6.7,5.5-12.2,12.2-12.2h267.2l-8.9,24.4H51.4c-4,0-7.3,3.3-7.3,7.3v273.5c0,4,3.3,7.3,7.3,7.3h273.5c4,0,7.3-3.3,7.3-7.3h0v-238.7l24.4-8.9v267.2ZM424.8,170.7l-99.8,36.4c-.9.3-1.9,0-2.5-.6l-4.2-4.2,50.8-50.8c13,7.2,29.3,2.6,36.5-10.4,7.2-13,2.6-29.3-10.4-36.5-13-7.2-29.3-2.6-36.5,10.4-4.5,8.1-4.5,18.1,0,26.2l-50.8,50.8-4.2-4.3c-.7-.7-.9-1.7-.6-2.5l36.4-99.8,59.8-23,48.5,48.5-23,59.8h0ZM373.4,119.4c4.8-4.8,12.5-4.8,17.3,0,4.8,4.8,4.8,12.5,0,17.3-4.8,4.8-12.5,4.8-17.3,0-4.8-4.7-4.8-12.4,0-17.2h0ZM471.9,110.8c-1,1-2.4,1-3.4,0h0l-69.1-69.1c-1-1-1-2.4,0-3.4h0l15.5-15.5,72.5,72.5-15.5,15.5h0Z"/>
  <path class="st0" d="M122.5,343.4c.9,3.1,3.8,5.4,7,5.4h117.2c3.3,0,6.2-2.1,7-5.4l19.5-70.3c1.1-3.9-1.2-7.9-5.1-9-1.7-.5-3.4-.3-5,.4l-43.1,19.3-25.8-43.7c-2.1-3.5-6.5-4.7-10.1-2.5-1.1.6-2,1.6-2.5,2.5l-25.8,43.7-43.1-19.3c-3.7-1.7-8,0-9.7,3.7-.7,1.6-.9,3.3-.4,5l19.5,70.3h0ZM156,299.8c3.4,1.6,7.4.3,9.3-2.9l22.9-38.7,22.9,38.7c2,3.2,6,4.5,9.3,2.9l34.8-15.6-13.9,50h-106.1l-13.9-49.9,34.8,15.6h0Z"/>
  <path class="st0" d="M246.7,363.5h-117.2c-4,0-7.3,3.3-7.3,7.3h0v19.5c0,9.5,7.6,17.1,17.1,17.1h97.7c9.5,0,17.1-7.6,17.1-17.1v-19.5c0-4-3.3-7.3-7.3-7.3h0ZM239.4,390.3c0,1.4-1.1,2.4-2.4,2.4h-97.7c-1.4,0-2.4-1.1-2.4-2.4v-12.2h102.6v12.2Z"/>
</svg>