<?xml version="1.0" encoding="UTF-8"?>
<svg id="OBJECT" xmlns="http://www.w3.org/2000/svg" version="1.1" viewBox="0 0 511.9 511.9">
  <!-- Generator: Adobe Illustrator 30.5.1, SVG Export Plug-In . SVG Version: 2.1.4 Build 3)  -->
  <defs>
    <style>
      .st0 {
        fill: #fff;
      }
    </style>
  </defs>
  <path class="st0" d="M509.8,87L425,2.2c-2.9-2.9-7.7-2.9-10.6,0h0l-21.3,21.2c-6.4,6.4-6.8,16.7-1,23.6l-58.2,22.4c-2,.8-3.6,2.4-4.4,4.4l-23,63.1H27.5c-15.2,0-27.5,12.3-27.5,27.5v320c0,15.2,12.3,27.5,27.5,27.5h320c15.2,0,27.5-12.3,27.5-27.5V205.5l63.1-23.1c2-.7,3.6-2.3,4.4-4.4l22.4-58.2c6.9,5.9,17.2,5.4,23.6-1l21.2-21.2c2.9-2.9,2.9-7.7,0-10.6h0ZM291.4,192c.9,2.1,2.1,4,3.8,5.6l19.3,19.3c1.6,1.6,3.5,2.9,5.6,3.8v236.4H55V192h236.4ZM360,484.5c0,6.9-5.6,12.5-12.5,12.5H27.5c-6.9,0-12.5-5.6-12.5-12.5V164.5c0-6.9,5.6-12.5,12.5-12.5h273.5l-9.1,25H47.5c-4.1,0-7.5,3.4-7.5,7.5v280c0,4.1,3.4,7.5,7.5,7.5h280c4.1,0,7.5-3.4,7.5-7.5h0v-244.4l25-9.1v273.5ZM429.8,169.6l-102.2,37.3c-.9.3-1.9.1-2.6-.6l-4.3-4.3,52-52c13.3,7.4,30,2.7,37.4-10.6s2.7-30-10.6-37.4c-13.3-7.4-30-2.7-37.4,10.6-4.6,8.3-4.6,18.5,0,26.8l-52,52-4.3-4.4c-.7-.7-.9-1.7-.6-2.6l37.3-102.2,61.2-23.5,49.7,49.7-23.5,61.2h-.1ZM377.2,117.1c4.9-4.9,12.8-4.9,17.7,0,4.9,4.9,4.9,12.8,0,17.7-4.9,4.9-12.8,4.9-17.7,0-4.9-4.8-4.9-12.7,0-17.6h0ZM478,108.3c-1,1-2.5,1-3.5,0h0l-70.7-70.7c-1-1-1-2.5,0-3.5h0l15.9-15.9,74.2,74.2-15.9,15.9h0Z"/>
  <path class="st0" d="M120.3,346.5c.9,3.2,3.9,5.5,7.2,5.5h120c3.4,0,6.3-2.2,7.2-5.5l20-72c1.1-4-1.2-8.1-5.2-9.2-1.7-.5-3.5-.3-5.1.4l-44.1,19.8-26.4-44.7c-2.1-3.6-6.7-4.8-10.3-2.6-1.1.6-2,1.6-2.6,2.6l-26.4,44.7-44.1-19.8c-3.8-1.7-8.2,0-9.9,3.8-.7,1.6-.9,3.4-.4,5.1l20,72h.1ZM154.6,301.8c3.5,1.6,7.6.3,9.5-3l23.4-39.6,23.4,39.6c2,3.3,6.1,4.6,9.5,3l35.6-16-14.2,51.2h-108.6l-14.2-51.1,35.6,16h0Z"/>
  <path class="st0" d="M247.5,367h-120c-4.1,0-7.5,3.4-7.5,7.5h0v20c0,9.7,7.8,17.5,17.5,17.5h100c9.7,0,17.5-7.8,17.5-17.5v-20c0-4.1-3.4-7.5-7.5-7.5h0ZM240,394.5c0,1.4-1.1,2.5-2.5,2.5h-100c-1.4,0-2.5-1.1-2.5-2.5v-12.5h105v12.5Z"/>
</svg>