<?xml version="1.0" encoding="UTF-8"?>
<svg id="OBJECT" xmlns="http://www.w3.org/2000/svg" version="1.1" viewBox="0 0 510 510">
  <!-- Generator: Adobe Illustrator 30.5.1, SVG Export Plug-In . SVG Version: 2.1.4 Build 3)  -->
  <path d="M502.8,90.1L419.9,7.2c-2.9-2.9-7.5-2.9-10.4,0h0l-20.8,20.7c-6.3,6.3-6.7,16.3-1,23.1l-56.9,21.9c-2,.8-3.5,2.3-4.2,4.3l-22.5,61.7H32c-14.8,0-26.8,12-26.9,26.9v312.4c0,14.8,12,26.8,26.9,26.9h312.4c14.8,0,26.8-12,26.9-26.9V205.7l61.7-22.5c2-.7,3.6-2.3,4.3-4.2l21.9-56.9c6.8,5.7,16.8,5.3,23.1-1l20.7-20.7c2.9-2.9,2.9-7.5,0-10.4h0ZM289.5,192.5c.8,2.1,2.1,3.9,3.7,5.5l18.8,18.8c1.6,1.6,3.4,2.8,5.5,3.7v230.7H58.8V192.5h230.7ZM356.6,478c0,6.7-5.5,12.2-12.2,12.2H32c-6.7,0-12.2-5.5-12.2-12.2V165.6c0-6.7,5.5-12.2,12.2-12.2h267l-8.9,24.4H51.5c-4,0-7.3,3.3-7.3,7.3v273.3c0,4,3.3,7.3,7.3,7.3h273.3c4,0,7.3-3.3,7.3-7.3h0v-238.5l24.4-8.9v267h.1ZM424.6,170.6l-99.8,36.4c-.9.3-1.9,0-2.6-.6l-4.2-4.2,50.8-50.8c13,7.2,29.3,2.6,36.5-10.4,7.2-13,2.6-29.3-10.4-36.5s-29.3-2.6-36.5,10.4c-4.5,8.1-4.5,18,0,26.2l-50.8,50.8-4.2-4.3c-.7-.7-.9-1.7-.6-2.6l36.4-99.8,59.8-23,48.5,48.5-23,59.8h.1ZM373.4,119.4c4.8-4.8,12.5-4.8,17.3,0s4.8,12.5,0,17.3c-4.8,4.8-12.5,4.8-17.3,0-4.8-4.7-4.8-12.4,0-17.2h0ZM471.7,110.8c-.9,1-2.5,1-3.4,0h0l-69.1-69.1c-1-.9-1-2.5,0-3.4h0l15.5-15.5,72.5,72.5-15.5,15.5Z"/>
  <path d="M122.5,343.4c.9,3.2,3.8,5.4,7.1,5.4h117.2c3.3,0,6.2-2.2,7.1-5.4l19.5-70.3c1.1-3.9-1.2-7.9-5.1-9-1.6-.5-3.4-.3-5,.4l-43,19.3-25.7-43.7c-2.1-3.5-6.5-4.6-10-2.6-1.1.6-2,1.5-2.6,2.6l-25.8,43.7-43-19.3c-3.7-1.7-8,0-9.7,3.7-.7,1.6-.8,3.3-.4,5l19.5,70.3h0ZM156,299.8c3.4,1.5,7.4.3,9.3-2.9l22.8-38.6,22.8,38.6c1.9,3.2,5.9,4.5,9.3,2.9l34.8-15.6-13.9,50h-106.1l-13.9-49.9,34.8,15.6h0Z"/>
  <path d="M246.7,363.4h-117.2c-4,0-7.3,3.3-7.3,7.3h0v19.5c0,9.4,7.7,17.1,17.1,17.1h97.7c9.4,0,17.1-7.7,17.1-17.1v-19.5c0-4-3.3-7.3-7.3-7.3h0ZM239.4,390.3c0,1.3-1.1,2.4-2.4,2.4h-97.7c-1.3,0-2.4-1.1-2.4-2.4v-12.2h102.5v12.2h0Z"/>
</svg>