<?xml version="1.0" encoding="UTF-8"?>
<svg id="Layer_2" xmlns="http://www.w3.org/2000/svg" version="1.1" viewBox="0 0 510 510">
  <!-- Generator: Adobe Illustrator 30.5.1, SVG Export Plug-In . SVG Version: 2.1.4 Build 3)  -->
  <defs>
    <style>
      .st0 {
        fill: #fff;
      }
    </style>
  </defs>
  <path class="st0" d="M446,259.8l-22.9,22.9c-2.8,2.8-2.8,7.5,0,10.4s3.3,2.1,5.2,2.1,3.7-.7,5.2-2.1l22.9-22.9c2.8-2.8,2.8-7.5,0-10.4s-7.5-2.8-10.4,0h0Z"/>
  <path class="st0" d="M405.2,276.4c2.7,0,5.3-1.5,6.5-4.1l4.2-8.2c1.8-3.6.3-8-3.3-9.8s-8-.3-9.8,3.3l-4.2,8.2c-1.8,3.6-.3,8,3.3,9.8,1,.6,2.1.8,3.3.8h0Z"/>
  <path class="st0" d="M455.5,298.5l-11.7,5.9c-3.6,1.8-5.1,6.2-3.3,9.8,1.2,2.6,3.8,4.1,6.5,4.1s2.3-.2,3.3-.8l11.7-5.9c3.6-1.8,5.1-6.2,3.3-9.8s-6.2-5.1-9.8-3.3h0Z"/>
  <path class="st0" d="M293.9,389c-2.8,2.8-2.8,7.5,0,10.4l22.9,22.9c1.5,1.5,3.3,2.1,5.2,2.1s3.7-.7,5.2-2.1c2.8-2.8,2.8-7.5,0-10.4l-22.9-22.9c-2.8-2.8-7.5-2.8-10.4,0h0Z"/>
  <path class="st0" d="M375.3,296.2l-21.1-21.1c-1.8-1.8-4.3-2.5-6.8-2s-4.4,2.3-5.3,4.6l-35.9,97.6c-1,2.7-.3,5.6,1.7,7.7l24.9,24.9c1.4,1.4,3.3,2.1,5.2,2.1s1.7-.1,2.5-.5l7.3-2.7,9.6,9.6c4.5,4.5,10.6,6.9,16.7,6.9s5.6-.5,8.3-1.6c7.5-2.8,13-9.2,14.6-17.1,1.1-5.3.5-10.6-1.9-15.3l42.9-15.8c2.4-.9,4.1-2.8,4.6-5.3s-.2-5-2-6.8l-21.1-21.1c9.6-12.5,8.6-30.4-2.8-41.8s-29.3-12.3-41.8-2.8h0l.3.3v.2ZM382.8,402c-.7,3-2.7,5.4-5.5,6.5-3.3,1.2-7,.5-9.5-2l-4.8-4.8,18.4-6.8c1.5,2,2,4.5,1.5,7.1h-.1ZM339.9,394.5l-18.2-18.2,30.4-82.5,70.4,70.4-82.5,30.4h0ZM409.4,330.4l-23.5-23.5c6.5-3.9,15.2-3,20.9,2.6,5.6,5.6,6.5,14.3,2.6,20.9h0Z"/>
  <path class="st0" d="M12.3,459.4h267.8c4.1,0,7.3-3.3,7.3-7.3s-3.3-7.3-7.3-7.3h-13.3c0-6.2.3-12.6.5-18.8,1.4-44.1,2.8-93.2-30.6-117.5,11.8-9.8,32.9-30.7,31-47.9-.6-5.4-3.6-12.8-14.6-17.1-22.6-8.9-20.8-54.5-17.6-76.8,0-.3.1-.8.2-1.2.2-1.4.5-2.7.7-3.8,0-.5.1-.9.1-1.4,0-49.5-40.3-89.8-89.8-89.8s0,0,0,0h0c-4.1,0-8,.3-11.8.8-.3,0-.7,0-1,.1-43.5,6.3-76.9,43.7-76.9,88.9s0,.9,0,1.4c.3,1.7.7,3.7,1,5.9,0,.5,0,1,.2,1.5,3,23,4.1,65.9-17.9,74.5-10.2,4.1-13.1,10.8-13.6,15.9-1.9,16.3,18.4,35.9,30.9,46.4-14.5,8.9-24.1,22.7-28.8,41.9-5.4,21.4-4.3,47.1-3.2,71.8.3,8.3.8,16.9.9,25.2h-14.3c-4.1,0-7.3,3.3-7.3,7.3s3.3,7.3,7.3,7.3h0ZM90,444.6l-6.3-79.7h124.9l-7.3,79.7h-111.3ZM247.7,257c5.1,2,5.4,4.3,5.4,5.2,1.1,10-19.1,30.7-30.4,38.5-2.1-.9-4.4-1.7-6.6-2.5-30.9-9.7-39.5-19.3-41.9-24.1-1.4-2.8-.9-4.4-.8-4.5,0,.2-.2.5-.2.5l-2.7-1.5c19.4-7.8,33.8-25.1,37.6-46.2,0-.2.1-.6.1-.8.6-3.3.8-6.6.8-10v-40.5c3.6.5,7.2.8,11,.9-2.5,23.9-3.6,72.7,27.6,85h.1ZM98.9,176.4c.6,0,1,0,1.6,0,23.8-2.3,42.9-11.5,55.9-26.8,10.2,8.9,23.1,15.2,38.2,18.9v43.2c0,1.6,0,3-.2,4.5-6.5,3.4-13.7,5.4-21.7,6.2-4.1.3-7,3.9-6.5,8,.3,3.8,3.6,6.6,7.3,6.6s.5,0,.7,0c5.2-.5,10.1-1.5,14.9-2.9-8,14.5-23.4,24.4-41.2,24.4h-1.8c-25.9,0-46.8-21.1-46.8-46.8v-35.2h-.4ZM129.4,278.8c1.1-2.7,1.7-5.2,1.9-7.4,4.6,1.1,9.5,1.7,14.5,1.7h1.8c3.8,0,7.4-.3,11-1,.1,2,.7,4.4,1.7,6.9,3.7,8.9,13,17,27.7,24.1-5.6,12.2-22.9,20.7-42.3,20.7s-37.4-9-42.7-21.4c13.7-7,22.6-14.9,26.5-23.8h0v.2h0ZM221.8,157.5c-27.1-1.2-47.7-9.5-61.3-24.3-15.1-16.6-17.7-37.7-18-48,1.4,0,2.8,0,4.2,0s0,0,0,0h0c40.5,0,73.5,32.2,75,72.3h.1ZM127.9,87.4c.6,11.9,3.8,33,18.2,51.4-21.6,26.9-60.8,24.1-74.4,22.1,0-.6-.2-1-.2-1.4.3-34.7,24.2-63.9,56.4-72.1ZM53.4,281.8c-12.2-13.1-12.5-19.1-12.3-20.7,0-.7.2-2.3,4.5-3.9,29.5-11.6,30.2-56.2,27.9-81.1,3,.3,6.6.7,10.7.8v34.8c0,24.3,14.3,45.5,34.9,55.4l-2.4,1.1v-.3c0,0,.7,2.3-1.1,5.7-2.5,5.1-11.3,15.1-41.7,24.7-.6.2-1,.3-1.6.6-4.7-3.6-12.3-9.9-18.9-17.1h0,.1ZM40.1,418.8c-1.1-23.8-2.1-48.2,2.7-67.6,5.2-20.5,16.4-32.8,35.5-38.9,3.9-1.2,7.7-2.6,11.3-3.9,7.7,17.7,30.3,30.2,56.1,30.2s48-12,55.9-29.7c3.3,1.2,6.6,2.4,10.1,3.5,44,14,42.6,62.2,41,113.2-.2,6.3-.3,12.8-.5,19.3h-36.3l8-86.4c.2-2-.5-4.1-1.9-5.6-1.4-1.6-3.4-2.4-5.4-2.4H75.8c-2,0-3.9.9-5.4,2.4-1.4,1.5-2,3.5-1.9,5.5l6.8,86.5h-34.2c0-8.6-.6-17.3-.9-25.9h0v-.2Z"/>
  <path class="st0" d="M146.2,382.4c-12.4,0-22.4,10-22.4,22.4s10,22.4,22.4,22.4,22.4-10,22.4-22.4-10-22.4-22.4-22.4ZM146.2,412.4c-4.3,0-7.8-3.5-7.8-7.8s3.5-7.8,7.8-7.8,7.8,3.5,7.8,7.8-3.5,7.8-7.8,7.8Z"/>
  <path class="st0" d="M288.1,196.2h2.5v22.1c0,2.7,1.5,5.2,3.8,6.4,1.1.6,2.3.9,3.5.9s2.8-.5,4.1-1.2l42.3-28.2h137.5c12.7,0,23.2-10.4,23.2-23.2v-99.2c0-12.7-10.4-23.2-23.2-23.2h-193.8c-12.7,0-23.2,10.4-23.2,23.2v99.2c0,12.7,10.4,23.2,23.2,23.2h.1ZM279.5,73.8c0-4.7,3.8-8.6,8.6-8.6h193.8c4.7,0,8.6,3.8,8.6,8.6v99.2c0,4.7-3.8,8.6-8.6,8.6h-139.8c-1.5,0-2.8.5-4.1,1.2l-32.9,21.8v-15.7c0-4.1-3.3-7.3-7.3-7.3h-9.8c-4.7,0-8.6-3.8-8.6-8.6v-99.2h0Z"/>
  <path class="st0" d="M313.9,100.4h27.1c4.1,0,7.3-3.3,7.3-7.3s-3.3-7.3-7.3-7.3h-27.1c-4.1,0-7.3,3.3-7.3,7.3s3.3,7.3,7.3,7.3Z"/>
  <path class="st0" d="M313.9,132.4h144.9c4.1,0,7.3-3.3,7.3-7.3s-3.3-7.3-7.3-7.3h-144.9c-4.1,0-7.3,3.3-7.3,7.3s3.3,7.3,7.3,7.3Z"/>
  <path class="st0" d="M458.8,145.9h-19.1c-4.1,0-7.3,3.3-7.3,7.3s3.3,7.3,7.3,7.3h19.1c4.1,0,7.3-3.3,7.3-7.3s-3.3-7.3-7.3-7.3Z"/>
  <path class="st0" d="M313.9,160.5h84.8c4.1,0,7.3-3.3,7.3-7.3s-3.3-7.3-7.3-7.3h-84.8c-4.1,0-7.3,3.3-7.3,7.3s3.3,7.3,7.3,7.3h0Z"/>
</svg>