<?xml version="1.0" encoding="UTF-8"?>
<svg id="Capa_1" xmlns="http://www.w3.org/2000/svg" version="1.1" viewBox="0 0 510 510">
  <!-- Generator: Adobe Illustrator 30.5.1, SVG Export Plug-In . SVG Version: 2.1.4 Build 3)  -->
  <defs>
    <style>
      .st0 {
        fill: #5c5c63;
      }

      .st1 {
        fill: #ff8e00;
      }
    </style>
  </defs>
  <path class="st1" d="M222,352.7c-1.4-1.5-3.4-2.4-5.4-2.4H75.8c-4,0-7.3,3.3-7.3,7.3v.6l7.4,94.4c.3,3.8,3.5,6.7,7.3,6.7h124.6c3.8,0,6.9-2.9,7.3-6.6l8.7-94.4c.2-2-.5-4.1-1.9-5.6h0ZM146.2,419.9c-8.3,0-15.1-6.7-15.1-15.1s6.7-15.1,15.1-15.1,15.1,6.7,15.1,15.1-6.7,15.1-15.1,15.1Z" data-original="#3366ff"/>
  <path class="st0" d="M428.3,295.2c1.9,0,3.8-.8,5.2-2.1l22.8-22.8c2.9-2.9,2.9-7.5,0-10.4s-7.5-2.9-10.4,0l-22.8,22.8c-2.9,2.9-2.9,7.5,0,10.4s3.2,2.1,5.2,2.1h0ZM401.9,275.6c3.6,1.8,8,.4,9.8-3.2l4.1-8.2c1.8-3.6.4-8-3.2-9.8s-8-.4-9.8,3.2l-4.1,8.2c-1.8,3.6-.4,8,3.2,9.8h0ZM465.3,301.8c-1.8-3.6-6.2-5.1-9.8-3.2l-11.7,5.9c-3.6,1.8-5.1,6.2-3.2,9.8s6.2,5.1,9.8,3.2l11.7-5.9c3.6-1.8,5.1-6.2,3.2-9.8h0ZM419.9,340.9c9.5-12.5,8.6-30.4-2.8-41.8-11.4-11.4-29.3-12.3-41.8-2.8l-21-21c-2.9-2.9-7.5-2.9-10.4,0-.8.8-1.3,1.7-1.7,2.7l-35.9,97.7c-1,2.7-.3,5.7,1.7,7.7l24.8,24.8c2,2,5,2.7,7.7,1.7l7.3-2.7,9.6,9.6c6.6,6.6,16.4,8.7,25,5.4,7.5-2.8,13-9.3,14.7-17.1,1.1-5.2.5-10.6-1.9-15.3l42.9-15.8c3.8-1.4,5.7-5.6,4.3-9.4-.4-1-.9-1.9-1.7-2.6l-21-21h.2ZM406.7,309.5c5.7,5.7,6.5,14.3,2.6,20.9l-23.5-23.5c6.6-3.9,15.2-3.1,20.9,2.6h0ZM382.8,402c-.6,3-2.7,5.4-5.6,6.5-3.3,1.2-7,.4-9.5-2l-4.8-4.8,18.4-6.8c1.5,2,2,4.6,1.5,7.1h0ZM339.9,394.5l-18.2-18.2,30.4-82.5,70.4,70.4-82.5,30.4h0ZM304.2,389.1c-2.9-2.9-7.5-2.9-10.4,0s-2.9,7.5,0,10.4l22.9,22.9c1.4,1.4,3.3,2.1,5.2,2.1s3.7-.7,5.2-2.1c2.9-2.9,2.9-7.5,0-10.4h0l-22.9-22.9h0ZM280.1,444.7h-13.3c0-6.2.3-12.6.5-18.8,1.3-44.1,2.8-93.2-30.6-117.4,11.9-9.8,32.9-30.7,31-47.9-.6-5.4-3.6-12.8-14.6-17.1-22.7-8.9-20.8-54.5-17.5-76.8,0-.4.2-.8.2-1.2.2-1.4.4-2.7.7-3.9,0-.4.1-.9.1-1.4,0-49.5-40.3-89.8-89.8-89.8h0c-4,0-8,.3-11.9.8-.3,0-.7,0-1,.1-43.4,6.3-76.9,43.7-76.9,88.8s0,.9,0,1.4c.3,1.7.7,3.7,1,5.9,0,.5,0,1,.2,1.5,3.1,23,4,65.9-17.9,74.5-10.2,4-13,10.8-13.6,15.8-1.9,16.3,18.4,36,30.9,46.4-14.5,8.9-24,22.7-28.9,41.8-5.4,21.4-4.2,47-3.1,71.8.4,8.4.8,16.9.9,25.3h-14.3c-4,0-7.3,3.3-7.3,7.3s3.3,7.3,7.3,7.3h267.8c4,0,7.3-3.3,7.3-7.3s-3.3-7.3-7.3-7.3h0v.2ZM247.7,257.2c5.1,2,5.4,4.3,5.5,5.1,1.1,10-19.1,30.7-30.4,38.5-2.2-.9-4.4-1.7-6.7-2.4-30.8-9.7-39.5-19.3-41.9-24.1-1.4-2.8-.9-4.4-.8-4.5,0,.3-.2.4-.2.4l-2.7-1.4c19.3-7.8,33.8-25.2,37.6-46.2,0-.3.1-.6.1-.8.5-3.3.8-6.6.8-10v-40.5c3.6.4,7.2.8,11,1-2.5,23.9-3.6,72.8,27.6,85.1h0v-.2ZM98.9,176.5c.5,0,1,0,1.5,0,23.7-2.3,42.9-11.5,55.9-26.8,10.3,8.9,23.1,15.2,38.1,18.9v43.2c0,1.5,0,3-.2,4.5-6.5,3.4-13.8,5.4-21.7,6.2-4,.4-7,4-6.6,8s4,7,8,6.6c5-.5,10-1.4,14.8-2.9-8,14.6-23.4,24.5-41.2,24.5h-1.8c-25.8,0-46.9-21-46.9-46.9v-35.2h.1ZM129.4,278.8c1.2-2.7,1.7-5.2,1.9-7.4,4.7,1.2,9.6,1.7,14.5,1.7h1.8c3.8,0,7.5-.4,11.1-1,.1,2,.6,4.4,1.7,6.9,3.7,8.9,13,17,27.7,24.1-5.6,12.2-22.9,20.8-42.4,20.8s-37.4-9-42.6-21.4c13.7-6.9,22.6-14.9,26.4-23.7h-.1ZM221.7,157.5c-27.1-1.3-47.7-9.4-61.2-24.3-15.1-16.6-17.7-37.7-18.1-47.9,1.4,0,2.8,0,4.2,0h0c40.5,0,73.6,32.2,75,72.3h.1ZM127.8,87.6c.6,12,3.9,33,18.3,51.3-21.6,26.9-60.8,24.1-74.4,22.1,0-.5-.2-1-.2-1.4.3-34.7,24.2-63.8,56.4-72.1h-.1ZM53.4,281.8c-12.1-13.1-12.5-19.2-12.3-20.7,0-.6.3-2.3,4.5-3.9,29.5-11.6,30.1-56.2,28-81.1,3,.3,6.7.6,10.7.8v34.8c0,24.4,14.3,45.5,34.9,55.4l-2.4,1.2s0-.1,0-.3c0,0,.8,2.3-1,5.8-2.5,5.1-11.3,15.1-41.7,24.6-.5.2-1.1.4-1.6.6-4.7-3.6-12.2-9.9-18.9-17.1h0ZM40.2,418.7c-1.1-23.7-2.2-48.2,2.7-67.6,5.2-20.5,16.4-32.8,35.5-38.8,3.8-1.2,7.5-2.5,11.2-3.9,7.7,17.7,30.3,30.1,56,30.1s48-12.1,55.9-29.7c3.4,1.2,6.8,2.4,10.2,3.5,44,13.9,42.6,62.1,41,113.1-.2,6.3-.4,12.8-.5,19.2H41.1c0-8.6-.5-17.4-.9-25.9h0Z" data-original="#070606"/>
  <path class="st1" d="M481.8,50.7h-193.8c-12.8,0-23.2,10.4-23.2,23.2v99.2c0,12.8,10.4,23.2,23.2,23.2h2.5v22c0,4,3.3,7.3,7.3,7.3s2.8-.4,4-1.2l42.4-28.1h137.5c12.8,0,23.2-10.4,23.2-23.2v-99.2c0-12.8-10.4-23.2-23.2-23.2h.1ZM313.9,85.8h27.1c4,0,7.3,3.3,7.3,7.3s-3.3,7.3-7.3,7.3h-27.1c-4,0-7.3-3.3-7.3-7.3s3.3-7.3,7.3-7.3ZM398.7,160.5h-84.8c-4,0-7.3-3.3-7.3-7.3s3.3-7.3,7.3-7.3h84.8c4,0,7.3,3.3,7.3,7.3s-3.3,7.3-7.3,7.3ZM458.8,160.5h-19.2c-4,0-7.3-3.3-7.3-7.3s3.3-7.3,7.3-7.3h19.2c4,0,7.3,3.3,7.3,7.3s-3.3,7.3-7.3,7.3h0ZM458.8,132.5h-144.9c-4,0-7.3-3.3-7.3-7.3s3.3-7.3,7.3-7.3h144.9c4,0,7.3,3.3,7.3,7.3s-3.3,7.3-7.3,7.3h0Z" data-original="#3366ff"/>
</svg>