<svg id="Layer_2" enable-background="new 0 0 500 500" viewBox="0 0 500 500" xmlns="http://www.w3.org/2000/svg"><g fill="rgb(0,0,0)"><path d="m419.5815 254.3345-20.2803 20.2803c-2.5386 2.5386-2.5386 6.6538 0 9.1924 1.269 1.269 2.9326 1.9038 4.5962 1.9038s3.3271-.6348 4.5962-1.9038l20.2803-20.2803c2.5386-2.5386 2.5386-6.6538 0-9.1924-2.5381-2.5381-6.6543-2.5381-9.1924 0z"/><path d="m383.373 269.0234c2.3765 0 4.667-1.3091 5.8096-3.5762l3.6685-7.2793c1.6152-3.2061.3262-7.1143-2.8794-8.73-3.2061-1.6138-7.1147-.3262-8.73 2.8794l-3.6685 7.2793c-1.6152 3.2061-.3262 7.1143 2.8794 8.73.9385.4727 1.9366.6968 2.9204.6968z"/><path d="m428.0322 288.6987-10.3716 5.2275c-3.2056 1.6157-4.4941 5.5239-2.8784 8.73 1.1426 2.2671 3.4321 3.5757 5.8091 3.5757.9839 0 1.9824-.2241 2.9209-.6973l10.3716-5.2275c3.2056-1.6157 4.4941-5.5239 2.8784-8.73-1.6157-3.205-5.5239-4.4936-8.73-2.8784z"/><path d="m284.5317 369.0483c-2.5386 2.5386-2.5386 6.6538 0 9.1924l20.3359 20.3359c1.269 1.269 2.9326 1.9038 4.5962 1.9038s3.3271-.6348 4.5962-1.9038c2.5386-2.5386 2.5386-6.6538 0-9.1924l-20.3359-20.3359c-2.5381-2.538-6.6543-2.538-9.1924 0z"/><path d="m356.8204 286.7071-18.6603-18.6602c-1.5684-1.5684-3.8267-2.228-5.9922-1.752s-3.939 2.0234-4.7046 4.104l-31.9087 86.7446c-.8745 2.3784-.2876 5.0483 1.5044 6.8403l22.0649 22.0654c1.2407 1.2407 2.9028 1.9038 4.5972 1.9038.7524 0 1.5117-.1304 2.2432-.3994l6.4983-2.3904 8.5066 8.5071c3.9941 3.9941 9.3604 6.1279 14.8218 6.1279 2.4927 0 5.0059-.4448 7.4165-1.3604 6.668-2.5327 11.5415-8.2085 13.0366-15.1826 1.0018-4.6735.3737-9.4338-1.6624-13.5856l38.1277-14.0253c2.0806-.7656 3.6279-2.5391 4.104-4.7046.4766-2.1655-.1841-4.4243-1.752-5.9922l-18.6602-18.66c8.4603-11.0645 7.6416-26.9967-2.4712-37.1096-10.1127-10.1126-26.045-10.9312-37.1096-2.4708zm6.7123 93.8232c-.5752 2.6831-2.3765 4.7808-4.9409 5.7549-2.9165 1.1079-6.2251.3979-8.4302-1.8071l-4.2585-4.2588 16.2983-5.9954c1.3255 1.81 1.8162 4.0444 1.3313 6.3064zm-38.1553-6.6123-16.187-16.1875 26.9648-73.3037 62.5264 62.5259zm61.6692-56.985-20.8713-20.8712c5.8492-3.4758 13.5352-2.7178 18.5625 2.3088 5.0271 5.027 5.7851 12.7129 2.3088 18.5624z"/><path d="m34.4839 431.4331h62.998 110.6909 64.1562c3.5898 0 6.5-2.9102 6.5-6.5s-2.9102-6.5-6.5-6.5h-11.8118c.0842-5.5157.2524-11.1555.4202-16.6655 1.1919-39.1583 2.512-82.7671-27.2058-104.2513 10.5283-8.7073 29.2236-27.2562 27.51-42.5041-.5415-4.814-3.2358-11.3594-12.9995-15.2012-20.1223-7.9168-18.5159-48.4007-15.5833-68.1935.082-.345.1345-.7004.1592-1.0643.1936-1.2386.3911-2.3909.5872-3.4312.0757-.3989.1138-.8037.1138-1.21 0-43.9502-35.7563-79.7061-79.7065-79.7061-.0149 0-.0293.0021-.0442.0023-.0149-.0001-.0293-.0023-.0442-.0023-3.5764 0-7.0913.2603-10.5444.719-.2981.0195-.5928.0529-.8799.1121-38.5557 5.5598-68.2817 38.8046-68.2817 78.8749 0 .4038.0381.8101.1133 1.207.2886 1.5312.5801 3.3032.8574 5.2491.0155.44.0748.8718.1765 1.2914 2.7275 20.4122 3.5811 58.4984-15.8704 66.1514-9.0542 3.5625-11.5845 9.6138-12.1128 14.063-1.7177 14.4669 16.3367 31.9356 27.4333 41.1918-12.9172 7.9326-21.3562 20.2018-25.6252 37.1558-4.7915 19.0293-3.7593 41.7812-2.7607 63.7847.3372 7.4252.6694 15.0432.7822 22.4268h-12.5278c-3.5898 0-6.5 2.9102-6.5 6.5s2.9101 6.5002 6.5 6.5002zm69.0073-13-5.5669-70.8135h110.8672l-6.5454 70.8135zm139.9912-166.5244c4.5288 1.7817 4.7554 3.7969 4.8403 4.5557.999 8.8882-16.9788 27.285-26.9583 34.2048-1.8911-.7841-3.8627-1.5096-5.9324-2.1633-27.3755-8.645-35.0542-17.1392-37.1948-21.4326-1.2412-2.4902-.7549-3.9346-.7334-3.9946-.084.2363-.167.3535-.167.3535l-2.3748-1.2504c17.1804-6.9277 30.0493-22.3398 33.397-41.0229.0593-.2426.1006-.4891.132-.7372.4791-2.9041.7399-5.8807.7399-8.9183v-35.9719c3.1562.3943 6.4182.6677 9.7637.8449-2.2411 21.2064-3.196 64.6403 24.4878 75.5323zm-132.0879-71.6632c.4517-.0374.8983-.0684 1.3545-.1122 21.084-2.0231 38.0698-10.1964 49.6078-23.7675 9.1401 7.9096 20.4725 13.5046 33.8741 16.783v38.3546c0 1.3549-.0703 2.6933-.1974 4.0154-5.7743 2.9766-12.2452 4.8317-19.2865 5.5125-3.5732.3452-6.1899 3.522-5.8447 7.0947.3247 3.3608 3.1538 5.8755 6.4619 5.8755.209 0 .4204-.0103.6328-.0308 4.5764-.4423 8.9631-1.3135 13.1577-2.5636-7.0704 12.9332-20.8036 21.7257-36.5532 21.7257h-1.5776c-22.9546 0-41.6294-18.6748-41.6294-41.6294zm27.0655 90.9015c1.0291-2.3946 1.5161-4.6028 1.6957-6.5593 4.1293 1.0012 8.4354 1.5451 12.8683 1.5451h1.5776c3.3579 0 6.6406-.3207 9.8329-.9036.13 1.813.5507 3.8707 1.4772 6.1238 3.2584 7.9239 11.5032 15.0903 24.5942 21.4103-4.9564 10.7952-20.3093 18.4368-37.6309 18.4368-17.5283 0-33.2021-8.003-37.8656-18.9653 12.2064-6.1627 20.0682-13.2184 23.4506-21.0878zm81.9926-107.7063c-24.0918-1.1404-42.3757-8.3751-54.3804-21.5691-13.3975-14.7253-15.7456-33.5243-16.0421-42.5579 1.2235-.0671 2.454-.1077 3.694-.1077.0149 0 .0293-.0021.0442-.0023.0149.0001.0293.0023.0442.0023 35.9518.0001 65.3311 28.5968 66.6401 64.2347zm-83.3789-62.1288c.5156 10.6201 3.4307 29.3151 16.2428 45.5766-19.2145 23.8767-53.9667 21.3784-66.0902 19.6493-.0806-.4853-.1511-.8945-.2058-1.2014.2629-30.7808 21.4807-56.655 50.0532-64.0245zm-66.0659 172.5167c-10.7822-11.5962-11.0815-17.0322-10.9165-18.4219.0659-.5562.2412-2.0337 3.9634-3.498 26.238-10.3234 26.75-49.8781 24.8241-72.0359 2.7051.3066 5.9218.5717 9.5157.6887v30.9419c0 21.6494 12.6589 40.3978 30.9634 49.2325l-2.1362 1.04s-.0586-.0947-.126-.2827c.0288.0806.6875 2.0093-.8589 5.123-2.2432 4.5181-10.0352 13.3687-37.0181 21.8896-.4827.1524-.939.3292-1.4133.4893-4.2041-3.2167-10.8761-8.7978-16.7976-15.1665zm-11.7915 121.5884c-.9561-21.0645-1.9443-42.8457 2.3804-60.021 4.5786-18.1846 14.6001-29.145 31.5371-34.4937 3.5227-1.1124 6.8447-2.2686 9.9792-3.4647 6.8235 15.7314 26.8995 26.7626 49.762 26.7626 22.7866 0 42.6232-10.7058 49.6108-26.3856 2.8534 1.0579 5.8635 2.0874 9.0312 3.0877 39.1089 12.3506 37.8062 55.1533 36.4268 100.4697-.1714 5.6277-.344 11.3911-.4285 17.061h-32.2142l7.0914-76.7153c.168-1.8198-.438-3.627-1.6694-4.9775-1.2319-1.3511-2.9751-2.1206-4.8032-2.1206h-125.0268c-1.8125 0-3.5425.7568-4.7729 2.0874-1.2305 1.3311-1.8491 3.1152-1.707 4.9219l6.0378 76.8042h-30.4385c-.1124-7.6316-.4517-15.4252-.7962-23.0161z"/><path d="m153.4067 363.1396c-10.9658 0-19.8867 8.9209-19.8867 19.8867s8.9209 19.8867 19.8867 19.8867 19.8867-8.9209 19.8867-19.8867-8.9208-19.8867-19.8867-19.8867zm0 26.7735c-3.7974 0-6.8867-3.0894-6.8867-6.8867s3.0894-6.8867 6.8867-6.8867 6.8867 3.0894 6.8867 6.8867-3.0893 6.8867-6.8867 6.8867z"/><path d="m279.3711 197.8335h2.2144l.0039 19.5645c.0005 2.3945 1.3179 4.5952 3.4282 5.7271.9624.5156 2.0181.7715 3.0713.7715 1.2573 0 2.5107-.3643 3.5962-1.085l37.6133-24.978h122.1465c11.3433 0 20.5713-9.228 20.5713-20.5713v-88.1246c0-11.3428-9.228-20.5708-20.5713-20.5708h-172.0738c-11.3433 0-20.5713 9.228-20.5713 20.5708v88.1245c0 11.3433 9.228 20.5713 20.5713 20.5713zm-7.5713-108.6958c0-4.1743 3.3965-7.5708 7.5713-7.5708h172.0737c4.1748 0 7.5713 3.3965 7.5713 7.5708v88.1245c0 4.1748-3.3965 7.5713-7.5713 7.5713h-124.1079c-1.2793 0-2.5303.3774-3.5957 1.085l-29.1543 19.3604-.0029-13.9468c-.001-3.5894-2.9106-6.4985-6.5-6.4985h-8.7129c-4.1748 0-7.5713-3.3965-7.5713-7.5713z"/><path d="m302.2964 112.7188h24.1055c3.5898 0 6.5-2.9102 6.5-6.5s-2.9102-6.5-6.5-6.5h-24.1055c-3.5898 0-6.5 2.9102-6.5 6.5s2.9101 6.5 6.5 6.5z"/><path d="m302.2964 141.1748h128.6616c3.5898 0 6.5-2.9102 6.5-6.5s-2.9102-6.5-6.5-6.5h-128.6616c-3.5898 0-6.5 2.9102-6.5 6.5s2.9101 6.5 6.5 6.5z"/><path d="m430.958 153.1172h-17.0146c-3.5898 0-6.5 2.9102-6.5 6.5s2.9102 6.5 6.5 6.5h17.0146c3.5898 0 6.5-2.9102 6.5-6.5s-2.9101-6.5-6.5-6.5z"/><path d="m302.2964 166.1172h75.2773c3.5898 0 6.5-2.9102 6.5-6.5s-2.9102-6.5-6.5-6.5h-75.2773c-3.5898 0-6.5 2.9102-6.5 6.5s2.9101 6.5 6.5 6.5z"/></g></svg>