<svg id="Layer_1" enable-background="new 0 0 512 512" height="512" viewBox="0 0 512 512" width="512" xmlns="http://www.w3.org/2000/svg"><path d="m470.688 13.85h-420.229c-22.86 0-41.459 18.598-41.459 41.46v275.533c0 22.861 18.599 41.46 41.459 41.46h136.35c-.275 26.799-6.781 53.914-14.038 69.896h-28.963c-15.426 0-27.976 12.55-27.976 27.976s12.55 27.976 27.976 27.976h224.391c15.426 0 27.976-12.55 27.976-27.976s-12.55-27.976-27.976-27.976h-29.038c-7.594-16.271-14.515-43.482-15.028-69.896h137.408c22.86 0 41.459-18.599 41.459-41.46v-284.675c0-17.82-14.495-32.318-32.312-32.318zm-420.229 14h420.229c10.098 0 18.313 8.218 18.313 18.318v243.591h-466.001v-234.449c0-15.142 12.318-27.46 27.459-27.46zm331.715 442.325c0 7.706-6.27 13.976-13.976 13.976h-224.39c-7.706 0-13.976-6.27-13.976-13.976s6.27-13.976 13.976-13.976h224.391c7.705 0 13.975 6.27 13.975 13.976zm-58.293-27.976h-135.902c7.671-19.511 12.576-45.969 12.827-69.896h109.33c.446 23.634 5.7 50.107 13.745 69.896zm137.66-83.896h-411.082c-15.141 0-27.459-12.318-27.459-27.46v-27.084h466v27.084c0 15.141-12.318 27.46-27.459 27.46zm-194.541-27.272c0 6.059-4.941 11-11 11s-11-4.941-11-11 4.941-11 11-11 11 4.941 11 11zm-48.521-91.919h196.875c11.614 0 21.063-9.448 21.063-21.063v-118.491c0-11.614-9.448-21.063-21.063-21.063h-196.875c-11.614 0-21.063 9.448-21.063 21.063v118.492c.001 11.614 9.449 21.062 21.063 21.062zm94.097-51.225c1.318 1.15 2.961 1.727 4.604 1.727 1.628 0 3.257-.565 4.57-1.697l23.543-20.292 66.372 57.489h-187.023l65.167-57.101zm43.435-29.501 66.406-57.236v114.753zm-38.802 14.961-92.617-80.852h186.422zm-38.042-14.625-67.749 59.363c0-.012-.002-.023-.002-.035v-118.472zm-223.584.547c0-3.866 3.134-7 7-7h103.5c3.866 0 7 3.134 7 7s-3.134 7-7 7h-103.5c-3.866 0-7-3.134-7-7zm28.715-39c0-3.866 3.134-7 7-7h74.785c3.866 0 7 3.134 7 7s-3.134 7-7 7h-74.785c-3.866 0-7-3.134-7-7zm88.785 77.999c0 3.866-3.134 7-7 7h-47.785c-3.866 0-7-3.134-7-7s3.134-7 7-7h47.785c3.866 0 7 3.133 7 7z"/></svg>