<?xml version="1.0" encoding="UTF-8"?>
<svg id="Layer_1" xmlns="http://www.w3.org/2000/svg" version="1.1" viewBox="0 0 510 510">
  <!-- Generator: Adobe Illustrator 30.5.1, SVG Export Plug-In . SVG Version: 2.1.4 Build 3)  -->
  <path d="M472.3,9.9H47C23.8,9.9,5,28.7,5,51.9v278.9c0,23.1,18.8,42,42,42h138c-.3,27.1-6.9,54.6-14.2,70.7h-29.3c-15.6,0-28.3,12.7-28.3,28.3s12.7,28.3,28.3,28.3h227.1c15.6,0,28.3-12.7,28.3-28.3s-12.7-28.3-28.3-28.3h-29.4c-7.7-16.5-14.7-44-15.2-70.7h139.1c23.1,0,42-18.8,42-42V42.6c-.1-18-14.8-32.7-32.8-32.7ZM47,24.1h425.3c10.2,0,18.5,8.3,18.5,18.5v246.5H19.2V51.9c0-15.3,12.5-27.8,27.8-27.8h0ZM382.7,471.8c0,7.8-6.3,14.1-14.1,14.1h-227.1c-7.8,0-14.1-6.3-14.1-14.1s6.3-14.1,14.1-14.1h227.1c7.8,0,14.1,6.3,14.1,14.1ZM323.7,443.5h-137.6c7.8-19.7,12.7-46.5,13-70.7h110.7c.5,23.9,5.8,50.7,13.9,70.7h0ZM463,358.5H47c-15.3,0-27.8-12.5-27.8-27.8v-27.4h471.7v27.4c0,15.3-12.5,27.8-27.8,27.8h-.1ZM266.1,330.9c0,6.1-5,11.1-11.1,11.1s-11.1-5-11.1-11.1,5-11.1,11.1-11.1,11.1,5,11.1,11.1ZM217,237.9h199.3c11.8,0,21.3-9.6,21.3-21.3v-119.9c0-11.8-9.6-21.3-21.3-21.3h-199.3c-11.8,0-21.3,9.6-21.3,21.3v119.9c0,11.8,9.6,21.3,21.3,21.3h0ZM312.3,186.1c1.3,1.2,3,1.7,4.7,1.7s3.3-.6,4.6-1.7l23.8-20.5,67.2,58.2h-189.3l66-57.8,23,20.1ZM356.2,156.2l67.2-57.9v116.1l-67.2-58.2ZM317,171.3l-93.7-81.8h188.7l-94.9,81.8h-.1ZM278.4,156.5l-68.6,60.1h0v-119.9l68.6,59.9h0ZM52.1,157.1c0-3.9,3.2-7.1,7.1-7.1h104.8c3.9,0,7.1,3.2,7.1,7.1s-3.2,7.1-7.1,7.1H59.2c-3.9,0-7.1-3.2-7.1-7.1ZM81.2,117.6c0-3.9,3.2-7.1,7.1-7.1h75.7c3.9,0,7.1,3.2,7.1,7.1s-3.2,7.1-7.1,7.1h-75.7c-3.9,0-7.1-3.2-7.1-7.1ZM171.1,196.6c0,3.9-3.2,7.1-7.1,7.1h-48.4c-3.9,0-7.1-3.2-7.1-7.1s3.2-7.1,7.1-7.1h48.4c3.9,0,7.1,3.2,7.1,7.1Z"/>
</svg>