<?xml version="1.0" encoding="UTF-8"?>
<svg id="Layer_1" xmlns="http://www.w3.org/2000/svg" version="1.1" viewBox="0 0 510 510">
  <!-- Generator: Adobe Illustrator 30.5.1, SVG Export Plug-In . SVG Version: 2.1.4 Build 3)  -->
  <defs>
    <style>
      .st0 {
        fill: #fff;
      }
    </style>
  </defs>
  <path class="st0" d="M472.1,9.9H47C23.8,9.9,5,28.7,5,51.9v278.7c0,23.2,18.8,42,42,42h138c-.3,27.1-6.9,54.5-14.2,70.7h-29.3c-15.6,0-28.3,12.6-28.3,28.3s12.7,28.3,28.3,28.3h227c15.6,0,28.3-12.6,28.3-28.3s-12.6-28.3-28.3-28.3h-29.3c-7.7-16.5-14.7-44-15.2-70.7h139c23.2,0,42-18.8,42-42V42.6c-.2-18-14.9-32.7-32.9-32.7ZM47,24.1h425.1c10.2,0,18.5,8.3,18.5,18.5v246.5H19.2V51.9c0-15.3,12.4-27.8,27.8-27.8h0ZM382.6,471.7c0,7.8-6.4,14.2-14.2,14.2h-227c-7.8,0-14.2-6.4-14.2-14.2s6.4-14.2,14.2-14.2h227c7.8,0,14.2,6.4,14.2,14.2ZM323.6,443.2h-137.5c7.8-19.7,12.7-46.5,13-70.7h110.6c.4,23.9,5.8,50.7,13.9,70.7h.1-.1ZM462.8,358.4H47c-15.3,0-27.8-12.4-27.8-27.8v-27.4h471.5v27.4c0,15.3-12.4,27.8-27.8,27.8h-.1ZM266,330.8c0,6.2-5,11.1-11.1,11.1s-11.1-5-11.1-11.1,5-11.1,11.1-11.1,11.1,5,11.1,11.1ZM217,237.8h199.2c11.7,0,21.3-9.5,21.3-21.3v-119.9c0-11.7-9.5-21.3-21.3-21.3h-199.2c-11.7,0-21.3,9.5-21.3,21.3v119.9c0,11.7,9.5,21.3,21.3,21.3h0ZM312.2,185.9c1.3,1.1,3,1.7,4.7,1.7s3.3-.6,4.7-1.7l23.8-20.5,67.2,58.2h-189.2l66-57.8,23.1,20.1h-.3ZM356.1,156.1l67.2-57.9v116.1l-67.2-58.2h0ZM316.8,171.3l-93.7-81.8h188.6l-94.9,81.8h0ZM278.4,156.6l-68.5,60.1h0v-119.9l68.6,59.8h-.1ZM52.1,157.1c0-3.9,3.1-7.1,7.1-7.1h104.7c3.9,0,7.1,3.1,7.1,7.1s-3.1,7.1-7.1,7.1H59.2c-3.9,0-7.1-3.1-7.1-7.1ZM81.2,117.5c0-3.9,3.1-7.1,7.1-7.1h75.7c3.9,0,7.1,3.1,7.1,7.1s-3.1,7.1-7.1,7.1h-75.7c-3.9,0-7.1-3.1-7.1-7.1ZM171,196.6c0,3.9-3.1,7.1-7.1,7.1h-48.4c-3.9,0-7.1-3.1-7.1-7.1s3.1-7.1,7.1-7.1h48.4c3.9,0,7.1,3.1,7.1,7.1Z"/>
</svg>