<?xml version="1.0" encoding="UTF-8"?>
<svg id="Capa_1" xmlns="http://www.w3.org/2000/svg" version="1.1" viewBox="0 0 510 510">
  <!-- Generator: Adobe Illustrator 30.5.1, SVG Export Plug-In . SVG Version: 2.1.4 Build 3)  -->
  <defs>
    <style>
      .st0 {
        fill: #5c5c63;
      }

      .st1 {
        fill: #ff8e00;
      }
    </style>
  </defs>
  <g>
    <path class="st0" d="M313.7,105.2c-2.4-3.7-7.3-4.8-11-2.4l-43.4,27.6c-3.7,2.4-4.8,7.3-2.4,11,2.4,3.7,7.3,4.8,11,2.4l43.4-27.6c3.7-2.4,4.8-7.3,2.4-11h0ZM254.9,83.9c-3.4-2.8-8.5-2.3-11.3,1.1l-11.9,14.6c-2.8,3.4-2.3,8.5,1.1,11.3s8.5,2.3,11.3-1.1h0l11.9-14.6c2.8-3.4,2.3-8.5-1.1-11.3h0ZM301.8,161l-21.6,5.5c-4.3,1.1-6.8,5.5-5.7,9.8,1.1,4.2,5.4,6.7,9.6,5.7l21.6-5.5c4.3-1.1,6.8-5.5,5.7-9.8-1.1-4.2-5.4-6.7-9.6-5.7h0ZM62.7,238.4c-2.4-3.7-7.3-4.8-11-2.4-3.7,2.4-4.8,7.3-2.4,11l24.2,38c2.4,3.7,7.3,4.8,11,2.5h0c3.7-2.4,4.8-7.3,2.4-11l-24.2-38h0Z" data-original="#070606"/>
    <path class="st0" d="M406.3,5h-222.5c-19.6,0-35.5,15.9-35.5,35.5v27.2c0,4.4,3.6,8,8,8s8-3.6,8-8v-27.2c0-10.7,8.7-19.5,19.5-19.5h222.5c10.7,0,19.5,8.7,19.5,19.5v188.9c0,4.4,3.6,8,8,8s8-3.6,8-8V40.5c0-19.6-15.9-35.5-35.5-35.5h0ZM433.8,395.9c-4.4,0-8,3.6-8,8v9.5H164.3v-110.6c8.7-2.4,15.9-8.4,19.7-16.8,3.2-7,3.7-15,1.3-22.3l65.6-8.9c4.4-.6,7.4-4.6,6.9-9-.2-1.1-.6-2.2-1.2-3.2l-23.3-36.5c17.1-13.1,21.7-37.4,9.9-56-11.8-18.5-35.8-24.7-54.9-14.7l-23.3-36.5c-1.5-2.3-4-3.7-6.7-3.7h0c-2.7,0-5.3,1.4-6.7,3.7l-78.3,121.9c-1.7,2.6-1.7,6,0,8.6l26.3,41.2c1.7,2.6,4.7,4,7.8,3.6l12.1-1.6,10.9,17.1c4.1,6.5,10.5,11.2,18,13.1v166.7c0,19.6,15.9,35.5,35.5,35.5h222.5c19.6,0,35.5-15.9,35.5-35.5v-65.6c0-4.4-3.6-8-8-8h-.1ZM229.7,158.8c7,11.1,4.7,25.5-5,33.8l-27.7-43.5c11.6-5.3,25.7-1.3,32.7,9.7h0ZM89.5,225.1l68.7-107.1,78.1,122.7-126.1,17-20.8-32.6h.1ZM143.8,281.1l-6.9-10.8,31.9-4.3c2.4,4.1,2.7,9,.7,13.4-2.1,4.6-6.2,7.7-11.2,8.4-5.7.8-11.4-1.8-14.4-6.6h0ZM406.3,489h-222.5c-10.7,0-19.5-8.7-19.5-19.5v-40.1h261.5v40.1c0,10.7-8.7,19.5-19.5,19.5h0Z" data-original="#070606"/>
    <path class="st0" d="M298.8,448.9h-7.6c-4.4,0-8,3.6-8,8s3.6,8,8,8h7.6c4.4,0,8-3.6,8-8s-3.6-8-8-8h0ZM382.8,77.3c4.4,0,8-3.6,8-8s-3.6-8-8-8h-14.6c-4.4,0-8,3.6-8,8s3.6,8,8,8h14.6Z" data-original="#070606"/>
  </g>
  <path class="st1" d="M291.6,304.6h-49.7c-4.4,0-8,3.6-8,8v58.9c0,4.4,3.6,8,8,8h49.7c4.4,0,8-3.6,8-8h0v-58.9c0-4.4-3.6-8-8-8ZM373.3,264.9h-49.7c-4.4,0-8,3.6-8,8v98.6c0,4.4,3.6,8,8,8h49.7c4.4,0,8-3.6,8-8v-98.6c0-4.4-3.6-8-8-8h0ZM454,223.6h-49.7c-4.4,0-8,3.6-8,8h0v139.9c0,4.4,3.6,8,8,8h49.7c4.4,0,8-3.6,8-8h0v-139.9c0-4.4-3.6-8-8-8h0ZM380.7,178.7c-1.8-1.5-4.1-2.2-6.5-1.8l-36.3,5.8c-4.4.7-7.3,4.8-6.6,9.2h0c.7,4.4,4.8,7.3,9.1,6.6h0l14.6-2.3c-16.9,18.4-65.8,66.4-126.7,79.1-4.3.9-7.1,5.1-6.2,9.5s5.1,7.1,9.5,6.2h0c66.8-13.9,118.4-65.3,135.9-84.6v10.9c0,4.4,3.6,8,8,8s8-3.6,8-8v-32.4c0-2.3-1-4.6-2.8-6.1h0Z" data-original="#3366ff"/>
</svg>