<?xml version="1.0" encoding="UTF-8"?>
<svg id="Layer_2" xmlns="http://www.w3.org/2000/svg" version="1.1" viewBox="0 0 414 500">
  <!-- Generator: Adobe Illustrator 30.5.1, SVG Export Plug-In . SVG Version: 2.1.4 Build 3)  -->
  <path d="M215.6,140.2c1.5,0,3-.4,4.3-1.3l43.4-27.6c3.7-2.4,4.8-7.3,2.4-11-2.4-3.7-7.3-4.8-11-2.4l-43.4,27.6c-3.7,2.4-4.8,7.3-2.4,11,1.5,2.4,4.1,3.7,6.8,3.7h0Z"/>
  <path d="M206.9,78.9c-3.4-2.8-8.5-2.3-11.3,1.1l-11.9,14.6c-2.8,3.4-2.3,8.5,1.1,11.3,1.5,1.2,3.3,1.8,5.1,1.8s4.6-1,6.2-2.9l11.9-14.6c2.8-3.4,2.3-8.5-1.1-11.3h0Z"/>
  <path d="M253.8,156l-21.6,5.5c-4.3,1.1-6.9,5.4-5.8,9.7.9,3.6,4.2,6,7.7,6s1.3,0,2-.2l21.6-5.5c4.3-1.1,6.9-5.4,5.8-9.7-1.1-4.3-5.4-6.9-9.7-5.8h0Z"/>
  <path d="M25.3,224.4l26.3,41.2c1.5,2.3,4,3.7,6.7,3.7s.7,0,1.1,0l12.1-1.6,10.9,17.1c4.2,6.6,10.7,11.2,18,13.1v166.7c0,19.6,15.9,35.5,35.5,35.5h222.5c19.6,0,35.5-15.9,35.5-35.5v-65.6c0-4.4-3.6-8-8-8s-8,3.6-8,8v9.5H116.3v-110.6c8.7-2.4,15.9-8.4,19.7-16.8,3.3-7.1,3.6-15,1.3-22.3l65.6-8.9c2.7-.4,5-2.1,6.2-4.6,1.1-2.5,1-5.4-.5-7.7l-23.3-36.5c17.1-13.1,21.7-37.4,9.9-56-11.8-18.5-35.8-24.7-54.9-14.7l-23.3-36.5c-1.5-2.3-4-3.7-6.7-3.7h0c-2.7,0-5.3,1.4-6.7,3.7L25.3,215.8c-1.7,2.6-1.7,6,0,8.6h0ZM377.8,424.4v40.1c0,10.7-8.7,19.5-19.5,19.5h-222.5c-10.7,0-19.5-8.7-19.5-19.5v-40.1h261.5ZM121.5,274.4c-2.1,4.6-6.2,7.7-11.2,8.4-5.7.8-11.4-1.8-14.4-6.6l-6.9-10.8,31.9-4.3c2.4,4.1,2.7,9,.7,13.4h0ZM181.7,153.8c7,11.1,4.7,25.5-5,33.8l-27.7-43.5c11.6-5.3,25.7-1.3,32.7,9.7h0ZM110.2,113.1l78.1,122.7-126.1,17-20.8-32.6,68.7-107.1Z"/>
  <path d="M3.7,230.9c-3.7,2.4-4.8,7.3-2.4,11l24.2,38c1.5,2.4,4.1,3.7,6.8,3.7s3-.4,4.3-1.3c3.7-2.4,4.8-7.3,2.4-11l-24.2-38c-2.4-3.7-7.3-4.8-11-2.4h0Z"/>
  <path d="M358.3,0h-222.5C116.2,0,100.3,15.9,100.3,35.5v27.2c0,4.4,3.6,8,8,8s8-3.6,8-8v-27.2c0-10.7,8.7-19.5,19.5-19.5h222.5c10.7,0,19.5,8.7,19.5,19.5v183.1h-21.4c-4.4,0-8,3.6-8,8v139.9c0,4.4,3.6,8,8,8h49.7c4.4,0,8-3.6,8-8v-139.9c0-4.4-3.6-8-8-8h-12.2V35.5c0-19.6-15.9-35.5-35.5-35.5h0ZM398,358.5h-33.7v-123.9h33.7v123.9Z"/>
  <path d="M243.2,459.9h7.6c4.4,0,8-3.6,8-8s-3.6-8-8-8h-7.6c-4.4,0-8,3.6-8,8s3.6,8,8,8Z"/>
  <path d="M193.9,299.6c-4.4,0-8,3.6-8,8v58.9c0,4.4,3.6,8,8,8h49.7c4.4,0,8-3.6,8-8v-58.9c0-4.4-3.6-8-8-8h-49.7ZM235.6,358.5h-33.7v-42.9h33.7v42.9Z"/>
  <path d="M325.3,259.9h-49.7c-4.4,0-8,3.6-8,8v98.6c0,4.4,3.6,8,8,8h49.7c4.4,0,8-3.6,8-8v-98.6c0-4.4-3.6-8-8-8ZM317.3,358.5h-33.7v-82.7h33.7v82.7Z"/>
  <path d="M335.5,179.8c0-2.3-1-4.6-2.8-6.1-1.8-1.5-4.1-2.2-6.5-1.8l-36.3,5.8c-4.4.7-7.3,4.8-6.6,9.2.7,4.4,4.8,7.3,9.2,6.6l14.6-2.3c-16.9,18.4-65.8,66.4-126.7,79.1-4.3.9-7.1,5.1-6.2,9.5.8,3.8,4.1,6.4,7.8,6.4s1.1,0,1.6-.2c66.8-13.9,118.4-65.3,135.9-84.6v10.9c0,4.4,3.6,8,8,8s8-3.6,8-8v-32.4Z"/>
  <path d="M342.8,64.3c0-4.4-3.6-8-8-8h-14.6c-4.4,0-8,3.6-8,8s3.6,8,8,8h14.6c4.4,0,8-3.6,8-8Z"/>
</svg>