<?xml version="1.0" encoding="UTF-8"?>
<svg id="Capa_1" xmlns="http://www.w3.org/2000/svg" version="1.1" viewBox="0 0 510 510">
  <!-- Generator: Adobe Illustrator 30.5.1, SVG Export Plug-In . SVG Version: 2.1.4 Build 3)  -->
  <defs>
    <style>
      .st0 {
        fill: #5c5c63;
      }

      .st1 {
        fill: #ff8e00;
      }
    </style>
  </defs>
  <g>
    <path class="st0" d="M133.2,146.1c1.1,0,2.2-.4,3.1-1.2,4.7-4.1,9.7-7.9,14.8-11.5,2.4,1.9,5.3,2.6,7.6,3.2,4.5,1.1,7.3,1.8,8.4,8.5,2.7,15.3,12.5,21.8,20.1,22.7.7,0,1.5.1,2.2.1,6.9,0,13-4.1,16-10.8,1.6-3.6,4.4-5.7,8.3-6.2,5.3-.7,10.8,1.7,13,4.5,3.7,4.6,11.2,5.8,19.6,3.1,8.6-2.8,17.6-9.7,18.1-19,.5-8.8,7.1-12.3,21.9-19.3l1.8-.8c3.7-1.8,8.1-5.4,9.8-12.6,18.9,4.8,36.9,12.7,53.2,23.3.8.5,1.7.8,2.6.8,2.6,0,4.7-2.1,4.7-4.7s-.8-3.1-2.1-4c-18.7-12.1-39.3-20.9-61.1-25.8h-.2c-13.6-3-27.5-4.6-41.4-4.6s-10.1.2-15.1.6c-2.6.2-4.5,2.5-4.3,5.1h0c.2,2.6,2.5,4.5,5.1,4.3h0c16.5-1.3,33.2-.3,49.5,2.9-1.1,4.5-3.7,5.7-4.7,6.2l-1.8.8c-14.8,7-26.5,12.5-27.3,27.3-.3,4.6-6,8.8-11.5,10.5-5,1.6-8.5.9-9.3,0-4.5-5.6-13.6-9-21.6-7.9-7.2.9-12.8,5.1-15.7,11.8-1.6,3.6-4.7,5.5-8.4,5.1-4.4-.5-10.2-4.8-11.9-15-2.2-12.7-10.5-14.8-15.5-16-.2,0-.4,0-.6-.2,10.9-6.7,22.5-12.1,34.6-16.3,2.5-.9,3.8-3.5,2.9-6s-3.5-3.8-6-2.9c-22.7,7.8-43.5,19.8-61.8,35.7-2,1.7-2.2,4.7-.5,6.7.9,1,2.2,1.6,3.6,1.6h0ZM266.4,459.2c-4.3.3-8.6.5-12.9.5-41.6,0-79.9-14.3-110.4-38.1,3-4.7,3.9-11.3,2.5-19.7-1.3-8.3,2.3-10.5,7.9-13.9,4.5-2.7,10.2-6.1,10.8-13.6,1.1-12.9-14.2-20.1-25.3-25.4-2.3-1.1-4.4-2.1-6-3-6.2-3.4-11.2-24.2-5.1-35.5,3.7-6.9,11.2-9,20.6-11.6,4.9-1.3,10.4-2.9,16-5.3,1.1-.5,2.1-1,3.2-1.5,2.3-1.2,3.2-4.1,2-6.4s-4.1-3.2-6.4-2h0c-.8.4-1.6.8-2.4,1.2-4.9,2.1-9.9,3.5-14.7,4.8-10.7,2.9-20.8,5.7-26.4,16.2-7.9,14.6-2.9,41.7,8.8,48.2,1.9,1,4.1,2.1,6.6,3.3,8.1,3.9,20.5,9.7,19.9,16.1-.2,2.4-2,3.7-6.3,6.3-5.9,3.5-14.8,8.9-12.4,23.5.9,5.4.7,9.4-.6,12.1-26.7-23.4-46.5-54.5-55.7-89.9v-.6c-.5-1.6-.9-3.1-1.3-4.7-.9-3.9-1.6-7.9-2.3-11.8-.1-.8-.2-1.6-.4-2.4-.1-.7-.2-1.4-.3-2.1-.1-.9-.2-1.8-.3-2.6,0-.7-.2-1.3-.2-2-.1-.9-.2-1.9-.3-2.8,0-.6-.1-1.2-.2-1.8,0-1-.1-2-.2-3,0-.6,0-1.1-.1-1.7,0-1.1,0-2.2-.1-3.3v-6.1c0-19,2.9-37.7,8.8-55.5.8-2.5-.5-5.1-3-5.9-2.5-.8-5.1.5-5.9,3-6.1,18.8-9.2,38.5-9.2,58.4s0,3.4,0,5.1v1.6c0,1.2,0,2.3.1,3.5,0,.6,0,1.2.1,1.9,0,1.1.1,2.1.2,3.2,0,.7.1,1.3.2,2,0,1,.2,2,.3,3,0,.7.2,1.4.2,2.1.1,1,.2,1.9.4,2.9.2,1.6.5,3.2.7,4.8.1.8.3,1.6.4,2.4.1.8.3,1.5.4,2.3.2.9.3,1.8.5,2.7.1.6.3,1.2.4,1.8.2,1.1.4,2.1.7,3.2,0,.3.1.6.2.9,9.3,39.6,31.2,75.4,63.2,102,.2.2.5.4.7.5,32.6,26.8,74.3,42.9,119.7,42.9s9.1-.2,13.6-.5c2.6-.2,4.6-2.4,4.4-5-.2-2.6-2.4-4.6-5-4.4h0v-.3ZM441.2,299.7c0-.8.1-1.5.2-2.3,0-1.1.2-2.2.3-3.2,0-.8.1-1.7.2-2.5,0-1.1.1-2.3.2-3.4v-7.8c0-30.2-7.3-60.3-21.2-86.9-1.2-2.3-4.1-3.2-6.4-2h0c-2.3,1.2-3.2,4.1-2,6.4,13.1,25.3,20.1,53.8,20.1,82.5s0,4.3-.1,6.5c0,1.4-.1,2.8-.2,4.2v1.1c0,1.2-.2,2.4-.3,3.6-6.6-1-11.7-5.1-13.1-9.1-5.8-16.3-13-21.1-31.8-21.1s-17.3-7.3-21.4-14.6c-3-5.2-3.7-10.1-1.9-13.2.8-1.3,1.6-2.6,2.3-3.8,6.4-10.3,12.9-21,8.2-50.1-.4-2.8-.7-5.6-.7-8.2s-2.1-4.7-4.7-4.7h0c-2.6,0-4.7,2.1-4.7,4.7s.3,6.5.8,9.8c4.1,25.7-1,34-6.9,43.7-.8,1.3-1.6,2.7-2.4,4-3.6,6.1-2.9,14.4,1.9,22.7,5.5,9.6,16.8,19.3,29.6,19.3s18.7,3,22.9,14.8c2.8,8,11.2,13.9,21,15.3-3.1,21.9-10.1,43.2-20.9,62.5-1.3,2.3-.5,5.2,1.8,6.4,2.3,1.3,5.2.5,6.4-1.8,12.2-21.8,19.9-45.9,22.7-70.7v-.3c0-.6.1-1.1.2-1.7h-.1ZM331.2,241.9c1.2-5.2,2.1-8.4,5.1-10.4,5.1-3.2,8.2-7.6,9.4-13,1.6-7.8-1-17-8-27.5-9.6-14.4-21.5-21.8-31.7-19.7-7,1.4-12.2,7.2-13.7,15.5-1.9,10-5.8,11.8-13.6,15.6-2.4,1.1-5.1,2.4-8,4.1-6.4,3.7-9.4,11.4-7.7,19.9,1.8,8.9,8.9,19.2,20.4,20.7,4.6.6,7,3.9,9.7,7.7,2.9,4.1,7.1,9.7,14.7,9.7s4.9-.5,7.9-1.7c11.8-4.8,13.9-14.1,15.5-20.9h0ZM300.6,249.4c-3.2-4.4-7.6-10.4-16.1-11.5-6.5-.9-11.2-7.5-12.4-13.2-.4-2.2-1-7.5,3.2-9.9,2.6-1.5,5-2.6,7.3-3.8,8.3-4,16.1-7.7,18.8-22.4.5-2.6,2-7.1,6.3-8,.6-.1,1.1-.2,1.7-.2,7.1,0,15.2,8.3,20.3,15.9,5.3,8,7.7,15.2,6.6,20.3-.6,2.9-2.3,5.2-5.2,7-6.4,4.1-7.9,10.5-9.3,16.2-1.5,6.4-2.7,11.4-9.9,14.4-6.1,2.5-7.5.5-11.4-4.8h0ZM186.4,236.7c2.6,0,4.7-2.1,4.7-4.7s-.2-1.5-.6-2.2c-4.6-8.7-13.4-13.6-21.4-17.4-5.7-2.7-8.2-6.7-11.6-12.2-2.5-4.1-5.3-8.7-9.9-13.3-1.8-1.8-4.8-1.8-6.7,0-1.8,1.8-1.8,4.8,0,6.6,3.8,3.9,6.2,7.8,8.5,11.6,3.6,5.9,7.3,12,15.6,15.9,6.5,3,13.7,7,17,13.3.8,1.5,2.4,2.5,4.2,2.5h.2Z" data-original="#231f20"/>
    <path class="st0" d="M180.1,386.2c-2.1,9,2.3,17.2,10.8,20,1.8.6,3.7.9,5.6.9,6.6,0,13.8-3.6,17.7-12.6,3.2-7.4,7.9-11.1,12.8-15.1,5.1-4,10.3-8.2,13.2-16.1,4.6-12.4-.4-27.1-11.8-34.9-2.1-1.5-5.1-.9-6.6,1.2s-.9,5.1,1.2,6.6h0c7.7,5.3,11.3,15.6,8.2,23.8-2,5.4-5.6,8.3-10.2,12-5.3,4.3-11.4,9.1-15.5,18.7-2.7,6.2-7.8,7.7-11.7,6.5-3-1-5.7-3.8-4.5-8.9.6-2.8,1.3-5.1,1.8-7.1,2.8-10.3,3.4-14.5-2.5-27.5-3.4-7.5-1.1-15,5.9-18.8,2.3-1.2,3.2-4.1,1.9-6.4s-4.1-3.2-6.4-1.9h0c-11.2,6.1-15.5,19.1-10,31,4.8,10.5,4.3,12.3,2,21.1-.7,2.5-1.3,5-1.9,7.5h0Z" data-original="#231f20"/>
  </g>
  <path class="st1" d="M447.7,458.6c.8-7.1,2-24.4-3.3-43.9-6.9-25.2-45.7-64.9-47.4-66.6-.9-.9-2.1-1.4-3.4-1.4h-71.8c-1.3,0-2.5.5-3.4,1.4-1.7,1.7-40.5,41.4-47.4,66.6-5.3,19.5-4.2,36.8-3.3,43.9-5.4,3.7-11.7,11.1-9.4,22.2,1,4.6,3.4,8.1,7.1,10.3,5.8,3.4,13.1,2.5,16.7,1.7,6.2,3.2,27.5,12.1,75.6,12.1s69.5-8.9,75.6-12.1c3.6.8,10.9,1.7,16.7-1.7,3.7-2.2,6.1-5.7,7.1-10.3,2.3-11.1-4-18.6-9.4-22.2h0ZM374.1,410.9c0,.8-.4,1.3-1.3,1.3h-8.7c-.8,0-1.3-.5-1.3-1.3v-6.6c0-2.2-1.1-3.4-3.4-3.4h-4c-2.1,0-3.4,1.2-3.4,3.4v11.6l20,6.6c1.4.6,2.2,1.5,2.2,3.1v19.4c0,7.7-4,11.9-11.4,12.1v5c0,.8-.5,1.3-1.3,1.3h-8.2c-.9,0-1.3-.5-1.3-1.3v-5c-7.3-.3-11.4-4.5-11.4-12.1v-8.8c0-.9.5-1.3,1.3-1.3h8.7c.9,0,1.3.4,1.3,1.3v6.5c0,2.3,1.3,3.4,3.4,3.4h4c2.2,0,3.4-1.1,3.4-3.4v-11.2l-19.9-6.6c-1.5-.5-2.3-1.5-2.3-3.1v-19.8c0-7.7,4-11.9,11.4-12.1v-5c0-.8.4-1.3,1.3-1.3h8.2c.8,0,1.3.5,1.3,1.3v5c7.5.3,11.4,4.5,11.4,12.1v8.9h0ZM398.6,91.8c-26.7,0-48.3,21.7-48.3,48.3s1.5,13.9,4.4,20.2c.8,1.6,1.6,3.3,2.5,4.8,0,0,0,.1.1.2l37.3,55.3c1.5,2.2,4.4,2.7,6.6,1.3.5-.3.9-.8,1.3-1.3l37.3-55.3s0-.1.1-.2c4.6-7.5,7-16.2,7-25,0-26.7-21.7-48.3-48.3-48.3ZM398.6,164.4c-13.4,0-24.2-10.9-24.2-24.2s10.9-24.2,24.2-24.2,24.2,10.9,24.2,24.2-10.9,24.2-24.2,24.2ZM213.8,5h0c-12.9,0-25.1,5-34.2,14.2-9.1,9.1-14.2,21.3-14.2,34.2s1.5,13.8,4.4,20.2l4.3-2-4.3,2c.8,1.6,1.6,3.3,2.5,4.8v.2c0,0,37.5,55.3,37.5,55.3,1.5,2.2,4.4,2.7,6.6,1.3.5-.3.9-.8,1.3-1.3l37.3-55.3s0,0,.1-.2c4.6-7.5,7-16.2,7-25,0-26.7-21.7-48.3-48.3-48.3h0ZM213.8,77.6c-13.4,0-24.2-10.9-24.2-24.2s10.9-24.2,24.2-24.2,24.2,10.9,24.2,24.2-10.9,24.2-24.2,24.2ZM100.7,125.2c-26.7,0-48.3,21.7-48.3,48.3s1.5,13.8,4.4,20.2c.8,1.6,1.6,3.3,2.5,4.8,0,0,0,.1,0,.2l37.3,55.3c1.5,2.2,4.4,2.7,6.6,1.3.5-.3.9-.8,1.3-1.3l37.3-55.3s0-.1,0-.2c4.6-7.5,7-16.2,7-25,0-26.7-21.7-48.3-48.3-48.3ZM100.7,197.7c-13.4,0-24.2-10.9-24.2-24.2s10.9-24.2,24.2-24.2,24.2,10.9,24.2,24.2-10.9,24.2-24.2,24.2ZM209.1,223.6c-26.7,0-48.3,21.7-48.3,48.3s1.5,13.8,4.4,20.2l4.3-2-4.3,2c.8,1.6,1.6,3.3,2.5,4.8,0,0,0,.1,0,.2l37.3,55.3c1.5,2.2,4.4,2.7,6.6,1.3.5-.3.9-.8,1.3-1.3l37.3-55.3s0-.1.1-.2c4.6-7.5,7-16.2,7-25,0-26.7-21.7-48.3-48.3-48.3h0ZM209.1,296.1c-13.4,0-24.2-10.9-24.2-24.2s10.9-24.2,24.2-24.2,24.2,10.9,24.2,24.2-10.9,24.2-24.2,24.2Z" data-original="#3366ff"/>
  <path class="st0" d="M401.7,298.5c-4.7-12.2-22.1-20.1-44.1-20.1s-39.3,7.9-44.1,20.1c-3.5,8.9,4.2,22.6,9.4,30.5-4.3,2.6-7.1,7.2-7.1,12.5,0,8.1,6.6,14.6,14.6,14.6h54.3c8.1,0,14.6-6.6,14.6-14.6s-2.9-10-7.1-12.5c5.3-7.9,12.9-21.6,9.4-30.5h.1ZM384.7,346.7h-54.3c-2.9,0-5.2-2.3-5.2-5.2s2.3-5.2,5.2-5.2h54.3c2.9,0,5.2,2.3,5.2,5.2s-2.3,5.2-5.2,5.2ZM382.2,326.9h-49.3c-5.9-8.2-12.4-20.5-10.6-25,2.6-6.8,14.8-14.1,35.3-14.1s32.6,7.3,35.3,14.1h0c1.1,2.9-1.6,12.6-10.6,25h0Z" data-original="#231f20"/>
</svg>