<?xml version="1.0" encoding="UTF-8"?>
<svg id="Layer_1" xmlns="http://www.w3.org/2000/svg" version="1.1" viewBox="0 0 405 500">
  <!-- Generator: Adobe Illustrator 30.5.1, SVG Export Plug-In . SVG Version: 2.1.4 Build 3)  -->
  <path d="M230.9,241.9c4.6.6,7,3.9,9.8,7.7,2.9,4,7.1,9.7,14.6,9.7s5-.5,7.9-1.8c11.8-4.8,13.9-14.2,15.6-21,1.2-5.2,2.1-8.4,5.2-10.4,5.1-3.2,8.3-7.7,9.3-13,1.7-7.8-1.1-17-8-27.5-9.7-14.4-21.5-21.8-31.7-19.7-7.1,1.4-12.1,7.2-13.7,15.4-1.9,9.9-5.8,11.8-13.7,15.6-2.4,1.2-5.1,2.5-8,4.1-6.4,3.8-9.3,11.3-7.7,19.9,1.9,9.1,9,19.3,20.4,20.9h0ZM223,209.4c2.6-1.5,5-2.6,7.3-3.8,8.3-4,16-7.7,18.9-22.3.5-2.6,2-7.1,6.4-8,.6-.1,1.2-.1,1.8-.1,7.1,0,15.2,8.3,20.3,15.9,5.3,8,7.7,15.2,6.6,20.3-.6,2.8-2.4,5.2-5.2,7-6.4,4.1-7.9,10.5-9.2,16.2-1.5,6.4-2.7,11.4-9.9,14.4-6,2.5-7.5.5-11.3-4.7-3.2-4.4-7.5-10.4-16.2-11.6-6.5-.8-11.2-7.4-12.4-13.2-.6-2.2-1.2-7.5,2.9-10h0Z"/>
  <path d="M346.1,159.2c13.3,0,24.2-10.8,24.2-24.2s-10.8-24.2-24.2-24.2-24.2,10.8-24.2,24.2,10.8,24.2,24.2,24.2ZM346.1,120.2c8.1,0,14.7,6.6,14.7,14.7s-6.6,14.7-14.7,14.7-14.7-6.6-14.7-14.7,6.6-14.7,14.7-14.7Z"/>
  <path d="M185.7,48.1c0-13.3-10.8-24.2-24.2-24.2s-24.2,10.8-24.2,24.2,10.8,24.2,24.2,24.2,24.2-10.8,24.2-24.2ZM146.8,48.1c0-8.1,6.6-14.7,14.7-14.7s14.7,6.6,14.7,14.7-6.6,14.7-14.7,14.7-14.7-6.6-14.7-14.7Z"/>
  <path d="M156.8,242.5c-13.3,0-24.2,10.8-24.2,24.2s10.8,24.2,24.2,24.2,24.2-10.8,24.2-24.2-10.8-24.2-24.2-24.2h0ZM156.8,281.4c-8.1,0-14.7-6.6-14.7-14.7s6.6-14.7,14.7-14.7,14.7,6.6,14.7,14.7-6.6,14.7-14.7,14.7Z"/>
  <path d="M72.8,168.3c0-13.3-10.8-24.2-24.2-24.2s-24.2,10.8-24.2,24.2,10.8,24.2,24.2,24.2,24.2-10.8,24.2-24.2ZM33.8,168.3c0-8.1,6.6-14.7,14.7-14.7s14.7,6.6,14.7,14.7-6.6,14.7-14.7,14.7-14.7-6.6-14.7-14.7Z"/>
  <path d="M395.2,453.2c.8-7.1,2-24.4-3.3-43.9-3.4-12.7-15.1-29.1-25.9-42.5,12.1-21.7,19.8-45.8,22.6-70.5v-.2c.1-.6.1-1.2.1-1.7.1-.7.1-1.5.2-2.2.1-1.1.2-2.1.2-3.3.1-.8.1-1.7.1-2.5.1-1.2.1-2.2.1-3.4s.1-1.5.1-2.2c0-1.9.1-3.8.1-5.5,0-30.2-7.3-60.3-21.1-86.8,0-.1-.1-.1-.1-.1l18.9-27.9c0-.1.1-.1.1-.2,4.6-7.5,7-16.2,7-25,0-26.7-21.7-48.3-48.3-48.3s-36.9,12-44.3,29.1c-18.3-11.6-38.2-19.8-59-24.4h-.2c-13.4-3.1-27.4-4.6-41.4-4.6s-5,0-7.5.1l9.1-13.4c0-.1.1-.1.1-.2,4.6-7.5,7-16.2,7-25,0-26.7-21.7-48.3-48.3-48.3s-25,5.1-34.2,14.2c-9.1,9.1-14.2,21.2-14.2,34.2s1.5,13.8,4.4,20.2l4.2-2-4.2,2c.8,1.7,1.7,3.3,2.6,4.8,0,.1.1.1.1.2l16.6,24.5c-21,7.7-40.2,18.8-57.4,33.3-8.4-7-19.2-11.2-30.9-11.2-26.7,0-48.3,21.7-48.3,48.3s1.5,13.8,4.4,20.2c.8,1.7,1.7,3.3,2.6,4.8,0,.1.1.1.1.2l15.1,22.3c-.1.4-.4.6-.5.9-6.1,18.7-9.2,38.4-9.2,58.4s0,3.4.1,5.1c0,.5,0,1.1.1,1.5,0,1.2.1,2.4.1,3.5s.1,1.2.1,1.9c.1,1.1.1,2.1.2,3.2,0,.7.1,1.3.1,2,.1,1.1.2,2,.2,3.1.1.7.1,1.4.2,2.1.1.9.2,1.9.4,2.8.1.7.2,1.5.4,2.2.1.8.2,1.8.4,2.6s.2,1.7.4,2.4c.1.8.2,1.5.5,2.4.1.9.4,1.8.5,2.7l.4,1.8c.2,1.1.5,2.1.7,3.2.1.4.1.6.2.9,9.3,39.5,31.1,75.4,63.2,101.9.2.2.5.4.7.5,32.5,26.8,74.2,42.9,119.6,42.9s3.7,0,5.5-.1c-1.3,3.3-1.9,7.3-.9,11.9s3.4,8.1,7.1,10.3c5.8,3.4,13.1,2.5,16.7,1.8,6.1,3.2,27.5,12.1,75.6,12.1s69.5-8.8,75.6-12.1c3.5.8,10.8,1.7,16.7-1.8,3.7-2.1,6.1-5.8,7.1-10.3,2.6-11.4-3.8-19-9.2-22.6h0ZM380.3,275.1c0,1.7,0,3.3-.1,5v1.5c0,1.4-.1,2.8-.2,4.2,0,.4,0,.7-.1,1.1-.1,1.2-.2,2.4-.2,3.7-6.6-1.1-11.7-5.1-13.1-9.1-5.8-16.4-13-21.1-31.8-21.1s-17.2-7.3-21.5-14.6c-2.9-5.2-3.7-10.1-1.9-13.2.8-1.3,1.5-2.6,2.4-3.9,5.7-9.3,11.6-18.9,9.3-41.9l19.2,28.5c.8,1.3,2.4,2.1,3.9,2.1s3.1-.8,3.9-2.1l12.4-18.4c11.8,24.3,17.9,51.2,17.9,78.2h0ZM346.1,96.1c21.5,0,38.9,17.5,38.9,38.9s-1.9,14-5.5,20l-33.4,49.4-33.4-49.4c-.7-1.2-1.4-2.5-2-3.8-2.4-5.1-3.5-10.6-3.5-16.3.1-21.5,17.6-38.9,38.9-38.9h0ZM128.2,68.2c-.7-1.2-1.4-2.5-2-3.8-2.4-5.1-3.5-10.6-3.5-16.3,0-10.4,4-20.2,11.4-27.5,7.3-7.3,17.1-11.4,27.5-11.4,21.5,0,38.9,17.5,38.9,38.9s-1.9,14-5.5,20l-33.4,49.4-33.4-49.4ZM142.3,106l15.3,22.6c.8,1.3,2.4,2.1,3.9,2.1s3.1-.8,3.9-2.1l21.6-32.1c4.7-.4,9.4-.6,14.2-.6,11.9,0,23.6,1.2,35.1,3.4-1.2,4.5-3.7,5.8-4.6,6.1l-1.8.8c-14.7,7-26.4,12.5-27.2,27.2-.2,4.6-6,8.7-11.6,10.5-5.1,1.7-8.5.9-9.3,0-4.5-5.7-13.6-9-21.6-7.9-7.2.9-12.7,5.1-15.7,11.8-1.7,3.7-4.7,5.5-8.4,5.1-4.4-.6-10.1-4.7-11.9-15-2.2-12.7-10.5-14.9-15.4-16-.2,0-.4-.1-.6-.1,10.7-6.4,22.1-11.8,34.1-15.9h0ZM15.2,188.3c-.7-1.2-1.4-2.5-2-3.8-2.4-5.1-3.5-10.6-3.5-16.3,0-21.5,17.5-38.9,38.9-38.9s38.9,17.5,38.9,38.9-1.9,14-5.5,20l-33.4,49.4-33.4-49.4ZM84.1,397.9c.8,5.4.7,9.4-.6,12.1-26.8-23.3-46.5-54.5-55.7-89.9,0-.2-.1-.4-.1-.6-.4-1.2-.6-2.4-.8-3.4-.1-.4-.2-.8-.2-1.2-.2-.9-.5-2-.7-3.1-.1-.6-.2-1.2-.4-1.7-.1-.8-.4-1.8-.5-2.6-.1-.7-.2-1.4-.4-2.1-.1-.8-.2-1.5-.4-2.4s-.2-1.7-.4-2.4-.2-1.4-.4-2.1c-.1-.8-.2-1.8-.4-2.6-.1-.7-.1-1.3-.2-2-.1-.9-.2-1.9-.2-2.8s-.1-1.2-.1-1.8c-.1-.9-.1-2-.2-3.1,0-.6-.1-1.2-.1-1.7,0-1.1-.1-2.2-.1-3.3v-1.4c0-1.5-.1-3.2-.1-4.7,0-16.9,2.4-33.5,7-49.4l15.6,23.1c.8,1.3,2.4,2.1,3.9,2.1s3.1-.8,3.9-2.1l37.3-55.3c0-.1.1-.1.1-.2.5-.8.9-1.5,1.3-2.4,2.5,2.9,4.4,6,6.1,8.8,3.7,5.9,7.3,12,15.7,15.9,5.9,2.7,12.4,6.3,15.9,11.6-12.4,8.7-20.4,23.1-20.4,39.4s.6,8.3,1.5,12.1c-.5.2-1.1.5-1.5.7-5,2.1-9.9,3.5-14.6,4.8-10.7,2.9-20.8,5.7-26.4,16.2-7.9,14.6-2.9,41.6,8.8,48.2,1.9,1.1,4.1,2.1,6.6,3.3,8.1,3.9,20.4,9.7,19.9,16.2-.2,2.4-2,3.7-6.3,6.2-6,3.3-14.9,8.6-12.5,23.2h0ZM136.3,348.3c-3.3-7.2-1.2-14.4,5.1-18.3l11.4,17c.8,1.3,2.4,2.1,3.9,2.1s3.1-.8,3.9-2.1l10.6-15.8c7.3,5.4,10.6,15.3,7.7,23.3-2,5.4-5.7,8.3-10.3,12-5.3,4.2-11.3,9.1-15.6,18.6-2.7,6.2-7.8,7.8-11.7,6.5-2.9-.9-5.7-3.8-4.5-8.8.6-2.8,1.3-5.1,1.8-7.2,2.9-10.1,3.7-14.4-2.4-27.4h0ZM156.8,336.1l-33.4-49.4c-.7-1.2-1.4-2.5-2-3.8-2.4-5.1-3.5-10.6-3.5-16.3,0-21.5,17.5-38.9,38.9-38.9s38.9,17.5,38.9,38.9-1.9,14-5.5,20l-33.4,49.4ZM214.2,453.8c-4.2.4-8.6.5-12.9.5-41.6,0-80-14.3-110.4-38.1,3.1-4.6,3.9-11.2,2.5-19.7-1.3-8.3,2.4-10.5,7.9-13.8,4.5-2.7,10.1-6.1,10.8-13.6,1.1-12.9-14.2-20.2-25.2-25.5-2.2-1.1-4.5-2.1-6-2.9-6.1-3.4-11.2-24.2-5.1-35.5,3.8-7,11.2-9,20.6-11.6,4.8-1.3,10.5-2.8,15.9-5.3.4-.1.7-.4,1.1-.5.7,1.3,1.3,2.7,2.1,3.9,0,.1.1.1.1.2l20.5,30.4c-10,6.4-13.6,18.7-8.4,30.1,4.8,10.5,4.4,12.4,2,21.1-.6,2.1-1.2,4.5-1.9,7.4-2.1,9,2.4,17.2,10.7,19.9,1.8.6,3.7.9,5.7.9,6.6,0,13.8-3.5,17.7-12.5,3.2-7.4,7.9-11.1,12.7-15.1,5.1-4,10.3-8.3,13.2-16,4.5-12.1-.2-26.5-11.2-34.4l21.5-31.7c0-.1.1-.1.1-.2,4.6-7.5,7-16.2,7-25,0-26.7-21.7-48.3-48.3-48.3s-13.7,1.5-19.7,4.2c-4.8-7.5-12.9-12-20.2-15.4-5.7-2.7-8.1-6.7-11.6-12.3-2.5-4-5.3-8.6-9.9-13.3l-.4-.4c1.2-4.2,1.8-8.6,1.8-13,0-11.4-4-22.1-10.7-30.3,4.1-3.4,8.4-6.7,12.7-9.8,2.4,1.9,5.3,2.6,7.7,3.2,4.5,1.2,7.3,1.8,8.5,8.5,2.6,15.3,12.5,21.8,20,22.8.7.1,1.4.1,2.1.1,7,0,13-4,15.9-10.7,1.5-3.5,4.4-5.7,8.3-6.3,5.3-.7,10.7,1.8,13,4.5,3.7,4.6,11.2,5.8,19.6,3.2,8.6-2.7,17.6-9.7,18-19,.5-8.7,7.1-12.3,21.9-19.2l1.8-.8c3.7-1.8,8-5.3,9.8-12.6,18.7,4.8,36.8,12.6,53.2,23.3,0,0,.1,0,.1.1-.7,3.2-1.1,6.6-1.1,10,0,7.1,1.5,13.8,4.4,20.2.8,1.7,1.7,3.3,2.6,4.8,0,.1.1.1.1.2l6.8,10.3h0c0,3.3.2,6.6.8,9.9,4.1,25.7-.9,34-7,43.6-.8,1.3-1.7,2.7-2.5,4-3.5,6.1-2.8,14.4,1.9,22.6,5.5,9.6,16.9,19.3,29.6,19.3s18.6,2.9,22.9,14.7c2.8,8,11.2,13.9,21,15.3-2.8,20.6-9.3,40.8-19.1,59.2-6.8-7.9-12.5-13.8-14.3-15.7,1.2-2.1,1.9-4.6,1.9-7.2,0-5.3-2.8-10-7.1-12.5,5.3-7.9,12.9-21.6,9.4-30.5-4.7-12.1-22.1-20-44.1-20s-39.3,7.9-44.1,20c-3.4,8.8,4.1,22.6,9.4,30.5-4.2,2.6-7.1,7.2-7.1,12.5s.7,5.1,1.9,7.2c-5.1,5.3-40.3,42.1-46.8,65.9-5.3,19.5-4.1,36.8-3.3,43.9-.2.1-.5.4-.8.6-.1-.6-.2-.6-.4-.6h0ZM329.8,321.6h-49.3c-5.9-8.3-12.4-20.5-10.6-25,2.6-6.7,14.7-14,35.3-14s32.7,7.3,35.3,14c1.2,2.8-1.5,12.6-10.6,25ZM337.6,336.2c0,2.8-2.4,5.2-5.2,5.2h-54.2c-2.8,0-5.2-2.4-5.2-5.2s2.4-5.2,5.2-5.2h54.2c2.8,0,5.2,2.4,5.2,5.2ZM395.4,473.5c-.6,2.6-1.8,3.5-2.6,4.1-3.4,2-9.4.8-11.2.4-1.3-.5-2.8-.2-4,.6,0,0-4.6,2.9-15.7,5.8-10.3,2.7-28.4,5.8-56.6,5.8s-46.3-3.2-56.6-5.8c-11.1-2.8-15.6-5.8-15.6-5.8-.8-.6-1.8-.8-2.7-.8s-.9.1-1.4.2c-1.9.6-7.9,1.7-11.2-.4-.8-.5-2.1-1.5-2.6-4.1-1.9-9.1,6.2-13.1,7.2-13.4,2-.8,3.2-3.1,2.7-5.2,0-.2-3.5-20.3,2.7-43,5.5-20.3,36.7-53.8,43.6-61h67.7c7,7.2,38.1,40.7,43.6,61,6.2,22.8,2.7,42.7,2.7,43-.4,2.1.7,4.2,2.7,5.2.4.2,9.1,4.1,7.2,13.4h0Z"/>
  <path d="M304.2,400.8c.6-.6,1.7-1.3,4-1.3s3.9.9,4.1,1.4c1.1,1.3,1.8,3.4,2,6.1.2,3.2,2.9,5.5,6.1,5.3s5.5-2.9,5.3-6.1c-.4-5.3-2-9.6-4.7-12.7-1.3-1.5-3.5-3.3-6.6-4.4v-3.5c0-3.2-2.6-5.8-5.8-5.8s-5.8,2.6-5.8,5.8v3.3c-2.5.7-4.7,1.9-6.6,3.7-2.2,2-4.8,5.8-4.8,12.1s.9,6.7,2.6,9.8c1.5,2.6,3.5,5.1,6.1,7.5l2.6,2.5s0,.1.1.1l3.3,3.1c1.8,1.7,3.2,3.3,4.1,5,.7,1.2,1.1,2.5,1.1,3.9,0,2.7-.8,3.5-1.2,3.8-.6.6-1.7,1.3-4,1.3s-3.9-.9-4.1-1.4c-1.1-1.3-1.8-3.4-2-6.1-.2-3.2-2.9-5.5-6.1-5.3s-5.5,2.9-5.3,6.1c.4,5.3,2,9.6,4.7,12.7,1.3,1.5,3.5,3.3,6.6,4.4v3.5c0,3.2,2.6,5.8,5.8,5.8s5.8-2.6,5.8-5.8v-3.3c2.5-.7,4.7-1.9,6.6-3.7,2.2-2,4.8-5.8,4.8-12.1s-.9-6.7-2.6-9.8c-1.5-2.6-3.5-5.1-6.1-7.5l-2.6-2.5h-.1c0-.1-3.3-3.2-3.3-3.2-1.8-1.7-3.2-3.4-4.1-5-.7-1.2-1.1-2.5-1.1-3.9,0-2.7.9-3.5,1.2-3.8Z"/>
</svg>