<?xml version="1.0" encoding="UTF-8"?>
<svg id="Capa_1" xmlns="http://www.w3.org/2000/svg" version="1.1" viewBox="0 0 480 472.9">
  <!-- Generator: Adobe Illustrator 30.5.1, SVG Export Plug-In . SVG Version: 2.1.4 Build 3)  -->
  <defs>
    <style>
      .st0 {
        fill: #fff;
      }
    </style>
  </defs>
  <g id="Page-1">
    <g id="finance_and_pointers_export">
      <path id="patterns_x2C_-decorative_x2C_-design_x2C_-materials_x2C_-elements_x2C_-textures" class="st0" d="M437.5,70.6v70.6h28.2c7.8,0,14.2,6.3,14.2,14.2s-6.3,14.2-14.2,14.2h-28.2v28.2c0,7.8-6.3,14.2-14.2,14.2s-14.2-6.3-14.2-14.2v-28.2h-70.6v28.2c0,7.8-6.3,14.2-14.2,14.2s-14.2-6.3-14.2-14.2v-28.2h-28.2c-7.8,0-14.2-6.3-14.2-14.2s6.3-14.2,14.2-14.2h28.2v-70.6h-28.2c-7.8,0-14.2-6.3-14.2-14.2s6.3-14.2,14.2-14.2h28.2V14.2c.2-7.9,6.5-14.2,14.3-14.2s14.2,6.3,14.2,14.2v28.2h70.6V14.2c0-7.9,6.2-14.2,14.1-14.2s14.2,6.3,14.2,14.2v28.2h28.2c7.8,0,14.2,6.3,14.2,14.2s-6.3,14.2-14.2,14.2h-28.3ZM409.3,70.6h-70.6v70.6h70.6v-70.6ZM64.3,54.1c-4.8,3.2-10.9,3.2-15.7,0L6.3,25.9C-.2,21.6-2,12.8,2.4,6.3,6.7-.1,15.5-1.9,21.9,2.4l34.5,23L91,2.4c4.8-3.2,10.9-3.2,15.7,0l34.5,23L175.7,2.4c6.5-4.3,15.3-2.5,19.6,3.9,4.3,6.5,2.5,15.3-3.9,19.6l-42.4,28.2c-4.8,3.2-10.9,3.2-15.7,0l-34.5-23s-34.5,23-34.5,23ZM64.3,131.7c-4.8,3.2-10.9,3.2-15.7,0L6.3,103.5c-6.5-4.3-8.2-13.1-3.9-19.6,4.3-6.5,13.1-8.2,19.6-3.9l34.5,23,34.5-23c4.8-3.2,10.9-3.2,15.7,0l34.5,23,34.5-23c6.5-4.3,15.3-2.5,19.6,3.9s2.5,15.3-3.9,19.6l-42.4,28.2c-4.8,3.2-10.9,3.2-15.7,0l-34.5-23-34.5,23h0ZM98.8,186.4l-34.5,23c-4.8,3.2-10.9,3.2-15.7,0l-42.4-28.2c-6.5-4.3-8.2-13.1-3.9-19.6,4.3-6.5,13.1-8.2,19.6-3.9l34.5,23,34.5-23c4.8-3.2,10.9-3.2,15.7,0l34.5,23,34.5-23c6.5-4.3,15.3-2.5,19.6,3.9s2.5,15.3-3.9,19.6l-42.4,28.2c-4.8,3.2-10.9,3.2-15.7,0l-34.5-23h0ZM279.4,272.3c5.5-5.5,14.4-5.5,20,0,5.5,5.5,5.5,14.4,0,20l-7,7c-5.5,5.5-14.4,5.5-20,0s-5.5-14.4,0-20l7-7ZM14.2,465.8c-7.9,0-14.2-6.3-14.2-14.1s6.3-14.2,14.2-14.2,14.2,6.3,14.2,14.2-6.3,14.2-14.2,14.2h0ZM14.2,381.2c-7.9,0-14.2-6.4-14.2-14.2s6.3-14.2,14.2-14.2,14.2,6.3,14.2,14.2-6.3,14.2-14.2,14.2ZM14.2,296.4c-7.9,0-14.2-6.3-14.2-14.1s6.3-14.2,14.2-14.2,14.2,6.3,14.2,14.2-6.3,14.2-14.2,14.2h0ZM98.8,465.8c-7.8,0-14.2-6.3-14.2-14.2s6.3-14.2,14.2-14.2,14.2,6.3,14.2,14.2-6.3,14.2-14.2,14.2ZM98.8,381.2c-7.8,0-14.2-6.3-14.2-14.2s6.3-14.2,14.2-14.2,14.2,6.3,14.2,14.2-6.3,14.2-14.2,14.2ZM98.8,296.4c-7.8,0-14.2-6.3-14.2-14.2s6.3-14.2,14.2-14.2,14.2,6.3,14.2,14.2-6.3,14.2-14.2,14.2ZM56.4,338.8c-7.8,0-14.2-6.3-14.2-14.2s6.3-14.2,14.2-14.2,14.2,6.3,14.2,14.2-6.3,14.2-14.2,14.2ZM141.2,338.8c-7.8,0-14.2-6.3-14.2-14.2s6.3-14.2,14.2-14.2,14.2,6.3,14.2,14.2-6.3,14.2-14.2,14.2ZM56.4,423.5c-7.8,0-14.2-6.3-14.2-14.2s6.3-14.2,14.2-14.2,14.2,6.3,14.2,14.2-6.3,14.2-14.2,14.2ZM141.2,423.5c-7.8,0-14.2-6.3-14.2-14.2s6.3-14.2,14.2-14.2,14.2,6.3,14.2,14.2-6.3,14.2-14.2,14.2ZM183.5,465.8c-7.8,0-14.2-6.3-14.2-14.2s6.3-14.2,14.2-14.2,14.2,6.3,14.2,14.2-6.3,14.2-14.2,14.2ZM183.5,381.2c-7.8,0-14.2-6.3-14.2-14.2s6.3-14.2,14.2-14.2,14.2,6.3,14.2,14.2-6.3,14.2-14.2,14.2ZM183.5,296.4c-7.8,0-14.2-6.3-14.2-14.2s6.3-14.2,14.2-14.2,14.2,6.3,14.2,14.2-6.3,14.2-14.2,14.2ZM448.8,441.7c5.5-5.5,14.4-5.5,20,0,5.5,5.5,5.5,14.4,0,20l-7,7c-5.5,5.5-14.4,5.5-20,0-5.5-5.5-5.5-14.4,0-20l7-7ZM448.8,272.3c5.5-5.5,14.4-5.5,20,0s5.5,14.4,0,20l-176.4,176.4c-5.5,5.5-14.4,5.5-20,0-5.5-5.5-5.5-14.4,0-20l176.4-176.4ZM364.1,272.3c5.5-5.5,14.4-5.5,20,0s5.5,14.4,0,20l-91.8,91.8c-5.5,5.5-14.4,5.5-20,0-5.5-5.5-5.5-14.4,0-20l91.8-91.8ZM448.8,357.1c5.5-5.5,14.4-5.5,20,0,5.5,5.5,5.5,14.4,0,20l-91.8,91.8c-5.5,5.5-14.4,5.5-20,0-5.5-5.5-5.5-14.4,0-20l91.8-91.8Z"/>
    </g>
  </g>
</svg>