<?xml version="1.0" encoding="UTF-8"?>
<svg id="Capa_1" xmlns="http://www.w3.org/2000/svg" version="1.1" viewBox="0 0 480 472.9">
  <!-- Generator: Adobe Illustrator 30.5.1, SVG Export Plug-In . SVG Version: 2.1.4 Build 3)  -->
  <g id="Page-1">
    <g id="finance_and_pointers_export">
      <path id="patterns_x2C_-decorative_x2C_-design_x2C_-materials_x2C_-elements_x2C_-textures" d="M437.6,70.6v70.6h28.2c7.8,0,14.1,6.3,14.1,14.1s-6.3,14.1-14.1,14.1h-28.2v28.2c0,7.8-6.3,14.1-14.1,14.1s-14.1-6.3-14.1-14.1v-28.2h-70.6v28.2c0,7.8-6.3,14.1-14.1,14.1s-14.1-6.3-14.1-14.1v-28.2h-28.2c-7.8,0-14.1-6.3-14.1-14.1s6.3-14.1,14.1-14.1h28.2v-70.6h-28.2c-7.8,0-14.1-6.3-14.1-14.1s6.3-14.1,14.1-14.1h28.2V14.1C310.6,6.3,316.9,0,324.7,0s14.1,6.3,14.1,14.1v28.2h70.6V14.1C409.4,6.3,415.7,0,423.5,0s14.1,6.3,14.1,14.1v28.2h28.2c7.8,0,14.1,6.3,14.1,14.1s-6.3,14.1-14.1,14.1h-28.2ZM409.4,70.6h-70.6v70.6h70.6v-70.6ZM64.3,54.1c-4.7,3.2-10.9,3.2-15.7,0L6.3,25.9C-.2,21.5-2,12.8,2.4,6.3,6.7-.2,15.5-2,22,2.4l34.5,23L91,2.4c4.7-3.2,10.9-3.2,15.7,0l34.5,23L175.7,2.4c6.5-4.3,15.3-2.6,19.6,3.9s2.6,15.3-3.9,19.6l-42.4,28.2c-4.7,3.2-10.9,3.2-15.7,0l-34.5-23-34.5,23ZM64.3,131.7c-4.7,3.2-10.9,3.2-15.7,0L6.3,103.5c-6.5-4.3-8.2-13.1-3.9-19.6,4.3-6.5,13.1-8.2,19.6-3.9l34.5,23,34.5-23c4.7-3.2,10.9-3.2,15.7,0l34.5,23,34.5-23c6.5-4.3,15.3-2.6,19.6,3.9s2.6,15.3-3.9,19.6l-42.4,28.2c-4.7,3.2-10.9,3.2-15.7,0l-34.5-23-34.5,23ZM98.8,186.4l-34.5,23c-4.7,3.2-10.9,3.2-15.7,0l-42.4-28.2c-6.5-4.3-8.2-13.1-3.9-19.6,4.3-6.5,13.1-8.2,19.6-3.9l34.5,23,34.5-23c4.7-3.2,10.9-3.2,15.7,0l34.5,23,34.5-23c6.5-4.3,15.3-2.6,19.6,3.9s2.6,15.3-3.9,19.6l-42.4,28.2c-4.7,3.2-10.9,3.2-15.7,0l-34.5-23ZM279.4,272.4c5.5-5.5,14.5-5.5,20,0,5.5,5.5,5.5,14.5,0,20l-7.1,7.1c-5.5,5.5-14.5,5.5-20,0-5.5-5.5-5.5-14.5,0-20l7.1-7.1ZM14.1,465.9C6.3,465.9,0,459.6,0,451.8s6.3-14.1,14.1-14.1,14.1,6.3,14.1,14.1-6.3,14.1-14.1,14.1ZM14.1,381.2C6.3,381.2,0,374.9,0,367.1s6.3-14.1,14.1-14.1,14.1,6.3,14.1,14.1-6.3,14.1-14.1,14.1ZM14.1,296.5C6.3,296.5,0,290.2,0,282.4s6.3-14.1,14.1-14.1,14.1,6.3,14.1,14.1-6.3,14.1-14.1,14.1ZM98.8,465.9c-7.8,0-14.1-6.3-14.1-14.1s6.3-14.1,14.1-14.1,14.1,6.3,14.1,14.1-6.3,14.1-14.1,14.1ZM98.8,381.2c-7.8,0-14.1-6.3-14.1-14.1s6.3-14.1,14.1-14.1,14.1,6.3,14.1,14.1-6.3,14.1-14.1,14.1ZM98.8,296.5c-7.8,0-14.1-6.3-14.1-14.1s6.3-14.1,14.1-14.1,14.1,6.3,14.1,14.1-6.3,14.1-14.1,14.1ZM56.5,338.8c-7.8,0-14.1-6.3-14.1-14.1s6.3-14.1,14.1-14.1,14.1,6.3,14.1,14.1-6.3,14.1-14.1,14.1ZM141.2,338.8c-7.8,0-14.1-6.3-14.1-14.1s6.3-14.1,14.1-14.1,14.1,6.3,14.1,14.1-6.3,14.1-14.1,14.1ZM56.5,423.5c-7.8,0-14.1-6.3-14.1-14.1s6.3-14.1,14.1-14.1,14.1,6.3,14.1,14.1-6.3,14.1-14.1,14.1ZM141.2,423.5c-7.8,0-14.1-6.3-14.1-14.1s6.3-14.1,14.1-14.1,14.1,6.3,14.1,14.1-6.3,14.1-14.1,14.1ZM183.5,465.9c-7.8,0-14.1-6.3-14.1-14.1s6.3-14.1,14.1-14.1,14.1,6.3,14.1,14.1-6.3,14.1-14.1,14.1ZM183.5,381.2c-7.8,0-14.1-6.3-14.1-14.1s6.3-14.1,14.1-14.1,14.1,6.3,14.1,14.1-6.3,14.1-14.1,14.1ZM183.5,296.5c-7.8,0-14.1-6.3-14.1-14.1s6.3-14.1,14.1-14.1,14.1,6.3,14.1,14.1-6.3,14.1-14.1,14.1ZM448.8,441.8c5.5-5.5,14.5-5.5,20,0,5.5,5.5,5.5,14.5,0,20l-7.1,7.1c-5.5,5.5-14.5,5.5-20,0-5.5-5.5-5.5-14.5,0-20l7.1-7.1ZM448.8,272.4c5.5-5.5,14.5-5.5,20,0,5.5,5.5,5.5,14.5,0,20l-176.5,176.5c-5.5,5.5-14.5,5.5-20,0-5.5-5.5-5.5-14.5,0-20l176.5-176.5ZM364.1,272.4c5.5-5.5,14.5-5.5,20,0,5.5,5.5,5.5,14.5,0,20l-91.8,91.8c-5.5,5.5-14.5,5.5-20,0-5.5-5.5-5.5-14.5,0-20l91.8-91.8ZM448.8,357.1c5.5-5.5,14.5-5.5,20,0,5.5,5.5,5.5,14.5,0,20l-91.8,91.8c-5.5,5.5-14.5,5.5-20,0-5.5-5.5-5.5-14.5,0-20l91.8-91.8Z"/>
    </g>
  </g>
</svg>