<?xml version="1.0" encoding="UTF-8"?>
<svg id="Capa_1" xmlns="http://www.w3.org/2000/svg" version="1.1" viewBox="0 0 510 510">
  <!-- Generator: Adobe Illustrator 30.5.1, SVG Export Plug-In . SVG Version: 2.1.4 Build 3)  -->
  <g id="Page-1">
    <g id="finance_and_pointers_export">
      <path id="patterns_x2C_-decorative_x2C_-design_x2C_-materials_x2C_-elements_x2C_-textures" d="M452.6,89.2v70.6h28.2c7.8,0,14.1,6.3,14.1,14.1s-6.3,14.1-14.1,14.1h-28.2v28.2c0,7.8-6.3,14.1-14.1,14.1s-14.1-6.3-14.1-14.1v-28.2h-70.6v28.2c0,7.8-6.3,14.1-14.1,14.1s-14.1-6.3-14.1-14.1v-28.2h-28.2c-7.8,0-14.1-6.3-14.1-14.1s6.3-14.1,14.1-14.1h28.2v-70.6h-28.2c-7.8,0-14.1-6.3-14.1-14.1s6.3-14.1,14.1-14.1h28.2v-28.3c0-7.8,6.3-14.1,14.1-14.1s14.1,6.3,14.1,14.1v28.2h70.6v-28.2c0-7.8,6.3-14.1,14.1-14.1s14.1,6.3,14.1,14.1v28.2h28.2c7.8,0,14.1,6.3,14.1,14.1s-6.3,14.1-14.1,14.1h-28.2ZM424.4,89.2h-70.6v70.6h70.6v-70.6ZM79.3,72.7c-4.7,3.2-10.9,3.2-15.7,0l-42.3-28.2c-6.5-4.4-8.3-13.1-3.9-19.6,4.3-6.5,13.1-8.3,19.6-3.9l34.5,23,34.5-23c4.7-3.2,10.9-3.2,15.7,0l34.5,23,34.5-23c6.5-4.3,15.3-2.6,19.6,3.9s2.6,15.3-3.9,19.6l-42.4,28.2c-4.7,3.2-10.9,3.2-15.7,0l-34.5-23s-34.5,23-34.5,23ZM79.3,150.2c-4.7,3.2-10.9,3.2-15.7,0l-42.3-28.2c-6.5-4.3-8.2-13.1-3.9-19.6,4.3-6.5,13.1-8.2,19.6-3.9l34.5,23,34.5-23c4.7-3.2,10.9-3.2,15.7,0l34.5,23,34.5-23c6.5-4.3,15.3-2.6,19.6,3.9s2.6,15.3-3.9,19.6l-42.4,28.2c-4.7,3.2-10.9,3.2-15.7,0l-34.5-23-34.5,23ZM113.8,204.9l-34.5,23c-4.7,3.2-10.9,3.2-15.7,0l-42.4-28.2c-6.5-4.3-8.2-13.1-3.9-19.6,4.3-6.5,13.1-8.2,19.6-3.9l34.5,23,34.5-23c4.7-3.2,10.9-3.2,15.7,0l34.5,23,34.5-23c6.5-4.3,15.3-2.6,19.6,3.9s2.6,15.3-3.9,19.6l-42.4,28.2c-4.7,3.2-10.9,3.2-15.7,0l-34.5-23h0ZM294.4,290.9c5.5-5.5,14.5-5.5,20,0s5.5,14.5,0,20l-7.1,7.1c-5.5,5.5-14.5,5.5-20,0s-5.5-14.5,0-20l7.1-7.1ZM29.1,484.4c-7.8,0-14.1-6.3-14.1-14.1s6.3-14.1,14.1-14.1,14.1,6.3,14.1,14.1-6.3,14.1-14.1,14.1ZM29.1,399.8c-7.8,0-14.1-6.3-14.1-14.1s6.3-14.1,14.1-14.1,14.1,6.3,14.1,14.1-6.3,14.1-14.1,14.1ZM29.1,315.1c-7.8,0-14.1-6.3-14.1-14.1s6.3-14.1,14.1-14.1,14.1,6.3,14.1,14.1-6.3,14.1-14.1,14.1ZM113.8,484.4c-7.8,0-14.1-6.3-14.1-14.1s6.3-14.1,14.1-14.1,14.1,6.3,14.1,14.1-6.3,14.1-14.1,14.1ZM113.8,399.8c-7.8,0-14.1-6.3-14.1-14.1s6.3-14.1,14.1-14.1,14.1,6.3,14.1,14.1-6.3,14.1-14.1,14.1ZM113.8,315.1c-7.8,0-14.1-6.3-14.1-14.1s6.3-14.1,14.1-14.1,14.1,6.3,14.1,14.1-6.3,14.1-14.1,14.1ZM71.5,357.3c-7.8,0-14.1-6.3-14.1-14.1s6.3-14.1,14.1-14.1,14.1,6.3,14.1,14.1-6.3,14.1-14.1,14.1ZM156.2,357.3c-7.8,0-14.1-6.3-14.1-14.1s6.3-14.1,14.1-14.1,14.1,6.3,14.1,14.1-6.3,14.1-14.1,14.1ZM71.5,442.1c-7.8,0-14.1-6.3-14.1-14.1s6.3-14.1,14.1-14.1,14.1,6.3,14.1,14.1-6.3,14.1-14.1,14.1ZM156.2,442.1c-7.8,0-14.1-6.3-14.1-14.1s6.3-14.1,14.1-14.1,14.1,6.3,14.1,14.1-6.3,14.1-14.1,14.1ZM198.5,484.4c-7.8,0-14.1-6.3-14.1-14.1s6.3-14.1,14.1-14.1,14.1,6.3,14.1,14.1-6.3,14.1-14.1,14.1ZM198.5,399.8c-7.8,0-14.1-6.3-14.1-14.1s6.3-14.1,14.1-14.1,14.1,6.3,14.1,14.1-6.3,14.1-14.1,14.1ZM198.5,315.1c-7.8,0-14.1-6.3-14.1-14.1s6.3-14.1,14.1-14.1,14.1,6.3,14.1,14.1-6.3,14.1-14.1,14.1ZM463.8,460.3c5.5-5.5,14.5-5.5,20,0s5.5,14.5,0,20l-7.1,7.1c-5.5,5.5-14.5,5.5-20,0s-5.5-14.5,0-20l7.1-7.1ZM463.8,290.9c5.5-5.5,14.5-5.5,20,0s5.5,14.5,0,20l-176.5,176.5c-5.5,5.5-14.5,5.5-20,0s-5.5-14.5,0-20l176.5-176.5ZM379.1,290.9c5.5-5.5,14.5-5.5,20,0s5.5,14.5,0,20l-91.8,91.8c-5.5,5.5-14.5,5.5-20,0s-5.5-14.5,0-20l91.8-91.8h0ZM463.8,375.7c5.5-5.5,14.5-5.5,20,0s5.5,14.5,0,20l-91.8,91.8c-5.5,5.5-14.5,5.5-20,0s-5.5-14.5,0-20l91.8-91.8h0Z"/>
    </g>
  </g>
</svg>