<?xml version="1.0" encoding="UTF-8"?>
<!-- Generator: Adobe Illustrator 24.3.0, SVG Export Plug-In . SVG Version: 6.00 Build 0)  -->
<svg xmlns="http://www.w3.org/2000/svg" xmlns:xlink="http://www.w3.org/1999/xlink" version="1.1" id="Capa_1" x="0px" y="0px" viewBox="0 0 512.002 512.002" style="enable-background:new 0 0 512.002 512.002;" xml:space="preserve" width="512" height="512">
<g>
	<g id="Page-1_37_">
		<g id="finance_and_pointers_export_37_" transform="translate(-56.000000, -656.000000)">
			<path id="patterns_x2C_-decorative_x2C_-design_x2C_-materials_x2C_-elements_x2C_-textures" d="M522.825,735.06v75.294h30.118     c8.317,0,15.059,6.742,15.059,15.059s-6.742,15.059-15.059,15.059h-30.118v30.118c0,8.317-6.742,15.059-15.059,15.059     c-8.317,0-15.059-6.742-15.059-15.059v-30.118h-75.294v30.118c0,8.317-6.742,15.059-15.059,15.059     c-8.317,0-15.059-6.742-15.059-15.059v-30.118h-30.118c-8.317,0-15.059-6.742-15.059-15.059s6.742-15.059,15.059-15.059h30.118     V735.06h-30.118c-8.317,0-15.059-6.742-15.059-15.059s6.742-15.059,15.059-15.059h30.118v-30.118     c0-8.317,6.742-15.059,15.059-15.059c8.317,0,15.059,6.742,15.059,15.059v30.118h75.294v-30.118     c0-8.317,6.742-15.059,15.059-15.059c8.317,0,15.059,6.742,15.059,15.059v30.118h30.118c8.317,0,15.059,6.742,15.059,15.059     s-6.742,15.059-15.059,15.059H522.825z M492.707,735.06h-75.294v75.294h75.294V735.06z M124.59,717.473     c-5.058,3.372-11.648,3.372-16.706,0l-45.176-30.118c-6.92-4.614-8.79-13.963-4.177-20.883c4.613-6.92,13.963-8.79,20.883-4.177     l36.823,24.549l36.823-24.549c5.058-3.372,11.648-3.372,16.706,0l36.823,24.549l36.823-24.549     c6.92-4.613,16.27-2.743,20.883,4.177c4.613,6.92,2.743,16.269-4.177,20.883l-45.176,30.118c-5.058,3.372-11.648,3.372-16.706,0     l-36.823-24.549L124.59,717.473z M124.59,800.296c-5.058,3.372-11.648,3.372-16.706,0l-45.176-30.118     c-6.92-4.614-8.79-13.963-4.177-20.883c4.613-6.92,13.963-8.79,20.883-4.177l36.823,24.549l36.823-24.549     c5.058-3.372,11.648-3.372,16.706,0l36.823,24.549l36.823-24.549c6.92-4.613,16.27-2.743,20.883,4.177     c4.613,6.92,2.743,16.269-4.177,20.883l-45.176,30.118c-5.058,3.372-11.648,3.372-16.706,0l-36.823-24.549L124.59,800.296z      M161.413,858.571L124.59,883.12c-5.058,3.372-11.648,3.372-16.706,0l-45.176-30.118c-6.92-4.613-8.79-13.963-4.177-20.883     c4.613-6.92,13.963-8.79,20.883-4.177l36.823,24.549l36.823-24.549c5.058-3.372,11.648-3.372,16.706,0l36.823,24.549     l36.823-24.549c6.92-4.613,16.27-2.743,20.883,4.177c4.613,6.92,2.743,16.269-4.177,20.883l-45.176,30.118     c-5.058,3.372-11.648,3.372-16.706,0L161.413,858.571z M354.059,950.295c5.881-5.881,15.416-5.881,21.296,0     c5.881,5.88,5.881,15.415,0,21.296l-7.529,7.529c-5.881,5.881-15.416,5.881-21.296,0c-5.881-5.881-5.881-15.415,0-21.296     L354.059,950.295z M71.06,1156.708c-8.317,0-15.059-6.742-15.059-15.059s6.742-15.059,15.059-15.059s15.059,6.742,15.059,15.059     S79.377,1156.708,71.06,1156.708z M71.06,1066.355c-8.317,0-15.059-6.742-15.059-15.059s6.742-15.059,15.059-15.059     s15.059,6.742,15.059,15.059S79.377,1066.355,71.06,1066.355z M71.06,976.002c-8.317,0-15.059-6.742-15.059-15.059     s6.742-15.059,15.059-15.059s15.059,6.742,15.059,15.059S79.377,976.002,71.06,976.002z M161.413,1156.708     c-8.317,0-15.059-6.742-15.059-15.059s6.742-15.059,15.059-15.059c8.317,0,15.059,6.742,15.059,15.059     S169.73,1156.708,161.413,1156.708z M161.413,1066.355c-8.317,0-15.059-6.742-15.059-15.059s6.742-15.059,15.059-15.059     c8.317,0,15.059,6.742,15.059,15.059S169.73,1066.355,161.413,1066.355z M161.413,976.002c-8.317,0-15.059-6.742-15.059-15.059     s6.742-15.059,15.059-15.059c8.317,0,15.059,6.742,15.059,15.059S169.73,976.002,161.413,976.002z M116.237,1021.178     c-8.317,0-15.059-6.742-15.059-15.059c0-8.317,6.742-15.059,15.059-15.059s15.059,6.742,15.059,15.059     C131.296,1014.436,124.554,1021.178,116.237,1021.178z M206.59,1021.178c-8.317,0-15.059-6.742-15.059-15.059     c0-8.317,6.742-15.059,15.059-15.059c8.317,0,15.059,6.742,15.059,15.059C221.649,1014.436,214.907,1021.178,206.59,1021.178z      M116.237,1111.531c-8.317,0-15.059-6.742-15.059-15.059c0-8.317,6.742-15.059,15.059-15.059s15.059,6.742,15.059,15.059     C131.296,1104.789,124.554,1111.531,116.237,1111.531z M206.59,1111.531c-8.317,0-15.059-6.742-15.059-15.059     c0-8.317,6.742-15.059,15.059-15.059c8.317,0,15.059,6.742,15.059,15.059C221.649,1104.789,214.907,1111.531,206.59,1111.531z      M251.766,1156.708c-8.317,0-15.059-6.742-15.059-15.059s6.742-15.059,15.059-15.059s15.059,6.742,15.059,15.059     S260.083,1156.708,251.766,1156.708z M251.766,1066.355c-8.317,0-15.059-6.742-15.059-15.059s6.742-15.059,15.059-15.059     s15.059,6.742,15.059,15.059S260.083,1066.355,251.766,1066.355z M251.766,976.002c-8.317,0-15.059-6.742-15.059-15.059     s6.742-15.059,15.059-15.059s15.059,6.742,15.059,15.059S260.083,976.002,251.766,976.002z M534.765,1131.001     c5.881-5.881,15.416-5.881,21.296,0c5.881,5.88,5.881,15.415,0,21.296l-7.529,7.529c-5.881,5.881-15.416,5.881-21.296,0     c-5.881-5.88-5.881-15.415,0-21.296L534.765,1131.001z M534.765,950.295c5.881-5.881,15.416-5.881,21.296,0     c5.881,5.88,5.881,15.415,0,21.296l-188.235,188.235c-5.881,5.881-15.416,5.881-21.296,0c-5.881-5.88-5.881-15.415,0-21.296     L534.765,950.295z M444.412,950.295c5.881-5.881,15.416-5.881,21.296,0c5.881,5.88,5.881,15.415,0,21.296l-97.882,97.882     c-5.881,5.881-15.416,5.881-21.296,0c-5.881-5.88-5.881-15.415,0-21.296L444.412,950.295z M534.765,1040.648     c5.881-5.881,15.416-5.881,21.296,0c5.881,5.88,5.881,15.415,0,21.296l-97.882,97.882c-5.881,5.881-15.416,5.881-21.296,0     c-5.881-5.88-5.881-15.415,0-21.296L534.765,1040.648z"/>
		</g>
	</g>
</g>















</svg>
