<?xml version="1.0" encoding="UTF-8"?>
<svg id="Capa_1" xmlns="http://www.w3.org/2000/svg" version="1.1" viewBox="0 0 500 511.5">
  <!-- Generator: Adobe Illustrator 30.5.1, SVG Export Plug-In . SVG Version: 2.1.4 Build 3)  -->
  <path d="M379.2,504.9c13.9-8.1,28.6-13.1,44.7-15.1,2,7.6,3.5,14.7,4.6,21.7h13.8c-1.5-11-4.1-22.3-7.7-34.6-7.9-26.7-20.4-50.1-37.4-69.6-8.8-9.9-18.2-17.3-29.1-23.1,22.2-11.6,39.2-30.5,48.2-53.8,8.5,1.2,18.4,1.4,24.6-5.1h12.9c.1,0,.2,0,.3,0,11.5-1.4,20.3-9.9,21.8-21,19.5-12.9,23.8-39.2,24-59.3.1-15.9-2.8-44.6-24-60.2-.4-10.8-7.6-19.5-18.3-22.4-3.2-12.3-7.9-24.7-15-40.1,2.4-4.7,1.4-8.4.1-10.7l-10.7-19.4c-1.3-2.4-3.4-3.8-5.3-4.8-16.4-26.8-41.3-48.9-71.9-63.8-60.4-29.4-134.3-31.5-197.6-5.6-36.8,15.1-65.8,39-84,69.3-.2.1-.5.3-.8.5-1.3.7-2.9,1.7-3.9,3.4l-11.5,19.9c-2.1,3.6-2.1,7.4,0,11.5-6.4,13.6-11.4,27-14.9,39.7-10.8,3.1-17.8,11.7-18.3,22.5C3.7,199.7-.2,226.7,0,247c.2,12.6,2.8,43.2,23.9,57.2,1.4,11,10,19.4,21.8,21.1.1,0,.2,0,.3,0l12.9.3c6.9,6.1,15.5,6,24.6,4.8,9,23.5,25.5,41.9,48,53.8-12.8,6.9-24.2,16.3-33.8,28.2-14.6,18.1-25.9,39.7-33.6,64.3-4,12.8-6.7,24.1-8.4,34.9h13.8c1.2-6.9,2.8-13.8,4.9-21.6,17,2.3,31.7,7.3,44.9,15.1l-1.4,6.4h13.6c1.2-4.7,2.7-9.6,4.4-14.6,0,0,0,.1,0,.2-.3,4.9-.6,9.6-.4,14.4h228.2c0-4.5,0-9-.2-13.6,1.5,4.6,2.6,9.1,3.6,13.6h13.5l-1.4-6.6ZM476.4,204.9c3.1,4.4,4.9,9.6,6.4,14.6,4.5,15.5,4.6,32.5.2,50.4h0c-1.8,5.5-3.6,10.6-6.6,14.9v-79.9ZM17.3,271.5l-.2-.6c-4.9-19-4.7-37,.6-53.4,1.3-4,3-8.4,5.7-12.4v79.5c-2.6-3.8-4.2-8.3-6.1-13.2ZM431.3,315.8c-.8.8-1.8,1.2-3,1.2h-9.7c-.4,0-1.4-.2-1.4-1.5v-140.4c.2-.2.7-.4.9-.4h9.9c1.4.1,2.2,1.7,2.5,3,1.4,6.5,2,13.1,2,21.3v113.4c.1,1.4-.3,2.6-1.1,3.4ZM431.2,130.1c5.6,12,10.2,24.5,14,38.3,1,3.8,3.5,6.1,7.3,6.7,6.2,1,10.2,5.7,10.1,12.1v21.4c0,0-.2,93.2-.2,93.2,0,2.6-1,4.8-3.1,6.6-3.1,2.6-8.2,3.9-13.7,3.5v-116.4c0-10.7-.9-23.7-7.6-29.9-3.4-11.8-7.2-22.2-12-32.5l5.2-3ZM429.4,115.6l-13,7.1-7.9-13.5,13.3-7.2,7.7,13.7ZM119.1,56.4c14.4-11.3,29.9-20.1,47.2-26.7,69.1-26.5,147.9-18.8,205.5,20.1,17,11.9,30.4,25.4,41,41.3l-10.2,5.9c-13.2-17.7-29.9-32.4-49.5-43.7,0,0,0,0,0,0-30.1-17-65.2-25.7-101.9-25.7s-32.7,1.7-49.3,5.1c-18.1,3.7-35.1,9.9-52,18.9-21,11.3-38.6,26.5-52.4,45.3l-10.3-5.8c8.2-12.6,18.4-23.7,31.9-34.6ZM78.4,101.9l13.1,7.3-8,13.5-13-7.1,7.8-13.7ZM54.4,193.5c0,1.6,0,3.1-.2,4.6,0,0,0,0,0,.1v113.5c-2.1.2-4.1,0-6.4-.2h-.9c-3.8-1-9.3-4.1-9.3-9.1v-117.4c0-5.4,4.9-9.1,9.8-10.1,5.2-1,6.9-4.2,7.4-6.8,3.6-13.3,8.3-25.8,14.1-38.2l5.1,2.7c-4.8,10.3-8.9,21.2-12.4,33.2-6.5,6.3-6.9,17.5-7.2,27.5ZM81.2,316.9h-9.6s0,0,0,0c-1.1,0-2.2-.4-3-1.2-.8-.8-1.2-1.9-1.2-3.1v-110.9c0-9.3.6-16.5,1.9-23.6.4-2.2,2-3.5,4.2-3.5s0,0,0,0h8.1c.4.2.9.4,1,.5,0,.2,0,.7,0,1.1,0,.2,0,.5,0,.7v137.1c0,2.8-.5,2.8-1.6,2.8ZM78.3,160.9c-.3,0-.6,0-.8,0,2.5-8,5.6-15.4,9.3-23.7,3.1-.9,5.5-2.7,7.2-5.6l11.7-19.8c.2-.3.3-.5.3-.8l.7-3.6c17.1-23.8,40.6-41.5,70.1-52.8,26.7-10.2,57.5-14.5,89.2-12.5,53.2,3.4,99.7,27.1,127.5,65.2l.6,3.4c0,.3.2.6.3.9l12.1,20.8c1.5,2.5,3.8,4.1,6.6,4.7,3.9,8.3,7,15.9,9.5,23.7,0,0,0,0,0,0-2.4,0-4.8,0-7.2.5-7-18.4-16.7-34.6-28.9-48.2-17.7-19.7-40.4-34.6-67.4-44.2-21.4-7.6-45-11.5-68.9-11.5s-7.6,0-11.5.3c-74.4,4.5-130.2,42.2-153.6,103.6-2.2-.5-4.3-.5-6.5-.5ZM115.2,203.2c14.1-34.6,42.1-57.3,83.5-67.4,17.1-4.2,34.3-6.3,51.4-6.3s32,1.8,47.8,5.5c33.1,7.6,75.6,27.5,90.5,78.6,8.5,29.1,8.5,60,.2,89.4-9.5,33.6-35.6,57.8-73.5,68.1-33.6,9.2-79.4,10.4-116.5,3.2-46.3-9-75.6-32.5-86.9-69.7-9.8-32.2-8.4-72,3.5-101.5ZM96.7,221.9l-.2-48c0-.2,0-.4,0-.7-.5-1.9-.4-3,.2-4.2,0-.1.1-.2.1-.3,13.1-36.9,40.1-65.7,76.3-81.4,2.6,13.7,5.4,26.7,8.6,39.6-12.8,4.6-22.6,9.3-31.4,15.1-18.6,11.8-32.9,27.9-42.7,48-4.9,9.9-8.5,20.5-11,31.9ZM185.9,82.1c24-8.1,48.8-11.6,73.7-10.5,20.7,1.4,38,4.7,54.3,10.6l-8.9,40.4c-36-9.1-74.1-9.1-110.4,0-3.6-15-6.3-27.7-8.7-40.6ZM349.2,141.8c-9.5-6-19.4-10.8-31-14.9l8.7-39.6c17.2,7.6,32.6,18.2,45.8,31.6,14.2,14.9,24.7,32.4,31.3,51.8,0,.2-.1.6-.2.9-.2.6-.4,1.3-.4,2.2l-.2,48.2c-1.3-6.3-3-12.4-5.1-18.3-9-25.8-26-47.2-49-61.9ZM95.2,322.5c1.1-2.6,1.3-5.2,1.3-8.2v-19.3c6.5,29.8,20.9,52.9,43.2,68.7,24.5,17.4,58,26.4,102.3,27.4,22.7.5,42.2-.9,61.3-4.6,48.1-9.2,80.7-34.3,94.5-72.5,2.2-6.1,4-12.4,5.4-19v18.6c.2,2.9.3,5.8,1.5,8.9-11.8,32.2-37,52.5-77,61.9-41.8,9.9-89.5,8.1-114.2,6.2-16.7-1.3-32-3.8-46.7-7.7-37.1-9.7-60.6-29.5-71.7-60.5ZM123,492.9c-14.9-8.2-29.6-13.1-44.9-15.1,4.4-13.8,10.3-26.7,17.9-39.3,13.9,6.1,26.5,15.1,38.4,27.3-4.8,9.6-8.3,17.9-11.5,27ZM140.7,455.2c-11.9-11.9-24.3-20.8-37.9-27.1,5.7-8.1,11.8-14.9,18.9-21.1,8.5-7.3,17.4-12.3,27-15.4,1.3.3,2.3.6,3.2,1.1,1.6,22-5,46.3-9.2,59-.4,1.3-1.2,2.3-2.1,3.5ZM300.7,508.2c-36,3.6-72.4,3.3-108.3-.7-12.8-1.6-27.8-3.8-43.1-8.2.9-13.9,2.6-30,7.3-46.2,4.1-14.2,7.5-27.1,8.6-41.1.7-5.1.7-9.9.7-15.2,14.4,3.5,28.5,5.8,44.3,7.1,27.3,2.3,53.5,2.3,80.2,0,14.8-1.2,28.7-3.6,43.5-7.3l.3,14.5c0,0,0,.1,0,.2,1.3,14.1,4.2,27.8,8.9,41.8,3.6,14.6,5.8,29.2,6.8,46-16.9,4.8-33.6,7.1-49.2,8.8ZM358.6,455c-.2-.4-.5-.8-.7-1.2-.3-.6-.7-1.2-1.1-1.8-7.2-22.1-10.3-41.5-9.4-59.1,1.1-.5,2.3-.9,3.6-1.1,9.4,3,17.9,7.8,25.9,14.7,7.4,6.4,13.6,13.4,19.5,21.8-13.5,6.2-25.9,15-37.8,26.9ZM364.9,465.9c11.5-12.1,24.1-21,38.3-27.3,7.3,12.2,12.9,24.8,17.5,39.1-16.4,2.4-31.1,7.3-44.8,15-3.5-10.4-7-18.8-11-26.8Z"/>
  <path d="M207.3,364.2c13.1,2.1,28.2,3.5,43.9,3.5,28.2,0,58.2-4.3,81.9-16.1,21.8-10.9,37.5-29.7,44.2-52.9,7.4-25.8,7-53-1.2-78.8-11.7-36.4-42.6-60.9-87.2-69-26-4.7-52.2-4.7-77.8,0-43.1,8-72.6,30.1-85.2,64-10.6,28.5-11.3,59.5-1.9,87.4,11.4,34,39.5,54.8,83.3,61.9ZM139.1,219c13.5-34.9,45.8-48.4,70.5-53.6,13.5-2.8,27-4.3,40.5-4.3s31.1,1.9,46.3,5.7c22.7,5.7,52.4,19.4,64.9,53,9.1,24.3,9.9,51.3,2.4,76.1-10.6,34.8-41.5,48.1-65.6,53.1-30.3,6.3-61.7,6.6-93.2.6-10.7-2-20.2-5.1-30.1-9.7-18.1-8.5-31-22.7-37.4-41.1-8.9-25.5-8.3-53.9,1.8-79.8Z"/>
  <path d="M278.4,422.4c-9.9-8.2-22.9-11.6-35.6-9.3-13,2.4-24.1,10.4-30.5,21.9-6.4,11.3-7.4,24.8-2.8,37,4.6,12.2,14.4,21.8,26.8,26.2,4.7,1.7,9.5,2.5,14.4,2.5,8.1,0,16.2-2.3,23.3-6.8,11.5-7.2,19-19.1,20.5-32.5,1.7-15.1-4-28.9-16-38.9ZM251.7,488.1c-.4,0-.7,0-1.1,0-16.8,0-30.9-13.3-31.6-30.2-.4-8.6,2.6-16.8,8.4-23,5.7-6.2,13.6-9.8,22.2-10.1,8.5-.3,16.5,2.8,22.7,8.6,6.1,5.8,9.8,13.8,10,22.1.5,17.7-13,32-30.7,32.6Z"/>
</svg>