<?xml version="1.0" encoding="UTF-8"?>
<svg id="Capa_1" xmlns="http://www.w3.org/2000/svg" version="1.1" viewBox="0 0 510 510">
  <!-- Generator: Adobe Illustrator 30.5.1, SVG Export Plug-In . SVG Version: 2.1.4 Build 3)  -->
  <path d="M381.4,503.5c13.6-7.9,27.9-12.8,43.7-14.8,2,7.4,3.4,14.4,4.5,21.2h13.5c-1.5-10.7-4-21.8-7.5-33.8-7.7-26.1-19.9-49-36.5-68-8.6-9.7-17.8-16.9-28.4-22.6,21.7-11.3,38.3-29.8,47.1-52.6,8.3,1.2,18,1.4,24-5h12.9c11.2-1.4,19.8-9.7,21.3-20.5,19.1-12.6,23.3-38.3,23.5-58,0-15.5-2.7-43.6-23.5-58.8-.4-10.6-7.4-19.1-17.9-21.9-3.1-12-7.7-24.1-14.7-39.2,2.3-4.6,1.4-8.2,0-10.5l-10.5-19c-1.3-2.3-3.3-3.7-5.2-4.7-16-26.2-40.4-47.8-70.3-62.3-59-28.7-131.2-30.8-193.1-5.5-36,14.8-64.3,38.1-82.1,67.7-.2,0-.5.3-.8.5-1.3.7-2.8,1.7-3.8,3.3l-11.2,19.4c-2.1,3.5-2.1,7.2,0,11.2-6.3,13.3-11.1,26.4-14.6,38.8-10.6,3-17.4,11.4-17.9,22-19.5,14.8-23.3,41.2-23.1,61,.2,12.3,2.7,42.2,23.4,55.9,1.4,10.7,9.8,19,21.3,20.6h.3l12.6.3c6.7,6,15.1,5.9,24,4.7,8.8,23,24.9,40.9,46.9,52.6-12.5,6.7-23.6,15.9-33,27.6-14.3,17.7-25.3,38.8-32.8,62.8-3.9,12.5-6.5,23.6-8.2,34.1h13.5c1.2-6.7,2.7-13.5,4.8-21.1,16.6,2.2,31,7.1,43.9,14.8l-1.4,6.3h13.3c1.2-4.6,2.6-9.4,4.3-14.3v.2c-.3,4.8-.6,9.4-.4,14.1h223c0-4.4,0-8.8-.2-13.3,1.5,4.5,2.5,8.9,3.5,13.3h13.2l-1.4-6.4h0ZM476.4,210.3c3,4.3,4.8,9.4,6.3,14.3,4.4,15.1,4.5,31.8.2,49.3h0c-1.8,5.4-3.5,10.4-6.4,14.6v-78.1h-.1ZM27.6,275.4l-.2-.6c-4.8-18.6-4.6-36.2.6-52.2,1.3-3.9,2.9-8.2,5.6-12.1v77.7c-2.5-3.7-4.1-8.1-6-12.9h0ZM432.2,318.7c-.8.8-1.8,1.2-2.9,1.2h-9.5c-.4,0-1.4-.2-1.4-1.5v-137.2c.2-.2.7-.4.9-.4h9.7c1.4,0,2.1,1.7,2.4,2.9,1.4,6.4,2,12.8,2,20.8v110.8c0,1.4-.3,2.5-1.1,3.3h-.1ZM432.1,137.2c5.5,11.7,10,23.9,13.7,37.4,1,3.7,3.4,6,7.1,6.5,6.1,1,10,5.6,9.9,11.8v20.9l-.2,91.1c0,2.5-1,4.7-3,6.4-3,2.5-8,3.8-13.4,3.4v-113.8c0-10.5-.9-23.2-7.4-29.2-3.3-11.5-7-21.7-11.7-31.8l5.1-2.9h0v.2ZM430.4,123l-12.7,6.9-7.7-13.2,13-7,7.5,13.4h0ZM127.2,65.2c14.1-11,29.2-19.6,46.1-26.1,67.5-25.9,144.5-18.4,200.8,19.6,16.6,11.6,29.7,24.8,40.1,40.4l-10,5.8c-12.9-17.3-29.2-31.7-48.4-42.7h0c-29.4-16.6-63.7-25.1-99.6-25.1s-32,1.7-48.2,5c-17.7,3.6-34.3,9.7-50.8,18.5-20.5,11-37.7,25.9-51.2,44.3l-10.1-5.7c8-12.3,18-23.2,31.2-33.8h0v-.2ZM87.3,109.6l12.8,7.1-7.8,13.2-12.7-6.9,7.6-13.4h0ZM64,199.1c0,1.6,0,3-.2,4.5h0v111c-2.1.2-4,0-6.3-.2h-.9c-3.7-1-9.1-4-9.1-8.9v-114.7c0-5.3,4.8-8.9,9.6-9.9,5.1-1,6.7-4.1,7.2-6.6,3.5-13,8.1-25.2,13.8-37.3l5,2.6c-4.7,10.1-8.7,20.7-12.1,32.4-6.4,6.2-6.7,17.1-7,26.9v.2h0ZM90.2,319.7h-9.4c-1.1,0-2.1-.4-2.9-1.2-.8-.8-1.2-1.9-1.2-3v-108.4c0-9.1.6-16.1,1.9-23.1.4-2.1,2-3.4,4.1-3.4s0,0,0,0h7.9c.4.2.9.4,1,.5v135.7c0,2.7-.5,2.7-1.6,2.7h.2v.2ZM87.2,167.3h-.8c2.4-7.8,5.5-15,9.1-23.2,3-.9,5.4-2.6,7-5.5l11.4-19.3c.2-.3.3-.5.3-.8l.7-3.5c16.7-23.3,39.7-40.6,68.5-51.6,26.1-10,56.2-14.2,87.2-12.2,52,3.3,97.4,26.5,124.6,63.7l.6,3.3c0,.3.2.6.3.9l11.8,20.3c1.5,2.4,3.7,4,6.4,4.6,3.8,8.1,6.8,15.5,9.3,23.2h0c-2.3,0-4.7,0-7,.5-6.8-18-16.3-33.8-28.2-47.1-17.3-19.3-39.5-33.8-65.9-43.2-20.9-7.4-44-11.2-67.3-11.2s-7.4,0-11.2.3c-72.7,4.4-127.2,41.2-150.1,101.2-2.1-.5-4.2-.5-6.4-.5h-.3,0ZM123.3,208.6c13.8-33.8,41.1-56,81.6-65.9,16.7-4.1,33.5-6.2,50.2-6.2s31.3,1.8,46.7,5.4c32.3,7.4,73.9,26.9,88.4,76.8,8.3,28.4,8.3,58.6.2,87.4-9.3,32.8-34.8,56.5-71.8,66.6-32.8,9-77.6,10.2-113.9,3.1-45.2-8.8-73.9-31.8-84.9-68.1-9.6-31.5-8.2-70.4,3.4-99.2h0ZM105.2,226.9l-.2-46.9v-.7c-.5-1.9-.4-2.9.2-4.1v-.3c12.8-36.1,39.2-64.2,74.6-79.5,2.5,13.4,5.3,26.1,8.4,38.7-12.5,4.5-22.1,9.1-30.7,14.8-18.2,11.5-32.2,27.3-41.7,46.9-4.8,9.7-8.3,20-10.7,31.2h0ZM192.4,90.3c23.5-7.9,47.7-11.3,72-10.3,20.2,1.4,37.1,4.6,53.1,10.4l-8.7,39.5c-35.2-8.9-72.4-8.9-107.9,0-3.5-14.7-6.2-27.1-8.5-39.7h0ZM352,148.6c-9.3-5.9-19-10.6-30.3-14.6l8.5-38.7c16.8,7.4,31.9,17.8,44.8,30.9,13.9,14.6,24.1,31.7,30.6,50.6,0,.2,0,.6-.2.9-.2.6-.4,1.3-.4,2.1l-.2,47.1c-1.3-6.2-2.9-12.1-5-17.9-8.8-25.2-25.4-46.1-47.9-60.5h.1ZM103.8,325.2c1.1-2.5,1.3-5.1,1.3-8v-18.9c6.4,29.1,20.4,51.7,42.2,67.1,23.9,17,56.7,25.8,100,26.8,22.2.5,41.2-.9,59.9-4.5,47-9,78.9-33.5,92.4-70.9,2.1-6,3.9-12.1,5.3-18.6v18.2c.2,2.8.3,5.7,1.5,8.7-11.5,31.5-36.2,51.3-75.2,60.5-40.8,9.7-87.5,7.9-111.6,6.1-16.3-1.3-31.3-3.7-45.6-7.5-36.3-9.5-59.2-28.8-70.1-59.1h0ZM130.9,491.7c-14.6-8-28.9-12.8-43.9-14.8,4.3-13.5,10.1-26.1,17.5-38.4,13.6,6,25.9,14.8,37.5,26.7-4.7,9.4-8.1,17.5-11.2,26.4h.1ZM148.2,454.9c-11.6-11.6-23.7-20.3-37-26.5,5.6-7.9,11.5-14.6,18.5-20.6,8.3-7.1,17-12,26.4-15,1.3.3,2.2.6,3.1,1.1,1.6,21.5-4.9,45.2-9,57.7-.4,1.3-1.2,2.2-2.1,3.4h.1ZM304.6,506.7c-35.2,3.5-70.8,3.2-105.8-.7-12.5-1.6-27.2-3.7-42.1-8,.9-13.6,2.5-29.3,7.1-45.1,4-13.9,7.3-26.5,8.4-40.2.7-5,.7-9.7.7-14.9,14.1,3.4,27.9,5.7,43.3,6.9,26.7,2.2,52.3,2.2,78.4,0,14.5-1.2,28-3.5,42.5-7.1l.3,14.2v.2c1.3,13.8,4.1,27.2,8.7,40.8,3.5,14.3,5.7,28.5,6.6,45-16.5,4.7-32.8,6.9-48.1,8.6v.3h0ZM361.2,454.7c-.2-.4-.5-.8-.7-1.2-.3-.6-.7-1.2-1.1-1.8-7-21.6-10.1-40.6-9.2-57.8,1.1-.5,2.2-.9,3.5-1.1,9.2,2.9,17.5,7.6,25.3,14.4,7.2,6.3,13.3,13.1,19.1,21.3-13.2,6.1-25.3,14.7-36.9,26.3v-.2h0ZM367.4,465.3c11.2-11.8,23.6-20.5,37.4-26.7,7.1,11.9,12.6,24.2,17.1,38.2-16,2.3-30.4,7.1-43.8,14.7-3.4-10.2-6.8-18.4-10.7-26.2h0Z"/>
  <path d="M213.4,366c12.8,2.1,27.6,3.4,42.9,3.4,27.6,0,56.9-4.2,80-15.7,21.3-10.7,36.6-29,43.2-51.7,7.2-25.2,6.8-51.8-1.2-77-11.4-35.6-41.6-59.5-85.2-67.4-25.4-4.6-51-4.6-76,0-42.1,7.8-70.9,29.4-83.3,62.5-10.4,27.9-11,58.1-1.9,85.4,11.1,33.2,38.6,53.6,81.4,60.5h.1ZM146.6,224.1c13.2-34.1,44.8-47.3,68.9-52.4,13.2-2.7,26.4-4.2,39.6-4.2s30.4,1.9,45.2,5.6c22.2,5.6,51.2,19,63.4,51.8,8.9,23.7,9.7,50.1,2.3,74.4-10.4,34-40.6,47-64.1,51.9-29.6,6.2-60.3,6.4-91.1.6-10.5-2-19.7-5-29.4-9.5-17.7-8.3-30.3-22.2-36.5-40.2-8.7-24.9-8.1-52.7,1.8-78h0Z"/>
  <path d="M282.9,422.8c-9.7-8-22.4-11.3-34.8-9.1-12.7,2.3-23.6,10.2-29.8,21.4-6.3,11-7.2,24.2-2.7,36.2,4.5,11.9,14.1,21.3,26.2,25.6,4.6,1.7,9.3,2.4,14.1,2.4,7.9,0,15.8-2.2,22.8-6.6,11.2-7,18.6-18.7,20-31.8,1.7-14.8-3.9-28.2-15.6-38h-.2ZM256.8,487h-1.1c-16.4,0-30.2-13-30.9-29.5-.4-8.4,2.5-16.4,8.2-22.5,5.6-6.1,13.3-9.6,21.7-9.9,8.3-.3,16.1,2.7,22.2,8.4,6,5.7,9.6,13.5,9.8,21.6.5,17.3-12.7,31.3-30,31.9h.1Z"/>
</svg>