<?xml version="1.0"?>
<svg xmlns="http://www.w3.org/2000/svg" id="Layer_1" data-name="Layer 1" viewBox="0 0 512 512"><path d="M506.909,16.111a8,8,0,0,0-9.768-5.706c-160.009,42.011-322.271,42.013-482.282,0A8,8,0,0,0,10.8,25.88Q31.452,31.3,52.2,35.813L32.956,149.275a8,8,0,0,0,11.717,8.363l31.816-17.344,24.319,26.863a8,8,0,0,0,13.818-4.031L133.8,50.036q14.2,1.857,28.389,3.282l26.335,118.969a8,8,0,0,0,7.419,6.261c.133.007.264.01.4.01a8,8,0,0,0,7.6-5.516l37.6-115.091q7.236.113,14.461.116,6.872,0,13.753-.108L275.3,172.583a8,8,0,0,0,13.237,5.651l27.352-23.767,29.519,21.015a8,8,0,0,0,12.63-6.9L352.446,53.047q13.761-1.425,27.526-3.248l50.959,109.78A8,8,0,0,0,446.148,157l12-120.83Q479.716,31.513,501.2,25.88A8,8,0,0,0,506.909,16.111ZM101.606,144.2,84.122,124.886a8,8,0,0,0-9.76-1.656L51.487,135.7,67.87,39.094q25.011,5.026,50.079,8.735Zm96.217-3.95-18.9-85.392q22.99,1.907,45.921,2.681Zm143.439,12.64-21.225-15.111a8,8,0,0,0-9.887.48l-19.666,17.089-4.732-97.763q25.33-.818,50.75-3.022Zm91.857-26.6-36.6-78.838q22.62-3.4,45.208-7.879ZM489.288,290.9l-149.63-61.978a22.718,22.718,0,0,0-42.048-17.214L256,312.164,214.39,211.706a22.718,22.718,0,0,0-42.048,17.215L22.712,290.9a8,8,0,0,0-1.164,14.184l61.793,38.44L66.828,414.4a8,8,0,0,0,10.853,9.206L227.3,361.632l4.1,9.906-44.731,107.99a8,8,0,0,0,4.329,10.452l27.2,11.268a8,8,0,0,0,10.452-4.329L256,430.912l27.341,66.007a8,8,0,0,0,10.452,4.329L321,489.98a8,8,0,0,0,4.329-10.452l-44.73-107.99,4.1-9.906,149.622,61.974a8,8,0,0,0,10.853-9.206l-16.513-70.877,61.793-38.44a8,8,0,0,0-1.164-14.184ZM85.943,402.866l14.281-61.293a8,8,0,0,0-3.566-8.608L43.221,299.723l135.236-56.017L221.181,346.85ZM187.187,222.975a6.722,6.722,0,1,1,12.421-5.145l47.733,115.238-7.276,17.566Zm29.752,260.43-12.42-5.144,107.873-260.43a6.722,6.722,0,1,1,12.421,5.144Zm90.542-5.144-12.419,5.144-30.4-73.4,7.276-17.566Zm107.861-145.3a8,8,0,0,0-3.566,8.608l14.281,61.293L290.82,346.851l42.724-103.145,135.235,56.017ZM331,292.143a8,8,0,0,0-.917,8.794l9.974,19.084-12.226,17.726a8,8,0,0,0,7.919,12.43l21.231-3.588,13.082,17.1A8,8,0,0,0,384.329,360l3.149-21.3,20.308-7.154a8,8,0,0,0,.9-14.711L389.4,307.259l-.528-21.526a8,8,0,0,0-13.713-5.4l-15.067,15.382-20.636-6.15A8,8,0,0,0,331,292.143Zm25.471,24.743-3.439-6.581,7.116,2.121a8,8,0,0,0,8-2.07l5.2-5.3.181,7.422a8,8,0,0,0,4.44,6.968l6.651,3.3-7,2.467a8,8,0,0,0-5.256,6.376l-1.085,7.346-4.511-5.9a7.989,7.989,0,0,0-7.688-3.027l-7.321,1.237,4.216-6.113A8,8,0,0,0,356.469,316.886ZM172.544,289.564l-20.636,6.15-15.067-15.382a8,8,0,0,0-13.713,5.4l-.528,21.526-19.287,9.577a8,8,0,0,0,.9,14.711l20.308,7.154,3.149,21.3a8,8,0,0,0,14.268,3.69l13.082-17.1,21.231,3.588a8,8,0,0,0,7.919-12.43l-12.226-17.726,9.974-19.084a8,8,0,0,0-9.375-11.373ZM152.93,330.009a7.991,7.991,0,0,0-7.688,3.027l-4.511,5.9-1.085-7.346a8,8,0,0,0-5.256-6.376l-7-2.467,6.651-3.3a8,8,0,0,0,4.44-6.968l.181-7.422,5.2,5.3a8,8,0,0,0,8,2.07l7.116-2.121-3.439,6.581a8,8,0,0,0,.5,8.247l4.216,6.113Z"/></svg>
