<?xml version="1.0" encoding="UTF-8"?>
<svg id="Layer_1" xmlns="http://www.w3.org/2000/svg" version="1.1" viewBox="0 0 510 510">
  <!-- Generator: Adobe Illustrator 30.5.1, SVG Export Plug-In . SVG Version: 2.1.4 Build 3)  -->
  <defs>
    <style>
      .st0 {
        fill: #fff;
      }
    </style>
  </defs>
  <path class="st0" d="M504.6,16.2c-1.1-4.3-5.5-6.8-9.8-5.7C335.6,52.3,174,52.3,14.8,10.5c-4.2-1-8.5,1.6-9.6,5.8-1,4.2,1.5,8.5,5.6,9.6,13.7,3.6,27.5,6.9,41.2,9.9l-19.1,113c-.7,4.4,2.2,8.5,6.5,9.2,1.8.3,3.6,0,5.2-.9l31.6-17.2,24.2,26.8c3,3.3,8,3.5,11.2.6,1.3-1.2,2.2-2.8,2.5-4.6l19.1-112.6c9.5,1.2,18.8,2.3,28.3,3.3l26.2,118.4c.8,3.5,3.8,6.1,7.4,6.3h.4c3.5,0,6.5-2.2,7.6-5.5l37.4-114.6h28.1l5.5,114.1c.2,4.4,4,7.8,8.4,7.6,1.8,0,3.5-.8,4.9-2l27.3-23.7,29.4,20.9c3.6,2.6,8.6,1.7,11.1-1.9,1-1.5,1.6-3.2,1.5-5l-5.6-115c9.2-1,18.2-2,27.4-3.2l50.8,109.3c1.9,4,6.6,5.7,10.5,3.9,2.6-1.2,4.3-3.7,4.6-6.5l11.9-120.2c14.3-3.1,28.6-6.5,42.9-10.3,4.3-1.1,6.8-5.5,5.7-9.8h-.3ZM101.3,143.7l-17.4-19.2c-2.5-2.7-6.5-3.4-9.8-1.7l-22.8,12.4,16.3-96.1c16.6,3.4,33.2,6.3,49.9,8.7l-16.2,95.9ZM197,139.7l-18.8-85c15.2,1.3,30.5,2.2,45.7,2.7l-26.9,82.3ZM339.7,152.3l-21.1-15c-3-2.1-7.1-1.9-9.9.5l-19.6,17-4.7-97.3c16.8-.5,33.6-1.6,50.6-3l4.8,97.8h0ZM431.2,125.8l-36.4-78.4c15-2.3,30-4.9,45-7.9l-8.6,86.3ZM487.1,289.7l-148.9-61.7c4.7-11.5-1-24.8-12.5-29.5-11.4-4.6-24.6.9-29.4,12.2l-41.4,100-41.4-100c-4.8-11.5-18-17-29.6-12.2-11.4,4.8-16.9,17.8-12.3,29.4l-148.9,61.7c-4.1,1.7-6,6.4-4.3,10.5.6,1.5,1.7,2.8,3.2,3.7l61.5,38.2-16.4,70.6c-1,4.3,1.7,8.6,6,9.6,1.6.4,3.3.2,4.9-.4l148.9-61.7,4.1,9.9-44.5,107.5c-1.7,4.1.2,8.8,4.3,10.5l27.1,11.2c4.1,1.7,8.8-.2,10.5-4.3l27.3-65.7,27.2,65.7c1.7,4.1,6.4,6,10.5,4.3l27.1-11.2c4.1-1.7,6-6.4,4.3-10.5l-44.5-107.5,4.1-9.9,148.9,61.7c4.1,1.7,8.8-.2,10.5-4.3.6-1.5.8-3.2.4-4.9l-16.4-70.6,61.5-38.2c3.8-2.3,4.9-7.3,2.6-10.9-.9-1.4-2.2-2.5-3.7-3.2h-.7ZM85.6,401.1l14.2-61c.8-3.3-.7-6.8-3.6-8.6l-53.1-33,134.6-55.7,42.5,102.6s-134.6,55.7-134.6,55.7ZM186.5,222.1c-1.4-3.4.2-7.4,3.6-8.8,3.4-1.4,7.4.2,8.8,3.6h0l47.5,114.7-7.3,17.5-52.6-127.1h0ZM216,481.3l-12.3-5.1,107.4-259.2c1.4-3.4,5.4-5.1,8.8-3.6,3.4,1.4,5.1,5.4,3.6,8.8l-107.4,259.2h-.1ZM306.1,476.1l-12.3,5.1-30.3-73.1,7.3-17.5,35.3,85.4h0ZM413.5,331.5c-2.9,1.8-4.3,5.3-3.6,8.6l14.2,61-134.6-55.7,42.5-102.6,134.6,55.7-53.1,33ZM329.6,290.9c-2,2.5-2.4,5.9-.9,8.8l10,19-12.1,17.6c-2.5,3.6-1.6,8.6,2,11,1.7,1.2,3.8,1.6,5.9,1.3l21.1-3.6,13,17c2.7,3.5,7.7,4.2,11.1,1.5,1.7-1.3,2.7-3.1,3.1-5.2l3.1-21.2,20.2-7.2c4.2-1.5,6.4-6,4.9-10.2-.7-2-2.1-3.6-4-4.5l-19.2-9.6-.5-21.4c0-4.4-3.8-7.9-8.2-7.8-2.1,0-4.1.9-5.5,2.4l-15,15.3-20.5-6.1c-3.1-.9-6.4,0-8.5,2.6h0v.3ZM354.9,315.5l-3.4-6.6,7.1,2.1c2.8.8,5.9,0,8-2.1l5.2-5.3.2,7.4c0,3,1.8,5.6,4.4,7l6.7,3.3-7,2.5c-2.8,1-4.8,3.4-5.3,6.4l-1.1,7.3-4.5-5.9c-1.8-2.4-4.8-3.5-7.7-3l-7.3,1.2,4.2-6.1c1.7-2.4,1.9-5.6.5-8.2h0ZM171.8,288.3l-20.5,6.1-15-15.3c-3.1-3.2-8.2-3.2-11.2,0s-2.3,3.4-2.4,5.5l-.5,21.4-19.2,9.6c-4,2-5.6,6.8-3.6,10.6.9,1.9,2.5,3.3,4.5,4l20.2,7.2,3.1,21.2c.6,4.4,4.7,7.4,9.1,6.7,2.1-.3,3.9-1.4,5.2-3.1l13-17,21.1,3.6c4.4.7,8.5-2.2,9.2-6.6.3-2.1,0-4.2-1.3-5.9l-12.1-17.6,10-19c2-3.9.5-8.7-3.4-10.7-1.8-1-4-1.2-6-.6h0v.2l-.2-.3ZM152.3,328.6c-2.9-.5-5.9.7-7.7,3l-4.5,5.9-1.1-7.3c-.4-2.9-2.5-5.4-5.3-6.4l-7-2.5,6.7-3.3c2.7-1.3,4.4-4,4.4-7l.2-7.4,5.2,5.3c2.1,2.1,5.2,2.9,8,2.1l7.1-2.1-3.4,6.6c-1.4,2.6-1.2,5.8.5,8.2l4.2,6.1-7.3-1.2h0Z"/>
</svg>