<?xml version="1.0" encoding="UTF-8"?>
<svg id="Layer_1" xmlns="http://www.w3.org/2000/svg" version="1.1" viewBox="0 0 500 489.5">
  <!-- Generator: Adobe Illustrator 30.5.1, SVG Export Plug-In . SVG Version: 2.1.4 Build 3)  -->
  <path d="M499.7,5.9c-1.1-4.3-5.5-6.8-9.7-5.7C330.7,42.1,169.2,42.1,9.9.3,5.6-.8,1.3,1.8.2,6.1c-1,4.2,1.4,8.4,5.6,9.6,13.7,3.6,27.4,6.9,41.2,9.9l-19.2,113c-.7,4.3,2.2,8.4,6.5,9.2,1.8.3,3.6,0,5.1-.9l31.7-17.3,24.2,26.7c3,3.3,8,3.5,11.2.6,1.3-1.2,2.2-2.8,2.5-4.6l19.1-112.6c9.4,1.2,18.8,2.3,28.3,3.3l26.2,118.4c.8,3.5,3.8,6.1,7.4,6.2.1,0,.3,0,.4,0,3.4,0,6.5-2.2,7.6-5.5l37.4-114.6c4.8,0,9.6.1,14.4.1,4.6,0,9.1,0,13.7-.1l5.5,114.1c.2,4.4,3.9,7.8,8.3,7.6,1.8,0,3.5-.8,4.8-1.9l27.2-23.7,29.4,20.9c3.6,2.6,8.6,1.7,11.1-1.9,1-1.5,1.6-3.2,1.5-5l-5.6-115c9.1-.9,18.3-2,27.4-3.2l50.7,109.3c1.9,4,6.6,5.7,10.6,3.9,2.6-1.2,4.3-3.6,4.6-6.4l11.9-120.3c14.3-3.1,28.6-6.5,42.9-10.2,4.3-1.1,6.8-5.5,5.7-9.7,0,0,0,0,0,0ZM96.2,133.5l-17.4-19.2c-2.5-2.7-6.5-3.4-9.7-1.6l-22.8,12.4L62.7,28.8c16.6,3.3,33.2,6.2,49.9,8.7l-16.3,95.9ZM192,129.5l-18.8-85c15.3,1.3,30.5,2.2,45.7,2.7l-26.9,82.3ZM334.8,142.1l-21.1-15c-3-2.1-7.1-1.9-9.8.5l-19.6,17-4.7-97.3c16.8-.5,33.7-1.5,50.5-3l4.7,97.9ZM426.3,115.6l-36.4-78.5c15-2.3,30-4.9,45-7.8l-8.6,86.3ZM482.2,279.5l-149-61.7c4.7-11.6-1-24.8-12.5-29.4-11.5-4.6-24.6.9-29.3,12.3l-41.4,100-41.4-100c-4.8-11.5-18-17-29.6-12.2-11.5,4.8-17,17.9-12.3,29.4l-149,61.7c-4.1,1.7-6,6.3-4.3,10.4.6,1.5,1.7,2.8,3.2,3.7l61.5,38.3-16.4,70.6c-1,4.3,1.7,8.6,5.9,9.6,1.6.4,3.3.2,4.9-.4l149-61.7,4.1,9.9-44.5,107.5c-1.7,4.1.2,8.7,4.3,10.4l27.1,11.2c4.1,1.7,8.7-.2,10.4-4.3l27.2-65.7,27.2,65.7c1.7,4.1,6.3,6,10.4,4.3l27.1-11.2c4.1-1.7,6-6.3,4.3-10.4l-44.5-107.5,4.1-9.9,149,61.7c4.1,1.7,8.7-.2,10.4-4.3.6-1.5.8-3.2.4-4.9l-16.4-70.6,61.5-38.3c3.7-2.3,4.9-7.2,2.6-11-.9-1.4-2.2-2.5-3.7-3.2h0ZM80.6,391l14.2-61c.8-3.3-.7-6.8-3.6-8.6l-53.2-33.1,134.6-55.8,42.5,102.7-134.6,55.8ZM181.4,211.9c-1.4-3.4.2-7.3,3.6-8.7,3.4-1.4,7.3.2,8.7,3.6h0l47.5,114.7-7.2,17.5-52.6-127.1ZM211.1,471.2l-12.4-5.1,107.4-259.3c1.4-3.4,5.3-5,8.7-3.6,3.4,1.4,5,5.3,3.6,8.7l-107.4,259.3ZM301.2,466l-12.4,5.1-30.3-73.1,7.2-17.5,35.4,85.4ZM408.6,321.4c-2.9,1.8-4.3,5.2-3.6,8.6l14.2,61-134.6-55.8,42.5-102.7,134.6,55.8-53.2,33.1ZM324.6,280.7c-2,2.5-2.4,5.9-.9,8.8l9.9,19-12.2,17.6c-2.5,3.6-1.6,8.6,2,11.1,1.7,1.2,3.8,1.6,5.8,1.3l21.1-3.6,13,17c2.7,3.5,7.7,4.2,11.2,1.5,1.6-1.3,2.7-3.1,3-5.2l3.1-21.2,20.2-7.1c4.1-1.5,6.3-6,4.9-10.2-.7-2-2.1-3.6-4-4.5l-19.2-9.5-.5-21.4c-.1-4.4-3.8-7.9-8.2-7.8-2.1,0-4,.9-5.5,2.4l-15,15.3-20.5-6.1c-3.1-.9-6.4,0-8.4,2.6ZM350,305.4l-3.4-6.6,7.1,2.1c2.8.8,5.9,0,8-2.1l5.2-5.3.2,7.4c0,3,1.8,5.6,4.4,6.9l6.6,3.3-7,2.5c-2.8,1-4.8,3.4-5.2,6.3l-1.1,7.3-4.5-5.9c-1.8-2.3-4.7-3.5-7.7-3l-7.3,1.2,4.2-6.1c1.7-2.4,1.9-5.6.5-8.2h0ZM166.9,278.2l-20.5,6.1-15-15.3c-3.1-3.1-8.1-3.2-11.3-.1-1.5,1.5-2.3,3.4-2.4,5.5l-.5,21.4-19.2,9.5c-3.9,2-5.5,6.7-3.6,10.7.9,1.9,2.5,3.3,4.5,4l20.2,7.1,3.1,21.2c.6,4.4,4.7,7.4,9,6.7,2.1-.3,3.9-1.4,5.2-3l13-17,21.1,3.6c4.3.7,8.4-2.2,9.2-6.5.3-2-.1-4.1-1.3-5.8l-12.2-17.6,9.9-19c2-3.9.5-8.7-3.4-10.7-1.8-1-4-1.2-6-.6h0ZM147.3,318.4c-2.9-.5-5.9.7-7.7,3l-4.5,5.9-1.1-7.3c-.4-2.9-2.4-5.4-5.2-6.3l-7-2.5,6.6-3.3c2.6-1.3,4.3-4,4.4-6.9l.2-7.4,5.2,5.3c2.1,2.1,5.1,2.9,8,2.1l7.1-2.1-3.4,6.6c-1.4,2.6-1.2,5.8.5,8.2l4.2,6.1-7.3-1.2Z"/>
</svg>