<svg id="Layer_2" enable-background="new 0 0 500 500" viewBox="0 0 500 500" xmlns="http://www.w3.org/2000/svg"><g fill="rgb(0,0,0)"><path d="m255.2461 160.2217v-27.4478c0-3.5898-2.9102-6.5-6.5-6.5h-22.3442v-14.522h22.3442c3.5898 0 6.5-2.9102 6.5-6.5s-2.9102-6.5-6.5-6.5h-28.8442c-3.5898 0-6.5 2.9102-6.5 6.5v27.522c0 3.5898 2.9102 6.5 6.5 6.5h22.3442v14.4478h-22.3442c-3.5898 0-6.5 2.9102-6.5 6.5s2.9102 6.5 6.5 6.5h28.8442c3.5898 0 6.5-2.9102 6.5-6.5z"/><path d="m166.7646 98.752c-3.5898 0-6.5 2.9102-6.5 6.5v54.9697c0 3.5898 2.9102 6.5 6.5 6.5h18.6753c10.2993 0 18.6787-8.3794 18.6787-18.6787v-30.6128c0-10.2993-8.3794-18.6782-18.6787-18.6782zm24.3541 18.6782v30.6128c0 3.1313-2.5474 5.6787-5.6787 5.6787h-12.1753v-41.9697h12.1753c3.1313 0 5.6787 2.5473 5.6787 5.6782z"/><path d="m90.0156 167.7549c3.2578 1.5044 7.1211.0815 8.6255-3.1782l6.8513-14.8457h27.5984l6.8516 14.8457c1.0972 2.3774 3.4487 3.7778 5.9058 3.7778.9116 0 1.8379-.1929 2.7197-.5996 3.2598-1.5044 4.6826-5.3662 3.1782-8.6255l-26.5527-57.5342c-1.0625-2.3022-3.3667-3.7764-5.9019-3.7764-2.5356 0-4.8394 1.4741-5.9019 3.7764l-26.5522 57.5342c-1.5044 3.2593-.0815 7.1211 3.1782 8.6255zm29.2759-47.9243 7.7998 16.9004h-15.5994z"/><path d="m181.5669 328.5591 14.4272-7.5537c3.1802-1.665 4.4087-5.5928 2.7432-8.7734-1.665-3.1802-5.5938-4.4082-8.7734-2.7432l-14.4272 7.5537c-3.1802 1.665-4.4087 5.5928-2.7432 8.7734 1.1611 2.2178 3.4224 3.4863 5.7637 3.4863 1.016 0 2.0473-.2392 3.0097-.7431z"/><path d="m184.7461 334.6318c-3.1802 1.665-4.4087 5.5928-2.7432 8.7734 1.1611 2.2178 3.4224 3.4863 5.7637 3.4863 1.0161 0 2.0474-.2393 3.0098-.7432l14.4272-7.5537c3.1802-1.665 4.4087-5.5928 2.7432-8.7734-1.665-3.1807-5.5942-4.4087-8.7734-2.7432z"/><path d="m442.3247 198.563-49.5923 21.4204c-3.2954 1.4233-4.813 5.249-3.3896 8.5449 1.061 2.4556 3.4551 3.9238 5.9707 3.9238.8599 0 1.7344-.1714 2.5742-.5342l49.5923-21.4204c3.2954-1.4238 4.813-5.249 3.3896-8.5449-1.4238-3.2949-5.248-4.8134-8.5449-3.3896z"/><path d="m377.6289 200.8589c1.5352 0 3.0762-.5405 4.314-1.6401l20.1216-17.8726c2.6841-2.3843 2.9272-6.4927.5435-9.1763-2.3848-2.6851-6.4932-2.9277-9.1763-.5435l-20.1216 17.8726c-2.6841 2.3843-2.9272 6.4927-.5435 9.1763 1.2847 1.4463 3.0693 2.1836 4.8623 2.1836z"/><path d="m442.354 257.2485c-.3198-3.5757-3.478-6.2163-7.0527-5.8955l-29.6929 2.6548c-3.5757.3198-6.2153 3.4775-5.8955 7.0527.3022 3.3794 3.1382 5.9219 6.4668 5.9219.1934 0 .3896-.0088.5859-.0264l29.6929-2.6548c3.5757-.3198 6.2153-3.4775 5.8955-7.0527z"/><path d="m74.6313 235.8506h67.1055l23.3765 40.4897c1.1611 2.0112 3.3071 3.25 5.6294 3.25s4.4683-1.2388 5.6294-3.25l23.3765-40.4897h26.0913c3.5898 0 6.5-2.9102 6.5-6.5s-2.9102-6.5-6.5-6.5h-29.8442c-2.3223 0-4.4683 1.2388-5.6294 3.25l-19.6235 33.9897-19.6235-33.9897c-1.1611-2.0112-3.3071-3.25-5.6294-3.25h-70.8586c-7.187 0-13.0337-5.8467-13.0337-13.0337v-143.1323c0-7.187 5.8467-13.0342 13.0337-13.0342h192.2227c7.187 0 13.0337 5.8472 13.0337 13.0342v102.2959c0 .7346.1274 1.4382.3523 2.0967-6.3499 4.4309-10.71 11.6831-12.8782 21.282-5.8728 15.7268-24.6724 57.9915-64.8357 84.1829l-45.9001 24.0322c-2.7461 1.4385-4.7632 3.9824-5.5322 6.9775-.6807 2.6462-1.1294 5.3315-1.3752 8.0308-1.1116.4224-2.2102.8892-3.2668 1.4424-14.7988 7.7485-20.4263 26.2993-12.5449 41.353 5.5347 10.5703 16.2812 16.6484 27.3154 16.6484 4.6792 0 9.4102-1.0933 13.8169-3.4004.73-.3821 1.4409-.8022 2.1372-1.2432 2.8889 1.79 5.9521 3.3059 9.1675 4.4956.8943.3311 1.8208.5371 2.7544.626l18.1279 23.1177c1.2778 1.6299 3.186 2.4897 5.1191 2.4897 1.188 0 2.3794-.3416 3.4453-1.0117l38.147 53.0674c2.5522 3.5503 6.5156 5.7861 10.8745 6.1348.3979.0317.7944.0474 1.1899.0474 3.938 0 7.7197-1.561 10.5225-4.3794l18.6924-18.7988c3.3911-3.4102 4.9243-8.2744 4.1006-13.0127-.8232-4.7383-3.9077-8.8008-8.2505-10.8667l-15.0166-7.1436-21.9641-31.9395c2.1877-1.9653 2.824-5.1848 1.4226-7.8452l-9.3384-17.7283 3.4771-1.8206c.3782-.198.7205-.4404 1.0449-.7012 34.5615-15.606 77.4358-2.626 95.0967 4.0625 3.0049 1.5354 5.9487 2.748 8.8159 3.6372.1069.0381.2148.0667.3228.0986 3.7693 1.1394 7.4065 1.728 10.8652 1.728 4.5625 0 8.8213-1 12.6836-3.0225 12.4966-6.543 18.5537-22.5825 17.0557-45.1636-1.3755-20.7393-8.9351-45.1523-21.2861-68.7412-5.1304-9.7974-10.8794-19.0557-17.0879-27.5176-21.6038-29.4434-45.6462-45.46-64.2705-43.7209v-99.7896c0-14.3555-11.6787-26.0342-26.0337-26.0342h-192.2229c-14.355 0-26.0337 11.6787-26.0337 26.0342v143.1323c.0001 14.355 11.6788 26.0337 26.0337 26.0337zm229.1114 5.1631c1.3577.0039 3.968.8799 7.4146 3.5918 5.1592 4.0596 10.4399 10.8223 14.4883 18.5542s6.5977 15.9243 6.9951 22.4775c.239 3.9458-.3613 6.4792-1.0457 7.761l-24.6204-1.9255c-2.8574-4.5591-5.6006-9.3149-8.1855-14.2515-3.4568-6.6023-6.4155-13.0908-8.9351-19.4009zm-140.2725 70.6509 42.1719-22.0801c-.4868 19.7549 10.0317 39.8442 26.5449 50.6982l-42.1719 22.0806c-18.9487-7.5503-31.1323-30.8223-26.5449-50.6987zm-18.0469 40.6831c-4.1426-7.9126-1.8853-17.4438 4.9055-22.4365 2.0122 11.6621 7.6116 22.781 15.7568 31.3799-7.8322 2.3764-16.6183-1.2201-20.6623-8.9434zm123.4673 63.7905 16.5913 7.8931c.7515.3574.9663 1.0015 1.0278 1.353.061.3521.0757 1.0303-.5112 1.6206l-18.6924 18.7988c-.5259.5288-1.1421.561-1.459.5396-.3188-.0254-.9189-.1587-1.354-.7637l-38.0405-52.9194 17.0273-11.9314 22.8472 33.2229c.6475.9414 1.5318 1.6958 2.5635 2.1865zm-27.5527-49.7822-27.6826 19.3975-11.7263-14.9539 32.7244-17.134zm4.7534-33.4043c-19.6399-7.863-32.0649-32.8303-25.8474-53.106 22.0876-17.2083 37.1023-38.3162 46.7881-55.7822 2.7175 18.4844 9.7383 39.1299 20.2405 59.188 8.9954 17.1804 19.8015 32.5049 31.2896 44.5735-.4858-.0962-.9705-.1934-1.4619-.2864-27.0379-5.1201-51.2994-3.2295-71.0089 5.4131zm49.6885-153.6236c13.4697 0 33.4653 14.8008 50.897 38.5576 5.8237 7.937 11.2246 16.6367 16.0527 25.8574 24.5669 46.9199 24.8384 88.4404 9.7168 96.3579-3.5774 1.8735-8.1475 1.9888-13.3672.4902-1.1096-.5122-3.9736-1.7954-8.2251-3.4297-3.5461-1.896-7.2725-4.3665-11.1152-7.4258-7.9976-6.3667-15.8936-14.7148-23.282-24.4824l16.8621 1.3188c.1592.0127.3174.0181.4746.019.0127 0 .0249.0024.0376.0024.0266 0 .0532-.0044.0801-.0049.208-.0024.4138-.0146.6174-.0366.0747-.0081.1489-.0215.2236-.0322.1655-.0237.3293-.0522.491-.0884.0737-.0166.147-.0344.2202-.0537.1829-.0476.3623-.1033.5388-.1663.0474-.0168.095-.031.1421-.0491.2312-.0884.4565-.1887.6746-.3022.0073-.0037.0146-.0059.022-.0098 3.6377-1.9043 9.6147-7.165 8.7759-21-.5117-8.4409-3.5142-18.2856-8.4546-27.7212-4.9399-9.4351-11.3203-17.5112-17.9663-22.7407-10.8335-8.5229-18.5361-6.6758-22.198-4.781-.2151.1096-.4253.231-.6289.3657-.0347.0227-.0659.0493-.1001.0728-.1399.0962-.2786.1943-.4116.3025-.1196.0969-.2307.2012-.342.3052-.043.0405-.0889.0767-.1313.1187-.1663.1641-.3228.3359-.4688.5151l-10.1191 12.2451c-5.9377-19.4097-7.2534-36.2031-4.8196-47.7227 1.2354-3.4292 1.8674-5.574 1.9934-6.0117.0857-.2976.1411-.5959.1833-.894 1.7036-3.7749 4.0271-6.5269 6.9192-8.041 1.9784-1.0355 4.2318-1.535 6.7074-1.535z"/><path d="m322.6519 74.3247h33.0864c3.5898 0 6.5-2.9102 6.5-6.5s-2.9102-6.5-6.5-6.5h-33.0864c-3.5898 0-6.5 2.9102-6.5 6.5s2.9101 6.5 6.5 6.5z"/><path d="m322.6519 105.6758h103.7544c3.5898 0 6.5-2.9102 6.5-6.5s-2.9102-6.5-6.5-6.5h-103.7544c-3.5898 0-6.5 2.9102-6.5 6.5s2.9101 6.5 6.5 6.5z"/><path d="m322.6519 137.0273h103.7544c3.5898 0 6.5-2.9102 6.5-6.5s-2.9102-6.5-6.5-6.5h-103.7544c-3.5898 0-6.5 2.9102-6.5 6.5s2.9101 6.5 6.5 6.5z"/><path d="m101.3335 82.3345c3.5898 0 6.5-2.9102 6.5-6.5s-2.9102-6.5-6.5-6.5h-10.7896c-3.5898 0-6.5 2.9102-6.5 6.5s2.9102 6.5 6.5 6.5z"/><path d="m211.9404 194.4224c-3.5898 0-6.5 2.9102-6.5 6.5s2.9102 6.5 6.5 6.5h10.7891c3.5898 0 6.5-2.9102 6.5-6.5s-2.9102-6.5-6.5-6.5z"/></g></svg>