<?xml version="1.0" encoding="UTF-8"?>
<svg id="Capa_1" xmlns="http://www.w3.org/2000/svg" version="1.1" viewBox="0 0 510 510">
  <!-- Generator: Adobe Illustrator 30.5.1, SVG Export Plug-In . SVG Version: 2.1.4 Build 3)  -->
  <defs>
    <style>
      .st0 {
        fill: #5c5c63;
      }

      .st1 {
        fill: #ff8e00;
      }
    </style>
  </defs>
  <path class="st1" d="M369.2,296.6c-.6-10.1-4.2-21.8-10.1-33.1-5.9-11.3-13.5-20.9-21.5-27.2-12.9-10.2-22.1-8-26.5-5.7-.3.1-.5.3-.8.4h-.1c-.2.1-.3.2-.5.4-.1.1-.3.2-.4.4,0,0-.1,0-.2.1-.2.2-.4.4-.6.6l-19.5,23.6c-2.7,3.3-2.3,8.2,1,10.9,1.4,1.1,3.1,1.8,4.9,1.8s1.6-.1,2.3-.4c3.3,7.8,11,24.6,19.6,36.4-3.9,1.8-5.6,6.4-3.8,10.3,1.2,2.5,3.6,4.3,6.4,4.5l34.8,2.7h1.6c.3,0,.6,0,.8-.2.2,0,.4-.1.6-.2h.2c.3-.1.5-.2.8-.4h0c4.3-2.3,11.5-8.6,10.5-25.1l.5.2Z" data-original="#3366ff"/>
  <g>
    <path class="st1" d="M89.6,119.7h18.6l-9.3-20.2s-9.3,20.2-9.3,20.2ZM177.9,89.9h-14.5v50.1h14.5c3.7,0,6.8-3,6.8-6.8v-36.6c0-3.7-3-6.8-6.8-6.8h0Z" data-original="#3366ff"/>
    <path class="st1" d="M275.1,5H45.6c-17.2,0-31.1,13.9-31.1,31.1v170.9c0,17.1,13.9,31.1,31.1,31.1h80.1l27.9,48.4c2.1,3.7,6.9,5,10.6,2.8,1.2-.7,2.2-1.7,2.8-2.8l27.9-48.4h63.6l15.8-41.7,29.2-32.4c.4-.3.7-.7,1-1.1,1-1.3,1.5-2.9,1.5-4.6V36.1c.2-17.2-13.7-31.1-30.9-31.1ZM56.8,47c0-4.3,3.5-7.8,7.8-7.8h12.9c4.3,0,7.8,3.5,7.8,7.8s-3.5,7.8-7.8,7.8h-12.9c-4.3,0-7.8-3.5-7.8-7.8ZM133.9,156.8c-3.9,1.8-8.5,0-10.3-3.8l-8.2-17.7h-33l-8.2,17.7c-1.8,3.9-6.4,5.6-10.3,3.8-3.9-1.8-5.6-6.4-3.8-10.3h0l31.7-68.7c1.8-3.9,6.4-5.6,10.3-3.8,1.7.8,3,2.1,3.8,3.8l31.7,68.7c1.8,3.9,0,8.5-3.8,10.3h0ZM200.2,133.2c0,12.3-10,22.3-22.3,22.3h-22.3c-4.3,0-7.8-3.5-7.8-7.8v-65.6c0-4.3,3.5-7.8,7.8-7.8h22.3c12.3,0,22.3,10,22.3,22.3v36.6h0ZM222.4,204.2h-12.9c-4.3,0-7.8-3.5-7.8-7.8s3.5-7.8,7.8-7.8h12.9c4.3,0,7.8,3.5,7.8,7.8s-3.5,7.8-7.8,7.8h0ZM253.5,107.2c4.3,0,7.8,3.5,7.8,7.8h0v32.8c0,4.3-3.5,7.8-7.8,7.8h-34.4c-4.3,0-7.8-3.5-7.8-7.8s3.5-7.8,7.8-7.8h26.7v-17.3h-26.7c-4.3,0-7.8-3.5-7.8-7.8v-32.9c0-4.3,3.5-7.8,7.8-7.8h34.4c4.3,0,7.8,3.5,7.8,7.8s-3.5,7.8-7.8,7.8h-26.7v17.3h26.7Z" data-original="#3366ff"/>
  </g>
  <path class="st0" d="M403.4,240.3c-6.1-11.7-13-22.8-20.4-32.9-30.6-41.7-65.4-60.9-88.5-48.8-9.5,5-15.9,14.7-18.8,28-7.1,19.6-29.7,71.3-77.6,102.4-3.6,2.3-4.6,7.1-2.3,10.7s7.1,4.6,10.7,2.3c33.7-21.9,55.6-52.5,69-77.3,3.3,21.9,11.7,46.2,24,69.8,10.7,20.5,23.6,38.8,37.4,53.2-.6-.1-1.2-.2-1.7-.3-38.7-7.3-72.6-2.6-98.1,13.5-2.2,1.4-3.6,3.8-3.6,6.4-.6,2-.5,4.2.5,6l10.7,20.4-33.1,23.2-19.8-25.2c-2.6-3.4-7.5-4-10.9-1.3-3.4,2.6-4,7.5-1.3,10.9l24.3,31c1.5,1.9,3.7,3,6.1,3s2.9-.4,4.1-1.2l45.6,63.4c3.3,4.6,8.7,7.4,14.4,7.4s9.2-1.9,12.6-5.2l22.3-22.4c4.1-4.1,5.9-9.9,4.9-15.5-1-5.7-4.7-10.5-9.9-13l-17.9-8.5-26.2-38.1c2.6-2.3,3.4-6.2,1.7-9.4l-11.3-21.4c42.1-22.8,97.1-6.2,119.1,2.1,3.6,1.8,7.1,3.3,10.5,4.3.1,0,.3,0,.4.1,4.5,1.4,8.8,2.1,13,2.1s10.5-1.2,15.1-3.6c14.9-7.8,22.2-27,20.4-53.9-1.6-24.8-10.7-53.9-25.4-82.1h0ZM277.6,453.4l19.8,9.4c.7.3,1.1.9,1.2,1.6s0,1.4-.6,1.9l-22.3,22.5c-.5.5-1.1.7-1.7.6-.6,0-1.2-.4-1.6-.9l-45.4-63.2,20.3-14.2,27.3,39.7c.8,1.1,1.8,2,3.1,2.6h-.1ZM401.2,362.6c-4.3,2.2-9.7,2.4-16,.6-1.3-.6-4.7-2.1-9.8-4.1-4.2-2.3-8.7-5.2-13.3-8.9-17.8-14.1-35.1-36.4-48.9-62.7-20.6-39.3-26.9-75.4-22.6-96.7,1.5-4.4,2.3-7.2,2.5-7.7,0-.3.2-.7.2-1,2-4.5,4.8-7.8,8.3-9.6,2.4-1.2,5.1-1.8,8-1.8,16.1,0,40,17.7,60.8,46,7,9.5,13.4,19.9,19.2,30.9,29.3,56,29.7,105.6,11.6,115.1h0ZM161.3,384.5c-1,.7-2,1.4-3,2-10.1,5.3-22.7,1.1-28.2-9.3-5.4-10.4-1.7-23.1,8.4-28.4,1-.5,2-1,3.1-1.3,4.1-1.3,6.3-5.7,5-9.8-1.3-4.1-5.7-6.3-9.8-5h0c-1.9.6-3.7,1.4-5.5,2.3-17.7,9.3-24.4,31.4-15,49.4,6.6,12.6,19.4,19.9,32.6,19.9s11.4-1.4,16.5-4.1c1.9-1,3.7-2.1,5.4-3.5,3.4-2.6,4.1-7.5,1.5-10.9s-7.5-4.1-10.9-1.5h-.1c0,.1,0,.2,0,.2ZM494.9,197.6c-1.7-3.9-6.3-5.7-10.2-4h0l-59.2,25.6c-3.9,1.7-5.7,6.3-4,10.2s6.3,5.7,10.2,4h0l59.2-25.6c3.9-1.7,5.7-6.3,4-10.2h0ZM426.3,161.4l-24,21.3c-3.2,2.8-3.5,7.8-.6,11,2.8,3.2,7.8,3.5,11,.6l24-21.3c3.2-2.9,3.4-7.8.6-11-2.8-3.1-7.7-3.4-10.9-.6h-.1ZM476.3,256.6l-35.5,3.2c-4.3.4-7.4,4.2-7,8.5.4,4.2,4.1,7.3,8.4,7l35.5-3.2c4.3-.4,7.4-4.2,7-8.5-.4-4.2-4.1-7.3-8.4-7h0ZM341.8,45.2h39.5c4.3,0,7.8-3.5,7.8-7.8s-3.5-7.8-7.8-7.8h-39.5c-4.3,0-7.8,3.5-7.8,7.8s3.5,7.8,7.8,7.8ZM341.8,82.7h123.9c4.3,0,7.8-3.5,7.8-7.8s-3.5-7.8-7.8-7.8h-123.9c-4.3,0-7.8,3.5-7.8,7.8s3.5,7.8,7.8,7.8ZM341.8,120.1h123.9c4.3,0,7.8-3.5,7.8-7.8s-3.5-7.8-7.8-7.8h-123.9c-4.3,0-7.8,3.5-7.8,7.8s3.5,7.8,7.8,7.8Z" data-original="#070606"/>
  <path class="st1" d="M258.7,361.9c-.3-3.1-2.4-5.8-5.4-6.7-25.2-8-41.6-39.4-33.8-64.6,1.3-4.1-1-8.4-5.1-9.7-2-.6-4.1-.4-5.9.5l-65,34c-3.3,1.7-5.7,4.7-6.6,8.3-8.3,32.1,11,68.9,42.1,80.4,3.5,1.3,7.3,1,10.6-.7l65-34c2.8-1.5,4.4-4.4,4.1-7.6h0ZM162.8,345.5c-2-3.8-.5-8.5,3.3-10.5l17.2-9c3.8-1.9,8.5-.4,10.4,3.4s.5,8.4-3.2,10.4l-17.2,9c-3.8,2-8.5.5-10.5-3.3h0ZM201.5,360.8l-17.2,9c-3.8,2-8.5.5-10.5-3.3h0c-2-3.8-.5-8.5,3.3-10.5l17.2-9c3.8-2,8.5-.5,10.5,3.3h0c2,3.8.5,8.5-3.3,10.5h0Z" data-original="#3366ff"/>
</svg>