<?xml version="1.0" encoding="UTF-8"?>
<svg id="Layer_2" xmlns="http://www.w3.org/2000/svg" version="1.1" viewBox="0 0 481 500">
  <!-- Generator: Adobe Illustrator 30.5.1, SVG Export Plug-In . SVG Version: 2.1.4 Build 3)  -->
  <path d="M246.8,142.8v-32.8c0-4.3-3.5-7.8-7.8-7.8h-26.7v-17.3h26.7c4.3,0,7.8-3.5,7.8-7.8s-3.5-7.8-7.8-7.8h-34.4c-4.3,0-7.8,3.5-7.8,7.8v32.9c0,4.3,3.5,7.8,7.8,7.8h26.7v17.3h-26.7c-4.3,0-7.8,3.5-7.8,7.8s3.5,7.8,7.8,7.8h34.4c4.3,0,7.8-3.5,7.8-7.8Z"/>
  <path d="M141.1,69.4c-4.3,0-7.8,3.5-7.8,7.8v65.6c0,4.3,3.5,7.8,7.8,7.8h22.3c12.3,0,22.3-10,22.3-22.3v-36.6c0-12.3-10-22.3-22.3-22.3h-22.3ZM170.2,91.7v36.6c0,3.7-3,6.8-6.8,6.8h-14.5v-50.1h14.5c3.7,0,6.8,3,6.8,6.8Z"/>
  <path d="M49.5,151.8c3.9,1.8,8.5,0,10.3-3.8l8.2-17.7h33l8.2,17.7c1.3,2.8,4.1,4.5,7.1,4.5s2.2-.2,3.2-.7c3.9-1.8,5.6-6.4,3.8-10.3l-31.7-68.7c-1.3-2.7-4-4.5-7-4.5s-5.8,1.8-7,4.5l-31.7,68.7c-1.8,3.9,0,8.5,3.8,10.3ZM84.4,94.6l9.3,20.2h-18.6l9.3-20.2Z"/>
  <path d="M158.8,343.8l17.2-9c3.8-2,5.3-6.7,3.3-10.5-2-3.8-6.7-5.3-10.5-3.3l-17.2,9c-3.8,2-5.3,6.7-3.3,10.5,1.4,2.6,4.1,4.2,6.9,4.2s2.4-.3,3.6-.9Z"/>
  <path d="M162.6,351.1c-3.8,2-5.3,6.7-3.3,10.5,1.4,2.6,4.1,4.2,6.9,4.2s2.4-.3,3.6-.9l17.2-9c3.8-2,5.3-6.7,3.3-10.5-2-3.8-6.7-5.3-10.5-3.3l-17.2,9Z"/>
  <path d="M470.2,188.6l-59.2,25.6c-3.9,1.7-5.7,6.3-4,10.2,1.3,2.9,4.1,4.7,7.1,4.7s2.1-.2,3.1-.6l59.2-25.6c3.9-1.7,5.7-6.3,4-10.2-1.7-3.9-6.3-5.7-10.2-4h0Z"/>
  <path d="M392.9,191.3c1.8,0,3.7-.6,5.2-2l24-21.3c3.2-2.8,3.5-7.8.6-11-2.8-3.2-7.8-3.5-11-.6l-24,21.3c-3.2,2.8-3.5,7.8-.6,11,1.5,1.7,3.7,2.6,5.8,2.6h0Z"/>
  <path d="M470.2,258.7c-.4-4.3-4.2-7.4-8.4-7l-35.5,3.2c-4.3.4-7.4,4.2-7,8.4.4,4,3.7,7.1,7.7,7.1s.5,0,.7,0l35.5-3.2c4.3-.4,7.4-4.2,7-8.4Z"/>
  <path d="M31.1,233.1h80.1l27.9,48.4c1.4,2.4,3.9,3.9,6.7,3.9s5.3-1.5,6.7-3.9l27.9-48.4h31.2c4.3,0,7.8-3.5,7.8-7.8s-3.5-7.8-7.8-7.8h-35.6c-2.8,0-5.3,1.5-6.7,3.9l-23.4,40.6-23.4-40.6c-1.4-2.4-3.9-3.9-6.7-3.9H31.1c-8.6,0-15.6-7-15.6-15.6V31.1c0-8.6,7-15.6,15.6-15.6h229.5c8.6,0,15.6,7,15.6,15.6v122.2c0,.9.2,1.7.4,2.5-7.6,5.3-12.8,14-15.4,25.4-7,18.8-29.5,69.3-77.4,100.5l-54.8,28.7c-3.3,1.7-5.7,4.8-6.6,8.3-.8,3.2-1.3,6.4-1.6,9.6-1.3.5-2.6,1.1-3.9,1.7-17.7,9.3-24.4,31.4-15,49.4,6.6,12.6,19.4,19.9,32.6,19.9s11.2-1.3,16.5-4.1c.9-.5,1.7-1,2.6-1.5,3.4,2.1,7.1,3.9,10.9,5.4,1.1.4,2.2.6,3.3.7l21.6,27.6c1.5,1.9,3.8,3,6.1,3s2.8-.4,4.1-1.2l45.6,63.4c3,4.2,7.8,6.9,13,7.3.5,0,.9,0,1.4,0,4.7,0,9.2-1.9,12.6-5.2l22.3-22.4c4-4.1,5.9-9.9,4.9-15.5-1-5.7-4.7-10.5-9.9-13l-17.9-8.5-26.2-38.1c2.6-2.3,3.4-6.2,1.7-9.4l-11.2-21.2,4.2-2.2c.5-.2.9-.5,1.2-.8,41.3-18.6,92.5-3.1,113.6,4.9,3.6,1.8,7.1,3.3,10.5,4.3.1,0,.3,0,.4.1,4.5,1.4,8.8,2.1,13,2.1s10.5-1.2,15.1-3.6c14.9-7.8,22.2-27,20.4-53.9-1.6-24.8-10.7-53.9-25.4-82.1-6.1-11.7-13-22.8-20.4-32.9-25.8-35.2-54.5-54.3-76.8-52.2V31.1c0-17.1-13.9-31.1-31.1-31.1H31.1C13.9,0,0,13.9,0,31.1v170.9c0,17.1,13.9,31.1,31.1,31.1h0ZM304.7,239.3c1.6,0,4.7,1.1,8.9,4.3,6.2,4.8,12.5,12.9,17.3,22.2s7.9,19,8.4,26.8c.3,4.7-.4,7.7-1.2,9.3l-29.4-2.3c-3.4-5.4-6.7-11.1-9.8-17-4.1-7.9-7.7-15.6-10.7-23.2l16.6-20.1ZM137.2,323.6l50.4-26.4c-.6,23.6,12,47.6,31.7,60.5l-50.4,26.4c-22.6-9-37.2-36.8-31.7-60.5ZM115.6,372.2c-4.9-9.4-2.3-20.8,5.9-26.8,2.4,13.9,9.1,27.2,18.8,37.5-9.4,2.8-19.8-1.5-24.7-10.7h0ZM263.1,448.4l19.8,9.4c.9.4,1.2,1.2,1.2,1.6,0,.4,0,1.2-.6,1.9l-22.3,22.4c-.6.6-1.4.7-1.7.6-.4,0-1.1-.2-1.6-.9l-45.4-63.2,20.3-14.2,27.3,39.7c.8,1.1,1.8,2,3.1,2.6ZM230.2,388.9l-33.1,23.2-14-17.9,39.1-20.5,8,15.2ZM235.8,349.1c-23.5-9.4-38.3-39.2-30.9-63.4,26.4-20.5,44.3-45.8,55.9-66.6,3.2,22.1,11.6,46.7,24.2,70.7,10.7,20.5,23.6,38.8,37.4,53.2-.6-.1-1.2-.2-1.7-.3-32.3-6.1-61.3-3.9-84.8,6.5h0ZM295.2,165.6c16.1,0,40,17.7,60.8,46,7,9.5,13.4,19.9,19.2,30.9,29.3,56,29.7,105.6,11.6,115.1-4.3,2.2-9.7,2.4-16,.6-1.3-.6-4.7-2.1-9.8-4.1-4.2-2.3-8.7-5.2-13.3-8.9-9.6-7.6-19-17.6-27.8-29.2l20.1,1.6c.2,0,.4,0,.6,0,0,0,0,0,0,0,0,0,0,0,0,0,.2,0,.5,0,.7,0,0,0,.2,0,.3,0,.2,0,.4,0,.6-.1,0,0,.2,0,.3,0,.2,0,.4-.1.6-.2,0,0,.1,0,.2,0,.3-.1.5-.2.8-.4,0,0,0,0,0,0,4.3-2.3,11.5-8.6,10.5-25.1-.6-10.1-4.2-21.8-10.1-33.1-5.9-11.3-13.5-20.9-21.5-27.2-12.9-10.2-22.1-8-26.5-5.7-.3.1-.5.3-.8.4,0,0,0,0-.1,0-.2.1-.3.2-.5.4-.1.1-.3.2-.4.4,0,0-.1,0-.2.1-.2.2-.4.4-.6.6l-12.1,14.6c-7.1-23.2-8.7-43.2-5.8-57,1.5-4.1,2.2-6.7,2.4-7.2.1-.4.2-.7.2-1.1,2-4.5,4.8-7.8,8.3-9.6,2.4-1.2,5.1-1.8,8-1.8h0Z"/>
  <path d="M327.3,40.2h39.5c4.3,0,7.8-3.5,7.8-7.8s-3.5-7.8-7.8-7.8h-39.5c-4.3,0-7.8,3.5-7.8,7.8s3.5,7.8,7.8,7.8Z"/>
  <path d="M327.3,77.7h123.9c4.3,0,7.8-3.5,7.8-7.8s-3.5-7.8-7.8-7.8h-123.9c-4.3,0-7.8,3.5-7.8,7.8s3.5,7.8,7.8,7.8Z"/>
  <path d="M327.3,115.1h123.9c4.3,0,7.8-3.5,7.8-7.8s-3.5-7.8-7.8-7.8h-123.9c-4.3,0-7.8,3.5-7.8,7.8s3.5,7.8,7.8,7.8Z"/>
  <path d="M63,49.8c4.3,0,7.8-3.5,7.8-7.8s-3.5-7.8-7.8-7.8h-12.9c-4.3,0-7.8,3.5-7.8,7.8s3.5,7.8,7.8,7.8h12.9Z"/>
  <path d="M195.1,183.6c-4.3,0-7.8,3.5-7.8,7.8s3.5,7.8,7.8,7.8h12.9c4.3,0,7.8-3.5,7.8-7.8s-3.5-7.8-7.8-7.8h-12.9Z"/>
</svg>