<?xml version="1.0" encoding="UTF-8"?>
<svg id="Layer_2" xmlns="http://www.w3.org/2000/svg" version="1.1" viewBox="0 0 510 510">
  <!-- Generator: Adobe Illustrator 30.5.1, SVG Export Plug-In . SVG Version: 2.1.4 Build 3)  -->
  <defs>
    <style>
      .st0 {
        fill: #fff;
      }
    </style>
  </defs>
  <path class="st0" d="M65.7,325.7l17.8-3.1c3.8-.6,6.3-4.3,5.7-8-.6-3.8-4.3-6.3-8-5.7l-17.8,3.1c-3.8.6-6.3,4.3-5.7,8,.6,3.4,3.5,5.8,6.9,5.8s.9,0,1.2-.1h0Z"/>
  <path class="st0" d="M84.9,330.6l-17.8,3.1c-3.8.6-6.3,4.3-5.7,8,.6,3.4,3.5,5.8,6.9,5.8s.9,0,1.2-.1l17.8-3.1c3.8-.6,6.3-4.3,5.7-8s-4.3-6.3-8-5.7h0Z"/>
  <path class="st0" d="M472.9,16.9H99.3c-17.8,0-32.4,14.5-32.4,32.4v208.8c0,3.9,3.1,7,7,7s7-3.1,7-7V105h410.5v236.5c0,10.2-8.3,18.4-18.4,18.4h-171.2c2.7-19.5,1.9-42.2-2.1-65.3-5.1-29.1-15-55.5-27.9-74.6-13.9-20.8-30-30.7-45.3-28-9.6,1.7-17.9,8.3-24.1,19-11.5,14.7-45.7,53.2-96.9,67.3l-56.6,10c-3.3.5-6.2,2.6-8,5.4-1.6,2.6-3,5.4-4.2,8.1-1.4,0-2.7.2-4.1.4-18.1,3.2-30.2,20.8-26.9,39.2,2.9,16.5,17.2,28.1,33,28.1s3.8-.2,5.7-.5c1-.2,1.9-.4,2.8-.6,2.5,2.9,5.3,5.6,8.3,7.9.9.6,1.7,1.2,2.8,1.6l11.5,30.7c1.1,2.8,3.6,4.5,6.5,4.5s1.3,0,1.9-.3l22.6,69c1.5,4.5,4.8,8.1,9.3,10,1.9.8,4.1,1.2,6.1,1.2s5.1-.6,7.5-1.8l26-13.6c4.6-2.5,7.8-7,8.6-12.2.8-5.3-1.2-10.5-5-14l-13.5-12.6-12.5-41.4c3-1.3,4.7-4.4,4.2-7.6l-4-22.1,4.5-.8c.4,0,.9-.2,1.3-.4,41.8-4.9,82.9,23.3,99.3,36.2,2.8,2.8,5.7,5.1,8.5,7.1,0,0,.1,0,.2.1,6.5,4.4,13.3,6.8,19.8,6.8s3.3-.1,4.9-.4c15.3-2.7,27-17.6,33-41.8v-.4h173.8c17.8,0,32.4-14.5,32.4-32.4V49.3c.3-17.9-14.3-32.4-32.1-32.4h-.2ZM224.2,274.2c1.5.4,4.1,2.3,6.9,6.4,4.1,6,7.4,15,9.1,24.5,3.3,19-.8,31.3-4,34.3l-25.6-10.4c-1.5-5.8-2.8-11.8-3.9-17.9-1.5-8.1-2.4-16.1-2.9-23.7l20.5-13.2h-.1ZM19.4,338.9c-1.7-10,4.1-19.5,13.2-22.4-1.9,13.2.3,27,6.2,39-9.3,0-17.7-6.9-19.4-16.6h0ZM52.2,301.7l52.5-9.3c-7.4,20.8-2.9,45.9,11.1,62.9l-52.5,9.3c-17.7-14.4-22.8-43.3-11.1-62.9ZM143.7,461.6c.8.8.8,1.5.8,1.9s-.3,1.3-1.2,1.7l-26,13.6c-.9.4-1.6.2-1.9,0-.3-.1-1.1-.5-1.3-1.4l-22.5-68.9,22.4-7.1,13.1,43c.3,1.2,1,2.3,1.9,3.1l14.9,13.9h-.1v.2ZM116.5,386.1l-36.1,11.4-7.5-20.3,40.8-7.2,2.9,16.1h0ZM132.4,352.4c-18.3-15-23-45.8-9.5-65.2,29.4-10.8,52.5-28.4,68.6-43.7-3.4,20.6-3,45,1.4,69.9,3.8,21.4,10.2,41.5,18.4,58.2-.6-.4-1.4-.8-2.1-1.2-26.8-14.5-53.1-20.6-76.9-18h.1ZM263.7,402.4c-4.5.8-9.4-.6-14.5-4-1-.9-3.5-3.2-7.5-6.4-3.1-3.2-6.2-7.1-9.3-11.6-6.4-9.5-12-21.2-16.6-34.2l17.9,7.3h.3c.3.1.6.2,1,.3h2.4c4.4-.8,12.4-4.3,16.1-19.1,2.3-9.1,2.4-20.5.3-32.1-2-11.6-6.1-22.2-11.4-30-8.6-12.5-17.2-13.2-21.7-12.4-.2,0-.5,0-.8.2h-.2c-.1,0-.3,0-.4.1-.2,0-.3.1-.5.2h-.1c-.2.1-.4.2-.6.4l-15.1,9.8c.2-22.8,4.5-41.3,11-52.7,2.4-3.1,3.8-5.1,4-5.6.2-.2.3-.5.4-.9,3.1-3.5,6.5-5.7,10.2-6.3.9-.1,1.6-.2,2.5-.2,8.9,0,19.2,7.9,28.8,22.2,11.8,17.6,20.9,42.1,25.7,69.4,10.3,58-3.5,102.1-22.3,105.4h0l.4.2h0ZM80.9,91.1v-41.8c0-10.2,8.3-18.4,18.4-18.4h373.6c10.2,0,18.4,8.3,18.4,18.4v41.8H80.9Z"/>
  <path class="st0" d="M117.5,54.1h-2.9c-3.9,0-7,3.1-7,7s3.1,7,7,7h2.9c3.9,0,7-3.1,7-7s-3.1-7-7-7Z"/>
  <path class="st0" d="M178.9,54.1h-2.9c-3.9,0-7,3.1-7,7s3.1,7,7,7h2.9c3.9,0,7-3.1,7-7s-3.1-7-7-7Z"/>
  <path class="st0" d="M148.2,54.1h-2.9c-3.9,0-7,3.1-7,7s3.1,7,7,7h2.9c3.9,0,7-3.1,7-7s-3.1-7-7-7Z"/>
  <path class="st0" d="M347,185.4h-31.9c-3.9,0-7,3.1-7,7v37.8c0,3.9,3.1,7,7,7h31.9c3.9,0,7-3.1,7-7v-37.8c0-3.9-3.1-7-7-7ZM340,223.3h-18v-23.9h18v23.9Z"/>
  <path class="st0" d="M403.8,237.2c3.9,0,7-3.1,7-7v-63.4c0-3.9-3.1-7-7-7h-31.9c-3.9,0-7,3.1-7,7v63.4c0,3.9,3.1,7,7,7h31.9ZM378.9,173.8h18v49.4h-18v-49.4Z"/>
  <path class="st0" d="M460,237.2c3.9,0,7-3.1,7-7v-89.9c0-3.9-3.1-7-7-7h-31.9c-3.9,0-7,3.1-7,7v89.9c0,3.9,3.1,7,7,7h31.9ZM435,147.3h18v76h-18v-76Z"/>
  <path class="st0" d="M346,267.1c0,3.9,3.1,7,7,7h107c3.9,0,7-3.1,7-7s-3.1-7-7-7h-107c-3.9,0-7,3.1-7,7h0Z"/>
  <path class="st0" d="M353,306.1h10.5c3.9,0,7-3.1,7-7s-3.1-7-7-7h-10.5c-3.9,0-7,3.1-7,7s3.1,7,7,7Z"/>
  <path class="st0" d="M460,292.2h-70.6c-3.9,0-7,3.1-7,7s3.1,7,7,7h70.6c3.9,0,7-3.1,7-7s-3.1-7-7-7Z"/>
  <path class="st0" d="M353,338.2h107c3.9,0,7-3.1,7-7s-3.1-7-7-7h-107c-3.9,0-7,3.1-7,7s3.1,7,7,7Z"/>
  <path class="st0" d="M109.9,151.3h17.5c3.9,0,7-3.1,7-7s-3.1-7-7-7h-17.5c-3.9,0-7,3.1-7,7s3.1,7,7,7Z"/>
  <path class="st0" d="M109.9,182.6h17.5c3.9,0,7-3.1,7-7s-3.1-7-7-7h-17.5c-3.9,0-7,3.1-7,7s3.1,7,7,7Z"/>
  <path class="st0" d="M153.8,151.3h17.5c3.9,0,7-3.1,7-7s-3.1-7-7-7h-17.5c-3.9,0-7,3.1-7,7s3.1,7,7,7Z"/>
  <path class="st0" d="M153.8,182.6h17.5c3.9,0,7-3.1,7-7s-3.1-7-7-7h-17.5c-3.9,0-7,3.1-7,7s3.1,7,7,7Z"/>
  <path class="st0" d="M109.9,213.9h17.5c3.9,0,7-3.1,7-7s-3.1-7-7-7h-17.5c-3.9,0-7,3.1-7,7s3.1,7,7,7Z"/>
</svg>