<?xml version="1.0" encoding="UTF-8"?>
<svg id="Layer_2" xmlns="http://www.w3.org/2000/svg" version="1.1" viewBox="0 0 510 510">
  <!-- Generator: Adobe Illustrator 30.5.1, SVG Export Plug-In . SVG Version: 2.1.4 Build 3)  -->
  <defs>
    <style>
      .st0 {
        fill: #fff;
      }
    </style>
  </defs>
  <path class="st0" d="M261.2,147.9v-32.7c0-4.3-3.5-7.8-7.8-7.8h-26.6v-17.3h26.6c4.3,0,7.8-3.5,7.8-7.8s-3.5-7.8-7.8-7.8h-34.4c-4.3,0-7.8,3.5-7.8,7.8v32.8c0,4.3,3.5,7.8,7.8,7.8h26.6v17.2h-26.6c-4.3,0-7.8,3.5-7.8,7.8s3.5,7.8,7.8,7.8h34.4c4.3,0,7.8-3.5,7.8-7.8Z"/>
  <path class="st0" d="M155.6,74.4c-4.3,0-7.8,3.5-7.8,7.8v65.7c0,4.3,3.5,7.8,7.8,7.8h22.3c12.3,0,22.3-10,22.3-22.3v-36.6c0-12.3-10-22.3-22.3-22.3h-22.3ZM184.6,96.7v36.6c0,3.7-3,6.8-6.8,6.8h-14.6v-50.2h14.6c3.7,0,6.8,3,6.8,6.8Z"/>
  <path class="st0" d="M63.9,156.8c3.9,1.8,8.5,0,10.3-3.8l8.2-17.7h33l8.2,17.7c1.3,2.9,4.1,4.5,7,4.5s2.2-.2,3.2-.7c3.9-1.8,5.6-6.5,3.8-10.3l-31.8-68.7c-1.3-2.7-4.1-4.5-7-4.5s-5.7,1.8-7,4.5l-31.8,68.7c-1.8,3.9,0,8.5,3.8,10.3h.1ZM98.8,99.6l9.3,20.2h-18.6s9.3-20.2,9.3-20.2Z"/>
  <path class="st0" d="M173.3,348.9l17.2-9.1c3.8-2,5.3-6.7,3.2-10.5-2-3.8-6.7-5.3-10.5-3.2l-17.2,9.1c-3.8,2-5.3,6.7-3.2,10.5,1.4,2.6,4.1,4.2,6.9,4.2s2.4-.2,3.6-.8h0v-.2Z"/>
  <path class="st0" d="M177,356.2c-3.8,2-5.3,6.7-3.2,10.5,1.4,2.6,4.1,4.2,6.9,4.2s2.4-.2,3.6-.8l17.2-9.1c3.8-2,5.3-6.7,3.2-10.5-2-3.8-6.7-5.3-10.5-3.2l-17.2,9.1h0v-.2Z"/>
  <path class="st0" d="M484.7,193.6l-59.2,25.6c-3.9,1.7-5.7,6.2-4.1,10.2,1.3,3,4.2,4.7,7.2,4.7s2-.2,3.1-.6l59.2-25.6c3.9-1.7,5.7-6.2,4.1-10.2s-6.2-5.7-10.2-4.1h-.1Z"/>
  <path class="st0" d="M407.4,196.4c1.8,0,3.7-.6,5.1-1.9l24-21.4c3.2-2.9,3.5-7.8.6-11s-7.8-3.5-11-.6l-24,21.4c-3.2,2.9-3.5,7.8-.6,11,1.6,1.7,3.7,2.6,5.9,2.6h0Z"/>
  <path class="st0" d="M484.8,263.7c-.4-4.3-4.2-7.4-8.5-7l-35.5,3.2c-4.3.4-7.4,4.2-7,8.5.4,4.1,3.7,7,7.8,7s.5,0,.7,0l35.5-3.2c4.3-.4,7.4-4.2,7-8.5Z"/>
  <path class="st0" d="M45.5,238.2h80.1l28,48.4c1.4,2.4,3.9,3.8,6.7,3.8s5.4-1.4,6.7-3.8l28-48.4h31.2c4.3,0,7.8-3.5,7.8-7.8s-3.5-7.8-7.8-7.8h-35.6c-2.7,0-5.4,1.4-6.7,3.8l-23.4,40.6-23.4-40.6c-1.4-2.4-3.9-3.8-6.7-3.8H45.5c-8.6,0-15.5-6.9-15.5-15.5V36.1c0-8.6,6.9-15.5,15.5-15.5h229.6c8.6,0,15.5,6.9,15.5,15.5v122.2c0,.8.1,1.7.5,2.5-7.5,5.3-12.8,14-15.4,25.4-7,18.8-29.5,69.3-77.4,100.6l-54.8,28.7c-3.2,1.7-5.7,4.8-6.6,8.4-.8,3.1-1.3,6.3-1.7,9.6-1.3.5-2.6,1.1-3.9,1.7-17.7,9.2-24.4,31.4-14.9,49.5,6.6,12.7,19.5,19.8,32.6,19.8s11.2-1.3,16.5-4.1c.8-.5,1.7-1,2.5-1.4,3.5,2.2,7.2,3.9,11,5.4,1.1.4,2.2.6,3.3.7l21.6,27.6c1.6,1.9,3.8,3,6.1,3s2.9-.4,4.1-1.2l45.5,63.4c3.1,4.3,7.8,6.9,13,7.3h1.4c4.7,0,9.2-1.9,12.5-5.3l22.3-22.5c4.1-4.1,5.9-9.9,4.9-15.5s-4.7-10.5-9.9-13l-17.9-8.5-26.3-38.1c2.6-2.4,3.3-6.2,1.7-9.3l-11.1-21.1,4.2-2.2c.5-.2.8-.5,1.2-.8,41.3-18.6,92.5-3.1,113.6,4.9,3.6,1.8,7,3.2,10.5,4.3h.4c4.5,1.3,8.8,2,13,2s10.5-1.2,15.2-3.6c14.9-7.8,22.2-27,20.4-54-1.7-24.7-10.6-54-25.4-82.1-6.1-11.7-13-22.8-20.4-32.8-25.8-35.1-54.5-54.3-76.8-52.2V36.1c0-17.2-14-31.1-31.1-31.1H45.5c-17.1,0-31.1,14-31.1,31.1v170.9c0,17.2,14,31.1,31.1,31.1h0ZM319.1,244.4c1.7,0,4.8,1.1,8.8,4.3,6.2,4.9,12.4,12.9,17.3,22.2s7.9,19,8.4,26.9c.2,4.7-.5,7.8-1.2,9.3l-29.4-2.3c-3.5-5.5-6.7-11.1-9.8-17.1-4.2-7.9-7.6-15.6-10.6-23.2l16.6-20.1h-.1,0ZM151.6,328.7l50.4-26.4c-.6,23.7,11.9,47.5,31.7,60.6l-50.4,26.4c-22.6-9.1-37.1-36.8-31.7-60.6ZM130,377.3c-4.9-9.4-2.3-20.8,5.9-26.8,2.4,14,9.1,27.2,18.9,37.5-9.3,2.9-19.8-1.4-24.7-10.6h0ZM277.5,453.5l19.8,9.4c1,.5,1.2,1.2,1.2,1.7s0,1.2-.6,1.9l-22.3,22.5c-.6.6-1.3.7-1.8.6-.4,0-1.1-.2-1.7-1l-45.4-63.2,20.3-14.2,27.2,39.7c.7,1.1,1.8,2,3.1,2.6h.2ZM244.6,394l-33.1,23.2-14-17.9,39.1-20.4,8,15.2h0ZM250.3,354.1c-23.4-9.4-38.3-39.2-30.8-63.4,26.4-20.5,44.3-45.7,55.9-66.7,3.2,22.1,11.6,46.7,24.1,70.7,10.8,20.5,23.7,38.8,37.4,53.3-.6,0-1.2-.2-1.8-.4-32.3-6.1-61.3-3.8-84.8,6.5h0ZM309.7,170.7c16.1,0,40,17.7,60.8,46.1,6.9,9.4,13.4,19.8,19.2,30.9,29.4,56,29.6,105.6,11.6,115.1-4.3,2.3-9.7,2.4-16,.6-1.3-.6-4.8-2.2-9.8-4.1-4.2-2.3-8.7-5.3-13.3-8.8-9.6-7.6-19-17.6-27.8-29.3l20.2,1.6h2.4c.2,0,.5-.1.6-.2h.1c.2,0,.6-.2.8-.4h0c4.3-2.3,11.5-8.6,10.5-25.1-.6-10-4.2-21.9-10.2-33.1-5.9-11.2-13.5-20.9-21.5-27.1-12.9-10.2-22.1-8-26.5-5.7-.2.1-.5.2-.7.5h-.1c-.1,0-.4.2-.5.4-.1,0-.2.2-.4.4h-.1c-.2.4-.4.5-.6.7l-12.1,14.6c-7-23.2-8.7-43.2-5.7-57,1.4-4.1,2.3-6.7,2.4-7.2,0-.4.1-.7.2-1.1,2-4.5,4.8-7.8,8.2-9.6,2.4-1.2,5-1.8,8-1.8h0v-.5h.3Z"/>
  <path class="st0" d="M341.8,45.3h39.5c4.3,0,7.8-3.5,7.8-7.8s-3.5-7.8-7.8-7.8h-39.5c-4.3,0-7.8,3.5-7.8,7.8s3.5,7.8,7.8,7.8Z"/>
  <path class="st0" d="M341.8,82.6h124c4.3,0,7.8-3.5,7.8-7.8s-3.5-7.8-7.8-7.8h-124c-4.3,0-7.8,3.5-7.8,7.8s3.5,7.8,7.8,7.8h0Z"/>
  <path class="st0" d="M341.8,120.1h124c4.3,0,7.8-3.5,7.8-7.8s-3.5-7.8-7.8-7.8h-124c-4.3,0-7.8,3.5-7.8,7.8s3.5,7.8,7.8,7.8h0Z"/>
  <path class="st0" d="M77.3,54.8c4.3,0,7.8-3.5,7.8-7.8s-3.5-7.8-7.8-7.8h-12.9c-4.3,0-7.8,3.5-7.8,7.8s3.5,7.8,7.8,7.8c0,0,12.9,0,12.9,0Z"/>
  <path class="st0" d="M209.5,188.7c-4.3,0-7.8,3.5-7.8,7.8s3.5,7.8,7.8,7.8h12.9c4.3,0,7.8-3.5,7.8-7.8s-3.5-7.8-7.8-7.8h-12.9Z"/>
</svg>