<svg id="Layer_2" enable-background="new 0 0 500 500" viewBox="0 0 500 500" xmlns="http://www.w3.org/2000/svg"><g fill="rgb(0,0,0)"><path d="m73.2578 315.9771 16.585-2.9316c3.5342-.625 5.8936-3.9971 5.2686-7.5322-.624-3.5356-3.999-5.8892-7.5322-5.2695l-16.585 2.9316c-3.5342.625-5.8936 3.9971-5.2686 7.5322.5566 3.1528 3.2988 5.3696 6.3926 5.3696.3759-.0001.7568-.0328 1.1396-.1001z"/><path d="m91.1533 320.4634-16.585 2.9316c-3.5342.625-5.8936 3.9971-5.2686 7.5322.5566 3.1528 3.2988 5.3696 6.3926 5.3696.376 0 .7568-.0327 1.1396-.1001l16.585-2.9316c3.5342-.625 5.8936-3.9971 5.2686-7.5322-.624-3.5356-3.996-5.8901-7.5322-5.2695z"/><path d="m453.1045 27.9614h-348.4902c-16.6445 0-30.1865 13.5415-30.1865 30.1865v194.8281c0 3.5898 2.9102 6.5 6.5 6.5s6.5-2.9102 6.5-6.5v-142.8476h382.8632v220.5977c0 9.4766-7.71 17.1865-17.1865 17.1865h-159.6899c2.479-18.241 1.832-39.3657-1.9819-60.938-4.7881-27.0874-14.0127-51.8208-25.9746-69.645-12.9902-19.3569-28.0068-28.6279-42.2783-26.104-8.9995 1.5911-16.6665 7.6915-22.5005 17.6536-10.7354 13.668-42.6309 49.5706-90.3862 62.8146l-52.7842 9.3312c-3.0957.5469-5.8252 2.3857-7.4902 5.0459-1.5171 2.4249-2.8101 4.9646-3.9033 7.5826-1.2671.0652-2.5352.1827-3.7852.4037-16.8906 2.9863-28.1621 19.396-25.125 36.5806 2.7148 15.3599 15.957 26.2188 30.8027 26.2188 1.7627 0 3.5488-.1533 5.3418-.4702.8789-.1554 1.751-.3507 2.6118-.5811 2.3003 2.6959 4.8657 5.1707 7.686 7.3677.7876.6138 1.6499 1.1064 2.5566 1.4834l10.6709 28.5542c.9727 2.6016 3.4434 4.2261 6.0879 4.2261.6069 0 1.2231-.0938 1.832-.2731l21.0605 64.4381c1.3848 4.2363 4.5459 7.6309 8.6729 9.3135 1.8398.7495 3.7793 1.1221 5.7158 1.1221 2.4072 0 4.8066-.5762 6.998-1.7188l24.3076-12.6816c4.3457-2.2671 7.335-6.52 7.9961-11.3765.6611-4.8574-1.082-9.7549-4.6641-13.1011l-12.6104-11.7812-11.7246-38.5789c2.793-1.1588 4.4443-4.121 3.9014-7.1482l-3.6973-20.6163 4.2168-.7455c.4316-.0763.8408-.2087 1.2388-.365 39.0327-4.5946 77.2964 21.6517 92.6465 33.7975 2.6069 2.5808 5.2588 4.7819 7.9375 6.6075.0557.0364.1099.075.1665.1095 6.1182 4.1327 12.3721 6.288 18.5459 6.288 1.5527 0 3.1006-.1348 4.6396-.4067 14.2734-2.5234 25.1992-16.3794 30.7666-39.0161.0317-.1283.0576-.2625.0889-.3911h162.1064c16.6445 0 30.1865-13.5415 30.1865-30.1865v-272.5784c.0002-16.645-13.5418-30.1865-30.1863-30.1865zm-232.0132 239.9217c1.3984.3955 3.7544 2.0894 6.3989 5.9812 3.833 5.6411 6.9355 13.9907 8.5117 22.9092 3.1338 17.7263-.748 29.2229-3.7495 31.9744l-23.9214-9.7054c-1.4033-5.4276-2.6299-11.0157-3.6406-16.7343-1.3516-7.645-2.2407-15.0193-2.7476-22.0758zm-191.0854 60.4914c-1.6489-9.3315 3.7881-18.2448 12.3462-20.9482-1.7671 12.3052.3052 25.2418 5.7925 36.4076-8.7091.0675-16.5284-6.351-18.1387-15.4594zm30.5986-34.6953 48.9531-8.6538c-6.8555 19.4404-2.7246 42.8076 10.3789 58.7192l-48.9512 8.6533c-16.4843-13.4379-21.2587-40.4433-10.3808-58.7187zm85.4023 148.979c.7021.6562.7139 1.4395.6582 1.8481s-.2764 1.1602-1.1279 1.6045l-24.3076 12.6816c-.7646.3979-1.4521.2241-1.7939.084-.3418-.1392-.9561-.4951-1.2227-1.313l-21.0088-64.2814 20.9463-6.5676 12.1904 40.1128c.332 1.0933.9463 2.0796 1.7812 2.8594zm-25.3652-70.3491-33.7451 10.5811-7.0469-18.8574 38.1001-6.7354zm14.8135-31.3631c-17.0571-13.9579-21.5361-42.697-8.9375-60.8489 27.4458-10.1438 49.0137-26.4846 64.043-40.7739-3.2173 19.1809-2.7891 41.9541 1.3291 65.2476 3.5342 19.9949 9.4917 38.6971 17.1777 54.2947-.6465-.3584-1.2983-.7158-1.958-1.0715-25.0435-13.504-49.5425-19.2211-71.6543-16.848zm122.4238 46.5721c-4.1777.7371-8.7798-.5962-13.5117-3.7482-.9263-.8461-3.3491-3.0092-7.0361-5.9559-2.9175-2.9915-5.8306-6.6073-8.6729-10.8423-5.9785-8.9081-11.2178-19.7877-15.4805-31.9344l16.6689 6.7631c.0444.0181.0898.0303.1348.0472.061.0233.123.0433.1851.0649.3135.109.6294.1979.9478.2567.0303.0056.0615.0082.0928.0134.3604.0613.7217.0967 1.0811.0967.3574 0 .7109-.0366 1.0601-.0946.0249-.004.0488-.0021.0737-.0065 4.1289-.73 11.5732-4.0122 15.0449-17.79 2.1289-8.4512 2.248-19.062.3359-29.8779-1.9111-10.8164-5.6611-20.7432-10.5586-27.9517-7.9531-11.7053-16.0352-12.2759-20.1812-11.562-.2319.0389-.4619.0902-.6904.1549-.0596.0168-.1162.0398-.1748.0582-.1431.0449-.2866.0891-.4272.1445-.1611.063-.3159.1357-.4697.2104-.0361.0178-.0737.0315-.1099.0499-.2109.1075-.415.226-.6108.3546l-14.1377 9.1177c.1816-21.3011 4.2002-38.5164 10.313-49.2104 2.2261-2.9154 3.4878-4.7825 3.7446-5.1685.1626-.2445.2998-.4979.4258-.7546 2.9121-3.2793 6.125-5.3263 9.5176-5.926.7588-.1343 1.5312-.2007 2.3164-.2007 8.2871 0 17.9492 7.4038 26.9043 20.7471 10.9756 16.3545 19.4873 39.3193 23.9678 64.6636 9.5575 54.0669-3.2658 95.1895-20.7531 98.2808zm-170.4512-290.3897v-38.9805c0-9.4766 7.71-17.1865 17.1865-17.1865h348.4902c9.4766 0 17.1865 7.71 17.1865 17.1865v38.9805z"/><path d="m121.5498 62.6953h-2.6621c-3.5898 0-6.5 2.9102-6.5 6.5s2.9102 6.5 6.5 6.5h2.6621c3.5898 0 6.5-2.9102 6.5-6.5s-2.9102-6.5-6.5-6.5z"/><path d="m178.7715 62.6953h-2.6611c-3.5898 0-6.5 2.9102-6.5 6.5s2.9102 6.5 6.5 6.5h2.6611c3.5898 0 6.5-2.9102 6.5-6.5s-2.9102-6.5-6.5-6.5z"/><path d="m150.1611 62.6953h-2.6621c-3.5898 0-6.5 2.9102-6.5 6.5s2.9102 6.5 6.5 6.5h2.6621c3.5898 0 6.5-2.9102 6.5-6.5s-2.9101-6.5-6.5-6.5z"/><path d="m335.6602 185.1597h-29.7637c-3.5898 0-6.5 2.9102-6.5 6.5v35.3096c0 3.5898 2.9102 6.5 6.5 6.5h29.7637c3.5898 0 6.5-2.9102 6.5-6.5v-35.3096c0-3.5899-2.9102-6.5-6.5-6.5zm-6.5 35.3095h-16.7637v-22.3096h16.7637z"/><path d="m388.6396 233.4692c3.5898 0 6.5-2.9102 6.5-6.5v-59.1318c0-3.5898-2.9102-6.5-6.5-6.5h-29.7636c-3.5898 0-6.5 2.9102-6.5 6.5v59.1318c0 3.5898 2.9102 6.5 6.5 6.5zm-23.2636-59.1318h16.7637v46.1318h-16.7637z"/><path d="m441.0244 233.4692c3.5898 0 6.5-2.9102 6.5-6.5v-83.8721c0-3.5898-2.9102-6.5-6.5-6.5h-29.7637c-3.5898 0-6.5 2.9102-6.5 6.5v83.8721c0 3.5898 2.9102 6.5 6.5 6.5zm-23.2637-83.872h16.7637v70.8721h-16.7637z"/><path d="m334.6865 261.3838c0 3.5898 2.9102 6.5 6.5 6.5h99.8379c3.5898 0 6.5-2.9102 6.5-6.5s-2.9102-6.5-6.5-6.5h-99.8379c-3.5898 0-6.5 2.9101-6.5 6.5z"/><path d="m341.1865 297.6987h9.832c3.5898 0 6.5-2.9102 6.5-6.5s-2.9102-6.5-6.5-6.5h-9.832c-3.5898 0-6.5 2.9102-6.5 6.5s2.9102 6.5 6.5 6.5z"/><path d="m441.0244 284.6987h-65.8994c-3.5898 0-6.5 2.9102-6.5 6.5s2.9102 6.5 6.5 6.5h65.8994c3.5898 0 6.5-2.9102 6.5-6.5s-2.9101-6.5-6.5-6.5z"/><path d="m341.1865 327.5137h99.8379c3.5898 0 6.5-2.9102 6.5-6.5s-2.9102-6.5-6.5-6.5h-99.8379c-3.5898 0-6.5 2.9102-6.5 6.5s2.9102 6.5 6.5 6.5z"/><path d="m114.3613 153.4033h16.3008c3.5898 0 6.5-2.9102 6.5-6.5s-2.9102-6.5-6.5-6.5h-16.3008c-3.5898 0-6.5 2.9102-6.5 6.5s2.9102 6.5 6.5 6.5z"/><path d="m114.3613 182.584h16.3008c3.5898 0 6.5-2.9102 6.5-6.5s-2.9102-6.5-6.5-6.5h-16.3008c-3.5898 0-6.5 2.9102-6.5 6.5s2.9102 6.5 6.5 6.5z"/><path d="m155.3809 153.4033h16.3018c3.5898 0 6.5-2.9102 6.5-6.5s-2.9102-6.5-6.5-6.5h-16.3018c-3.5898 0-6.5 2.9102-6.5 6.5s2.9101 6.5 6.5 6.5z"/><path d="m155.3809 182.584h16.3018c3.5898 0 6.5-2.9102 6.5-6.5s-2.9102-6.5-6.5-6.5h-16.3018c-3.5898 0-6.5 2.9102-6.5 6.5s2.9101 6.5 6.5 6.5z"/><path d="m114.3613 211.7646h16.3008c3.5898 0 6.5-2.9102 6.5-6.5s-2.9102-6.5-6.5-6.5h-16.3008c-3.5898 0-6.5 2.9102-6.5 6.5s2.9102 6.5 6.5 6.5z"/></g></svg>