<?xml version="1.0" encoding="UTF-8"?>
<svg id="Capa_1" xmlns="http://www.w3.org/2000/svg" version="1.1" viewBox="0 0 510 510">
  <!-- Generator: Adobe Illustrator 30.5.1, SVG Export Plug-In . SVG Version: 2.1.4 Build 3)  -->
  <defs>
    <style>
      .st0 {
        fill: #5c5c63;
      }

      .st1 {
        fill: #ff8e00;
      }
    </style>
  </defs>
  <path class="st1" d="M253.7,302.7c-2-11.6-6.1-22.2-11.3-30-8.5-12.5-17.2-13.2-21.6-12.4-.2,0-.5,0-.7.2h-.2c-.2,0-.3,0-.5.2-.2,0-.3.1-.5.2h-.1c-.2.1-.4.2-.7.4l-23.9,15.4c-3.2,2.1-4.2,6.4-2.1,9.6,1.3,2,3.5,3.2,5.9,3.2h.6c.1,9.6,1.1,27.7,6.5,38.2-3.8.5-6.5,4-6,7.8.3,2.5,2,4.6,4.3,5.5l30,12.2h.3c.3.1.7.2,1,.3h0c.4,0,.8.1,1.2.1s.8,0,1.1-.1h0c4.4-.8,12.4-4.3,16.1-19.1,2.3-9.1,2.4-20.4.4-32h0l.2.3ZM346.8,185.6h-31.9c-3.8,0-7,3.1-7,7h0v37.8c0,3.8,3.1,7,7,7h31.9c3.8,0,7-3.1,7-7v-37.8c0-3.8-3.1-7-7-7h0ZM403.6,159.9h-31.9c-3.8,0-7,3.1-7,7v63.4c0,3.8,3.1,7,7,7h31.9c3.8,0,7-3.1,7-7h0v-63.4c0-3.8-3.1-7-7-7ZM459.7,133.5h-31.9c-3.8,0-7,3.1-7,7h0v89.9c0,3.8,3.1,7,7,7h31.9c3.8,0,7-3.1,7-7h0v-89.9c0-3.8-3.1-7-7-7h0Z" data-original="#3366ff"/>
  <g>
    <path class="st0" d="M45.1,354.3c-1.1.4-2.2.7-3.3.9-10.5,1.9-20.7-5.4-22.6-16.3s5.1-21.2,15.6-23.1c1-.2,2.1-.3,3.1-.3,3.8,0,7-3.2,6.9-7,0-3.8-3.2-7-7-6.9h0c-1.8,0-3.6.2-5.4.5-18.1,3.2-30.2,20.8-26.9,39.2,2.9,16.5,17.1,28.1,33,28.1s7.8-.7,11.4-2c3.6-1.4,5.4-5.4,4-9-1.4-3.5-5.3-5.3-8.8-4.1h0ZM472.7,17.1H99.2c-17.8,0-32.3,14.5-32.3,32.3v208.8c0,3.8,3.1,7,7,7s7-3.1,7-7V105.2h410.3v236.4c0,10.2-8.3,18.4-18.4,18.4h-171.1c2.7-19.5,2-42.2-2.1-65.3-5.1-29-15-55.5-27.8-74.6-13.9-20.7-30-30.7-45.3-28-10.1,1.8-18.6,8.9-25,20.4-12.2,16.2-46.1,55.6-96.3,69.4-3.7,1-5.9,4.9-4.9,8.6s4.9,5.9,8.6,4.9c35.9-9.9,63.7-31.2,82.3-49.7-3.1,20.1-2.5,43.8,1.7,67.9,3.8,21.4,10.2,41.5,18.4,58.2-.7-.4-1.4-.8-2.1-1.1-32.1-17.3-63.4-22.7-90.4-15.6-2.3.6-4.1,2.3-4.8,4.6-1.1,1.5-1.5,3.4-1.2,5.3l3.8,21.2-36.2,11.3-10.5-28c-1.3-3.6-5.4-5.4-9-4.1s-5.4,5.4-4.1,9l12.8,34.2c1,2.7,3.6,4.5,6.5,4.5s1.3-.1,2-.3l22.6,69.1c1.5,4.5,4.9,8.2,9.3,10s9.4,1.6,13.6-.6l26-13.6c4.7-2.4,7.9-7,8.6-12.2.7-5.2-1.2-10.4-5-14l-13.5-12.6-12.6-41.3c3-1.3,4.8-4.4,4.2-7.7l-4-22.4c43.8-8.5,88,21.7,105.2,35.3,2.8,2.8,5.6,5.1,8.5,7.1,0,0,.1,0,.2.1,6.6,4.4,13.3,6.7,19.9,6.7s3.3-.1,5-.4c15.3-2.7,27-17.6,33-41.8v-.4h173.7c17.8,0,32.3-14.5,32.3-32.3V49.4c0-17.8-14.5-32.3-32.3-32.3h0ZM143.6,461.4c.8.7.8,1.5.7,2s-.3,1.2-1.2,1.7l-26,13.6c-.6.3-1.3.3-1.9,0s-1.1-.8-1.3-1.4l-22.5-68.9,22.4-7,13.1,43c.4,1.2,1,2.2,1.9,3.1l14.9,13.9h0ZM263.4,402.3c-4.5.8-9.4-.6-14.5-4-1-.9-3.6-3.2-7.5-6.4-3.1-3.2-6.2-7.1-9.3-11.6-11.8-17.5-20.9-42.1-25.7-69.3-7.1-40-2.7-73.3,6.8-91.3,2.9-4,4.6-6.6,4.9-7.1.1-.2.3-.4.4-.7,3.1-3.5,6.6-5.7,10.2-6.3.8-.1,1.6-.2,2.5-.2,8.9,0,19.2,7.9,28.8,22.2,11.8,17.5,20.9,42.1,25.7,69.3,10.2,57.9-3.5,102-22.2,105.3h0ZM80.8,91.2v-41.8c0-10.2,8.3-18.4,18.4-18.4h373.5c10.2,0,18.4,8.3,18.4,18.4v41.8H80.8Z" data-original="#070606"/>
    <path class="st0" d="M117.3,54.3h-2.9c-3.8,0-7,3.1-7,7s3.1,7,7,7h2.9c3.8,0,7-3.1,7-7s-3.1-7-7-7ZM178.7,54.3h-2.9c-3.8,0-7,3.1-7,7s3.1,7,7,7h2.9c3.8,0,7-3.1,7-7s-3.1-7-7-7h0ZM148,54.3h-2.9c-3.8,0-7,3.1-7,7s3.1,7,7,7h2.9c3.8,0,7-3.1,7-7s-3.1-7-7-7h0ZM459.7,260.2h-107c-3.8,0-7,3.1-7,7s3.1,7,7,7h107c3.8,0,7-3.1,7-7s-3.1-7-7-7h0ZM352.7,306.2h10.5c3.8,0,7-3.1,7-7s-3.1-7-7-7h-10.5c-3.8,0-7,3.1-7,7s3.1,7,7,7ZM459.7,292.2h-70.6c-3.8,0-7,3.1-7,7s3.1,7,7,7h70.6c3.8,0,7-3.1,7-7s-3.1-7-7-7h0ZM352.7,338.1h107c3.8,0,7-3.1,7-7s-3.1-7-7-7h-107c-3.8,0-7,3.1-7,7s3.1,7,7,7ZM109.6,151.4h17.5c3.8,0,7-3.1,7-7s-3.1-7-7-7h-17.5c-3.8,0-7,3.1-7,7s3.1,7,7,7h0ZM109.6,182.8h17.5c3.8,0,7-3.1,7-7s-3.1-7-7-7h-17.5c-3.8,0-7,3.1-7,7s3.1,7,7,7h0ZM153.6,151.4h17.5c3.8,0,7-3.1,7-7s-3.1-7-7-7h-17.5c-3.8,0-7,3.1-7,7s3.1,7,7,7ZM153.6,182.8h17.5c3.8,0,7-3.1,7-7s-3.1-7-7-7h-17.5c-3.8,0-7,3.1-7,7s3.1,7,7,7ZM109.6,214.1h17.5c3.8,0,7-3.1,7-7s-3.1-7-7-7h-17.5c-3.8,0-7,3.1-7,7s3.1,7,7,7h0Z" data-original="#070606"/>
  </g>
  <path class="st1" d="M134.5,354.2c-20.2-14.2-25.9-46.7-11.8-67,2.2-3.2,1.4-7.5-1.7-9.7-1.5-1.1-3.4-1.5-5.2-1.1l-67,11.9c-3.3.6-6.2,2.6-8,5.4-16.2,26-9.6,63.8,14.6,82.6,2.7,2.1,6.1,2.9,9.4,2.3l67-11.9c3.8-.7,6.3-4.3,5.6-8.1-.3-1.8-1.3-3.4-2.8-4.5h-.1ZM57.5,320.1c-.7-3.8,1.9-7.4,5.6-8.1l17.8-3.1c3.8-.7,7.4,1.9,8.1,5.6.7,3.8-1.9,7.4-5.6,8.1l-17.8,3.1c-3.8.7-7.4-1.9-8.1-5.6h0ZM87.2,344.3l-17.8,3.1c-3.8.7-7.4-1.9-8.1-5.6-.7-3.8,1.9-7.4,5.6-8.1h0l17.8-3.1c3.8-.7,7.4,1.9,8.1,5.6.7,3.8-1.9,7.4-5.6,8.1Z" data-original="#3366ff"/>
</svg>