<?xml version="1.0" encoding="UTF-8"?>
<svg id="Layer_2" xmlns="http://www.w3.org/2000/svg" version="1.1" viewBox="0 0 500 475.9">
  <!-- Generator: Adobe Illustrator 30.5.1, SVG Export Plug-In . SVG Version: 2.1.4 Build 3)  -->
  <path d="M60.6,308.6l17.8-3.1c3.8-.7,6.3-4.3,5.6-8.1-.7-3.8-4.3-6.3-8.1-5.6l-17.8,3.1c-3.8.7-6.3,4.3-5.6,8.1.6,3.4,3.5,5.8,6.9,5.8.4,0,.8,0,1.2-.1Z"/>
  <path d="M79.8,313.5l-17.8,3.1c-3.8.7-6.3,4.3-5.6,8.1.6,3.4,3.5,5.8,6.9,5.8s.8,0,1.2-.1l17.8-3.1c3.8-.7,6.3-4.3,5.6-8.1-.7-3.8-4.3-6.3-8.1-5.6Z"/>
  <path d="M467.7,0H94.2c-17.8,0-32.3,14.5-32.3,32.3v208.8c0,3.8,3.1,7,7,7s7-3.1,7-7V88.1h410.3v236.4c0,10.2-8.3,18.4-18.4,18.4h-171.1c2.7-19.5,2-42.2-2.1-65.3-5.1-29-15-55.5-27.8-74.6-13.9-20.7-30-30.7-45.3-28-9.6,1.7-17.9,8.2-24.1,18.9-11.5,14.6-45.7,53.1-96.9,67.3l-56.6,10c-3.3.6-6.2,2.6-8,5.4-1.6,2.6-3,5.3-4.2,8.1-1.4,0-2.7.2-4.1.4-18.1,3.2-30.2,20.8-26.9,39.2,2.9,16.5,17.1,28.1,33,28.1s3.8-.2,5.7-.5c.9-.2,1.9-.4,2.8-.6,2.5,2.9,5.2,5.5,8.2,7.9.8.7,1.8,1.2,2.7,1.6l11.4,30.6c1,2.8,3.7,4.5,6.5,4.5s1.3-.1,2-.3l22.6,69.1c1.5,4.5,4.9,8.2,9.3,10,2,.8,4,1.2,6.1,1.2s5.2-.6,7.5-1.8l26-13.6c4.7-2.4,7.9-7,8.6-12.2.7-5.2-1.2-10.5-5-14l-13.5-12.6-12.6-41.3c3-1.2,4.8-4.4,4.2-7.7l-4-22.1,4.5-.8c.5,0,.9-.2,1.3-.4,41.8-4.9,82.8,23.2,99.3,36.2,2.8,2.8,5.6,5.1,8.5,7.1,0,0,.1,0,.2.1,6.6,4.4,13.3,6.7,19.9,6.7s3.3-.1,5-.4c15.3-2.7,27-17.6,33-41.8,0-.1,0-.3,0-.4h173.7c17.8,0,32.3-14.5,32.3-32.3V32.3C500,14.5,485.5,0,467.7,0h0ZM219,257.1c1.5.4,4,2.2,6.9,6.4,4.1,6,7.4,15,9.1,24.6,3.4,19-.8,31.3-4,34.3l-25.6-10.4c-1.5-5.8-2.8-11.8-3.9-17.9-1.4-8.2-2.4-16.1-2.9-23.7l20.5-13.2ZM14.2,321.9c-1.8-10,4.1-19.6,13.2-22.4-1.9,13.2.3,27,6.2,39-9.3,0-17.7-6.8-19.4-16.6h0ZM47,284.8l52.5-9.3c-7.3,20.8-2.9,45.9,11.1,62.9l-52.5,9.3c-17.7-14.4-22.8-43.3-11.1-62.9ZM138.6,444.4c.8.7.8,1.5.7,2s-.3,1.2-1.2,1.7l-26,13.6c-.8.4-1.6.2-1.9,0-.4-.1-1-.5-1.3-1.4l-22.5-68.9,22.4-7,13.1,43c.4,1.2,1,2.2,1.9,3.1l14.9,13.9ZM111.4,369l-36.2,11.3-7.6-20.2,40.8-7.2,2.9,16.1ZM127.2,335.4c-18.3-15-23.1-45.8-9.6-65.2,29.4-10.9,52.5-28.4,68.6-43.7-3.4,20.6-3,45,1.4,69.9,3.8,21.4,10.2,41.5,18.4,58.2-.7-.4-1.4-.8-2.1-1.1-26.8-14.5-53.1-20.6-76.8-18.1h0ZM258.4,385.3c-4.5.8-9.4-.6-14.5-4-1-.9-3.6-3.2-7.5-6.4-3.1-3.2-6.2-7.1-9.3-11.6-6.4-9.5-12-21.2-16.6-34.2l17.9,7.2s0,0,.1,0c0,0,.1,0,.2,0,.3.1.7.2,1,.3,0,0,0,0,0,0,.4,0,.8.1,1.2.1s.8,0,1.1-.1c0,0,0,0,0,0,4.4-.8,12.4-4.3,16.1-19.1,2.3-9.1,2.4-20.4.4-32-2-11.6-6.1-22.2-11.3-30-8.5-12.5-17.2-13.2-21.6-12.4-.2,0-.5,0-.7.2,0,0-.1,0-.2,0-.2,0-.3,0-.5.2-.2,0-.3.1-.5.2,0,0,0,0-.1,0-.2.1-.4.2-.7.4l-15.2,9.8c.2-22.8,4.5-41.3,11.1-52.7,2.4-3.1,3.7-5.1,4-5.5.2-.3.3-.5.5-.8,3.1-3.5,6.6-5.7,10.2-6.4.8-.1,1.6-.2,2.5-.2,8.9,0,19.2,7.9,28.8,22.2,11.8,17.5,20.9,42.1,25.7,69.3,10.2,57.9-3.5,102-22.2,105.3h0ZM75.8,74.1v-41.8c0-10.2,8.3-18.4,18.4-18.4h373.5c10.2,0,18.4,8.3,18.4,18.4v41.8H75.8Z"/>
  <path d="M112.3,37.2h-2.9c-3.8,0-7,3.1-7,7s3.1,7,7,7h2.9c3.8,0,7-3.1,7-7s-3.1-7-7-7Z"/>
  <path d="M173.7,37.2h-2.9c-3.8,0-7,3.1-7,7s3.1,7,7,7h2.9c3.8,0,7-3.1,7-7s-3.1-7-7-7Z"/>
  <path d="M143,37.2h-2.9c-3.8,0-7,3.1-7,7s3.1,7,7,7h2.9c3.8,0,7-3.1,7-7s-3.1-7-7-7Z"/>
  <path d="M341.8,168.5h-31.9c-3.8,0-7,3.1-7,7v37.8c0,3.8,3.1,7,7,7h31.9c3.8,0,7-3.1,7-7v-37.8c0-3.8-3.1-7-7-7ZM334.8,206.3h-18v-23.9h18v23.9Z"/>
  <path d="M398.6,220.2c3.8,0,7-3.1,7-7v-63.4c0-3.8-3.1-7-7-7h-31.9c-3.8,0-7,3.1-7,7v63.4c0,3.8,3.1,7,7,7h31.9ZM373.6,156.9h18v49.4h-18v-49.4Z"/>
  <path d="M454.7,220.2c3.8,0,7-3.1,7-7v-89.9c0-3.8-3.1-7-7-7h-31.9c-3.8,0-7,3.1-7,7v89.9c0,3.8,3.1,7,7,7h31.9ZM429.8,130.3h18v75.9h-18v-75.9Z"/>
  <path d="M340.8,250.1c0,3.8,3.1,7,7,7h107c3.8,0,7-3.1,7-7s-3.1-7-7-7h-107c-3.8,0-7,3.1-7,7Z"/>
  <path d="M347.7,289.1h10.5c3.8,0,7-3.1,7-7s-3.1-7-7-7h-10.5c-3.8,0-7,3.1-7,7s3.1,7,7,7Z"/>
  <path d="M454.7,275.1h-70.6c-3.8,0-7,3.1-7,7s3.1,7,7,7h70.6c3.8,0,7-3.1,7-7s-3.1-7-7-7Z"/>
  <path d="M347.7,321h107c3.8,0,7-3.1,7-7s-3.1-7-7-7h-107c-3.8,0-7,3.1-7,7s3.1,7,7,7Z"/>
  <path d="M104.6,134.4h17.5c3.8,0,7-3.1,7-7s-3.1-7-7-7h-17.5c-3.8,0-7,3.1-7,7s3.1,7,7,7Z"/>
  <path d="M104.6,165.7h17.5c3.8,0,7-3.1,7-7s-3.1-7-7-7h-17.5c-3.8,0-7,3.1-7,7s3.1,7,7,7Z"/>
  <path d="M148.6,134.4h17.5c3.8,0,7-3.1,7-7s-3.1-7-7-7h-17.5c-3.8,0-7,3.1-7,7s3.1,7,7,7Z"/>
  <path d="M148.6,165.7h17.5c3.8,0,7-3.1,7-7s-3.1-7-7-7h-17.5c-3.8,0-7,3.1-7,7s3.1,7,7,7Z"/>
  <path d="M104.6,197h17.5c3.8,0,7-3.1,7-7s-3.1-7-7-7h-17.5c-3.8,0-7,3.1-7,7s3.1,7,7,7Z"/>
</svg>