<?xml version="1.0" encoding="UTF-8"?>
<svg id="Layer_1" xmlns="http://www.w3.org/2000/svg" version="1.1" viewBox="0 0 512 512">
  <!-- Generator: Adobe Illustrator 30.5.1, SVG Export Plug-In . SVG Version: 2.1.4 Build 3)  -->
  <path d="M484.5,0h-222.4c-15.2,0-27.5,12.3-27.5,27.5v93.8H27.5c-15.2,0-27.5,12.3-27.5,27.5v164.3c0,15.2,12.3,27.5,27.5,27.5h15.3v30.8c0,6.5,8,10.1,12.8,5.3l36.1-36.1h59v105.5c0,15.2,12.3,27.5,27.5,27.5h158.3l36.1,36.1c4.8,4.8,12.8,1.2,12.8-5.3v-30.8h15.3c15.2,0,27.5-12.3,27.5-27.5v-164.3c0-15.2-12.3-27.5-27.5-27.5h-123.2v-35h142.9l36.1,36.1c4.8,4.8,12.8,1.2,12.8-5.3v-30.8h15.3c15.2,0,27.5-12.3,27.5-27.5V27.5c0-15.2-12.3-27.5-27.5-27.5ZM150.7,325.7h-62.1c-2,0-3.9.8-5.3,2.2l-25.5,25.5v-20.2c0-4.1-3.4-7.5-7.5-7.5h-22.8c-6.9,0-12.5-5.6-12.5-12.5v-164.3c0-6.9,5.6-12.5,12.5-12.5h222.4c6.9,0,12.5,5.6,12.5,12.5v105.5h-50.3c9.6-13.8,14.5-28.5,14.5-43.7,0-27.9-22.4-50.7-50-50.7-14.8,0-28.5,6.5-37.9,17.6-9.4-11.1-23.1-17.6-37.9-17.6-27.6,0-50,22.7-50,50.7,0,12.2,3.1,24.1,9.4,35.4h0c0,0,0,.1.1.2.1.3.3.5.4.8.2.4.5.8.7,1.2,2.7,4.6,5.9,9.1,9.6,13.6,0,.1.2.2.3.3,20.2,24.1,47.6,36.9,47.6,36.9h0c9.7,5.2,16.6,7.9,17.1,8.1,1.8.7,3.6.7,5.4,0,.2,0,3.7-1.5,9.2-4.1v22.6ZM150.7,281.8v4.4c-5.1,2.7-9.4,4.7-11.9,5.8-37.8-16.9-56-39.2-60.9-46.1-7.9-11.4-12-23.2-12-35.3,0-19.7,15.7-35.7,35-35.7,13.2,0,25.2,7.5,31.2,19.5,1.3,2.6,4,3.9,6.7,4.1,2.8,0,5.4-1.6,6.7-4.1,17.1-33.2,65.8-21,66.2,16.2,0,15.1-6.3,29.8-18.6,43.7h-14.9c-15.2,0-27.5,12.3-27.5,27.5ZM400.6,269.3c6.9,0,12.5,5.6,12.5,12.5v164.3c0,6.9-5.6,12.5-12.5,12.5h-22.8c-4.1,0-7.5,3.4-7.5,7.5v20.2l-25.5-25.5c-1.4-1.4-3.3-2.2-5.3-2.2h-161.4c-6.9,0-12.5-5.6-12.5-12.5v-164.3c0-6.9,5.6-12.5,12.5-12.5h222.4ZM497,191.8c0,6.9-5.6,12.5-12.5,12.5h-22.8c-4.1,0-7.5,3.4-7.5,7.5v20.2l-25.5-25.5c-1.4-1.4-3.3-2.2-5.3-2.2h-146v-55.5c0-15.3-12.6-27.7-27.9-27.5V27.5c0-6.9,5.6-12.5,12.5-12.5h222.4c6.9,0,12.5,5.6,12.5,12.5v164.3Z"/>
  <path d="M374.8,33.7c-2.8,0-5.3,1.5-6.6,4l-19.6,36.9c-1.6,3-3.3,5.5-6.6,7-3.2-5.2-9-8.7-15.6-8.7h-12.6c-10.1,0-18.4,8.2-18.4,18.4v75.7c0,10.1,8.2,18.4,18.4,18.4h12.6c7.6,0,14.1-4.6,16.9-11.2,3.4,1.2,7.1,1.9,11.8,1.9h63.6c10.5,0,19.7-7.1,22.3-17.2l13.6-51.6c3.5-12.9-7.5-25.9-20.5-25.9h-29c-1.8,0-3.2-1.4-3.2-3.2v-17.2c0-15-12.2-27.1-27.1-27.1h0ZM329.7,166.9c0,1.9-1.5,3.4-3.4,3.4h-12.6c-1.9,0-3.4-1.5-3.4-3.4v-75.7c0-1.9,1.5-3.4,3.4-3.4h12.6c1.9,0,3.4,1.5,3.4,3.4v75.7ZM405.1,96.2h29c3.8,0,6.7,3.5,5.9,7.3l-13.6,51.5c-.9,3.6-4.2,6-7.8,6h-63.6c-4,0-6.7-.7-10.3-2.6v-61.9c7.6-2.2,13.9-7.6,17.2-15.1l17-31.9c4.7,1.7,8,6.2,8,11.4v17.2c0,10,8.2,18.2,18.2,18.2h0Z"/>
  <path d="M224.7,392.7c14.7,0,26.6-11.9,26.6-26.6-1.5-35.3-51.7-35.3-53.2,0,0,14.7,11.9,26.6,26.6,26.6ZM224.7,354.5c6.4,0,11.6,5.2,11.6,11.6-.6,15.4-22.5,15.4-23.2,0,0-6.4,5.2-11.6,11.6-11.6Z"/>
  <path d="M289.4,392.7c14.7,0,26.6-11.9,26.6-26.6-1.5-35.3-51.7-35.3-53.2,0,0,14.7,11.9,26.6,26.6,26.6ZM289.4,354.5c6.4,0,11.6,5.2,11.6,11.6-.6,15.4-22.5,15.4-23.2,0,0-6.4,5.2-11.6,11.6-11.6Z"/>
  <path d="M354,392.7c14.7,0,26.6-11.9,26.6-26.6-1.5-35.3-51.7-35.3-53.2,0,0,14.7,11.9,26.6,26.6,26.6ZM354,354.5c6.4,0,11.6,5.2,11.6,11.6-.6,15.4-22.5,15.4-23.2,0,0-6.4,5.2-11.6,11.6-11.6Z"/>
</svg>