<?xml version="1.0" encoding="UTF-8"?>
<svg id="Layer_1" xmlns="http://www.w3.org/2000/svg" version="1.1" viewBox="0 0 510 510">
  <!-- Generator: Adobe Illustrator 30.5.1, SVG Export Plug-In . SVG Version: 2.1.4 Build 3)  -->
  <defs>
    <style>
      .st0 {
        fill: #fff;
      }
    </style>
  </defs>
  <path class="st0" d="M478.1,5.1h-217.1c-14.8,0-26.9,12-26.9,26.9v91.6H31.9c-14.8,0-26.9,12-26.9,26.9v160.4c0,14.8,12,26.9,26.9,26.9h14.9v30.1c0,6.3,7.8,9.9,12.5,5.2l35.2-35.2h57.6v103c0,14.8,12,26.9,26.9,26.9h154.6l35.2,35.2c4.7,4.7,12.5,1.2,12.5-5.2v-30.1h14.9c14.8,0,26.9-12,26.9-26.9v-160.4c0-14.8-12-26.9-26.9-26.9h-120.3v-34.2h139.5l35.2,35.2c4.7,4.7,12.5,1.2,12.5-5.2v-30.1h14.9c14.8,0,26.9-12,26.9-26.9V32c0-14.8-12-26.9-26.9-26.9h0ZM152.1,323.1h-60.6c-2,0-3.8.8-5.2,2.1l-24.9,24.9v-19.7c0-4-3.3-7.3-7.3-7.3h-22.3c-6.7,0-12.2-5.5-12.2-12.2v-160.4c0-6.7,5.5-12.2,12.2-12.2h217.1c6.7,0,12.2,5.5,12.2,12.2v103h-49.1c9.4-13.5,14.2-27.8,14.2-42.7,0-27.2-21.9-49.5-48.8-49.5s-27.8,6.3-37,17.2c-9.2-10.8-22.6-17.2-37-17.2-26.9,0-48.8,22.2-48.8,49.5s3,23.5,9.2,34.6h0v.2c0,.3.3.5.4.8.2.4.5.8.7,1.2,2.6,4.5,5.8,8.9,9.4,13.3,0,0,.2.2.3.3,19.7,23.5,46.5,36,46.5,36h0c9.5,5.1,16.2,7.7,16.7,7.9,1.8.7,3.5.7,5.3,0,.2,0,3.6-1.5,9-4v22.1h.2-.2ZM152.1,280.2v4.3c-5,2.6-9.2,4.6-11.6,5.7-36.9-16.5-54.7-38.3-59.5-45-7.7-11.1-11.7-22.7-11.7-34.5,0-19.2,15.3-34.9,34.2-34.9s24.6,7.3,30.5,19c5.9,11.7,3.9,3.8,6.5,4,2.7,0,5.3-1.6,6.5-4,16.7-32.4,64.2-20.5,64.6,15.8,0,14.7-6.2,29.1-18.2,42.7h-14.5c-14.8,0-26.9,12-26.9,26.9h0ZM396.1,268c6.7,0,12.2,5.5,12.2,12.2v160.4c0,6.7-5.5,12.2-12.2,12.2h-22.3c-4,0-7.3,3.3-7.3,7.3v19.7l-24.9-24.9c-1.4-1.4-3.2-2.1-5.2-2.1h-157.6c-6.7,0-12.2-5.5-12.2-12.2v-160.4c0-6.7,5.5-12.2,12.2-12.2h217.3ZM490.3,192.4c0,6.7-5.5,12.2-12.2,12.2h-22.3c-4,0-7.3,3.3-7.3,7.3v19.7l-24.9-24.9c-1.4-1.4-3.2-2.1-5.2-2.1h-142.6v-54.2c0-14.9-12.3-27-27.2-26.9V32c0-6.7,5.5-12.2,12.2-12.2h217.1c6.7,0,12.2,5.5,12.2,12.2v160.4h.2Z"/>
  <path class="st0" d="M370.9,38c-2.7,0-5.2,1.5-6.4,3.9l-19.1,36c-1.6,2.9-3.2,5.4-6.4,6.8-3.1-5.1-8.8-8.5-15.2-8.5h-12.3c-9.9,0-18,8-18,18v73.9c0,9.9,8,18,18,18h12.3c7.4,0,13.8-4.5,16.5-10.9,3.3,1.2,6.9,1.9,11.5,1.9h62.1c10.3,0,19.2-6.9,21.8-16.8l13.3-50.4c3.4-12.6-7.3-25.3-20-25.3h-28.3c-1.8,0-3.1-1.4-3.1-3.1v-16.8c0-14.6-11.9-26.5-26.5-26.5h0v-.2h-.2ZM326.9,168.1c0,1.9-1.5,3.3-3.3,3.3h-12.3c-1.9,0-3.3-1.5-3.3-3.3v-73.9c0-1.9,1.5-3.3,3.3-3.3h12.3c1.9,0,3.3,1.5,3.3,3.3v73.9ZM400.5,99h28.3c3.7,0,6.5,3.4,5.8,7.1l-13.3,50.3c-.9,3.5-4.1,5.9-7.6,5.9h-62.1c-3.9,0-6.5-.7-10.1-2.5v-60.4c7.4-2.1,13.6-7.4,16.8-14.7l16.6-31.1c4.6,1.7,7.8,6.1,7.8,11.1v16.8c0,9.8,8,17.8,17.8,17.8h0v-.3Z"/>
  <path class="st0" d="M224.4,388.5c14.4,0,26-11.6,26-26-1.5-34.5-50.5-34.5-51.9,0,0,14.4,11.6,26,26,26h-.1ZM224.4,351.2c6.2,0,11.3,5.1,11.3,11.3-.6,15-22,15-22.7,0,0-6.2,5.1-11.3,11.3-11.3h0Z"/>
  <path class="st0" d="M287.6,388.5c14.4,0,26-11.6,26-26-1.5-34.5-50.5-34.5-51.9,0,0,14.4,11.6,26,26,26h-.1ZM287.6,351.2c6.2,0,11.3,5.1,11.3,11.3-.6,15-22,15-22.7,0,0-6.2,5.1-11.3,11.3-11.3h.1Z"/>
  <path class="st0" d="M350.6,388.5c14.4,0,26-11.6,26-26-1.5-34.5-50.5-34.5-51.9,0,0,14.4,11.6,26,26,26h-.1ZM350.6,351.2c6.2,0,11.3,5.1,11.3,11.3-.6,15-22,15-22.7,0,0-6.2,5.1-11.3,11.3-11.3h.1Z"/>
</svg>