<?xml version="1.0"?>
<svg xmlns="http://www.w3.org/2000/svg" viewBox="0 0 64 64"><g id="Expanded"><path d="M35,35a5,5,0,0,1,8.54-3.54,1,1,0,0,1-1.42,1.42A3,3,0,0,0,40,32a3,3,0,0,0,0,6,3,3,0,0,0,2.12-.88,1,1,0,0,1,1.42,1.42A5,5,0,0,1,35,35ZM54,47v4a3,3,0,0,1-3,3H50v1a5,5,0,0,1-5,5H19a5,5,0,0,1-5-5V54H13a3,3,0,0,1-3-3V47a7,7,0,0,1,7-7h2V39a5,5,0,0,1,4.21-4.92A3,3,0,0,1,26,30h.65L22.57,16.76a9.86,9.86,0,1,1,18.86,0l-2.88,9.37A8.59,8.59,0,0,1,40,26a9,9,0,0,1,9,9,8.92,8.92,0,0,1-1.54,5A7,7,0,0,1,54,47ZM40,28a7,7,0,1,0,7,7A7,7,0,0,0,40,28ZM28.74,30h3.78a9,9,0,0,1,3.72-3.16l3.27-10.66a7.86,7.86,0,1,0-15,0ZM25,33a.93.93,0,0,0,.29.69A1,1,0,0,0,26,34h5.06a9,9,0,0,1,.47-2H26A1,1,0,0,0,25,33Zm-4,7H32.52a9,9,0,0,1-1.46-4H24a3,3,0,0,0-3,3ZM48,54H16v1a3,3,0,0,0,3,3H45a3,3,0,0,0,3-3Zm4-7a5,5,0,0,0-5-5H45.64a9,9,0,0,1-11.28,0H17a5,5,0,0,0-5,5v4a1,1,0,0,0,1,1H51a1,1,0,0,0,1-1Z"/></g></svg>
