<?xml version="1.0" encoding="UTF-8"?>
<svg id="Capa_1" xmlns="http://www.w3.org/2000/svg" version="1.1" viewBox="0 0 393 500">
  <!-- Generator: Adobe Illustrator 30.5.1, SVG Export Plug-In . SVG Version: 2.1.4 Build 3)  -->
  <g id="Expanded">
    <path d="M223.3,276.7c0-24.7,19.9-44.7,44.6-44.7,11.9,0,23.3,4.7,31.7,13.1,3.5,3.5,3.5,9.2,0,12.7s-9.2,3.5-12.7,0c-5-5-11.8-7.9-18.9-7.9-14.8,0-26.8,12-26.8,26.8s12,26.8,26.8,26.8c7.1,0,13.9-2.8,18.9-7.9,3.5-3.5,9.2-3.5,12.7,0s3.5,9.2,0,12.7c-17.4,17.5-45.7,17.5-63.2,0-8.4-8.4-13.1-19.8-13.1-31.7ZM393,383.9v35.7c0,14.8-12,26.8-26.8,26.8h-8.9v8.9c0,24.7-20,44.7-44.7,44.7H80.4c-24.7,0-44.7-20-44.7-44.7v-8.9h-8.9c-14.8,0-26.8-12-26.8-26.8v-35.7c0-34.5,28-62.5,62.5-62.5h17.9v-8.9c0-21.9,16-40.5,37.6-43.9-5.3-13.8,1.5-29.3,15.4-34.6,3.1-1.2,6.3-1.8,9.6-1.8h5.8l-36.4-118.3c-14.2-46.5,12-95.7,58.5-109.9,46.5-14.2,95.7,12,109.9,58.5,5.1,16.8,5.1,34.7,0,51.4l-25.7,83.7c4.3-.8,8.6-1.1,13-1.2,44.4,0,80.4,36,80.4,80.4,0,15.9-4.8,31.5-13.8,44.7,32.9,2.2,58.5,29.5,58.4,62.5ZM267.9,214.2c-34.5,0-62.5,28-62.5,62.5s28,62.5,62.5,62.5,62.5-28,62.5-62.5-28-62.5-62.5-62.5ZM167.4,232.1h33.8c8.3-12.3,19.8-22.1,33.2-28.2l29.2-95.2c11.6-37-9-76.4-46-88-37-11.6-76.4,9-88,46-4.3,13.7-4.3,28.3,0,42l37.8,123.4ZM134,258.9c0,2.3.9,4.6,2.6,6.2,1.7,1.7,3.9,2.7,6.3,2.8h45.2c.7-6.1,2.1-12.1,4.2-17.9h-49.4c-4.9,0-8.9,4-8.9,8.9ZM98.2,321.4h102.9c-7.1-10.7-11.6-22.9-13-35.7h-63.1c-14.8,0-26.8,12-26.8,26.8v8.9ZM339.4,446.4H53.6v8.9c0,14.8,12,26.8,26.8,26.8h232.2c14.8,0,26.8-12,26.8-26.8h0v-8.9ZM375.1,383.9c0-24.7-20-44.7-44.7-44.7h-12.1c-29.4,23.7-71.3,23.7-100.7,0H62.5c-24.7,0-44.7,20-44.7,44.7v35.7c0,4.9,4,8.9,8.9,8.9h339.4c4.9,0,8.9-4,8.9-8.9v-35.7Z"/>
  </g>
</svg>