<?xml version="1.0" encoding="UTF-8"?>
<svg id="Layer_1" xmlns="http://www.w3.org/2000/svg" version="1.1" viewBox="0 0 499.8 500">
  <!-- Generator: Adobe Illustrator 30.5.1, SVG Export Plug-In . SVG Version: 2.1.4 Build 3)  -->
  <path d="M249.9,500c-12.1,0-23.4-4.7-31.9-13.3l-38.6-38.6c-5.3-5.3-12.3-8.2-19.7-8.2h-54.6c-24.9,0-45.2-20.3-45.2-45.2v-54.6c0-7.4-2.9-14.4-8.2-19.7l-38.6-38.6c-17.6-17.6-17.6-46.2,0-63.8l38.6-38.6c5.3-5.3,8.2-12.3,8.2-19.7v-54.6c0-24.9,20.3-45.2,45.2-45.2h54.6c7.4,0,14.4-2.9,19.7-8.2l38.6-38.6c8.5-8.5,19.8-13.3,31.9-13.3s23.4,4.7,31.9,13.3l38.6,38.6c5.3,5.3,12.3,8.2,19.7,8.2h54.6c24.9,0,45.2,20.3,45.2,45.2v54.6c0,7.4,2.9,14.4,8.2,19.7l38.6,38.6c17.6,17.6,17.6,46.2,0,63.8l-38.6,38.6c-5.3,5.3-8.2,12.3-8.2,19.7v54.6c0,24.9-20.3,45.2-45.2,45.2h-54.6c-7.4,0-14.4,2.9-19.7,8.2l-38.6,38.6c-8.5,8.5-19.8,13.3-31.9,13.3ZM105.1,77.3c-15.4,0-27.9,12.5-27.9,27.9v54.6c0,12.1-4.7,23.4-13.3,31.9l-38.6,38.6c-10.9,10.9-10.9,28.6,0,39.4l38.6,38.6c8.5,8.5,13.3,19.8,13.3,31.9v54.6c0,15.4,12.5,27.9,27.9,27.9h54.6c12.1,0,23.4,4.7,31.9,13.3l38.6,38.6c5.3,5.3,12.3,8.2,19.7,8.2s14.4-2.9,19.7-8.2l38.6-38.6c8.5-8.5,19.8-13.3,31.9-13.3h54.6c15.4,0,27.9-12.5,27.9-27.9v-54.6c0-12.1,4.7-23.4,13.3-31.9l38.6-38.6c10.9-10.9,10.9-28.6,0-39.4l-38.6-38.6c-8.5-8.5-13.3-19.8-13.3-31.9v-54.6c0-15.4-12.5-27.9-27.9-27.9h-54.6c-12.1,0-23.4-4.7-31.9-13.3l-38.6-38.6c-5.3-5.3-12.3-8.2-19.7-8.2s-14.4,2.9-19.7,8.2l-38.6,38.6c-8.5,8.5-19.8,13.3-31.9,13.3h-54.6Z"/>
  <path d="M249.9,407.4c-86.9,0-157.4-70.7-157.4-157.4S163.1,92.6,249.9,92.6s157.4,70.6,157.4,157.4-70.6,157.4-157.4,157.4ZM249.9,109.8c-77.4,0-140.2,62.9-140.2,140.2s62.8,140.2,140.2,140.2,140.2-62.9,140.2-140.2-62.8-140.2-140.2-140.2Z"/>
  <path d="M310.3,336.2h-120.7c-3.9,0-7.2-2.6-8.3-6.2l-34.5-121.4c-1-3.4.3-7.2,3.2-9.4s6.9-2.3,9.8-.2l44.3,29.5,38.4-61.4c1.6-2.5,4.3-4.1,7.3-4.1s5.7,1.5,7.3,4.1l38.4,61.4,44.3-29.5c3-2,6.9-1.9,9.8.2s4.2,5.8,3.2,9.4l-34.5,121.4c-.9,3.7-4.2,6.2-8.1,6.2h0ZM196,319h107.8l26.3-92.7-32.2,21.6c-1.9,1.3-4.3,1.7-6.6,1.3-2.3-.5-4.3-1.8-5.5-3.9l-35.9-57.3-35.8,57.2c-1.2,1.9-3.2,3.3-5.5,3.9s-4.6,0-6.6-1.3l-32.2-21.6,26.2,92.8Z"/>
</svg>