<?xml version="1.0" encoding="UTF-8"?>
<svg id="Capa_1" xmlns="http://www.w3.org/2000/svg" version="1.1" viewBox="0 0 393.3 500">
  <!-- Generator: Adobe Illustrator 30.5.1, SVG Export Plug-In . SVG Version: 2.1.4 Build 3)  -->
  <defs>
    <style>
      .st0 {
        fill: #fff;
      }
    </style>
  </defs>
  <g id="Expanded">
    <path class="st0" d="M223.5,276.5c0-25,19.7-44.7,44.7-44.7s23.2,4.5,31.3,13.4c3.6,3.6,3.6,8.9,0,12.5s-8.9,3.6-12.5,0c-5.4-5.4-11.6-8-18.8-8-15.2,0-26.8,11.6-26.8,26.8s11.6,26.8,26.8,26.8,14.3-2.7,18.8-8c3.6-3.6,8.9-3.6,12.5,0,3.6,3.6,3.6,8.9,0,12.5-17.9,17.9-45.6,17.9-63.5,0-8-8-13.4-19.7-13.4-31.3h.9ZM393.3,383.8v35.8c0,15.2-11.6,26.8-26.8,26.8h-8.9v8.9c0,25-19.7,44.7-44.7,44.7H80.4c-25,0-44.7-19.7-44.7-44.7v-8.9h-8.9c-15.2,0-26.8-11.6-26.8-26.8v-35.8c0-34.9,27.7-62.6,62.6-62.6h17.9v-8.9c0-21.5,16.1-40.2,37.5-43.8-5.4-13.4,1.8-29.5,15.2-34.9,2.7-.9,6.3-1.8,9.8-1.8h5.4l-36.6-118c-14.3-46.5,11.6-95.6,58.1-109.9,46.5-14.3,95.6,11.6,109.9,58.1,5.4,17,5.4,34.9,0,51.8l-25.9,84c4.5,0,8.9-.9,13.4-.9,44.7,0,80.4,35.8,80.4,80.4s-4.5,31.3-13.4,44.7c33.1,1.8,58.1,29.5,58.1,62.6l.9-.9ZM268.1,214c-34.9,0-62.6,27.7-62.6,62.6s27.7,62.6,62.6,62.6,62.6-27.7,62.6-62.6-27.7-62.6-62.6-62.6ZM167.1,231.9h34c8-12.5,19.7-22.3,33.1-28.6l29.5-95.6c11.6-36.6-8.9-76.9-45.6-88.5-36.6-11.6-76.9,8.9-88.5,45.6-4.5,13.4-4.5,28.6,0,42l37.5,123.3v1.8ZM134.1,258.7c0,2.7.9,4.5,2.7,6.3s3.6,2.7,6.3,2.7h45.6c0-6.3,1.8-12.5,4.5-17.9h-49.2c-5.4,0-8.9,3.6-8.9,8.9h-.9ZM98.3,321.2h102.8c-7.2-10.7-11.6-23.2-13.4-35.8h-63.5c-15.2,0-26.8,11.6-26.8,26.8v8.9h.9ZM339.7,446.4H53.6v8.9c0,15.2,11.6,26.8,26.8,26.8h232.4c15.2,0,26.8-11.6,26.8-26.8h0v-8.9ZM375.4,383.8c0-25-19.7-44.7-44.7-44.7h-12.5c-29.5,23.2-71.5,23.2-101,0H62.6c-25,0-44.7,19.7-44.7,44.7v35.8c0,5.4,3.6,8.9,8.9,8.9h339.7c5.4,0,8.9-3.6,8.9-8.9v-35.8Z"/>
  </g>
</svg>