<?xml version="1.0" encoding="UTF-8"?>
<svg id="Capa_1" xmlns="http://www.w3.org/2000/svg" version="1.1" viewBox="0 0 510 510">
  <!-- Generator: Adobe Illustrator 30.5.1, SVG Export Plug-In . SVG Version: 2.1.4 Build 3)  -->
  <defs>
    <style>
      .st0 {
        fill: #5c5c63;
      }

      .st1 {
        fill: #ff8e00;
      }
    </style>
  </defs>
  <path class="st1" d="M39.5,160.3h-4.3c-13.9,0-25.2,11.3-25.2,25.2s11.3,25.2,25.2,25.2h4.3c2.8,0,5.1-2.3,5.1-5.1v-40.2c0-2.8-2.3-5.1-5.1-5.1h0ZM39.5,232h-4.3c-13.9,0-25.2,11.3-25.2,25.2s11.3,25.2,25.2,25.2h4.3c2.8,0,5.1-2.3,5.1-5.1v-40.2c0-2.8-2.3-5.1-5.1-5.1h0ZM500,324.2v-99c0-13.6-11.1-24.7-24.7-24.7h-114.5c-2.8,0-5.1,2.3-5.1,5.1v118.6h144.4,0ZM355.7,334.5h144.4v29.3h-144.4v-29.3ZM355.7,374.1v42.3c0,2.8,2.3,5.1,5.1,5.1h114.5c13.6,0,24.7-11.1,24.7-24.7v-22.7h-144.4,0Z" data-original="#3366ff"/>
  <g>
    <path class="st0" d="M282.1,183.6c0-12.9-10.5-23.3-23.3-23.3H89.1c-12.9,0-23.3,10.5-23.3,23.3v39.9c0,12.9,10.5,23.3,23.3,23.3h169.6c12.9,0,23.3-10.5,23.3-23.3v-39.9h.1ZM271.8,223.6c0,7.2-5.8,13-13,13H89.1c-7.2,0-13-5.8-13-13v-39.9c0-7.2,5.8-13,13-13h169.6c7.2,0,13,5.8,13,13v39.9h0ZM107.5,264.2h-16.7c-11.3,0-20.4,9.2-20.4,20.4s9.2,20.4,20.4,20.4h16.7c11.3,0,20.4-9.2,20.4-20.4s-9.2-20.4-20.4-20.4h0ZM107.5,294.7h-16.7c-5.6,0-10.1-4.5-10.1-10.1s4.5-10.1,10.1-10.1h16.7c5.6,0,10.1,4.5,10.1,10.1s-4.5,10.1-10.1,10.1ZM165.6,305h16.7c11.2,0,20.4-9.2,20.4-20.4s-9.2-20.4-20.4-20.4h-16.7c-11.2,0-20.4,9.2-20.4,20.4s9.2,20.4,20.4,20.4h0ZM165.6,274.5h16.7c5.6,0,10.1,4.5,10.1,10.1s-4.5,10.1-10.1,10.1h-16.7c-5.6,0-10.1-4.5-10.1-10.1s4.5-10.1,10.1-10.1h0ZM257.1,264.2h-16.7c-11.2,0-20.4,9.2-20.4,20.4s9.2,20.4,20.4,20.4h16.7c11.2,0,20.4-9.2,20.4-20.4s-9.2-20.4-20.4-20.4h0ZM257.1,294.7h-16.7c-5.6,0-10.1-4.5-10.1-10.1s4.5-10.1,10.1-10.1h16.7c5.6,0,10.1,4.5,10.1,10.1s-4.5,10.1-10.1,10.1h0ZM107.5,319.2h-16.7c-11.3,0-20.4,9.2-20.4,20.4s9.2,20.4,20.4,20.4h16.7c11.3,0,20.4-9.2,20.4-20.4s-9.2-20.4-20.4-20.4h0ZM107.5,349.8h-16.7c-5.6,0-10.1-4.5-10.1-10.1s4.5-10.1,10.1-10.1h16.7c5.6,0,10.1,4.5,10.1,10.1s-4.5,10.1-10.1,10.1ZM165.6,360h16.7c11.2,0,20.4-9.2,20.4-20.4s-9.2-20.4-20.4-20.4h-16.7c-11.2,0-20.4,9.2-20.4,20.4s9.2,20.4,20.4,20.4h0ZM165.6,329.5h16.7c5.6,0,10.1,4.5,10.1,10.1s-4.5,10.1-10.1,10.1h-16.7c-5.6,0-10.1-4.5-10.1-10.1s4.5-10.1,10.1-10.1h0ZM257.1,319.2h-16.7c-11.2,0-20.4,9.2-20.4,20.4s9.2,20.4,20.4,20.4h16.7c11.2,0,20.4-9.2,20.4-20.4s-9.2-20.4-20.4-20.4h0ZM257.1,349.8h-16.7c-5.6,0-10.1-4.5-10.1-10.1s4.5-10.1,10.1-10.1h16.7c5.6,0,10.1,4.5,10.1,10.1s-4.5,10.1-10.1,10.1h0ZM107.5,374.3h-16.7c-11.3,0-20.4,9.2-20.4,20.4s9.2,20.4,20.4,20.4h16.7c11.3,0,20.4-9.2,20.4-20.4s-9.2-20.4-20.4-20.4ZM107.5,404.8h-16.7c-5.6,0-10.1-4.5-10.1-10.1s4.5-10.1,10.1-10.1h16.7c5.6,0,10.1,4.5,10.1,10.1s-4.5,10.1-10.1,10.1ZM165.6,415.1h16.7c11.2,0,20.4-9.2,20.4-20.4s-9.2-20.4-20.4-20.4h-16.7c-11.2,0-20.4,9.2-20.4,20.4s9.2,20.4,20.4,20.4h0ZM165.6,384.6h16.7c5.6,0,10.1,4.5,10.1,10.1s-4.5,10.1-10.1,10.1h-16.7c-5.6,0-10.1-4.5-10.1-10.1s4.5-10.1,10.1-10.1h0ZM128.6,449.8c0,11.2,9.2,20.4,20.4,20.4h49.9c11.3,0,20.4-9.2,20.4-20.4s-9.2-20.4-20.4-20.4h-49.9c-11.3,0-20.4,9.2-20.4,20.4ZM149,439.6h49.9c5.6,0,10.1,4.5,10.1,10.1s-4.5,10.1-10.1,10.1h-49.9c-5.6,0-10.1-4.5-10.1-10.1s4.5-10.1,10.1-10.1ZM257.1,374.3h-16.7c-11.2,0-20.4,9.2-20.4,20.4s9.2,20.4,20.4,20.4h16.7c11.2,0,20.4-9.2,20.4-20.4s-9.2-20.4-20.4-20.4h0ZM257.1,404.8h-16.7c-5.6,0-10.1-4.5-10.1-10.1s4.5-10.1,10.1-10.1h16.7c5.6,0,10.1,4.5,10.1,10.1s-4.5,10.1-10.1,10.1h0Z" data-original="#231f20"/>
    <path class="st0" d="M338.9,169.3h-25.4v-46.2c0-28.5-13.7-42.9-40.8-42.9h-7.1c-2.8,0-5.1,2.3-5.1,5.1s2.3,5.1,5.1,5.1h7.1c21.4,0,30.5,9.8,30.5,32.6v339c0,22.9-9.1,32.6-30.5,32.6H75.2c-21.4,0-30.5-9.8-30.5-32.6V123.1c0-22.9,9.1-32.6,30.5-32.6h8.9c2.8,0,5.1-2.3,5.1-5.1s-2.3-5.1-5.1-5.1h-8.9c-27.1,0-40.8,14.4-40.8,42.9v339c0,28.5,13.7,42.9,40.8,42.9h197.5c27.1,0,40.8-14.4,40.8-42.9v-18.6h25.4c14.9,0,27.1-12.2,27.1-27.1v-220c0-14.9-12.2-27.1-27.1-27.1h0ZM313.5,179.6h12.6v253.6h-12.6v-253.6ZM355.7,416.4c0,9.3-7.5,16.8-16.8,16.8h-2.5v-253.6h2.5c9.3,0,16.8,7.5,16.8,16.8v220h0Z" data-original="#231f20"/>
  </g>
  <path class="st1" d="M276.9,125.9h-11.3V10.1c0-2.8-2.3-5.1-5.1-5.1s-2.6.5-3.5,1.4l-18.1,17.2-18.1-17.2c-2-1.9-5.1-1.9-7.1,0l-18.1,17.2-18.1-17.2c-2-1.9-5.1-1.9-7.1,0l-18.1,17.2-18.1-17.2c-2-1.9-5.1-1.9-7.1,0l-18.1,17.2-18.1-17.2c-2.1-2-5.3-1.9-7.3.2-.9,1-1.4,2.2-1.4,3.5v115.8h-11.3c-2.8,0-5.1,2.3-5.1,5.1s2.3,5.1,5.1,5.1h206c2.8,0,5.1-2.3,5.1-5.1s-2.3-5.1-5.1-5.1ZM145.4,62.6h60.8c2.8,0,5.1,2.3,5.1,5.1s-2.3,5.1-5.1,5.1h-60.8c-2.8,0-5.1-2.3-5.1-5.1s2.3-5.1,5.1-5.1ZM225.1,99.3h-98.7c-2.8,0-5.1-2.3-5.1-5.1s2.3-5.1,5.1-5.1h98.7c2.8,0,5.1,2.3,5.1,5.1s-2.3,5.1-5.1,5.1Z" data-original="#3366ff"/>
</svg>