<?xml version="1.0" encoding="UTF-8"?>
<svg id="Layer_1" xmlns="http://www.w3.org/2000/svg" version="1.1" viewBox="0 0 510 510">
  <!-- Generator: Adobe Illustrator 30.5.1, SVG Export Plug-In . SVG Version: 2.1.4 Build 3)  -->
  <path d="M258.8,160.3H89.1c-12.9,0-23.3,10.5-23.3,23.3v39.9c0,12.9,10.5,23.3,23.3,23.3h169.6c12.9,0,23.3-10.5,23.3-23.3v-39.9c0-12.9-10.5-23.3-23.3-23.3h.1ZM271.8,223.6c0,7.2-5.8,13-13,13H89.1c-7.2,0-13-5.8-13-13v-39.9c0-7.2,5.8-13,13-13h169.6c7.2,0,13,5.8,13,13v39.9h0Z"/>
  <path d="M107.5,264.2h-16.7c-11.2,0-20.4,9.2-20.4,20.4s9.2,20.4,20.4,20.4h16.7c11.2,0,20.4-9.2,20.4-20.4s-9.2-20.4-20.4-20.4ZM107.5,294.7h-16.7c-5.6,0-10.1-4.5-10.1-10.1s4.5-10.1,10.1-10.1h16.7c5.6,0,10.1,4.5,10.1,10.1s-4.5,10.1-10.1,10.1Z"/>
  <path d="M165.6,305h16.7c11.2,0,20.4-9.2,20.4-20.4s-9.2-20.4-20.4-20.4h-16.7c-11.2,0-20.4,9.2-20.4,20.4s9.2,20.4,20.4,20.4ZM165.6,274.5h16.7c5.6,0,10.1,4.5,10.1,10.1s-4.5,10.1-10.1,10.1h-16.7c-5.6,0-10.1-4.5-10.1-10.1s4.5-10.1,10.1-10.1Z"/>
  <path d="M257.1,264.2h-16.7c-11.2,0-20.4,9.2-20.4,20.4s9.2,20.4,20.4,20.4h16.7c11.2,0,20.4-9.2,20.4-20.4s-9.2-20.4-20.4-20.4h0ZM257.1,294.7h-16.7c-5.6,0-10.1-4.5-10.1-10.1s4.5-10.1,10.1-10.1h16.7c5.6,0,10.1,4.5,10.1,10.1s-4.5,10.1-10.1,10.1h0Z"/>
  <path d="M107.5,319.2h-16.7c-11.2,0-20.4,9.2-20.4,20.4s9.2,20.4,20.4,20.4h16.7c11.2,0,20.4-9.2,20.4-20.4s-9.2-20.4-20.4-20.4ZM107.5,349.8h-16.7c-5.6,0-10.1-4.5-10.1-10.1s4.5-10.1,10.1-10.1h16.7c5.6,0,10.1,4.5,10.1,10.1s-4.5,10.1-10.1,10.1Z"/>
  <path d="M165.6,360h16.7c11.2,0,20.4-9.2,20.4-20.4s-9.2-20.4-20.4-20.4h-16.7c-11.2,0-20.4,9.2-20.4,20.4s9.2,20.4,20.4,20.4ZM165.6,329.5h16.7c5.6,0,10.1,4.5,10.1,10.1s-4.5,10.1-10.1,10.1h-16.7c-5.6,0-10.1-4.5-10.1-10.1s4.5-10.1,10.1-10.1Z"/>
  <path d="M257.1,319.2h-16.7c-11.2,0-20.4,9.2-20.4,20.4s9.2,20.4,20.4,20.4h16.7c11.2,0,20.4-9.2,20.4-20.4s-9.2-20.4-20.4-20.4h0ZM257.1,349.8h-16.7c-5.6,0-10.1-4.5-10.1-10.1s4.5-10.1,10.1-10.1h16.7c5.6,0,10.1,4.5,10.1,10.1s-4.5,10.1-10.1,10.1h0Z"/>
  <path d="M107.5,374.3h-16.7c-11.2,0-20.4,9.2-20.4,20.4s9.2,20.4,20.4,20.4h16.7c11.2,0,20.4-9.2,20.4-20.4s-9.2-20.4-20.4-20.4ZM107.5,404.8h-16.7c-5.6,0-10.1-4.5-10.1-10.1s4.5-10.1,10.1-10.1h16.7c5.6,0,10.1,4.5,10.1,10.1s-4.5,10.1-10.1,10.1Z"/>
  <path d="M165.6,415.1h16.7c11.2,0,20.4-9.2,20.4-20.4s-9.2-20.4-20.4-20.4h-16.7c-11.2,0-20.4,9.2-20.4,20.4s9.2,20.4,20.4,20.4ZM165.6,384.6h16.7c5.6,0,10.1,4.5,10.1,10.1s-4.5,10.1-10.1,10.1h-16.7c-5.6,0-10.1-4.5-10.1-10.1s4.5-10.1,10.1-10.1Z"/>
  <path d="M198.9,429.4h-49.9c-11.2,0-20.4,9.2-20.4,20.4s9.2,20.4,20.4,20.4h49.9c11.2,0,20.4-9.2,20.4-20.4s-9.2-20.4-20.4-20.4ZM198.9,459.9h-49.9c-5.6,0-10.1-4.5-10.1-10.1s4.5-10.1,10.1-10.1h49.9c5.6,0,10.1,4.5,10.1,10.1s-4.5,10.1-10.1,10.1Z"/>
  <path d="M257.1,374.3h-16.7c-11.2,0-20.4,9.2-20.4,20.4s9.2,20.4,20.4,20.4h16.7c11.2,0,20.4-9.2,20.4-20.4s-9.2-20.4-20.4-20.4h0ZM257.1,404.8h-16.7c-5.6,0-10.1-4.5-10.1-10.1s4.5-10.1,10.1-10.1h16.7c5.6,0,10.1,4.5,10.1,10.1s-4.5,10.1-10.1,10.1h0Z"/>
  <path d="M366,196.4c0-14.9-12.2-27.1-27.1-27.1h-25.4v-46.2c0-28.5-13.7-42.9-40.8-42.9h-7V10.1c0-2.1-1.2-3.9-3.1-4.7-1.9-.8-4.1-.4-5.6,1l-18.1,17.2-18.1-17.2c-2-1.9-5.1-1.9-7.1,0l-18.1,17.2-18.1-17.2c-2-1.9-5.1-1.9-7.1,0l-18.1,17.2-18.1-17.2c-2-1.9-5.1-1.9-7.1,0l-18.1,17.2-18.1-17.2c-1.5-1.4-3.7-1.8-5.6-1-1.9.8-3.1,2.7-3.1,4.7v70h-7c-27.1,0-40.8,14.4-40.8,42.9v37.3c-13.5.4-24.4,11.5-24.4,25.2s10.9,24.7,24.4,25.2v21.3c-13.5.4-24.4,11.5-24.4,25.2s10.9,24.7,24.4,25.2v179.7c0,28.5,13.7,42.9,40.8,42.9h197.5c27.1,0,40.8-14.4,40.8-42.9v-18.6h25.4c13.2,0,24.2-9.5,26.6-22h109.8c13.6,0,24.7-11.1,24.7-24.7v-171.6c0-13.6-11.1-24.7-24.7-24.7h-109.3v-4.1h0ZM34.4,272.1c-7.9-.4-14.1-7-14.1-14.9s6.3-14.5,14.1-14.9v29.8ZM34.4,200.5c-7.9-.4-14.1-7-14.1-14.9s6.3-14.5,14.1-14.9v29.8h0ZM92.5,22.1l13,12.3c2,1.9,5.1,1.9,7.1,0l18.1-17.2,18.1,17.2c2,1.9,5.1,1.9,7.1,0l18.1-17.2,18.1,17.2c2,1.9,5.1,1.9,7.1,0l18.1-17.2,18.1,17.2c2,1.9,5.1,1.9,7.1,0l13-12.3v103.8H92.5V22.1ZM303.2,174.5v287.6c0,22.9-9.1,32.6-30.5,32.6H75.2c-21.4,0-30.5-9.8-30.5-32.6V123.1c0-22.9,9.1-32.6,30.5-32.6h7v35.4h-11.3c-2.8,0-5.1,2.3-5.1,5.1s2.3,5.1,5.1,5.1h206c2.8,0,5.1-2.3,5.1-5.1s-2.3-5.1-5.1-5.1h-11.3v-35.4h7c21.4,0,30.5,9.8,30.5,32.6v51.4h.1ZM326.1,433.2h-12.6v-253.6h12.6v253.6ZM355.7,205.6v210.8c0,9.3-7.5,16.8-16.8,16.8h-2.5v-253.6h2.5c9.3,0,16.8,7.5,16.8,16.8v9.2ZM489.8,396.8c0,8-6.5,14.5-14.5,14.5h-109.3v-37.1h123.8v22.7h0ZM489.8,363.9h-123.8v-29.3h123.8v29.3ZM475.3,210.8c8,0,14.5,6.5,14.5,14.5v99h-123.8v-113.5h109.3Z"/>
  <path d="M145.4,72.8h60.8c2.8,0,5.1-2.3,5.1-5.1s-2.3-5.1-5.1-5.1h-60.8c-2.8,0-5.1,2.3-5.1,5.1s2.3,5.1,5.1,5.1Z"/>
  <path d="M225.1,89.1h-98.7c-2.8,0-5.1,2.3-5.1,5.1s2.3,5.1,5.1,5.1h98.7c2.8,0,5.1-2.3,5.1-5.1s-2.3-5.1-5.1-5.1h0Z"/>
</svg>