<?xml version="1.0" encoding="UTF-8"?>
<svg id="Layer_1" xmlns="http://www.w3.org/2000/svg" version="1.1" viewBox="0 0 510 510">
  <!-- Generator: Adobe Illustrator 30.5.1, SVG Export Plug-In . SVG Version: 2.1.4 Build 3)  -->
  <defs>
    <style>
      .st0 {
        fill: #fff;
      }
    </style>
  </defs>
  <path class="st0" d="M258.8,160.3H89.2c-12.8,0-23.3,10.4-23.3,23.3v40c0,12.8,10.4,23.3,23.3,23.3h169.6c12.8,0,23.3-10.4,23.3-23.3v-40c0-12.8-10.4-23.3-23.3-23.3h0ZM271.9,223.5c0,7.2-5.8,13-13,13H89.2c-7.2,0-13-5.8-13-13v-40c0-7.2,5.8-13,13-13h169.6c7.2,0,13,5.8,13,13v40h0Z"/>
  <path class="st0" d="M107.6,264.1h-16.7c-11.3,0-20.4,9.1-20.4,20.4s9.1,20.4,20.4,20.4h16.7c11.3,0,20.4-9.1,20.4-20.4s-9.1-20.4-20.4-20.4ZM107.6,294.6h-16.7c-5.5,0-10.1-4.5-10.1-10.1s4.5-10.1,10.1-10.1h16.7c5.5,0,10.1,4.5,10.1,10.1s-4.5,10.1-10.1,10.1Z"/>
  <path class="st0" d="M165.8,304.9h16.7c11.3,0,20.4-9.1,20.4-20.4s-9.1-20.4-20.4-20.4h-16.7c-11.3,0-20.4,9.1-20.4,20.4s9.1,20.4,20.4,20.4ZM165.8,274.4h16.7c5.5,0,10.1,4.5,10.1,10.1s-4.5,10.1-10.1,10.1h-16.7c-5.5,0-10.1-4.5-10.1-10.1s4.5-10.1,10.1-10.1Z"/>
  <path class="st0" d="M257.1,264.1h-16.7c-11.3,0-20.4,9.1-20.4,20.4s9.1,20.4,20.4,20.4h16.7c11.3,0,20.4-9.1,20.4-20.4s-9.1-20.4-20.4-20.4h0ZM257.1,294.6h-16.7c-5.5,0-10.1-4.5-10.1-10.1s4.5-10.1,10.1-10.1h16.7c5.5,0,10.1,4.5,10.1,10.1s-4.5,10.1-10.1,10.1h0Z"/>
  <path class="st0" d="M107.6,319.1h-16.7c-11.3,0-20.4,9.1-20.4,20.4s9.1,20.4,20.4,20.4h16.7c11.3,0,20.4-9.1,20.4-20.4s-9.1-20.4-20.4-20.4ZM107.6,349.7h-16.7c-5.5,0-10.1-4.5-10.1-10.1s4.5-10.1,10.1-10.1h16.7c5.5,0,10.1,4.5,10.1,10.1s-4.5,10.1-10.1,10.1Z"/>
  <path class="st0" d="M165.8,360h16.7c11.3,0,20.4-9.1,20.4-20.4s-9.1-20.4-20.4-20.4h-16.7c-11.3,0-20.4,9.1-20.4,20.4s9.1,20.4,20.4,20.4ZM165.8,329.4h16.7c5.5,0,10.1,4.5,10.1,10.1s-4.5,10.1-10.1,10.1h-16.7c-5.5,0-10.1-4.5-10.1-10.1s4.5-10.1,10.1-10.1Z"/>
  <path class="st0" d="M257.1,319.1h-16.7c-11.3,0-20.4,9.1-20.4,20.4s9.1,20.4,20.4,20.4h16.7c11.3,0,20.4-9.1,20.4-20.4s-9.1-20.4-20.4-20.4h0ZM257.1,349.7h-16.7c-5.5,0-10.1-4.5-10.1-10.1s4.5-10.1,10.1-10.1h16.7c5.5,0,10.1,4.5,10.1,10.1s-4.5,10.1-10.1,10.1h0Z"/>
  <path class="st0" d="M107.6,374.2h-16.7c-11.3,0-20.4,9.1-20.4,20.4s9.1,20.4,20.4,20.4h16.7c11.3,0,20.4-9.1,20.4-20.4s-9.1-20.4-20.4-20.4ZM107.6,404.7h-16.7c-5.5,0-10.1-4.5-10.1-10.1s4.5-10.1,10.1-10.1h16.7c5.5,0,10.1,4.5,10.1,10.1s-4.5,10.1-10.1,10.1Z"/>
  <path class="st0" d="M165.8,414.9h16.7c11.3,0,20.4-9.1,20.4-20.4s-9.1-20.4-20.4-20.4h-16.7c-11.3,0-20.4,9.1-20.4,20.4s9.1,20.4,20.4,20.4ZM165.8,384.5h16.7c5.5,0,10.1,4.5,10.1,10.1s-4.5,10.1-10.1,10.1h-16.7c-5.5,0-10.1-4.5-10.1-10.1s4.5-10.1,10.1-10.1Z"/>
  <path class="st0" d="M198.9,429.2h-49.8c-11.3,0-20.4,9.1-20.4,20.4s9.1,20.4,20.4,20.4h49.8c11.3,0,20.4-9.1,20.4-20.4s-9.1-20.4-20.4-20.4ZM198.9,459.8h-49.8c-5.5,0-10.1-4.5-10.1-10.1s4.5-10.1,10.1-10.1h49.8c5.5,0,10.1,4.5,10.1,10.1s-4.5,10.1-10.1,10.1Z"/>
  <path class="st0" d="M257.1,374.2h-16.7c-11.3,0-20.4,9.1-20.4,20.4s9.1,20.4,20.4,20.4h16.7c11.3,0,20.4-9.1,20.4-20.4s-9.1-20.4-20.4-20.4h0ZM257.1,404.7h-16.7c-5.5,0-10.1-4.5-10.1-10.1s4.5-10.1,10.1-10.1h16.7c5.5,0,10.1,4.5,10.1,10.1s-4.5,10.1-10.1,10.1h0Z"/>
  <path class="st0" d="M365.9,196.4c0-14.9-12.2-27.1-27.1-27.1h-25.3v-46.2c0-28.5-13.7-42.9-40.7-42.9h-7.1V10.2c0-2.1-1.3-3.9-3.1-4.8-1.9-.8-4.1-.4-5.5,1l-18.1,17.2-18.1-17.2c-1.9-1.9-5.1-1.9-7.1,0l-18.1,17.2-18.1-17.2c-1.9-1.9-5.1-1.9-7.1,0l-18.1,17.2-18.1-17.2c-1.9-1.9-5.1-1.9-7.1,0l-18.1,17.2-18.1-17.2c-1.5-1.4-3.7-1.8-5.7-1s-3.1,2.7-3.1,4.8v70h-7.1c-27.1,0-40.7,14.4-40.7,42.9v37.3c-13.5.4-24.4,11.6-24.4,25.2s10.9,24.8,24.4,25.2v21.3c-13.5.4-24.4,11.6-24.4,25.2s10.9,24.7,24.4,25.2v179.7c0,28.5,13.7,42.9,40.7,42.9h197.4c27.1,0,40.7-14.4,40.7-42.9v-18.6h25.3c13.2,0,24.2-9.5,26.6-22h109.8c13.6,0,24.7-11,24.7-24.7v-171.5c0-13.6-11-24.7-24.7-24.7h-109.3v-4.1h.1l.2-.2ZM34.5,272.1c-7.8-.4-14.1-6.9-14.1-14.9s6.3-14.5,14.1-14.9v29.8h0ZM34.5,200.4c-7.8-.4-14.1-6.9-14.1-14.9s6.3-14.5,14.1-14.9v29.8h0ZM92.6,22.1l13,12.3c1.9,1.9,5.1,1.9,7.1,0l18.1-17.2,18.1,17.2c1.9,1.9,5.1,1.9,7.1,0l18.1-17.2,18.1,17.2c1.9,1.9,5.1,1.9,7.1,0l18.1-17.2,18.1,17.2c1.9,1.9,5.1,1.9,7.1,0l13-12.3v103.7H92.6V22.1h0ZM303.2,174.5v287.5c0,22.9-9.1,32.6-30.4,32.6H75.2c-21.3,0-30.4-9.8-30.4-32.6V123.1c0-22.9,9.1-32.6,30.4-32.6h7.1v35.5h-11.3c-2.8,0-5.1,2.3-5.1,5.1s2.3,5.1,5.1,5.1h205.9c2.8,0,5.1-2.3,5.1-5.1s-2.3-5.1-5.1-5.1h-11.3v-35.5h7.1c21.3,0,30.4,9.8,30.4,32.6v51.4h.1ZM326.1,433.1h-12.6v-253.6h12.6v253.6ZM355.8,205.6v210.7c0,9.2-7.6,16.8-16.8,16.8h-2.6v-253.6h2.6c9.2,0,16.8,7.6,16.8,16.8v9.2h0ZM489.6,396.7c0,8-6.4,14.4-14.4,14.4h-109.3v-37.1h123.7v22.6h0ZM489.6,363.8h-123.7v-29.3h123.7v29.3ZM475.4,210.7c8,0,14.4,6.4,14.4,14.4v99h-123.7v-113.4h109.3Z"/>
  <path class="st0" d="M145.5,72.9h60.8c2.8,0,5.1-2.3,5.1-5.1s-2.3-5.1-5.1-5.1h-60.8c-2.8,0-5.1,2.3-5.1,5.1s2.3,5.1,5.1,5.1Z"/>
  <path class="st0" d="M225.1,89h-98.7c-2.8,0-5.1,2.3-5.1,5.1s2.3,5.1,5.1,5.1h98.7c2.8,0,5.1-2.3,5.1-5.1s-2.3-5.1-5.1-5.1h0Z"/>
</svg>