<?xml version="1.0" encoding="UTF-8"?>
<svg id="Layer_1" xmlns="http://www.w3.org/2000/svg" version="1.1" viewBox="0 0 490 500">
  <!-- Generator: Adobe Illustrator 30.5.1, SVG Export Plug-In . SVG Version: 2.1.4 Build 3)  -->
  <path d="M248.8,155.3H79.1c-12.9,0-23.3,10.5-23.3,23.3v39.9c0,12.9,10.5,23.3,23.3,23.3h169.6c12.9,0,23.3-10.5,23.3-23.3v-39.9c0-12.9-10.5-23.3-23.3-23.3h0ZM261.8,218.6c0,7.2-5.8,13-13,13H79.1c-7.2,0-13-5.8-13-13v-39.9c0-7.2,5.8-13,13-13h169.6c7.2,0,13,5.8,13,13v39.9h0Z"/>
  <path d="M97.5,259.2h-16.7c-11.2,0-20.4,9.2-20.4,20.4s9.2,20.4,20.4,20.4h16.7c11.2,0,20.4-9.2,20.4-20.4s-9.2-20.4-20.4-20.4ZM97.5,289.7h-16.7c-5.6,0-10.1-4.5-10.1-10.1s4.5-10.1,10.1-10.1h16.7c5.6,0,10.1,4.5,10.1,10.1s-4.5,10.1-10.1,10.1Z"/>
  <path d="M155.6,300h16.7c11.2,0,20.4-9.2,20.4-20.4s-9.2-20.4-20.4-20.4h-16.7c-11.2,0-20.4,9.2-20.4,20.4s9.2,20.4,20.4,20.4ZM155.6,269.5h16.7c5.6,0,10.1,4.5,10.1,10.1s-4.5,10.1-10.1,10.1h-16.7c-5.6,0-10.1-4.5-10.1-10.1s4.5-10.1,10.1-10.1Z"/>
  <path d="M247.1,259.2h-16.7c-11.2,0-20.4,9.2-20.4,20.4s9.2,20.4,20.4,20.4h16.7c11.2,0,20.4-9.2,20.4-20.4s-9.2-20.4-20.4-20.4h0ZM247.1,289.7h-16.7c-5.6,0-10.1-4.5-10.1-10.1s4.5-10.1,10.1-10.1h16.7c5.6,0,10.1,4.5,10.1,10.1s-4.5,10.1-10.1,10.1h0Z"/>
  <path d="M97.5,314.2h-16.7c-11.2,0-20.4,9.2-20.4,20.4s9.2,20.4,20.4,20.4h16.7c11.2,0,20.4-9.2,20.4-20.4s-9.2-20.4-20.4-20.4ZM97.5,344.8h-16.7c-5.6,0-10.1-4.5-10.1-10.1s4.5-10.1,10.1-10.1h16.7c5.6,0,10.1,4.5,10.1,10.1s-4.5,10.1-10.1,10.1Z"/>
  <path d="M155.6,355h16.7c11.2,0,20.4-9.2,20.4-20.4s-9.2-20.4-20.4-20.4h-16.7c-11.2,0-20.4,9.2-20.4,20.4s9.2,20.4,20.4,20.4ZM155.6,324.5h16.7c5.6,0,10.1,4.5,10.1,10.1s-4.5,10.1-10.1,10.1h-16.7c-5.6,0-10.1-4.5-10.1-10.1s4.5-10.1,10.1-10.1Z"/>
  <path d="M247.1,314.2h-16.7c-11.2,0-20.4,9.2-20.4,20.4s9.2,20.4,20.4,20.4h16.7c11.2,0,20.4-9.2,20.4-20.4s-9.2-20.4-20.4-20.4h0ZM247.1,344.8h-16.7c-5.6,0-10.1-4.5-10.1-10.1s4.5-10.1,10.1-10.1h16.7c5.6,0,10.1,4.5,10.1,10.1s-4.5,10.1-10.1,10.1h0Z"/>
  <path d="M97.5,369.3h-16.7c-11.2,0-20.4,9.2-20.4,20.4s9.2,20.4,20.4,20.4h16.7c11.2,0,20.4-9.2,20.4-20.4s-9.2-20.4-20.4-20.4ZM97.5,399.8h-16.7c-5.6,0-10.1-4.5-10.1-10.1s4.5-10.1,10.1-10.1h16.7c5.6,0,10.1,4.5,10.1,10.1s-4.5,10.1-10.1,10.1Z"/>
  <path d="M155.6,410.1h16.7c11.2,0,20.4-9.2,20.4-20.4s-9.2-20.4-20.4-20.4h-16.7c-11.2,0-20.4,9.2-20.4,20.4s9.2,20.4,20.4,20.4ZM155.6,379.6h16.7c5.6,0,10.1,4.5,10.1,10.1s-4.5,10.1-10.1,10.1h-16.7c-5.6,0-10.1-4.5-10.1-10.1s4.5-10.1,10.1-10.1Z"/>
  <path d="M188.9,424.4h-49.9c-11.2,0-20.4,9.2-20.4,20.4s9.2,20.4,20.4,20.4h49.9c11.2,0,20.4-9.2,20.4-20.4s-9.2-20.4-20.4-20.4ZM188.9,454.9h-49.9c-5.6,0-10.1-4.5-10.1-10.1s4.5-10.1,10.1-10.1h49.9c5.6,0,10.1,4.5,10.1,10.1s-4.5,10.1-10.1,10.1Z"/>
  <path d="M247.1,369.3h-16.7c-11.2,0-20.4,9.2-20.4,20.4s9.2,20.4,20.4,20.4h16.7c11.2,0,20.4-9.2,20.4-20.4s-9.2-20.4-20.4-20.4h0ZM247.1,399.8h-16.7c-5.6,0-10.1-4.5-10.1-10.1s4.5-10.1,10.1-10.1h16.7c5.6,0,10.1,4.5,10.1,10.1s-4.5,10.1-10.1,10.1h0Z"/>
  <path d="M356,191.4c0-14.9-12.2-27.1-27.1-27.1h-25.4v-46.2c0-28.5-13.7-42.9-40.8-42.9h-7V5.1c0-2.1-1.2-3.9-3.1-4.7-1.9-.8-4.1-.4-5.6,1l-18.1,17.2L210.8,1.4c-2-1.9-5.1-1.9-7.1,0l-18.1,17.2L167.5,1.4c-2-1.9-5.1-1.9-7.1,0l-18.1,17.2L124.2,1.4c-2-1.9-5.1-1.9-7.1,0l-18.1,17.2L80.9,1.4c-1.5-1.4-3.7-1.8-5.6-1-1.9.8-3.1,2.7-3.1,4.7v70h-7c-27.1,0-40.8,14.4-40.8,42.9v37.3c-13.5.4-24.4,11.5-24.4,25.2s10.9,24.7,24.4,25.2v21.3c-13.5.4-24.4,11.5-24.4,25.2s10.9,24.7,24.4,25.2v179.7c0,28.5,13.7,42.9,40.8,42.9h197.5c27.1,0,40.8-14.4,40.8-42.9v-18.6h25.4c13.2,0,24.2-9.5,26.6-22h109.8c13.6,0,24.7-11.1,24.7-24.7v-171.6c0-13.6-11.1-24.7-24.7-24.7h-109.3v-4.1h0ZM24.4,267.1c-7.9-.4-14.1-7-14.1-14.9s6.3-14.5,14.1-14.9v29.8ZM24.4,195.5c-7.9-.4-14.1-7-14.1-14.9s6.3-14.5,14.1-14.9v29.8ZM82.5,17.1l13,12.3c2,1.9,5.1,1.9,7.1,0l18.1-17.2,18.1,17.2c2,1.9,5.1,1.9,7.1,0l18.1-17.2,18.1,17.2c2,1.9,5.1,1.9,7.1,0l18.1-17.2,18.1,17.2c2,1.9,5.1,1.9,7.1,0l13-12.3v103.8H82.5V17.1ZM293.2,169.5v287.6c0,22.9-9.1,32.6-30.5,32.6H65.2c-21.4,0-30.5-9.8-30.5-32.6V118.1c0-22.9,9.1-32.6,30.5-32.6h7v35.4h-11.3c-2.8,0-5.1,2.3-5.1,5.1s2.3,5.1,5.1,5.1h206c2.8,0,5.1-2.3,5.1-5.1s-2.3-5.1-5.1-5.1h-11.3v-35.4h7c21.4,0,30.5,9.8,30.5,32.6v51.4ZM316.1,428.2h-12.6v-253.6h12.6v253.6ZM345.7,200.6v210.8c0,9.3-7.5,16.8-16.8,16.8h-2.5v-253.6h2.5c9.3,0,16.8,7.5,16.8,16.8v9.2ZM479.8,391.8c0,8-6.5,14.5-14.5,14.5h-109.3v-37.1h123.8v22.7ZM479.8,358.9h-123.8v-29.3h123.8v29.3ZM465.3,205.8c8,0,14.5,6.5,14.5,14.5v99h-123.8v-113.5h109.3Z"/>
  <path d="M135.4,67.8h60.8c2.8,0,5.1-2.3,5.1-5.1s-2.3-5.1-5.1-5.1h-60.8c-2.8,0-5.1,2.3-5.1,5.1s2.3,5.1,5.1,5.1Z"/>
  <path d="M215.1,84.1h-98.7c-2.8,0-5.1,2.3-5.1,5.1s2.3,5.1,5.1,5.1h98.7c2.8,0,5.1-2.3,5.1-5.1s-2.3-5.1-5.1-5.1h0Z"/>
</svg>