<?xml version="1.0" encoding="UTF-8"?>
<svg id="Capa_1" xmlns="http://www.w3.org/2000/svg" version="1.1" viewBox="0 0 510 510">
  <!-- Generator: Adobe Illustrator 30.5.1, SVG Export Plug-In . SVG Version: 2.1.4 Build 3)  -->
  <path d="M174.5,240.8c-3.8-1.6-8.1.2-9.7,4h0l-18.8,45-18.8-45c-1.6-3.8-5.9-5.6-9.7-4-1.8.8-3.3,2.2-4,4l-18.8,45-18.8-45c-1.6-3.8-5.9-5.6-9.7-4s-5.6,5.9-4,9.7h0l25.6,61.5c1.6,3.8,5.9,5.6,9.7,4,1.8-.8,3.2-2.2,4-4l18.8-45,18.8,45c1.6,3.8,5.9,5.6,9.7,4,1.8-.8,3.3-2.2,4-4l25.6-61.5c1.6-3.8-.2-8.1-4-9.7h.1Z"/>
  <path d="M309.1,240.8c-3.8-1.6-8.1.2-9.7,4h0l-18.8,45-18.8-45c-1.6-3.8-5.9-5.6-9.7-4-1.8.8-3.3,2.2-4,4l-18.8,45-18.8-45c-1.6-3.8-5.9-5.6-9.7-4s-5.6,5.9-4,9.7h0l25.6,61.5c1.6,3.8,5.9,5.6,9.7,4,1.8-.8,3.3-2.2,4-4l18.8-45,18.8,45c1.6,3.8,5.9,5.6,9.7,4,1.8-.8,3.3-2.2,4-4l25.6-61.5c1.6-3.8-.2-8.1-4-9.7h0Z"/>
  <path d="M443.7,240.8c-3.8-1.6-8.1.2-9.7,4h0l-18.8,45-18.8-45c-1.6-3.8-5.9-5.6-9.7-4-1.8.8-3.3,2.2-4,4l-18.8,45-18.8-45c-1.6-3.8-5.9-5.6-9.7-4-3.8,1.6-5.6,5.9-4,9.7l25.6,61.5c1.6,3.8,5.9,5.6,9.7,4,1.8-.8,3.3-2.2,4-4l18.7-45,18.8,45c1.6,3.8,5.9,5.6,9.7,4,1.8-.8,3.2-2.2,4-4l25.6-61.5c1.6-3.8-.2-8.1-4-9.7h.2Z"/>
  <path d="M505,124.8h0v-58.5c0-23.6-19.1-42.7-42.7-42.8H47.7c-23.6.1-42.7,19.3-42.7,42.9v58.3h0v271.9c0,23.6,19.1,42.7,42.7,42.8h28.1c-1.2,2.8-.6,6,1.6,8.2l36.8,36.8c2.9,2.9,7.6,2.9,10.5,0h0l34.6-34.6,14.7,14.7c2.9,2.9,7.6,2.9,10.5,0,.8-.8,1.5-1.8,1.8-3l7.1-22h268.9c23.6,0,42.7-19.2,42.7-42.8V124.9h0ZM47.7,38.5h414.5c15.4,0,27.9,12.5,27.9,27.9v51H19.9v-51c0-15.4,12.5-27.9,27.9-27.9h0ZM175.8,445.3l-11.3-11.3c-2.9-2.9-7.6-2.9-10.5,0h0l-34.6,34.6-26.3-26.3,34.6-34.6c2.9-2.9,2.9-7.6,0-10.5h0l-11.3-11.4,87.6-28.1-28.1,87.6h0ZM462.3,424.4H198.1l24.4-76c1.3-3.9-.9-8.1-4.8-9.3-1.5-.5-3.1-.5-4.5,0l-112.9,36.3c-3.9,1.3-6,5.5-4.8,9.4.4,1.1,1,2.1,1.8,3l14.7,14.7-22.1,22.1h-42.2c-15.4,0-27.9-12.5-27.9-27.9V132.2h470.3v264.4c0,15.4-12.5,27.9-27.9,27.9h.1Z"/>
  <path d="M66.3,102c13.3,0,24.1-10.8,24.1-24.1s-10.8-24.1-24.1-24.1-24.1,10.8-24.1,24.1h0c0,13.3,10.8,24.1,24.1,24.1ZM66.3,68.7c5.1,0,9.2,4.1,9.2,9.2s-4.1,9.2-9.2,9.2-9.2-4.1-9.2-9.2h0c0-5.1,4.1-9.2,9.2-9.2Z"/>
  <path d="M133.2,102c13.3,0,24.1-10.8,24.1-24.1s-10.8-24.1-24.1-24.1-24.1,10.8-24.1,24.1h0c0,13.3,10.8,24.1,24.1,24.1ZM133.2,68.7c5.1,0,9.2,4.1,9.2,9.2s-4.1,9.2-9.2,9.2-9.2-4.1-9.2-9.2h0c0-5.1,4.1-9.2,9.2-9.2Z"/>
  <path d="M200,102c13.3,0,24.1-10.8,24.1-24.1s-10.8-24.1-24.1-24.1-24.1,10.8-24.1,24.1h0c0,13.3,10.8,24.1,24.1,24.1ZM200,68.7c5.1,0,9.2,4.1,9.2,9.2s-4.1,9.2-9.2,9.2-9.2-4.1-9.2-9.2h0c0-5.1,4.1-9.2,9.2-9.2Z"/>
</svg>