<?xml version="1.0" encoding="UTF-8"?>
<svg id="Capa_1" xmlns="http://www.w3.org/2000/svg" version="1.1" viewBox="0 0 499.4 500">
  <!-- Generator: Adobe Illustrator 30.5.1, SVG Export Plug-In . SVG Version: 2.1.4 Build 3)  -->
  <defs>
    <style>
      .st0 {
        fill: #fff;
      }
    </style>
  </defs>
  <path class="st0" d="M425.7,72.7C378.7,25.8,316.2,0,249.7,0S120.8,25.8,73.5,72.6C26.2,119.4,0,181.7,0,247.7h0c0,40,10.5,80.4,30.5,117.2L.7,500l136.7-31.1c34.7,17.5,73.2,26.7,112.2,26.7h0c66.3,0,128.9-25.8,176.2-72.6,47.4-46.9,73.5-109.1,73.5-175.1s-26.2-127.8-73.8-175.3h0ZM249.7,456.5h0c-35,0-69.6-8.8-100.3-25.4l-6.4-3.5-90.9,20.7,19.7-89.7-3.8-6.5c-18.9-32.6-28.9-68.7-28.9-104.2,0-115,94.6-208.8,210.7-208.8s108.8,21.8,148.4,61.2c40.2,40,62.3,92.5,62.3,147.7,0,115-94.6,208.7-210.7,208.7h0Z"/>
  <path class="st0" d="M181.8,138.6h-10.9c-3.8,0-10,1.5-15.2,7.1-5.3,5.7-20,19.4-20,47.5s20.5,55.1,23.3,58.9,39.6,63.1,97.6,85.9c48.2,18.9,58.1,15.2,68.6,14.3,10.4-1,33.8-13.8,38.6-27.1s4.8-24.7,3.3-27.1c-1.5-2.3-5.3-3.8-10.9-6.6-5.8-2.8-33.7-16.9-39-18.8-5.3-1.9-9.1-2.8-12.9,2.8-3.8,5.7-15,18.8-18.4,22.7-3.3,3.8-6.6,4.3-12.4,1.5-5.8-2.8-23.9-9-45.7-28.4-17-15.1-28.8-34.4-32.1-40-3.3-5.7-.4-8.8,2.5-11.6,2.5-2.5,6.1-6.1,8.9-9.4,2.8-3.3,3.7-5.7,5.6-9.5s1-7.1-.5-10-12.4-31.1-17.5-42.3h0c-4.3-9.5-8.8-9.8-12.9-10h0Z"/>
</svg>