<?xml version="1.0" encoding="UTF-8"?>
<svg id="Capa_1" xmlns="http://www.w3.org/2000/svg" version="1.1" viewBox="0 0 499.5 500">
  <!-- Generator: Adobe Illustrator 30.5.1, SVG Export Plug-In . SVG Version: 2.1.4 Build 3)  -->
  <path d="M425.7,72.6C378.7,25.8,316.2,0,249.7,0,183.4,0,120.8,25.8,73.5,72.5,26.2,119.4,0,181.7,0,247.7h0c0,40.1,10.5,80.4,30.4,117.1L.7,500l136.7-31.1c34.6,17.5,73.3,26.7,112.2,26.7h0c66.3,0,128.9-25.8,176.2-72.6,47.4-46.9,73.5-109.1,73.6-175.1,0-65.6-26.2-127.8-73.8-175.3ZM249.7,456.5h0c-35,0-69.7-8.8-100.3-25.4l-6.5-3.5-90.9,20.7,19.7-89.8-3.8-6.6c-18.9-32.6-28.9-68.7-28.9-104.2,0-115,94.6-208.7,210.7-208.7,56.1,0,108.8,21.8,148.4,61.2,40.2,40.1,62.3,92.5,62.3,147.6,0,115.1-94.6,208.7-210.7,208.7Z"/>
  <path d="M181.8,138.5h-10.9c-3.8,0-10,1.4-15.2,7.1-5.2,5.7-20,19.5-20,47.5s20.5,55.1,23.3,58.9c2.9,3.8,39.5,63.1,97.6,85.9,48.3,19,58.1,15.2,68.6,14.2,10.5-.9,33.8-13.8,38.6-27.1s4.8-24.7,3.3-27.1c-1.4-2.4-5.2-3.8-11-6.6-5.7-2.8-33.7-16.9-39-18.8-5.2-1.9-9-2.8-12.9,2.9-3.8,5.7-15,18.9-18.4,22.7-3.3,3.8-6.7,4.3-12.4,1.4-5.7-2.9-23.9-9-45.7-28.4-17-15.1-28.8-34.3-32.1-40-3.3-5.7-.4-8.8,2.5-11.6,2.6-2.5,6-6,8.9-9.4,2.9-3.3,3.7-5.7,5.6-9.5,1.9-3.8.9-7.1-.5-10-1.4-2.8-12.4-31-17.5-42.3h0c-4.3-9.5-8.8-9.8-12.9-10Z"/>
</svg>